<svg xmlns="http://www.w3.org/2000/svg" viewBox="0 0 6.77 6.67"><defs><style>.cls-1{fill:#f96f12;}</style></defs><title>Business-services</title><g id="Layer_2" data-name="Layer 2"><g id="Layer_1-2" data-name="Layer 1"><path class="cls-1" d="M5,6.27l-.07,0h0l-.31.29-.1,0-.22-.13h0l-.17-.14h0L4,6.15l.17-.4,0,0h0l-.44,0,0-.1a1.48,1.48,0,0,1-.08-.46h0V5L4,4.85s0,0,0-.06H4l-.31-.33,0-.1a1.79,1.79,0,0,1,.13-.22h0A1,1,0,0,1,4,4H4L4.1,3.9l.42.18,0,0h0l0-.45.1,0a1.85,1.85,0,0,1,.46-.08h.11l.17.43h0L5.8,3.6l.1,0,.21.13h0l.17.14h0L6.36,4l-.18.42,0,0h0l.45,0,0,.1a1.5,1.5,0,0,1,.08.47h0v.1l-.41.16s0,0,0,.06h0l.3.33-.05.09A2.39,2.39,0,0,1,6.47,6h0l-.14.18h0l-.08.08-.4-.18,0,0h0l0,.43-.1,0a1.5,1.5,0,0,1-.47.08h-.1L5,6.27Zm-.06-.34a.58.58,0,0,0,.19,0h.09l.14.37.17,0h0l0-.39.08,0,.16-.1h0l.07-.06.36.16,0-.07h0l0-.07h0L6,5.45l0-.08a1.16,1.16,0,0,0,0-.18h0v-.1L6.46,5l0-.17h0L6,4.76l0-.08-.1-.15h0l-.06-.07L6,4.08,5.93,4h0L5.85,4h0l-.3.28-.09,0-.17,0H5.2L5,3.8l-.16,0h0v.42l-.09,0-.15.1h0l-.07.06-.38-.17,0,.05h0l-.06.09h0l.28.3,0,.09a1.16,1.16,0,0,0,0,.18h0v.09l-.38.14,0,.17h0l.4,0,0,.08a.7.7,0,0,0,.1.16h0l0,.07-.15.36,0,0h0l.09,0h0L4.8,5.9l.09,0Zm1.33.14.06-.14-.06.14Z"/><path class="cls-1" d="M2.32,4.59h0a2.4,2.4,0,0,1-.46,0h0l-.11,0L1.66,4h0l-.39.36-.1,0L1,4.17H1A1.56,1.56,0,0,1,.77,4h0L.69,3.94l.21-.5h0l-.52.13-.06-.1A3,3,0,0,1,.12,3h0l0-.11.43-.32h0L0,2.44V2.3H0a2.59,2.59,0,0,1,.05-.47h0l0-.11L.6,1.66h0L.24,1.27l0-.1L.42,1h0A1.56,1.56,0,0,1,.58.77h0L.65.69l.5.21h0L1,.38,1.12.32a3,3,0,0,1,.45-.2h0l.11,0L2,.51H2L2.15,0H2.3a2.4,2.4,0,0,1,.46.05h0l.11,0L2.93.6h0L3.32.24l.1,0,.2.13h0a1.56,1.56,0,0,1,.2.16h0L3.9.65l-.21.5h0L4.21,1l.06.1a3,3,0,0,1,.2.45h0l0,.11L4.08,2h0l.51.15V2.3h0a2.4,2.4,0,0,1,0,.46h0l0,.11L4,2.93H4l.36.39,0,.1-.13.2h0a1.56,1.56,0,0,1-.16.2H4l-.07.08-.5-.21h0l.13.52-.1.06a3,3,0,0,1-.45.2H3l-.11,0-.32-.43h0l-.15.51Zm-.11-.31.14-.49h.11l.16,0h0l.1,0,.3.4.19-.08h0L3.1,3.57l.08-.06.13-.11h0l.08-.07.46.2.07-.09h0A.56.56,0,0,0,4,3.36H4L3.62,3l0-.1.06-.16h0l0-.09.5-.06a1.49,1.49,0,0,0,0-.21h0L3.8,2.24v-.1l0-.17h0l0-.1.4-.3a1.08,1.08,0,0,0-.08-.19h0l-.49.11-.06-.08L3.4,1.28h0L3.33,1.2l.2-.46L3.45.67h0L3.36.62h0L3,1l-.1,0L2.74.86h0l-.09,0L2.59.33l-.21,0h0L2.24.79h-.1L2,.83H2l-.1,0-.3-.4L1.38.53h0L1.5,1l-.09.06-.13.11h0l-.08.07-.46-.2a.27.27,0,0,1-.07.08h0l-.05.09h0L1,1.59l0,.09-.06.17h0l0,.09L.33,2a1.49,1.49,0,0,0,0,.21h0l.49.14v.1a.88.88,0,0,0,0,.17h0l0,.1L.45,3a1.08,1.08,0,0,0,.08.19h0L1,3.09l.06.09.11.13h0l.07.07-.2.47.09.07h0L1.23,4h0l.36-.35.1,0,.16.06h0l.09,0,.06.5.21,0Zm1.68-.56L4,3.58l-.07.14Z"/><path class="cls-1" d="M1.49,2.29a.8.8,0,0,1,.81-.8h0a.8.8,0,0,1,.8.8h0a.8.8,0,0,1-.8.81h0a.81.81,0,0,1-.81-.81Zm.31,0a.5.5,0,0,0,.5.5h0a.49.49,0,0,0,.49-.5h0A.49.49,0,0,0,2.3,1.8h0a.49.49,0,0,0-.5.49Z"/></g></g></svg>