<svg xmlns="http://www.w3.org/2000/svg" viewBox="0 0 6.16 4.73"><defs><style>.cls-1{fill:#f96f12;}</style></defs><title>car</title><g id="Layer_2" data-name="Layer 2"><g id="Layer_1-2" data-name="Layer 1"><path class="cls-1" d="M6,1.72H5.61L5.08,0h-4L.56,1.72H0V4.18H.47v.55H1.73V4.18h2.7v.55H5.69V4.18h.47V1.72ZM1.28.26h3.6l.45,1.46H.83ZM5.9,3.91H5.43v.55H4.7V3.91H1.47v.55H.74V3.91H.26V2H5.9ZM1.1,2.19a.53.53,0,0,0,0,1.05.53.53,0,1,0,0-1.05ZM1.1,3a.27.27,0,1,1,.27-.27A.27.27,0,0,1,1.1,3Zm4-.79a.53.53,0,1,0,.53.52A.52.52,0,0,0,5.06,2.19Zm0,.79a.27.27,0,0,1,0-.53.27.27,0,1,1,0,.53Zm-2.7.53H3.81V3.24H2.36Z"/></g></g></svg>