<svg xmlns="http://www.w3.org/2000/svg" viewBox="0 0 8.18 5.06"><defs><style>.cls-1{fill:#ff6363;}</style></defs><title>Computer-communication</title><g id="Layer_2" data-name="Layer 2"><g id="Layer_1-2" data-name="Layer 1"><path class="cls-1" d="M2.27,4.57H5.91V4.29H2.27Zm5-.52V0H.89V4.05L0,5.06H8.18ZM1.17.29H7V3.62H1.17Zm0,3.87V3.91H7v.25l0,0,.5.58H.63ZM2,2.2Zm1.19-1,.93.05.39.47.22-.19L4.28,1,3.12.91,1.84,2,2,2.2Zm3,.72.16-.23h0L5.26,1,4.17,2.8l-1-.88-1.33.8L2,3l1.15-.7,1.09,1L5.35,1.37ZM5,2.27l1.17.88.17-.23L5.17,2Z"/></g></g></svg>