<svg xmlns="http://www.w3.org/2000/svg" viewBox="0 0 4.46 6.5"><defs><style>.cls-1{fill:#f96f12;}</style></defs><title>Cultural-education</title><g id="Layer_2" data-name="Layer 2"><g id="Layer_1-2" data-name="Layer 1"><path class="cls-1" d="M2.85,2.8H2.61v0l-.18-.18-.15-.14a1.26,1.26,0,1,0-.1,0L2,2.65l-.15.15H1.6A1.61,1.61,0,0,0,0,4.41V6.5H4.46V4.41A1.61,1.61,0,0,0,2.85,2.8ZM1.26,1.25a1,1,0,1,1,1,1A1,1,0,0,1,1.26,1.25Zm1,1.6.31.32-.24.24.24,1.77-.31.32-.31-.32.24-1.77-.24-.24ZM4.17,6.21H3.58V4.33H3.29V6.21H1.14V4.33H.86V6.21H.29V4.41a1.31,1.31,0,0,1,1.3-1.32l-.08.08.21.2.14.14L1.64,5.15l0,.14.1.1L2,5.7l.2.2.2-.2.31-.31.1-.1,0-.14L2.6,3.51l.14-.14.2-.2-.08-.08A1.31,1.31,0,0,1,4.17,4.41Z"/></g></g></svg>