<svg xmlns="http://www.w3.org/2000/svg" viewBox="0 0 6.05 8.2"><defs><style>.cls-1{fill:#f96f12;}</style></defs><title>Entertainment</title><g id="Layer_2" data-name="Layer 2"><g id="Layer_1-2" data-name="Layer 1"><path class="cls-1" d="M1.21,8.2a.94.94,0,0,1-.92-.83h0L0,4.36V4.27H0a.78.78,0,0,1,.79-.78H4.43A.79.79,0,0,1,5,3.72H5a.76.76,0,0,1,.21.44h0a1.13,1.13,0,0,1,.85,1.09h0A1.13,1.13,0,0,1,5,6.38H5l-.09,1A.94.94,0,0,1,4,8.2H1.21ZM4,7.89a.62.62,0,0,0,.61-.55h0l.12-1.27h.18a.83.83,0,0,0,.82-.83h0A.82.82,0,0,0,5,4.44H5l0-.16h0l0,.16-.13,0V4.28h0a.47.47,0,0,0-.48-.47H.79a.46.46,0,0,0-.48.47h0v.05h0l.29,3a.62.62,0,0,0,.61.55H4Z"/><path class="cls-1" d="M1.18,2.72a.77.77,0,0,1-.33-.58h0a1.1,1.1,0,0,1,.27-.6h0a2,2,0,0,0,.29-.49h0a.6.6,0,0,0-.07-.2h0c0-.07-.12-.16-.19-.29h0A.15.15,0,0,1,1.2.35h0A.15.15,0,0,1,1.41.4h0L1.6.7h0a.7.7,0,0,1,.11.37h0v0a1.79,1.79,0,0,1-.34.61h0a.77.77,0,0,0-.21.42h0c0,.09,0,.19.22.35h0a.16.16,0,0,1,0,.21h0a.16.16,0,0,1-.12.06h0a.13.13,0,0,1-.1,0Z"/><path class="cls-1" d="M2.39,3.16a.77.77,0,0,1-.33-.58h0A1.18,1.18,0,0,1,2.33,2h0a1.58,1.58,0,0,0,.29-.49h0a.6.6,0,0,0-.07-.2h0L2.36,1h0A.16.16,0,0,1,2.41.79h0a.15.15,0,0,1,.21,0h0l.2.3h0a.62.62,0,0,1,.1.37h0v0a1.79,1.79,0,0,1-.34.61h0a.85.85,0,0,0-.21.42h0c0,.09,0,.19.22.35h0a.15.15,0,0,1,0,.21h0a.14.14,0,0,1-.12.06h0a.14.14,0,0,1-.1,0Z"/><path class="cls-1" d="M3.6,2.4a.78.78,0,0,1-.33-.58h0a1.11,1.11,0,0,1,.27-.6h0A1.5,1.5,0,0,0,3.83.73h0a.37.37,0,0,0-.07-.2h0c0-.08-.11-.17-.19-.3h0A.16.16,0,0,1,3.62,0h0a.16.16,0,0,1,.22.06h0L4,.37H4a.7.7,0,0,1,.11.37h0v0a1.69,1.69,0,0,1-.34.62h0a.81.81,0,0,0-.21.42h0c0,.08,0,.19.22.34h0a.15.15,0,0,1,0,.22h0a.17.17,0,0,1-.12.05h0a.19.19,0,0,1-.1,0Z"/></g></g></svg>