<svg xmlns="http://www.w3.org/2000/svg" viewBox="0 0 6.15 6.77"><defs><style>.cls-1{fill:#ff6363;}</style></defs><title>Financial-law</title><g id="Layer_2" data-name="Layer 2"><g id="Layer_1-2" data-name="Layer 1"><path class="cls-1" d="M2.11.44,2.24.35v0L2.11.44,2,.22,4.23,0,3.29,2.08,2.11.44Zm1.12,1,.5-1.1L2.52.48l.71,1Z"/><polygon class="cls-1" points="0.43 2.53 2.57 0.99 2.75 1.25 0.61 2.78 0.43 2.53 0.43 2.53"/><path class="cls-1" d="M0,6.77V4.17H1.74v2.6Zm1.59-.16v0ZM.31,6.46H1.43v-2H.31v2Z"/><path class="cls-1" d="M2.2,6.77V3.2H3.94V6.77Zm1.59-.16v0ZM2.51,6.46H3.64V3.51H2.51v3Z"/><path class="cls-1" d="M4.41,6.77V1.26H6.15V6.77ZM6,6.61v0ZM4.71,6.46H5.84V1.57H4.71V6.46Z"/></g></g></svg>