<svg xmlns="http://www.w3.org/2000/svg" viewBox="0 0 8.8 6.35"><defs><style>.cls-1{fill:#f96f12;}</style></defs><title>Other</title><g id="Layer_2" data-name="Layer 2"><g id="Layer_1-2" data-name="Layer 1"><path class="cls-1" d="M3.18,1.22A1.22,1.22,0,0,1,4.4,0h0A1.22,1.22,0,0,1,5.62,1.22h0A1.22,1.22,0,0,1,4.4,2.44h0A1.22,1.22,0,0,1,3.18,1.22Zm.31,0a.91.91,0,0,0,.91.91h0a.91.91,0,0,0,.91-.91h0A.91.91,0,0,0,4.4.31h0a.91.91,0,0,0-.91.91Z"/><path class="cls-1" d="M0,5.14A1.22,1.22,0,0,1,1.22,3.92h0A1.22,1.22,0,0,1,2.44,5.14h0A1.22,1.22,0,0,1,1.22,6.35h0A1.22,1.22,0,0,1,0,5.14Zm.31,0a.92.92,0,0,0,.91.91h0a.92.92,0,0,0,.91-.91h0a.92.92,0,0,0-.91-.92h0a.92.92,0,0,0-.91.92Z"/><path class="cls-1" d="M3.18,5.14A1.22,1.22,0,0,1,4.4,3.92h0A1.22,1.22,0,0,1,5.62,5.14h0A1.22,1.22,0,0,1,4.4,6.35h0A1.22,1.22,0,0,1,3.18,5.14Zm.31,0a.92.92,0,0,0,.91.91h0a.92.92,0,0,0,.91-.91h0a.92.92,0,0,0-.91-.92h0a.92.92,0,0,0-.91.92Z"/><path class="cls-1" d="M6.36,5.14A1.22,1.22,0,0,1,7.58,3.92h0A1.22,1.22,0,0,1,8.8,5.14h0A1.22,1.22,0,0,1,7.58,6.35h0A1.22,1.22,0,0,1,6.36,5.14Zm.31,0a.92.92,0,0,0,.91.91h0a.92.92,0,0,0,.91-.91h0a.92.92,0,0,0-.91-.92h0a.92.92,0,0,0-.91.92Z"/><polygon class="cls-1" points="4.95 2.17 5.19 1.98 7.06 4.22 6.83 4.42 4.95 2.17 4.95 2.17"/><polygon class="cls-1" points="1.76 4.2 3.65 1.94 3.88 2.13 1.99 4.39 1.76 4.2 1.76 4.2"/><polygon class="cls-1" points="4.25 4.06 4.25 2.26 4.55 2.26 4.55 4.06 4.25 4.06 4.25 4.06"/></g></g></svg>