<svg xmlns="http://www.w3.org/2000/svg" viewBox="0 0 4.73 6.78"><defs><style>.cls-1{fill:#ff6363;}</style></defs><title>Real estate-investment</title><g id="Layer_2" data-name="Layer 2"><g id="Layer_1-2" data-name="Layer 1"><path class="cls-1" d="M1.44,5.19a.41.41,0,0,1-.29-.31h0a2.35,2.35,0,0,0-.07-.41h0a5.84,5.84,0,0,0-.55-.75h0A2.49,2.49,0,0,1,0,2.24H0A2.32,2.32,0,0,1,2.34,0h.05V.27H2.34A2.16,2.16,0,0,0,.89.85h0A1.92,1.92,0,0,0,.27,2.24h0A2.22,2.22,0,0,0,.75,3.56h0a4,4,0,0,1,.59.84h0a3.13,3.13,0,0,1,.08.42h0c0,.08,0,.07.1.11h0A4.6,4.6,0,0,0,2.37,5h0a4.55,4.55,0,0,0,.84-.06h0c.1,0,.08,0,.11-.11h0a1.86,1.86,0,0,1,.07-.42h0A4.08,4.08,0,0,1,4,3.56H4a2.21,2.21,0,0,0,.47-1.32h0A1.92,1.92,0,0,0,3.84.85h0A2.12,2.12,0,0,0,2.39.27h0V0A2.32,2.32,0,0,1,4.73,2.24h0a2.55,2.55,0,0,1-.52,1.48h0a5.31,5.31,0,0,0-.56.75h0a3.92,3.92,0,0,0-.07.41h0a.39.39,0,0,1-.28.31h0a4.37,4.37,0,0,1-.93.07h0a4.25,4.25,0,0,1-.93-.07Z"/><polygon class="cls-1" points="1.37 5.76 1.37 5.49 3.36 5.49 3.36 5.76 1.37 5.76 1.37 5.76"/><polygon class="cls-1" points="1.37 6.27 1.37 6 3.36 6 3.36 6.27 1.37 6.27 1.37 6.27"/><polygon class="cls-1" points="1.37 6.78 1.37 6.51 3.36 6.51 3.36 6.78 1.37 6.78 1.37 6.78"/></g></g></svg>