<svg xmlns="http://www.w3.org/2000/svg" viewBox="0 0 6.6 6.49"><defs><style>.cls-1{fill:#f96f12;}</style></defs><title>Studying-immigrant</title><g id="Layer_2" data-name="Layer 2"><g id="Layer_1-2" data-name="Layer 1"><path class="cls-1" d="M.79,1.32h3V1H.79Zm0,.8h3V1.83H.79Zm0,.81h3v-.3H.79ZM6.6,4.7V1.12l0-.05L5.39,0H0V4.7H3.82a1,1,0,0,0,.28.56L3.41,6.49H4.79v-.9h.29v.91H6.46L5.73,5.18a1.16,1.16,0,0,0,.21-.48ZM5.49.5,6.07,1H5.49Zm-1,5.69H3.92l.42-.74a.69.69,0,0,0,.15.07Zm.39-.89a.78.78,0,0,1,0-1.56.78.78,0,0,1,0,1.56ZM6,6.19H5.38V5.47l.12-.08ZM4.88,3.44a1.08,1.08,0,0,0-1.07,1H.3V.3H5.19v1H6.3V4.4H6A1.08,1.08,0,0,0,4.88,3.44Z"/></g></g></svg>