<svg xmlns="http://www.w3.org/2000/svg" viewBox="0 0 92.974 91.974"><defs><style>.a{fill:#272727;}.b{fill:#e44a52;}</style></defs><g transform="translate(46.487 45.987)"><g transform="translate(-46.487 -45.987)"><g transform="translate(21.362 12.875)"><g transform="translate(0.92 6.313)"><path class="a" d="M57.931,43.914h-34.7L40.584,15.322Zm-30.242-2.5H53.475L40.582,20.163Z" transform="translate(-16.303 -15.322)"/><path class="a" d="M59.345,43.237H33.025v-2.5H57.111L59.148,23.6l-11.5,8.784L46.121,30.4,62.348,18Z" transform="translate(-13.787 -14.646)"/><path class="a" d="M47.041,43.237H20.722l-3-25.23L34.282,30.639l-1.53,1.988L20.918,23.6l2.039,17.133H47.041Z" transform="translate(-17.721 -14.645)"/></g><rect class="a" width="2.514" height="2.492" transform="translate(23.942)"/><rect class="a" width="2.514" height="2.492" transform="translate(47.885 2.491)"/><rect class="a" width="2.514" height="2.492" transform="translate(0 2.491)"/></g><path class="a" d="M19.775,54.205a7.957,7.957,0,0,1-1.247-.1c-5.366-.853-8.624-6.978-8.761-7.239a1.249,1.249,0,0,1,.377-1.589c.238-.174,5.888-4.222,11.077-2.609,2.779.865,4.839,3.139,6.108,6.77a1.249,1.249,0,0,1-.308,1.307,10.486,10.486,0,0,1-7.247,3.458Zm-7.182-7.513c1.032,1.558,3.333,4.474,6.338,4.946a7.068,7.068,0,0,0,5.741-2.129,7.039,7.039,0,0,0-4.2-4.453c-2.911-.9-6.265.692-7.886,1.628Z" transform="translate(2.481 10.666)"/><path class="a" d="M10.033,42.211A7.862,7.862,0,0,1,7.6,41.828c-5.17-1.667-7.443-8.22-7.542-8.5a1.25,1.25,0,0,1,.615-1.513c.263-.134,6.465-3.267,11.349-.876,2.621,1.283,4.3,3.85,5,7.629a1.25,1.25,0,0,1-.5,1.245,11.314,11.314,0,0,1-6.487,2.4ZM2.886,33.584c.779,1.7,2.6,4.933,5.5,5.864a7.078,7.078,0,0,0,6-1.22,7.024,7.024,0,0,0-3.466-5.041C8.184,31.846,4.627,32.905,2.886,33.584Z" transform="translate(0.005 7.578)"/><path class="a" d="M10.087,29.249a8.272,8.272,0,0,1-4.965-1.53C.72,24.542.6,17.61.592,17.317a1.254,1.254,0,0,1,1.055-1.252c.293-.049,7.165-1.113,11.062,2.66,2.093,2.027,2.891,4.986,2.388,8.8a1.253,1.253,0,0,1-.867,1.028,13.877,13.877,0,0,1-4.143.7Zm3.764-1.892ZM3.194,18.428c.214,1.853.942,5.493,3.409,7.262a7.076,7.076,0,0,0,6.087.689,7.006,7.006,0,0,0-1.731-5.861C8.773,18.407,5.062,18.314,3.194,18.428Z" transform="translate(0.158 4.009)"/><path class="a" d="M12.437,15.089a9.3,9.3,0,0,1-7.417-2.95c-3.55-4.1-2.067-10.876-2-11.163A1.265,1.265,0,0,1,4.334,0c.294.021,7.233.567,10.15,5.134,1.568,2.454,1.662,5.518.282,9.1a1.257,1.257,0,0,1-1.082.8C13.257,15.073,12.841,15.089,12.437,15.089Zm1.155-1.295ZM5.3,2.65C5.073,4.5,4.94,8.211,6.93,10.506a7.077,7.077,0,0,0,5.764,2.071,7,7,0,0,0-.326-6.1c-1.644-2.562-5.234-3.5-7.075-3.822Z" transform="translate(0.689 0.002)"/><g transform="translate(63.095 0.001)"><path class="a" d="M57.819,54.205a10.486,10.486,0,0,1-7.252-3.458,1.249,1.249,0,0,1-.309-1.307c1.272-3.631,3.329-5.905,6.117-6.772,5.187-1.608,10.84,2.435,11.077,2.609a1.249,1.249,0,0,1,.377,1.589c-.136.26-3.394,6.386-8.761,7.239a7.957,7.957,0,0,1-1.25.1Zm-4.9-4.7a7.062,7.062,0,0,0,5.75,2.129c3.017-.478,5.3-3.388,6.332-4.943-1.618-.938-4.977-2.536-7.887-1.628a7.039,7.039,0,0,0-4.191,4.443Z" transform="translate(-50.188 10.665)"/><path class="a" d="M67.408,42.211a11.31,11.31,0,0,1-6.49-2.4,1.25,1.25,0,0,1-.5-1.245c.7-3.779,2.376-6.346,5-7.629,4.877-2.389,11.087.744,11.349.877a1.25,1.25,0,0,1,.615,1.513c-.093.278-2.366,6.832-7.542,8.5A7.88,7.88,0,0,1,67.408,42.211Zm-4.356-3.983a7.079,7.079,0,0,0,6,1.22c2.891-.929,4.718-4.163,5.5-5.861-1.747-.677-5.314-1.738-8.045-.4A7.028,7.028,0,0,0,63.053,38.228Z" transform="translate(-47.564 7.578)"/><path class="a" d="M66.864,29.249a13.877,13.877,0,0,1-4.142-.7,1.253,1.253,0,0,1-.867-1.028c-.512-3.809.29-6.762,2.388-8.8,3.9-3.773,10.772-2.71,11.062-2.66a1.254,1.254,0,0,1,1.055,1.252c0,.293-.126,7.225-4.525,10.4A8.272,8.272,0,0,1,66.864,29.249Zm-2.6-2.864a7.075,7.075,0,0,0,6.094-.694c2.473-1.786,3.194-5.412,3.4-7.262-1.864-.108-5.593-.018-7.773,2.1a7.012,7.012,0,0,0-1.727,5.858Z" transform="translate(-47.227 4.009)"/><path class="a" d="M64.192,15.089q-.606,0-1.246-.046a1.257,1.257,0,0,1-1.082-.8c-1.383-3.587-1.286-6.651.282-9.1C65.06.569,72,.024,72.293,0A1.285,1.285,0,0,1,73.61.973c.065.285,1.547,7.06-2,11.163a9.306,9.306,0,0,1-7.422,2.953Zm-.251-2.5A7.093,7.093,0,0,0,69.7,10.511c1.987-2.294,1.854-6,1.634-7.853-1.847.326-5.446,1.271-7.075,3.83a7,7,0,0,0-.322,6.094Z" transform="translate(-47.435 0.001)"/></g><g transform="translate(8.347 72.276)"><path class="b" d="M44.938,77.416a1.269,1.269,0,0,1-.586-.144L39.31,74.632l-5.042,2.641a1.256,1.256,0,0,1-1.824-1.32l.964-5.593L29.328,66.4a1.251,1.251,0,0,1,.7-2.136l5.637-.816,2.522-5.087a1.311,1.311,0,0,1,2.254,0l2.522,5.087,5.637.816a1.251,1.251,0,0,1,.7,2.136l-4.079,3.961.963,5.593a1.254,1.254,0,0,1-1.238,1.464ZM39.31,71.97a1.261,1.261,0,0,1,.586.144l3.373,1.767-.644-3.741a1.249,1.249,0,0,1,.361-1.108l2.729-2.65-3.771-.546A1.257,1.257,0,0,1,41,65.15l-1.687-3.4-1.686,3.4a1.257,1.257,0,0,1-.947.685l-3.771.546,2.729,2.65A1.249,1.249,0,0,1,36,70.134l-.645,3.741,3.373-1.767A1.261,1.261,0,0,1,39.31,71.97Z" transform="translate(-0.9 -57.719)"/><path class="b" d="M30.743,76.524a1.261,1.261,0,0,1-.585-.144L26.3,74.362,22.452,76.38a1.256,1.256,0,0,1-1.824-1.32l.737-4.274-3.118-3.02a1.251,1.251,0,0,1,.7-2.136L23.252,65l1.926-3.882a1.311,1.311,0,0,1,2.254,0l1.927,3.888.709.1-.361,2.478-1.365-.208A1.257,1.257,0,0,1,27.4,66.7L26.3,64.5l-1.091,2.2a1.257,1.257,0,0,1-.947.685l-2.44.353,1.766,1.715a1.249,1.249,0,0,1,.361,1.108l-.417,2.422,2.182-1.143a1.262,1.262,0,0,1,1.17,0l2.185,1.143-.417-2.422a1.249,1.249,0,0,1,.361-1.108l1.853-1.8,1.76,1.794-1.383,1.337.737,4.274a1.254,1.254,0,0,1-1.238,1.464Z" transform="translate(-3.749 -57.022)"/><path class="b" d="M55.578,76.537a1.261,1.261,0,0,1-.586-.144l-3.857-2.017-3.852,2.018a1.256,1.256,0,0,1-1.824-1.32l.735-4.274-1.588-1.54,1.76-1.794,2.06,2a1.249,1.249,0,0,1,.361,1.108L48.369,73l2.182-1.143a1.261,1.261,0,0,1,1.172,0L53.906,73l-.416-2.422a1.249,1.249,0,0,1,.361-1.108l1.766-1.715L53.175,67.4a1.257,1.257,0,0,1-.947-.685l-1.094-2.2-1.092,2.2a1.257,1.257,0,0,1-.945.685l-1.7.25-.363-2.478,1.043-.152,1.927-3.889a1.258,1.258,0,0,1,1.131-.7h0a1.258,1.258,0,0,1,1.131.7L54.2,65.012l4.309.626a1.251,1.251,0,0,1,.7,2.136L56.085,70.8l.735,4.274a1.254,1.254,0,0,1-1.238,1.464Z" transform="translate(3.126 -57.035)"/><path class="b" d="M66.922,76.525a1.261,1.261,0,0,1-.586-.144l-3.854-2.017L58.63,76.383a1.256,1.256,0,0,1-1.824-1.32l.735-4.274L56.41,69.78l1.76-1.794,1.6,1.47a1.249,1.249,0,0,1,.361,1.108l-.416,2.422L61.9,71.842a1.261,1.261,0,0,1,1.172,0l2.184,1.143-.417-2.422a1.249,1.249,0,0,1,.361-1.108l1.766-1.715-2.44-.353a1.257,1.257,0,0,1-.947-.685l-1.092-2.2-1.091,2.2a1.257,1.257,0,0,1-.945.685l-1.7.25-.363-2.478,1.045-.152,1.926-3.888a1.311,1.311,0,0,1,2.254,0l1.927,3.888,4.308.626a1.251,1.251,0,0,1,.7,2.136L67.426,70.8l.737,4.274a1.254,1.254,0,0,1-1.238,1.464Z" transform="translate(6.16 -57.023)"/><path class="b" d="M19.512,76.524a1.261,1.261,0,0,1-.585-.144l-3.854-2.018L11.222,76.38A1.256,1.256,0,0,1,9.4,75.061l.737-4.274-3.119-3.02a1.251,1.251,0,0,1,.7-2.136L12.021,65l1.926-3.882a1.311,1.311,0,0,1,2.254,0l1.927,3.889,1.045.152-.363,2.478-1.7-.25a1.257,1.257,0,0,1-.945-.685l-1.092-2.2-1.091,2.2a1.257,1.257,0,0,1-.947.685l-2.44.353,1.766,1.715a1.249,1.249,0,0,1,.361,1.108l-.417,2.422,2.182-1.143a1.261,1.261,0,0,1,1.17,0l2.185,1.143-.417-2.422a1.249,1.249,0,0,1,.361-1.108l1.5-1.441,1.76,1.794-1.026.98.737,4.274a1.254,1.254,0,0,1-1.238,1.464Z" transform="translate(-6.636 -57.022)"/></g></g></g></svg>