<svg xmlns="http://www.w3.org/2000/svg" viewBox="0 0 154.446 92.333"><defs><style>.a{fill:#e44a52;}</style></defs><g transform="translate(77.223 46.167)"><g transform="translate(-77.223 -46.167)"><g transform="translate(40.168 31.203)"><path class="a" d="M56.389,72.185A2.084,2.084,0,0,1,54.9,71.56L19.868,35.578a2.084,2.084,0,0,1-.021-2.884l16.1-17.042A2.084,2.084,0,0,1,37.451,15H75.325a2.084,2.084,0,0,1,1.513.654L92.934,32.7a2.084,2.084,0,0,1-.021,2.884L57.883,71.556A2.084,2.084,0,0,1,56.389,72.185ZM24.248,34.1,56.389,67.115,88.533,34.1,74.427,19.167H38.354Z" transform="translate(-19.278 -14.949)"/><path class="a" d="M89.982,27.346H21.815a2.084,2.084,0,0,1,0-4.167H89.982a2.084,2.084,0,0,1,0,4.167Z" transform="translate(-18.787 -6.086)"/><path class="a" d="M48.01,72.158a2.084,2.084,0,0,1-1.961-1.384L27.115,17.757a2.084,2.084,0,0,1,3.923-1.4L49.97,69.375a2.084,2.084,0,0,1-1.261,2.661,2.05,2.05,0,0,1-.7.123Z" transform="translate(-10.898 -14.922)"/><path class="a" d="M38.172,72.211a2.053,2.053,0,0,1-.7-.123,2.084,2.084,0,0,1-1.26-2.661L55.147,16.41a2.084,2.084,0,1,1,3.923,1.4L40.132,70.828A2.084,2.084,0,0,1,38.172,72.211Z" transform="translate(-1.06 -14.975)"/><path class="a" d="M31.809,36.209a2.084,2.084,0,0,1-1.642-3.363L43.421,15.8a2.084,2.084,0,0,1,3.288,2.561L33.455,35.406A2.084,2.084,0,0,1,31.809,36.209Z" transform="translate(-7.954 -14.948)"/><path class="a" d="M51.431,36.21a2.084,2.084,0,0,1-1.646-.8L36.529,18.364A2.084,2.084,0,1,1,39.817,15.8L53.073,32.845a2.084,2.084,0,0,1-1.642,3.363Z" transform="translate(-1.061 -14.949)"/></g><g transform="translate(103.587 48.497)"><path class="a" d="M72.318,67.085h0a2.084,2.084,0,0,1-1.506-.654L49.715,44.4l3.011-2.882L72.328,62,95.6,38.094,85.568,27.467H64.894V23.3H86.466a2.084,2.084,0,0,1,1.515.652l12.025,12.733a2.084,2.084,0,0,1-.021,2.884L73.812,66.447A2.084,2.084,0,0,1,72.318,67.085Z" transform="translate(-49.715 -23.249)"/><rect class="a" width="42.602" height="4.167" transform="translate(5.467 12.784)"/><path class="a" d="M0,0H4.167V34.75H0Z" transform="matrix(0.941, -0.337, 0.337, 0.941, 8.92, 9.741)"/><path class="a" d="M61.646,67.112a2.056,2.056,0,0,1-.7-.123,2.084,2.084,0,0,1-1.261-2.661L73.833,24.71a2.084,2.084,0,1,1,3.923,1.4L63.6,65.726A2.084,2.084,0,0,1,61.646,67.112Z" transform="translate(-39.043 -23.275)"/><path class="a" d="M56.888,40.2a2.084,2.084,0,0,1-1.642-3.357l9.905-12.733a2.084,2.084,0,1,1,3.288,2.561l-9.9,12.725A2.084,2.084,0,0,1,56.888,40.2Z" transform="translate(-44.192 -23.245)"/><path class="a" d="M71.551,40.2a2.084,2.084,0,0,1-1.646-.8L60,26.664A2.084,2.084,0,1,1,63.29,24.1l9.9,12.741a2.084,2.084,0,0,1-1.642,3.363Z" transform="translate(-39.045 -23.25)"/></g><g transform="translate(0 48.497)"><path class="a" d="M28.26,67.085a2.084,2.084,0,0,1-1.494-.625L.59,39.569a2.084,2.084,0,0,1-.021-2.884L12.6,23.952A2.084,2.084,0,0,1,14.11,23.3H35.68v4.167H15L4.972,38.094,28.248,62l19.6-20.478L50.859,44.4,29.765,66.431a2.084,2.084,0,0,1-1.5.644Z" transform="translate(0 -23.249)"/><rect class="a" width="42.599" height="4.167" transform="translate(2.792 12.784)"/><path class="a" d="M0,0H34.75V4.167H0Z" transform="matrix(0.337, -0.942, 0.942, 0.337, 26.302, 41.053)"/><path class="a" d="M22.014,67.112a2.084,2.084,0,0,1-1.961-1.384L5.9,26.11a2.084,2.084,0,1,1,3.923-1.4L23.967,64.328a2.084,2.084,0,0,1-1.261,2.661,2.057,2.057,0,0,1-.692.123Z" transform="translate(6.246 -23.275)"/><path class="a" d="M24.551,40.2a2.084,2.084,0,0,1-1.646-.8L13,26.664A2.084,2.084,0,1,1,16.29,24.1l9.9,12.741a2.084,2.084,0,0,1-1.642,3.363Z" transform="translate(13.613 -23.249)"/><path class="a" d="M9.888,40.2A2.084,2.084,0,0,1,8.246,36.84l9.905-12.733a2.084,2.084,0,0,1,3.288,2.561l-9.9,12.725A2.084,2.084,0,0,1,9.888,40.2Z" transform="translate(8.465 -23.245)"/></g><path class="a" d="M38.084,18.753A2.084,2.084,0,0,1,36,16.669V2.084a2.084,2.084,0,0,1,4.167,0V16.669A2.084,2.084,0,0,1,38.084,18.753Z" transform="translate(39.01)"/><path class="a" d="M31.4,19.531a2.083,2.083,0,0,1-1.473-.61L19.61,8.607A2.083,2.083,0,1,1,22.557,5.66L32.871,15.974A2.084,2.084,0,0,1,31.4,19.531Z" transform="translate(20.589 5.472)"/><path class="a" d="M50.083,19.531a2.084,2.084,0,0,1-1.473-3.557L58.924,5.66a2.083,2.083,0,1,1,2.946,2.946L51.557,18.921A2.084,2.084,0,0,1,50.083,19.531Z" transform="translate(52.014 5.472)"/></g></g></svg>