<svg xmlns="http://www.w3.org/2000/svg" viewBox="0 0 1554.667 419.333"><defs><style>.a{fill:#17c0a9;}.b{fill:#ff6363;}</style></defs><g transform="translate(65 -375.333)"><path class="a" d="M-21.333,737.333c4,12,93.333,44,213.333,38.667s408-28,502.667-93.333S805.333,594.667,924,604s269.333-9.333,336-41.333,158.667-45.333,158.667-45.333l64,321.333L-72,910.667Z" transform="translate(7 -116)"/><path class="b" d="M-21.333,737.333c4,12,93.333,44,213.333,38.667s408-28,502.667-93.333S805.333,594.667,924,604s269.333-9.333,336-41.333,158.667-45.333,158.667-45.333l64,321.333L-72,910.667Z" transform="translate(7 -142)"/></g></svg>