<svg xmlns="http://www.w3.org/2000/svg" viewBox="0 0 1418 411.5"><defs><style>.a{fill:#17c0a9;}.b{fill:#ff6363;}</style></defs><g transform="translate(0 -375.5)"><path class="a" d="M-7,736.5c4,12,79,44.833,199,39.5s408-28,502.667-93.333S805.333,594.667,924,604s269.333-9.333,336-41.333S1411,518,1411,518V839L-7,903Z" transform="translate(7 -116)"/><path class="b" d="M-7,736.5c4,12,79,44.833,199,39.5s408-28,502.667-93.333S805.333,594.667,924,604s269.333-9.333,336-41.333S1411,517.5,1411,517.5v329L-7,910Z" transform="translate(7 -142)"/></g></svg>