<svg xmlns="http://www.w3.org/2000/svg" viewBox="0 0 21 22.55"><defs><style>.cls-1{fill:#f05a24;}</style></defs><title>ABN-CHECKED</title><g id="Layer_2" data-name="Layer 2"><g id="Layer_1-2" data-name="Layer 1"><path id="svg_4" data-name="svg 4" class="cls-1" d="M19.46,1a48.9,48.9,0,0,0-9-1,48.9,48.9,0,0,0-9,1L0,2.85v5.7c0,9.87,9.57,14,9.57,14h1.86S21,18.42,21,8.55V2.85ZM16.52,7.27,9.34,14.44a.93.93,0,0,1-.67.28A1,1,0,0,1,8,14.44L4.72,11.17A1,1,0,0,1,6.07,9.82l2.6,2.61,6.51-6.51a1,1,0,1,1,1.34,1.35Z"/></g></g></svg>