<?xml version="1.0" encoding="utf-8"?>
<!-- Generator: Adobe Illustrator 21.1.0, SVG Export Plug-In . SVG Version: 6.00 Build 0)  -->
<svg version="1.1" id="Layer_1" xmlns="http://www.w3.org/2000/svg" xmlns:xlink="http://www.w3.org/1999/xlink" x="0px" y="0px"
	 viewBox="0 0 126.1 126" style="enable-background:new 0 0 126.1 126;" xml:space="preserve">
<style type="text/css">
	.st0{fill:none;stroke:#F15A29;stroke-miterlimit:10;}
	.st1{fill-rule:evenodd;clip-rule:evenodd;}
</style>
<g>
	<g>
		<path class="st0" d="M125.6,63c0,34.5-28,62.5-62.5,62.5c-34.5,0-62.5-28-62.5-62.5S28.5,0.5,63,0.5C97.6,0.5,125.6,28.5,125.6,63
			"/>
	</g>
</g>
<g>
	<path class="st1" d="M102.3,47.3c0-1.9-0.6-3.6-1.5-5.2c-1.5-2.5-3.7-4.1-6.6-4.5c-2.5-0.4-5-0.4-7.5-0.3
		c-5.9,0.1-11.8,0.2-17.6,0.3c-5.9,0-11.9,0-17.8,0c-2.6,0-5.3-0.1-7.9-0.1c-2.2,0-4.5-0.1-6.7-0.1c-1.5,0-3,0.2-4.5,0.4
		c-4.9,0.8-8.2,4.7-8.2,9.7c0,10.5,0,21,0.1,31.5c0,0.7,0.1,1.5,0.2,2.1c1.2,4.7,4.5,7.4,9.3,7.8c2.8,0.2,5.5,0.1,8.3,0
		c7.1-0.1,14.1,0,21.2,0c7.5,0,14.9,0,22.4,0c2.4,0,4.9,0,7.3-0.1c2.3-0.1,4.5-0.7,6.2-2.2c2.3-2,3.5-4.6,3.5-7.7
		C102.3,68.3,102.3,57.8,102.3,47.3z M97.5,74.2c0,0.4-0.1,0.8-0.1,1.3c-0.4-0.1-0.6-0.1-0.8-0.3c-5.1-3.8-10.3-7.6-15.4-11.4
		c-0.3-0.2-0.5-0.4-0.7-0.6c1.4-1.5,14.5-11.4,16.6-12.6c0.1,0.5,0.2,0.9,0.2,1.3c0.1,1.4,0.1,2.9,0.1,4.3
		C97.5,62.3,97.5,68.3,97.5,74.2z M28.9,45.1c0.6-1.1,1.5-1.8,2.6-2.3c0.6-0.2,1.3-0.3,1.9-0.4c2.9-0.4,5.8-0.3,8.7-0.2
		c3.4,0.1,7,0.2,10.4,0.2c3.8,0,7,0,11.6,0c0,0,0,0,0,0c6.9,0,14.3,0,21.5,0c1.6,0,3.1-0.1,4.7-0.1c0.9,0,1.8,0,2.7,0.1
		c2,0.2,3.7,1.8,4.2,3.7c0.2,0.6,0,1.1-0.4,1.4c-0.6,0.5-1.2,1.1-1.8,1.5c-5.9,4.4-11.8,8.7-17.7,13.1c-3.6,2.7-7.2,5.4-10.8,8.1
		c-0.3,0.2-0.5,0.4-0.8,0.6c-1.6,1-3.3,1.2-5.1,0.3c-0.9-0.5-1.8-1.1-2.7-1.7C51.3,64.2,44.5,59.1,37.6,54c-2.3-1.7-4.6-3.4-6.9-5
		c-0.5-0.4-1-0.7-1.4-1.1C28.4,47,28.3,46.2,28.9,45.1z M28.6,52.8c0-0.7,0-1.4,0.1-2.2c0.3,0.1,0.5,0,0.7,0.1
		c4.8,3.2,14.9,10.9,16.3,12.4C44.1,64.6,30.5,74.6,29,75.4c-0.6-0.3-0.4-0.9-0.4-1.4C28.6,66.9,28.6,59.9,28.6,52.8z M97.2,80.8
		c-0.7,1.5-1.9,2.6-3.6,2.9c-1,0.2-2,0.2-2.9,0.2c-17,0-34,0-51.1,0c-1.5,0-3,0.1-4.6,0.1c-0.7,0-1.3,0-2-0.1
		c-2.1-0.2-3.4-1.5-4.2-3.4c-0.3-0.8-0.2-1.4,0.4-2c0.4-0.4,0.9-0.8,1.4-1.1c3.3-2,6.2-4.5,9.2-6.8c2.1-1.6,4.2-3.1,6.4-4.7
		c0.5-0.4,1.1-0.7,1.8-1.1c0.6,0.4,1.3,0.8,1.8,1.2c2.1,1.6,4.1,3.1,6.1,4.7c0.9,0.7,1.8,1.4,2.7,2c2.9,1.8,5.9,1.8,8.7-0.1
		c0.9-0.6,1.7-1.2,2.5-1.9c2.5-1.9,5-3.8,7.6-5.8c0.2-0.1,0.3-0.2,0.6-0.3c0.4,0.3,0.9,0.5,1.3,0.8c5.5,4,10.9,8.1,16.4,12.1
		c0.3,0.2,0.5,0.4,0.8,0.6C97.6,79.1,97.8,79.7,97.2,80.8z"/>
</g>
</svg>
