<?xml version="1.0" encoding="utf-8"?>
<!-- Generator: Adobe Illustrator 21.1.0, SVG Export Plug-In . SVG Version: 6.00 Build 0)  -->
<svg version="1.1" id="Layer_1" xmlns="http://www.w3.org/2000/svg" xmlns:xlink="http://www.w3.org/1999/xlink" x="0px" y="0px"
	 viewBox="0 0 126.1 126" style="enable-background:new 0 0 126.1 126;" xml:space="preserve">
<style type="text/css">
	.st0{fill:none;stroke:#FFFFFF;stroke-miterlimit:10;}
	.st1{fill:#FFFFFF;}
</style>
<g>
	<g>
		<path class="st0" d="M125.6,63c0,34.5-28,62.5-62.5,62.5c-34.5,0-62.5-28-62.5-62.5S28.5,0.5,63,0.5C97.6,0.5,125.6,28.5,125.6,63
			"/>
	</g>
</g>
<g>
	<path class="st1" d="M87.5,28.8c0,3.8,0,7.6,0,11.5c-0.3,0-0.6,0-0.8,0c-1.9,0-3.8,0-5.7,0c-0.8,0-1.5,0.1-2.3,0.2
		c-1.6,0.3-2.4,1.2-2.4,2.8c-0.1,2.7,0,5.4,0,8.2c3.4,0,6.8,0,10.4,0c-0.1,1.4-0.3,2.8-0.4,4.2c-0.2,2.3-0.5,4.5-0.7,6.8
		c-0.1,0.6-0.3,0.7-0.8,0.7c-2.5,0-5.1,0-7.6,0c-0.3,0-0.6,0-0.9,0c0,11.5,0,22.9,0,34.3c-5.2,0-10.3,0-15.6,0c0-11.4,0-22.8,0-34.3
		c-1.7,0-3.3,0-4.9,0c-1.1,0-1.1,0-1.1-1.1c0-3.2,0-6.3,0-9.5c0-0.3,0-0.6,0-0.9c2,0,4,0,6,0c0-0.4,0-0.7,0-1c0.1-3.1,0-6.2,0.2-9.3
		c0.2-2.8,1-5.6,2.8-7.8c1.9-2.3,4.4-3.6,7.3-4.1c1.7-0.3,3.5-0.5,5.3-0.5c3.6-0.1,7.1,0,10.7,0C87,28.7,87.3,28.7,87.5,28.8z"/>
</g>
</svg>
