<?xml version="1.0" encoding="utf-8"?>
<!-- Generator: Adobe Illustrator 21.1.0, SVG Export Plug-In . SVG Version: 6.00 Build 0)  -->
<svg version="1.1" id="Layer_1" xmlns="http://www.w3.org/2000/svg" xmlns:xlink="http://www.w3.org/1999/xlink" x="0px" y="0px"
	 viewBox="0 0 126.1 126" style="enable-background:new 0 0 126.1 126;" xml:space="preserve">
<style type="text/css">
	.st0{fill:none;stroke:#FFFFFF;stroke-miterlimit:10;}
	.st1{fill:#FFFFFF;}
</style>
<g>
	<g>
		<path class="st0" d="M125.6,63c0,34.5-28,62.5-62.5,62.5c-34.5,0-62.5-28-62.5-62.5S28.5,0.5,63,0.5C97.6,0.5,125.6,28.5,125.6,63
			"/>
	</g>
</g>
<g>
	<path class="st1" d="M40.5,75.5c-2-0.8-4-1.5-5.9-2.3c-2.1-0.9-2.5-2.4-2.4-4.6c0-0.7,0.5-1.1,1.1-1.3c2.7-1.2,5.4-2.5,8.1-3.7
		c0.3-0.1,0.5-0.3,0.9-0.5c-2.4-0.5-4.5-1.5-6.3-2.9c-3.6-3-5.2-6.9-5-11.6c0.5-9.1,6.3-15.7,15.2-17.4c3-0.6,6.1-0.3,9.2,0.1
		c2.1,0.2,4.3,0.3,6.4,0.4c2.5,0.1,5,0,7.4,0c0.1,0,0.3,0,0.4,0c0.1,1-0.1,1.3-1,1.5c-2.5,0.4-4.9,0.8-7.5,1.2
		c0.2,0.2,0.2,0.4,0.4,0.5c2.9,3.4,3.9,7.4,3.6,11.8c-0.5,9.2-6.9,14.7-15.1,16.3c-3.3,0.6-6.4,1.7-9.4,3.2
		c-0.6,0.3-1.2,0.7-1.7,1.1c-1,0.9-1,1.9,0.3,2.4c1.6,0.7,3.3,1.2,5.1,1.5c4.6,0.9,9.3,1.5,13.9,2.4c1.8,0.4,3.6,1,5.4,1.7
		c5.3,2.2,6.6,6.7,5.1,11.6c-1.1,3.5-3.6,6-6.8,7.8c-3.9,2.3-8.3,3.3-12.8,3.7c-4.2,0.4-8.5,0.2-12.6-0.9c-1.8-0.5-3.6-1.2-5.3-2.1
		c-4.9-2.8-5.8-9.1-1-12.8c2.8-2.2,5.9-4.1,8.9-6.1C39.6,76,40.1,75.8,40.5,75.5z M38.7,47c0,4.6,0.6,7.3,2,9.8
		c2,3.6,5.4,5.2,9.2,4.4c3.1-0.7,5-2.9,6.2-5.7c1.6-3.7,1.7-7.5,1.5-11.4c-0.2-2.1-0.6-4.2-1.5-6.1c-1.2-2.7-3-4.7-6.1-5.2
		c-3.9-0.6-6.8,1.1-8.8,4.3C39.2,40.3,38.7,44.1,38.7,47z M48.5,96.6c0.9-0.1,2.7-0.3,4.3-0.7c3.1-0.8,5.9-2.3,7.8-5
		c2.1-3.1,2.3-8-2.3-10.6c-0.8-0.4-1.6-0.8-2.4-1.1c-3.7-1.4-7.6-2-11.5-2.7c-0.9-0.2-1.9-0.2-2.7,0.3c-2.2,1.5-4.2,3.3-5.5,5.6
		c-3,5.1-1.1,10.7,4.4,12.9C42.9,96.2,45.3,96.5,48.5,96.6z"/>
	<path class="st1" d="M93.2,29.6c0,4.6,0,9.2,0,13.9c4.6,0,9.2,0,13.8,0c0,1.6,0,3,0,4.6c-4.6,0-9.2,0-13.8,0c0,4.7,0,9.3,0,14
		c-1.6,0-3.1,0-4.7,0c0-4.6,0-9.2,0-13.9c-4.7,0-9.2,0-13.9,0c0-1.6,0-3.1,0-4.7c4.6,0,9.2,0,13.8,0c0-4.7,0-9.3,0-13.9
		C90,29.6,91.5,29.6,93.2,29.6z"/>
</g>
</svg>
