<svg xmlns="http://www.w3.org/2000/svg" viewBox="0 0 32.75 21.46"><defs><style>.cls-1{fill:#fff;}</style></defs><title>laptop-icon</title><g id="Layer_2" data-name="Layer 2"><g id="Layer_1-2" data-name="Layer 1"><path class="cls-1" d="M30.38,18c.62,0,1.08,0,1.53,0,.81.06,1,.43.7,1.19-.76,1.79-1.43,2.24-3.36,2.24-8.57,0-17.14,0-25.71,0A3.24,3.24,0,0,1,.15,19.24C-.18,18.42,0,18.05.88,18c.45,0,.91,0,1.49,0V16.77c0-4.55,0-9.09,0-13.64C2.37.94,3.28,0,5.45,0H27.34c2.1,0,3,.94,3,3.07V18ZM5,16.74H27.68v-14H5C5,3,5,3.15,5,3.34,5,7.78,5,12.23,5,16.74ZM21.9,18.43l-.16-.35H10.85a1.84,1.84,0,0,0,1.75,1c2.51,0,5,0,7.54,0A5.89,5.89,0,0,0,21.9,18.43Z"/><path class="cls-1" d="M21.9,9.86a5.53,5.53,0,1,1-5.4-5.65A5.5,5.5,0,0,1,21.9,9.86Zm-7.43.93a2,2,0,0,0,1.14,1.7c.64.44,1.07.83,1.63,0,.31-.49,1-.93,1-1.4s-.51-1-.9-1.47-.81-.33-1.08-.62-.08-.61-.11-.93c.27.06.72,0,.79.21.34.79.86.41,1.34.38l.21-.26L16.52,6.19c-.27.29-.57.56-.82.87s-1,.91-1,1.39.51,1,.9,1.45.81.33,1.09.61.1.62.13.94c-.31,0-.87,0-.91-.14C15.63,10.46,15,10.76,14.47,10.79Z"/></g></g></svg>