<?xml version="1.0" encoding="utf-8"?>
<!-- Generator: Adobe Illustrator 21.1.0, SVG Export Plug-In . SVG Version: 6.00 Build 0)  -->
<svg version="1.1" id="Layer_1" xmlns="http://www.w3.org/2000/svg" xmlns:xlink="http://www.w3.org/1999/xlink" x="0px" y="0px"
	 viewBox="0 0 125.1 125" style="enable-background:new 0 0 125.1 125;" xml:space="preserve">
<style type="text/css">
	.st0{fill:#F15A29;}
	.st1{fill:#FFFFFF;}
</style>
<g>
	<g>
		<path class="st0" d="M125.1,62.5c0,34.5-28,62.5-62.5,62.5C28,125,0,97.1,0,62.5S28,0,62.5,0C97.1,0,125.1,28,125.1,62.5"/>
	</g>
</g>
<g>
	<path class="st1" d="M105.5,79.3c-1,1.5-2,2.9-2.8,4.4c-0.8,1.6-1.7,1.5-3.1,0.8c-1.5-0.8-1.7-1.7-0.7-3.1c0.7-1.1,1.4-2.2,1.9-3.3
		c0.8-1.8,1.9-2.4,3.6-1c0.3,0.3,0.8,0.4,1.1,0.5C105.5,78.2,105.5,78.8,105.5,79.3z"/>
	<path class="st1" d="M61.4,55.2c4.1,2.1,8,4.1,11.8,6.1c8.2,4.2,16.3,8.5,24.5,12.7c1.7,0.9,2,1.6,1,3.3c-2.7,4.5-2.6,4.6-7,1.7
		c-10.7-6.8-21.3-13.6-32.2-20.6c-1.5,2.5-3,4.9-4.3,7.4c-0.9,1.9-1.9,2.1-3.6,1c-4.8-2.9-9.7-5.7-14.6-8.5c-1.4-0.8-1.7-1.5-0.8-3
		c3.7-6.2,7.3-12.5,10.8-18.7c0.9-1.6,1.7-1.7,3.2-0.8c4.9,2.9,9.8,5.8,14.8,8.6c1.6,0.9,1.7,1.8,0.8,3.2C64.4,50,63,52.5,61.4,55.2
		z"/>
	<path class="st1" d="M62.5,83.9c3.5,0.3,3.6,0.5,3.6,3.8c0,1.4,0,2.9,0,4.3c0,2.5-0.4,2.9-2.9,2.9c-11.4,0-22.7,0-34.1,0
		c-2.3,0-4.6-0.1-6.9,0c-1.9,0.1-2.8-0.6-2.7-2.6c0.1-1.4,0-2.9,0-4.3c0-3.7,0-3.7,3.5-4c0-0.8,0-1.7,0-2.5c0.1-1.4,0.7-2.1,2.1-2.1
		c11.7,0,23.5,0,35.2,0c1.4,0,2.1,0.7,2.1,2.1C62.5,82.2,62.5,83,62.5,83.9z M43,92.3c5.9,0,11.9,0,17.8,0c2,0,2.9-0.6,2.9-2.7
		c0-2-0.7-2.9-2.7-2.9c-12,0-24,0-36,0c-2.2,0-2.7,0.7-2.7,2.9c0,1.9,0.9,2.6,2.8,2.6C31,92.3,37,92.3,43,92.3z"/>
	<path class="st1" d="M53.7,70.2c-0.1,1.7-1.4,2.5-2.5,1.9c-6-3.4-12-6.9-18-10.3c-1-0.6-1.2-1.3-0.6-2.3c0.6-1,1.3-1.2,2.3-0.6
		c6,3.5,12,6.9,17.9,10.4C53.2,69.5,53.5,70,53.7,70.2z"/>
	<path class="st1" d="M49.9,30.2c0.8,0.4,1.3,0.6,1.8,0.9c5.6,3.2,11.1,6.4,16.7,9.6c1.1,0.6,2,1.2,1.1,2.6
		c-0.8,1.3-1.7,0.9-2.7,0.3c-5.7-3.3-11.5-6.6-17.2-10c-0.5-0.3-1-1.2-1-1.8C48.7,31.3,49.5,30.7,49.9,30.2z"/>
</g>
</svg>
