<?xml version="1.0" encoding="utf-8"?>
<!-- Generator: Adobe Illustrator 21.1.0, SVG Export Plug-In . SVG Version: 6.00 Build 0)  -->
<svg version="1.1" id="Layer_1" xmlns="http://www.w3.org/2000/svg" xmlns:xlink="http://www.w3.org/1999/xlink" x="0px" y="0px"
	 viewBox="0 0 125.1 125" style="enable-background:new 0 0 125.1 125;" xml:space="preserve">
<style type="text/css">
	.st0{fill:#F15A29;}
	.st1{fill:#FFFFFF;}
</style>
<g>
	<g>
		<path class="st0" d="M125.1,62.5c0,34.5-28,62.5-62.5,62.5C28,125,0,97.1,0,62.5S28,0,62.5,0C97.1,0,125.1,28,125.1,62.5"/>
	</g>
	<g>
		<g>
			<path class="st1" d="M56.2,27.4c2.5-0.2,2.8,1.3,3.2,2.7c2.4,9,4.8,18.1,7.3,27.1c1.9,7.2,3.8,14.3,5.7,21.5
				c0.7,2.8,0.4,3.4-2.4,4.1c-11,3-22,5.9-33,8.9c-3.1,0.8-3.7,0.5-4.5-2.5c-4.3-16.1-8.6-32.1-12.9-48.2c-0.9-3.2-0.6-3.8,2.7-4.6
				c10.8-2.9,21.7-5.8,32.5-8.7C55.4,27.5,56,27.4,56.2,27.4z M44.2,41.7c-6.4,0-11.6,5.2-11.7,11.6c0,6.4,5.1,11.7,11.5,11.7
				c6.5,0.1,11.8-5.2,11.8-11.7C55.9,46.9,50.6,41.7,44.2,41.7z M65.3,72.3c-1.5-0.7-2.4-1.5-3.1-1.3c-7.8,2-15.6,4.1-23.4,6.3
				c-0.7,0.2-1.1,1.4-1.6,2.1c0.8,0.4,1.8,1.2,2.4,1c7.7-2,15.5-4,23.2-6.2C63.5,74,64,73.2,65.3,72.3z"/>
			<path class="st1" d="M71.5,66.5c7.6,5.6,14.6,5.2,18.8-0.8c3.9-5.4,2.5-12.9-3-16.5c-6.6-4.3-12.6-2-18.4,7.4
				c-1.5-5.5-3.2-10.7-4.1-16c-0.4-2.1,0.8-4.6,1.7-6.7c0.3-0.6,2.4-0.9,3.5-0.6c7.7,1.9,15.3,4,23,6.1c3.3,0.9,6.7,1.8,10,2.7
				c3,0.8,3.4,1.4,2.5,4.5c-3.9,14.6-7.8,29.2-11.7,43.8c-0.5,1.8-0.9,3.6-1.4,5.4c-0.4,1.6-1.5,2.3-3,1.9
				c-10.4-2.8-20.9-5.6-31.3-8.4c-0.1,0-0.2-0.3-0.3-0.6c4-1.1,8-2.1,11.9-3.3c1.4-0.4,2.7-1.2,4.2-1.7c0.8-0.3,1.8-0.3,2.6-0.1
				c3.2,0.8,6.3,1.8,9.6,2.5c0.9,0.2,2-0.5,2.9-0.8c-0.7-0.8-1.2-2-2-2.3c-3.2-1.1-6.5-1.8-9.8-2.7c-1.4-0.4-2.3-0.9-2.6-2.6
				C73.7,74.1,72.6,70.5,71.5,66.5z"/>
		</g>
		<path class="st1" d="M70.9,55.3c1-1.5,1.9-2.9,3-4.6c1,0.9,1.7,1.5,2.4,2.1C74.7,56.9,74.7,56.9,70.9,55.3z"/>
		<path class="st1" d="M90.9,55.3c0.1,2,0.2,3.7,0.4,5.6c-4-0.7-4-0.7-3.5-4.8C88.6,55.9,89.5,55.6,90.9,55.3z"/>
		<path class="st1" d="M85.3,64.9c1.8-3.8,1.8-3.8,5.5-2.5c-0.9,1.4-1.8,2.8-2.9,4.5C87,66.2,86.2,65.6,85.3,64.9z"/>
		<path class="st1" d="M70.5,57c4.2,0.7,4.2,0.7,3.3,4.8c-0.8,0.2-1.7,0.4-3,0.6C70.7,60.5,70.6,58.8,70.5,57z"/>
		<path class="st1" d="M86.5,56c-0.2,1.4-0.3,2.4-0.4,3.9c-1.6-0.7-3-1.2-4.2-1.9c-0.1-0.1,0.2-1.5,0.4-1.5
			C83.6,56.1,84.9,56.1,86.5,56z"/>
		<path class="st1" d="M75.2,61.5c0.1-1.2,0.2-2.1,0.3-2.9c4.1-0.2,4.8,0.5,3.6,3.4C77.9,61.8,76.7,61.7,75.2,61.5z"/>
		<path class="st1" d="M84.3,64c-1.2-0.6-2.3-1.1-3.3-1.6c0-3,0.6-3.2,4.5-1.3c0,0.3,0,0.6-0.2,0.9C85.1,62.6,84.7,63.2,84.3,64z"/>
		<path class="st1" d="M77.5,53.5c1,1.5,4.3,0.8,3,3.5c-0.3,0.6-2.8,0.3-4.8,0.4C76.5,55.7,76.9,54.8,77.5,53.5z"/>
		<path class="st1" d="M75.2,62.9c1.6,0.1,2.5,0.2,3.8,0.2c-0.4,1.8-0.8,3.4-1.2,5c-0.2,0-0.4,0.1-0.5,0.1
			C76.6,66.6,76,65,75.2,62.9z"/>
		<path class="st1" d="M84.5,49.7c0.6,1.6,1.2,3.2,1.9,5.2c-1.5-0.1-2.4-0.2-3.7-0.3c0.4-1.8,0.8-3.3,1.2-4.8
			C84.1,49.8,84.3,49.7,84.5,49.7z"/>
		<path class="st1" d="M80.3,63.5c1.4,0.7,2.2,1.1,3.4,1.7c-1.5,1.3-2.8,2.4-4.1,3.5c-0.2-0.1-0.4-0.2-0.6-0.3
			C79.4,66.8,79.8,65.3,80.3,63.5z"/>
		<path class="st1" d="M82.7,49.5c-0.4,1.4-0.7,2.8-1.2,4.6c-1.2-0.5-2.1-0.9-3.5-1.4c1.6-1.4,2.8-2.4,4.1-3.5
			C82.3,49.3,82.5,49.4,82.7,49.5z"/>
		<path class="st1" d="M90.5,54.1c-1.4,0.3-2.1,0.4-2.9,0.6c-0.4-1.5-0.8-2.8-1.2-4.1c0.1-0.1,0.3-0.2,0.4-0.3
			C87.9,51.4,89,52.5,90.5,54.1z"/>
		<path class="st1" d="M75,49.9c1.9-0.6,3.5-1.1,5.7-1.8c-1.5,1.5-2.5,2.5-3.7,3.6C76.5,51.3,75.9,50.8,75,49.9z"/>
		<path class="st1" d="M84.8,66.1c0.4,0.4,0.9,0.8,1.8,1.7c-1.8,0.6-3.3,1.1-4.7,1.7c0-0.1-0.1-0.3-0.1-0.4
			C82.7,68.1,83.6,67.2,84.8,66.1z"/>
		<path class="st1" d="M74.8,67.6c-1.1-1.1-2.1-2.3-3.4-3.7c1.1-0.4,1.8-0.6,2.6-0.9c0.4,1.5,0.8,2.8,1.3,4.2
			C75.1,67.3,75,67.4,74.8,67.6z"/>
		<path class="st1" d="M33.8,55.5c0.1-2,0.2-3.7,0.3-5.6c1.3,0.3,2.2,0.4,3.1,0.6C37.9,54.4,37.9,54.4,33.8,55.5z"/>
		<path class="st1" d="M34.1,56.9c3.8-1.3,3.8-1.3,5.5,2.4c-0.7,0.6-1.4,1.3-2.4,2.2C36.2,59.9,35.3,58.5,34.1,56.9z"/>
		<path class="st1" d="M48.8,47.4c0.7-0.7,1.3-1.2,2.3-2.1c1.1,1.5,2.1,2.9,3.1,4.4C50.5,51.3,50.5,51.3,48.8,47.4z"/>
		<path class="st1" d="M54.7,51.4c-0.1,2-0.3,3.6-0.4,5.5c-1.3-0.3-2.1-0.5-3-0.6C50.4,52.2,50.4,52.2,54.7,51.4z"/>
		<path class="st1" d="M50,56.3c-1.9-0.6-4.2,1.5-4.6-1.3c-0.4-2.6,2.4-1.4,3.9-2.6C49.5,53.8,49.7,54.8,50,56.3z"/>
		<path class="st1" d="M47.4,47.8c0.7,1.4,1.1,2.3,1.7,3.5c-1.8,0.2-3.6,2.4-4.7,0.2C43.1,48.7,46.7,49.7,47.4,47.8z"/>
		<path class="st1" d="M40.8,58.7c-0.6-1.2-1-2.1-1.5-3.2c1.8-0.2,3.6-2.4,4.7-0.2C45.2,58,41.9,57.2,40.8,58.7z"/>
		<path class="st1" d="M39,54.3c-0.2-1.6-0.3-2.4-0.4-3.7c1.5,0,2.9-0.1,4.2,0.1c0.2,0,0.6,1.7,0.4,1.8C42,53.2,40.7,53.6,39,54.3z"
			/>
		<path class="st1" d="M49.9,57.3c-0.8,2.1-1.4,3.8-2,5.5c-0.2,0-0.4-0.1-0.5-0.1c-0.4-1.5-0.8-3.1-1.3-5
			C47.3,57.5,48.2,57.4,49.9,57.3z"/>
		<path class="st1" d="M41.1,44.2c0.4,1.5,0.8,3,1.3,4.8c-1.3,0.1-2.2,0.2-3.7,0.3c0.7-1.9,1.2-3.5,1.8-5.1
			C40.7,44.3,40.9,44.3,41.1,44.2z"/>
		<path class="st1" d="M42.9,43.6c1.3,1,2.5,2.1,4.1,3.4c-1.2,0.6-2.1,1.1-3.3,1.7c-0.5-1.7-0.9-3.2-1.3-4.7
			C42.5,43.9,42.7,43.7,42.9,43.6z"/>
		<path class="st1" d="M41.3,59.6c1.4-0.6,2.3-1,3.5-1.6c0.5,1.8,0.9,3.3,1.3,4.9c-0.1,0.1-0.3,0.2-0.4,0.3
			C44.3,62.2,43,61.1,41.3,59.6z"/>
		<path class="st1" d="M37.4,49.3c-0.9-0.3-1.6-0.5-2.7-0.8c1.3-1.4,2.3-2.6,3.4-3.8c0.2,0.1,0.3,0.2,0.5,0.3
			C38.3,46.3,37.9,47.7,37.4,49.3z"/>
		<path class="st1" d="M50.1,44.4c-1,1-1.5,1.4-2.1,2c-1.1-1-2.1-1.9-3.1-2.9c0.1-0.2,0.1-0.4,0.2-0.5
			C46.6,43.4,48.1,43.8,50.1,44.4z"/>
		<path class="st1" d="M49.8,61.8c0.4-1.3,0.8-2.7,1.2-4.2c0.8,0.2,1.5,0.3,2.8,0.6c-1.3,1.5-2.4,2.7-3.5,3.8
			C50.1,61.9,50,61.9,49.8,61.8z"/>
		<path class="st1" d="M38,62.4c1.1-1.1,1.7-1.6,2.3-2.2c1,1.3,1.9,2.3,3,3.6C41.7,63.3,40.3,63,38,62.4z"/>
	</g>
</g>
</svg>
