<?xml version="1.0" encoding="utf-8"?>
<!-- Generator: Adobe Illustrator 21.1.0, SVG Export Plug-In . SVG Version: 6.00 Build 0)  -->
<svg version="1.1" id="Layer_1" xmlns="http://www.w3.org/2000/svg" xmlns:xlink="http://www.w3.org/1999/xlink" x="0px" y="0px"
	 viewBox="0 0 125.1 125" style="enable-background:new 0 0 125.1 125;" xml:space="preserve">
<style type="text/css">
	.st0{fill:#F15A29;}
	.st1{fill:#FFFFFF;}
</style>
<g>
	<g>
		<path class="st0" d="M125.1,62.5c0,34.5-28,62.5-62.5,62.5C28,125,0,97.1,0,62.5S28,0,62.5,0C97.1,0,125.1,28,125.1,62.5"/>
	</g>
</g>
<g>
	<path class="st1" d="M28.3,54.6c-0.3-0.1-0.6-0.3-0.9-0.3c-0.9,0-1.8,0.1-2.7,0.2c-0.5,0-0.9,0.2-1,0.8c-0.1,0.2-0.2,0.4-0.3,0.6
		c-0.2,0.5-0.4,0.6-0.9,0.4c-1.9-0.7-3.7-1.3-5.6-2c-1.4-0.5-2.8-1-4.4-1.6c0.7-0.3,1.3-0.6,1.9-0.8c5.9-2.3,11.8-4.6,17.8-6.8
		c5.7-2.2,11.4-4.4,17.1-6.5c4.2-1.6,8.4-3.2,12.5-4.9c0.6-0.2,1-0.2,1.6,0c5.1,2,10.3,4,15.5,5.9c5.7,2.2,11.4,4.4,17.1,6.6
		c5.2,2,10.4,4,15.6,6c0.3,0.1,0.6,0.3,1.1,0.5c-0.9,0.3-1.6,0.6-2.3,0.9c-6.6,2.3-13.2,4.8-19.9,7c-5,1.7-10.1,3.1-15.2,4.7
		c-3.9,1.2-7.8,2.4-11.8,3.6c-0.5,0.2-1.2,0.2-1.7,0c-6.8-2.1-13.6-4.1-20.3-6.2c-3.4-1.1-6.8-2.1-10.2-3.2
		c-0.2-0.1-0.5-0.2-0.8-0.4c1.5-0.5,2.9-0.9,4.3-1.4c0.9-0.3,0.9-0.3,1.3-1.5c-0.9,0.2-1.8,0.4-2.7,0.6c-1.2,0.3-2.4,0.6-3.6,0.8
		c-0.6,0.1-0.7,0.4-0.7,0.9c-0.3,6.1-0.7,12.3-1.1,18.4c-0.1,1.1-0.2,2.2-0.2,3.4c0,0.5-0.2,0.7-0.6,0.9c-2.8,1.3-5.6,1.2-8.4-0.1
		c-0.2-0.1-0.4-0.4-0.4-0.6c-0.3-2.3,0.1-4.6,0.6-6.9c1.2-5.1,3-10,5.2-14.9c0.3-0.8,0.7-1.6,1-2.4c0.2-0.5,0.5-0.7,1-0.8
		c0.8-0.2,1.6-0.4,2.5-0.6C28.3,54.8,28.3,54.7,28.3,54.6z"/>
	<path class="st1" d="M32.7,63.3c1.3,0.4,2.6,0.8,3.8,1.2c6.5,2,12.9,4,19.4,6c2,0.6,4,1.2,6,1.8c0.4,0.1,0.8,0.1,1.2,0
		c6.7-2,13.4-4.1,20.1-6.2c2.8-0.9,5.7-1.7,8.5-2.6c0.2-0.1,0.5-0.1,0.8-0.2c0,0.4,0,0.6,0,0.9c0,4.4-0.1,8.8,0,13.1
		c0.1,2.9-1.1,5.2-3.2,7c-1.8,1.6-3.9,2.7-6.1,3.6c-8.6,3.4-17.5,4-26.6,3.3c-5.1-0.4-10.1-1.4-14.8-3.4c-2.8-1.2-5.5-2.6-7.5-5.1
		c-1.1-1.3-1.7-2.8-1.7-4.4c0-4.9,0-9.9,0-14.8C32.6,63.6,32.6,63.5,32.7,63.3z"/>
</g>
</svg>
