<?xml version="1.0" encoding="utf-8"?>
<!-- Generator: Adobe Illustrator 21.1.0, SVG Export Plug-In . SVG Version: 6.00 Build 0)  -->
<svg version="1.1" id="Layer_1" xmlns="http://www.w3.org/2000/svg" xmlns:xlink="http://www.w3.org/1999/xlink" x="0px" y="0px"
	 viewBox="0 0 125.1 125" style="enable-background:new 0 0 125.1 125;" xml:space="preserve">
<style type="text/css">
	.st0{fill:#F15A29;}
	.st1{fill-rule:evenodd;clip-rule:evenodd;fill:#FFFFFF;}
</style>
<g>
	<g>
		<path class="st0" d="M125.1,62.5c0,34.5-28,62.5-62.5,62.5C28,125,0,97.1,0,62.5S28,0,62.5,0C97.1,0,125.1,28,125.1,62.5"/>
	</g>
</g>
<g>
	<path class="st1" d="M81.3,61c0.1-0.6,0.4-1.1,0.5-1.7c0.1-0.6,0.2-1.3,0.3-1.9c0.1-0.6,0.2-1.3,0.2-1.9c0-0.7,0-1.5-0.1-2.2
		c-0.1-0.9-0.3-1.7-0.5-2.6c-0.2-0.9-0.5-1.7-0.9-2.6c-0.4-0.9-0.8-1.7-1.4-2.5c-0.4-0.6-0.8-1.2-1.3-1.8c-0.3-0.4-0.6-0.7-1-1.1
		c-0.2-0.3-0.5-0.5-0.8-0.7c-0.4-0.3-0.7-0.7-1.1-0.9c-0.8-0.5-1.6-1-2.4-1.5c-0.8-0.5-1.6-0.8-2.5-1.1c-1-0.3-2-0.7-3.1-0.8
		c-0.9-0.1-1.8-0.2-2.7-0.3c-0.4,0-0.7,0-1.6,0c-0.9,0-1.2,0-1.6,0c-0.9,0.1-1.8,0.2-2.7,0.3c-1,0.1-2.1,0.4-3,0.8
		c-0.9,0.3-1.7,0.6-2.5,1.1c-0.8,0.5-1.6,1-2.4,1.5c-0.4,0.3-0.8,0.6-1.1,0.9c-0.3,0.2-0.5,0.5-0.8,0.7c-0.3,0.3-0.7,0.7-1,1.1
		c-0.4,0.6-0.9,1.2-1.3,1.8c-0.5,0.8-1,1.6-1.4,2.5c-0.3,0.9-0.6,1.7-0.9,2.6c-0.2,0.8-0.4,1.7-0.5,2.6c-0.1,0.7-0.1,1.4-0.1,2.2
		c0,0.6,0.1,1.3,0.2,1.9c0.1,0.6,0.2,1.3,0.3,1.9c0.1,0.6,0.3,1.1,0.5,1.7c0.2,0.9,0.6,1.7,1,2.5c0.3,0.7,0.7,1.3,1.1,1.9
		c0.4,0.7,0.8,1.4,1.2,2.1c0.4,0.7,0.8,1.4,1.2,2.1c0.3,0.7,0.6,1.3,0.9,2c0.2,0.4,0.3,0.9,0.4,1.3c0.1,0.4,0.3,0.8,0.4,1.2
		c0.2,0.9,0.5,1.9,0.7,2.8c0.2,0.8,0.4,1.7,0.6,2.5c0.2,0.8,0.5,1.6,0.9,2.3c0.1,0.2,0.3,0.3,0.5,0.5c0.1,0.1,0.1,0.2,0.2,0.3
		c0,0.4,0,0.4,0.5,0.6c0,0.8,0.1,1.7,0.1,2.5c0,0.2,0.1,0.4,0.3,0.5c0.3,0.2,0.5,0.7,0.4,1.1c0,0.1-0.1,0.1-0.2,0.2
		c-0.3,0.1-0.4,0.3-0.4,0.7c0,0.3,0.2,0.5,0.4,0.6c0.4,0.1,0.3,0.5,0.3,0.7c0,0.3-0.1,0.5-0.3,0.6c-0.5,0.2-0.5,0.7-0.3,1.1
		c0.1,0.1,0.3,0.3,0.4,0.4c0.3,0.2,0.3,0.8,0,1c-0.3,0.2-0.6,0.4-0.4,0.7c0.1,0.2,0.3,0.4,0.5,0.6c0.3,0.3,0.4,0.6,0.2,0.9
		c-0.3,0.6-0.3,0.7,0.2,1.1c0.9,0.9,1.8,1.7,2.7,2.6c0.2,0.2,0.4,0.4,0.5,0.5c0.3,0.2,0.6,0.4,0.9,0.6c0.6,0.5,1.2,0.9,1.8,1.4
		c0.4,0.3,0.8,0.6,1.6,0.6c0.1,0,0.1,0,0.2,0c0.2,0,0.1,0,0.2,0c0.7,0,1.2-0.3,1.6-0.6c0.6-0.5,1.2-0.9,1.8-1.4
		c0.3-0.2,0.5-0.4,0.9-0.6c0.1-0.1,0.3-0.3,0.5-0.5c0.9-0.9,1.8-1.7,2.7-2.6c0.5-0.5,0.5-0.6,0.2-1.1c-0.2-0.4-0.1-0.7,0.2-0.9
		c0.2-0.2,0.4-0.4,0.5-0.6c0.1-0.4-0.1-0.6-0.4-0.7c-0.3-0.2-0.3-0.8,0-1c0.1-0.1,0.3-0.2,0.4-0.4c0.3-0.4,0.3-0.8-0.3-1.1
		c-0.2-0.1-0.4-0.3-0.3-0.6c0-0.3,0-0.6,0.3-0.7c0.3-0.1,0.4-0.3,0.4-0.6c0-0.3-0.1-0.5-0.4-0.7c-0.1,0-0.1-0.1-0.2-0.2
		c-0.2-0.4,0-0.9,0.4-1.1c0.2-0.1,0.3-0.3,0.3-0.5c0-0.8,0.1-1.6,0.1-2.5c0.5-0.1,0.5-0.1,0.5-0.6c0-0.1,0.1-0.2,0.2-0.3
		c0.2-0.2,0.4-0.3,0.5-0.5c0.5-0.7,0.7-1.5,0.9-2.3c0.2-0.8,0.4-1.7,0.6-2.5c0.2-0.9,0.5-1.9,0.7-2.8c0.1-0.4,0.2-0.8,0.4-1.2
		c0.1-0.4,0.3-0.9,0.4-1.3c0.3-0.7,0.6-1.4,0.9-2c0.4-0.7,0.8-1.4,1.2-2.1c0.4-0.7,0.8-1.4,1.2-2.1c0.4-0.6,0.8-1.3,1.1-1.9
		C80.6,62.7,81,61.9,81.3,61z M79.5,55.7c0,0.6-0.1,1.1-0.2,1.7c-0.1,0.5-0.2,1.1-0.3,1.6c-0.1,0.5-0.3,0.9-0.4,1.4
		c-0.2,0.8-0.6,1.5-0.9,2.2c-0.3,0.6-0.6,1.1-0.9,1.6c-0.3,0.6-0.7,1.2-1,1.8c-0.3,0.6-0.7,1.2-1,1.8c-0.3,0.6-0.5,1.1-0.8,1.7
		c-0.1,0.4-0.3,0.7-0.4,1.1c-0.1,0.3-0.2,0.7-0.3,1c-0.2,0.8-0.4,1.6-0.6,2.4c-0.2,0.7-0.3,1.5-0.5,2.2c0,0-0.6,4.6-1.2,5.4
		c-0.3,0.4-4.2,0.5-8,0.5c-3.8,0-7.7-0.1-8-0.5c-0.6-0.8-1.2-5.4-1.2-5.4c-0.2-0.7-0.3-1.4-0.5-2.2c-0.2-0.8-0.4-1.6-0.6-2.4
		c-0.1-0.3-0.2-0.7-0.3-1c-0.1-0.4-0.2-0.7-0.4-1.1c-0.2-0.6-0.5-1.2-0.8-1.7c-0.3-0.6-0.6-1.2-1-1.8c-0.3-0.6-0.7-1.2-1-1.8
		c-0.3-0.5-0.7-1.1-0.9-1.6c-0.3-0.7-0.7-1.4-0.9-2.2c-0.1-0.5-0.3-0.9-0.4-1.4c-0.1-0.5-0.2-1.1-0.3-1.6c-0.1-0.6-0.2-1.1-0.2-1.7
		c0-0.6,0-1.2,0.1-1.9c0.1-0.7,0.2-1.5,0.4-2.2c0.2-0.8,0.5-1.5,0.8-2.2c0.3-0.8,0.7-1.5,1.2-2.1c0.3-0.5,0.7-1,1.1-1.5
		c0.3-0.3,0.5-0.6,0.8-0.9c0.2-0.2,0.4-0.4,0.7-0.6c0.3-0.3,0.6-0.6,1-0.8c0.7-0.5,1.4-0.9,2.1-1.3c0.7-0.4,1.4-0.7,2.1-0.9
		c0.8-0.3,1.7-0.6,2.6-0.7c0.8-0.1,1.1-0.2,1.9-0.3c0.3,0,0.9,0,0.9,0v0.4c0,0,0.9,0,1,0c0.2,0,0.1,0,0.1,0v-0.4c0,0,1,0,1.4,0
		c0.8,0.1,1.5,0.1,2.3,0.2c0.9,0.1,1.7,0.4,2.6,0.7c0.7,0.3,1.5,0.5,2.1,0.9c0.7,0.4,1.4,0.8,2.1,1.3c0.3,0.2,0.6,0.5,1,0.8
		c0.2,0.2,0.5,0.4,0.7,0.6c0.3,0.3,0.6,0.6,0.8,0.9c0.4,0.5,0.8,1,1.1,1.5c0.5,0.7,0.9,1.4,1.2,2.1c0.3,0.7,0.6,1.5,0.8,2.2
		c0.2,0.7,0.3,1.5,0.4,2.2C79.5,54.5,79.5,55.1,79.5,55.7z"/>
	<path class="st1" d="M39.5,57c0-0.7-0.6-1.3-1.3-1.3H30c-0.7,0-1.3,0.6-1.3,1.3v0.7c0,0.7,0.6,1.3,1.3,1.3h8.2
		c0.7,0,1.3-0.6,1.3-1.3V57z"/>
	<path class="st1" d="M96.3,57c0-0.7-0.6-1.3-1.3-1.3h-8.2c-0.7,0-1.3,0.6-1.3,1.3v0.7c0,0.7,0.6,1.3,1.3,1.3H95
		c0.7,0,1.3-0.6,1.3-1.3V57z"/>
	<path class="st1" d="M64.1,24.9c0-0.7-0.6-1.3-1.3-1.3h-0.7c-0.7,0-1.3,0.6-1.3,1.3v8.2c0,0.7,0.6,1.3,1.3,1.3h0.7
		c0.7,0,1.3-0.6,1.3-1.3V24.9z"/>
	<path class="st1" d="M44.1,41.1c0.5,0.5,1.3,0.5,1.8,0l0.1-0.1c0.5-0.5,0.5-1.3,0-1.8l-5.8-5.8c-0.5-0.5-1.3-0.5-1.8,0l-0.1,0.1
		c-0.5,0.5-0.5,1.3,0,1.8L44.1,41.1z"/>
	<path class="st1" d="M79.7,41.1c0.5,0.5,1.3,0.5,1.8,0l5.8-5.8c0.5-0.5,0.5-1.3,0-1.8l-0.1-0.1c-0.5-0.5-1.3-0.5-1.8,0l-5.8,5.8
		C79.1,39.8,79.1,40.6,79.7,41.1L79.7,41.1z"/>
	<path class="st1" d="M81.7,71.2c-0.5-0.5-1.3-0.5-1.8,0l-0.1,0.1c-0.5,0.5-0.5,1.3,0,1.8l5.8,5.8c0.5,0.5,1.3,0.5,1.8,0l0.1-0.1
		c0.5-0.5,0.5-1.3,0-1.8L81.7,71.2z"/>
	<path class="st1" d="M46.1,71.2c-0.5-0.5-1.3-0.5-1.8,0L38.6,77c-0.5,0.5-0.5,1.3,0,1.8l0.1,0.1c0.5,0.5,1.3,0.5,1.8,0l5.8-5.8
		C46.7,72.6,46.7,71.8,46.1,71.2L46.1,71.2z"/>
</g>
</svg>
