<?xml version="1.0" encoding="utf-8"?>
<!-- Generator: Adobe Illustrator 21.1.0, SVG Export Plug-In . SVG Version: 6.00 Build 0)  -->
<svg version="1.1" id="Layer_1" xmlns="http://www.w3.org/2000/svg" xmlns:xlink="http://www.w3.org/1999/xlink" x="0px" y="0px"
	 viewBox="0 0 125.1 125" style="enable-background:new 0 0 125.1 125;" xml:space="preserve">
<style type="text/css">
	.st0{fill:#F15A29;}
	.st1{fill:#FFFFFF;}
</style>
<g>
	<g>
		<path class="st0" d="M125.1,62.5c0,34.5-28,62.5-62.5,62.5C28,125,0,97.1,0,62.5S28,0,62.5,0C97.1,0,125.1,28,125.1,62.5"/>
	</g>
</g>
<g>
	<g>
		<path class="st1" d="M94.9,37.4h-3.1v5c1.1,0.5,1.1,1.3,1.1,2.1v10.6c0,0.9,0,1.6-1.1,2.1v34.1h3.1c4.7,0,9.5-4.3,9.5-9V46.1
			C104.4,41.4,99.6,37.4,94.9,37.4z"/>
		<path class="st1" d="M20.7,46.1v36.2c0,4.7,2.8,9,7.6,9h6.2V57.2c0-0.5-1.1-1.2-1.1-2.1V44.5c0-0.9,1.1-1.6,1.1-2.1v-5h-6.2
			C23.5,37.4,20.7,41.4,20.7,46.1z"/>
		<path class="st1" d="M78,30.6c0-0.8-1.6-1.2-2.4-1.2h-0.1h-0.1H49h-0.1h-0.1c-0.8,0-0.7,0.3-0.7,1.2v6.8H37.9v5
			c0,0.5,1.1,1.3,1.1,2.1v10.6c0,0.9-1.1,1.6-1.1,2.1v34.1h50.5V57.2c0-0.5-1.1-1.2-1.1-2.1V44.5c0-0.9,1.1-1.6,1.1-2.1v-5H78V30.6z
			 M74.6,37.4H51.6v-4.6h22.9V37.4z"/>
	</g>
	<g>
		<path class="st0" d="M59.5,40.5c-0.4,0-0.8,0.1-1.1,0.5c-0.3,0.3-0.5,0.7-0.5,1.1v15.4c0,0.4-0.2,0.8-0.5,1.1S56.8,59,56.4,59
			c-0.4,0-0.8-0.2-1.1-0.5c-0.3-0.3-0.5-0.7-0.5-1.1V42c0-0.4-0.2-0.8-0.5-1.1c-0.3-0.3-0.7-0.5-1.1-0.5h0h0c-0.4,0-0.8,0.1-1.1,0.5
			c-0.3,0.3-0.5,0.7-0.5,1.1v15.4c0,0.4-0.2,0.8-0.5,1.1c-0.3,0.3-0.7,0.5-1.1,0.5c-0.4,0-0.8-0.2-1.1-0.5c-0.3-0.3-0.5-0.7-0.5-1.1
			V42c0-0.4-0.2-0.8-0.5-1.1c-0.3-0.3-0.7-0.5-1.1-0.5c-0.4,0-0.8,0.1-1.1,0.5c-0.3,0.3-0.5,0.7-0.5,1.1v18.3c0,2.8,4.3,4.4,4.3,7.7
			v24.5c0,0.8,0.3,1.5,0.9,2.1c0.6,0.6,1.3,0.9,2.1,0.9c0.1,0,0.2,0,0.3,0c0.1,0,0.2,0,0.3,0c0.8,0,1.5-0.3,2.1-0.9
			c0.6-0.6,0.9-1.3,0.9-2.1V68c0-3.2,4.3-4.9,4.3-7.7V42c0-0.4-0.2-0.8-0.5-1.1C60.2,40.7,59.9,40.5,59.5,40.5z"/>
		<path class="st0" d="M76,40.8c-0.3-0.3-2.4-0.7-4.5,0.8c-1.8,1.1-3.3,4.5-3.3,6.6l-2,18.9c0,0.2,0.1,0.4,0.2,0.5
			c0.2,0.1,0.3,0.2,0.5,0.2h3.5v24.8c0,0.8,0.3,1.5,0.9,2.1c0.6,0.6,1.3,0.9,2.1,0.9c0.8,0,1.5-0.3,2.1-0.9c0.6-0.6,0.9-1.3,0.9-2.1
			V41.9C76.5,41.5,76.3,41.1,76,40.8z"/>
	</g>
</g>
</svg>
