<?xml version="1.0" encoding="utf-8"?>
<!-- Generator: Adobe Illustrator 21.1.0, SVG Export Plug-In . SVG Version: 6.00 Build 0)  -->
<svg version="1.1" id="Layer_1" xmlns="http://www.w3.org/2000/svg" xmlns:xlink="http://www.w3.org/1999/xlink" x="0px" y="0px"
	 viewBox="0 0 125.1 125" style="enable-background:new 0 0 125.1 125;" xml:space="preserve">
<style type="text/css">
	.st0{fill:#F15A29;}
	.st1{fill:#FFFFFF;}
</style>
<g>
	<g>
		<path class="st0" d="M125.1,62.5c0,34.5-28,62.5-62.5,62.5C28,125,0,97.1,0,62.5S28,0,62.5,0C97.1,0,125.1,28,125.1,62.5"/>
	</g>
</g>
<path class="st1" d="M34.7,71.5c0.4,0.7,2.6,3.1,5.6,6.4l4,4.2c6.3,6.5,14.1,14.1,19.1,17.7c9,6.4,16.3,2.6,16.3,2.6
	c12.7-7.9,12-16.5,10.9-20.3l-1.6-13.7v-1.9v-2.8v-0.3c0-2.2-2.7-4.1-4.9-4.1h-0.5c-2.2,0-3.1,1.9-3.1,4.1v3.9l-1.4-0.2v-9.4
	c0-2.2-2.1-4-4.3-4h-0.5c-2.2,0-3.7,1.8-3.7,4V66l-1.4-0.2v-9.5c0-0.8-0.4-1.5-0.8-2.1c3.4-3.5,5.3-8.2,5.3-13.4
	c0-10.6-8.6-19.2-19.2-19.2c-10.6,0-19.1,8.6-19.1,19.2c0,9.2,6.9,16.9,15.3,18.8v3.9c0,1.4,0,3.6,0,5.7v0.5c0,0.2-0.1,0.4-0.1,0.6
	c0.1,2.5,0,4.4-0.6,3.8c-3.7-3.8-11-10.1-14.4-8.9C33.6,65.9,33.3,69.4,34.7,71.5z M50.9,40.8v5.1c-1.4-1.2-2.6-3-2.6-5.1
	c0-3.6,2.8-6.5,6.4-6.5c3.6,0,6.6,2.9,6.6,6.5c0,1.9-0.5,3.5-1.9,4.7v-4.7c0-2.2-2.7-4.1-4.9-4.1H54C51.8,36.8,50.9,38.6,50.9,40.8z
	 M50.9,52.3c-5.7-1.7-8.3-6.2-8.3-11.5c0-6.7,5.4-12.2,12.1-12.2c6.7,0,12.3,5.5,12.3,12.2c0,5.1-3.3,9.5-7.6,11.3v-4.8
	c1.4-1.4,3.4-3.8,3.4-6.6c0-4.4-3.7-7.9-8-7.9s-7.9,3.6-7.9,7.9c0,2.9,1.3,5.5,4.1,6.9V52.3z M72.4,40.8c0,4.8-1.9,9.1-5,12.4
	c-0.7-0.5-1.5-0.8-2.4-0.8h-0.5c-2.2,0-3.7,1.8-3.7,4v1.2c-1.4,0.2-1.4,0.3-1.4,0.4v-4.4c5.7-1.9,9-6.9,9-12.8
	c0-7.5-6.2-13.6-13.7-13.6c-7.5,0-13.5,6.1-13.5,13.6c0,6.1,4.1,11.3,9.7,13v4.3C42.4,56.3,37,49.2,37,40.8C37,31,44.8,23,54.6,23
	C64.4,23,72.4,31,72.4,40.8z M59.4,64.6v-5.1c0-0.1,0-0.2,1.4-0.4v5.7L59.4,64.6z"/>
</svg>
