<?xml version="1.0" encoding="utf-8"?>
<!-- Generator: Adobe Illustrator 21.1.0, SVG Export Plug-In . SVG Version: 6.00 Build 0)  -->
<svg version="1.1" id="Layer_1" xmlns="http://www.w3.org/2000/svg" xmlns:xlink="http://www.w3.org/1999/xlink" x="0px" y="0px"
	 viewBox="0 0 125.1 125" style="enable-background:new 0 0 125.1 125;" xml:space="preserve">
<style type="text/css">
	.st0{fill:#F15A29;}
	.st1{fill:#FFFFFF;}
</style>
<g>
	<g>
		<path class="st0" d="M125.1,62.5c0,34.5-28,62.5-62.5,62.5C28,125,0,97.1,0,62.5S28,0,62.5,0C97.1,0,125.1,28,125.1,62.5"/>
	</g>
</g>
<g>
	<path class="st1" d="M85.1,82.6c-2.8,0.1-5.7,0.2-8.5,0.3c-4.6,0.2-9.2,0.6-13.8,0.6c-4.6,0-9.2-0.4-13.8-0.5
		c-2.8-0.1-5.5-0.2-8.4-0.3c0,1.2,0,2.3,0,3.4c0,1.3-0.6,1.9-1.9,1.9c-4.3,0-8.6,0-12.9,0c-1.2,0-1.9-0.6-1.9-1.9c0-1.4,0-2.7,0-4.1
		c0-0.3-0.3-0.7-0.5-0.8c-3.6-1.5-5.2-4.3-5.1-8c0-2.6,0-5.3,0.4-7.9c0.5-3.1,1.9-5.7,4.5-7.7c1.8-1.4,4-2,6.3-2
		c0.1-0.3,0.1-0.5,0.2-0.8c0.2-1.2-0.2-2.3-1.3-2.9c-0.2-0.1-0.4,0-0.6,0c-1.1,0.2-2-0.4-2.1-1.5c-0.1-0.7,0-1.4,0-2.1
		c0.1-0.9,0.8-1.6,1.6-1.6c0.9,0,1.6,0.6,1.6,1.6c0.1,0.7,0.2,1.4,0,2c-0.3,1.1,0.3,1.5,1.1,2.1c0.2-1.4,0.4-2.6,0.6-3.9
		c0.4-2.5,0.7-4.9,1.1-7.4c0.3-2,2.8-3.9,5.1-3.9c6.1,0,12.1,0,18.2,0c10.9,0,21.8,0,32.7,0c4.1,0,5.8,1.6,6.4,5.6
		c0.5,3.2,1,6.4,1.5,9.6c0,0.2,0.1,0.3,0.2,0.5c0.7-0.6,1.4-1,1.1-2.1c-0.2-0.6-0.1-1.3,0-2c0-1,0.7-1.6,1.6-1.6
		c0.9,0,1.5,0.6,1.6,1.6c0,0.8,0,1.6,0,2.3c-0.1,0.9-0.9,1.5-1.7,1.4c-1.3-0.1-2.5,1.2-2.3,2.5c0,0.2,0.1,0.3,0.1,0.5
		c5.1,0.2,8.2,3,9.9,7.6c0.5,1.3,0.8,2.6,0.9,4c0.1,2.6,0.1,5.2-0.1,7.8c-0.2,2.7-1.8,4.6-4.2,5.8c-0.5,0.2-0.6,0.5-0.6,1
		c0,1.2,0,2.4,0,3.6c0,1.3-0.7,1.9-1.9,1.9c-4.3,0-8.5,0-12.8,0c-1.3,0-1.9-0.6-1.9-1.9c0-0.8,0-1.6,0-2.4
		C85.2,82.9,85.2,82.8,85.1,82.6z M62.9,54.9c9-0.2,18.2-0.4,27.4-0.6c0.4,0,0.8-0.1,1.1-0.2c1.6-0.5,2.5-1.9,2.1-3.5
		c-0.6-2.9-1.3-5.8-1.8-8.7c-0.2-1.3-0.9-2.2-2-2.7c-1-0.4-2-0.8-3.1-0.8c-15.9,0-31.9,0-47.8,0c-1.4,0-2.7,0.3-3.8,1.2
		c-0.5,0.4-1.1,1.1-1.2,1.8c-0.7,3.1-1.4,6.3-1.9,9.4c-0.1,0.6,0.1,1.4,0.4,1.9c0.6,1.1,1.8,1.5,3,1.6
		C44.4,54.5,53.6,54.7,62.9,54.9z M50.4,67.7c0.8,4.2,1.7,8.4,2.5,12.6c0,0.2,0.5,0.4,0.8,0.4c6,0,12,0,18,0c0.5,0,0.7-0.1,0.8-0.7
		c0.2-1.4,0.5-2.7,0.8-4.1c0.6-2.8,1.1-5.5,1.7-8.3C66.8,67.7,58.6,67.7,50.4,67.7z M87.5,74.5c1.1,1.5,2.3,2.3,3.9,2.6
		c2.1,0.3,3.9-0.4,5.6-1.5c2.7-1.8,4.9-4.1,6.8-6.8c0.2-0.3,0.4-0.7,0.5-1c0.3-0.6,0-1-0.7-0.9c-0.6,0.1-1.2,0.1-1.7,0.4
		c-2.3,1-4.6,2-6.9,3.2C92.5,71.6,90,73,87.5,74.5z M37.9,74.5c-3-1.6-5.9-3.3-8.8-4.8c-2-1-4.2-1.9-6.3-2.7c-0.5-0.2-1.1,0-1.7,0.1
		c0.1,0.5,0.2,1.2,0.5,1.6c1.9,2.8,4.3,5.3,7.2,7.1c0.7,0.4,1.4,0.8,2.2,1C33.7,77.7,36.2,76.9,37.9,74.5z"/>
</g>
</svg>
