<?xml version="1.0" encoding="utf-8"?>
<!-- Generator: Adobe Illustrator 21.1.0, SVG Export Plug-In . SVG Version: 6.00 Build 0)  -->
<svg version="1.1" id="Layer_1" xmlns="http://www.w3.org/2000/svg" xmlns:xlink="http://www.w3.org/1999/xlink" x="0px" y="0px"
	 viewBox="0 0 125.1 125" style="enable-background:new 0 0 125.1 125;" xml:space="preserve">
<style type="text/css">
	.st0{fill:#F15A29;}
	.st1{fill:#FFFFFF;}
</style>
<g>
	<g>
		<path class="st0" d="M125.1,62.5c0,34.5-28,62.5-62.5,62.5C28,125,0,97.1,0,62.5S28,0,62.5,0C97.1,0,125.1,28,125.1,62.5"/>
	</g>
	<path class="st1" d="M62,32.3c-4.7,2.9-9.7,5.9-14.2,8.6c0-2.5,0-4.4,0-7.8c0,0-0.3,0-0.4,0c-2.6,0-5.4,0-8.2,0h-0.3v14.1
		c-1.1,0.8-0.9,0.6-1.3,0.8c-4.9,3.1-10.4,6.5-15.1,9.9c2.8,0,5.1,0,8.5,0c0,11.3,0,22.5,0,34.9c10.1,0,22.6,0,34,0
		c0.1-9-0.1-16.9,0.1-25.9c4,0,7.5,0,12,0c0,9,0,16.9,0,25.9c5.6,0,10.1,0,15.8,0c0-12.4,0-23.6,0-34.9c3.4,0,6.6,0,9.8,0
		C89.5,48.9,75.4,40.7,62,32.3z M56.8,82.6c-4.5,0-10.1,0-15.8,0c0-5.6,0-9.9,0-15.1c0-0.1,0.4-0.7,0.5-0.7c5.2,0,10.8,0,15.3,0
		C56.8,72.5,56.8,77,56.8,82.6z"/>
</g>
</svg>
