<?xml version="1.0" encoding="utf-8"?>
<!-- Generator: Adobe Illustrator 21.1.0, SVG Export Plug-In . SVG Version: 6.00 Build 0)  -->
<svg version="1.1" id="Layer_1" xmlns="http://www.w3.org/2000/svg" xmlns:xlink="http://www.w3.org/1999/xlink" x="0px" y="0px"
	 viewBox="0 0 125.1 125" style="enable-background:new 0 0 125.1 125;" xml:space="preserve">
<style type="text/css">
	.st0{fill:#F15A29;}
	.st1{fill:#FFFFFF;}
</style>
<g>
	<g>
		<path class="st0" d="M125.1,62.5c0,34.5-28,62.5-62.5,62.5C28,125,0,97.1,0,62.5S28,0,62.5,0C97.1,0,125.1,28,125.1,62.5"/>
	</g>
</g>
<g>
	<path class="st1" d="M54.2,92.3c-4.9,0-9.7,0.2-14.4-0.1c-3-0.2-4.9-2.7-4.9-5.7c0-7.1,0-14.2,0-21.3c0-1.3,0.3-2.3,1.4-3.1
		c7.6-6.1,15.1-12.3,22.6-18.4c1.8-1.5,3-1.5,4.7,0.1c0.5,0.4,0.9,0.9,1.3,1.3c0.9,1,1.8,2.1,2.8,3.1c-1.6,1.1-3.1,2.2-4.6,3.3
		c-5.7,4.1-8.4,9.8-8.7,16.6c-0.3,7.1-0.1,14.2-0.1,21.3C54.4,90.4,54.3,91.3,54.2,92.3z"/>
	<path class="st1" d="M99.6,72.4c0,11.9-9.6,21.5-21.4,21.4c-11.8,0-21.4-9.6-21.3-21.5c0-11.8,9.5-21.3,21.3-21.3
		C90,50.9,99.6,60.5,99.6,72.4z M78.1,89.6c9.5,0.1,17.3-7.6,17.4-17.1c0-9.6-7.7-17.5-17.3-17.5c-9.4,0-17.1,7.7-17.2,17
		C60.9,81.9,68.5,89.6,78.1,89.6z"/>
	<path class="st1" d="M80.1,44.9c-3,2.4-4.8,2.5-7.7,0.2c-3-2.4-6-4.7-8.9-7.1c-1.5-1.3-2.7-1.3-4.3,0c-9.3,7.4-18.6,14.7-27.9,22
		c-0.7,0.5-1.5,1.1-2.3,1.2c-1.2,0.3-2.6,0.4-3.2-1c-0.6-1.5-0.3-2.8,1.1-3.8c3.5-2.6,6.9-5.3,10.4-7.9c6.8-5.2,13.7-10.5,20.6-15.7
		c2.9-2.2,5-2.2,7.8,0.1C70.4,36.9,75.2,40.8,80.1,44.9z"/>
	<path class="st1" d="M48.2,36.7c-4,3.1-7.9,6.3-12.3,9.7c0-3.3-0.2-6.1,0.1-9c0.1-0.7,1.5-1.7,2.3-1.7c3.2,0,6.4,0.3,9.6,0.5
		C48.1,36.3,48.1,36.5,48.2,36.7z"/>
	<path class="st1" d="M78.5,83.9c-1.4-0.3-2.6-0.4-3.8-0.7c-2.6-0.7-2.6-0.8-2.2-3.5c1.9,0.6,3.8,1.2,5.9,1.9c0-2.8,0-5.1,0-6.9
		c-2-1.4-4-2.4-5.4-3.9c-0.7-0.8-0.7-2.5-0.7-3.7c0.2-2.8,2-4.3,6.1-5.1c0-0.8-0.1-1.7,0-2.6c0.1-0.4,0.4-0.8,0.7-1.2
		c0.3,0.4,0.8,0.7,0.8,1.1c0.1,0.8,0,1.6,0,2.4c1.8,1.3,5.9-0.5,4.9,4c-1.6-0.4-3.1-0.8-4.8-1.3c0,2.5,0,4.6,0,7
		c3.6,0.9,6.7,2.3,6.2,6.9c-0.3,3.1-1.8,4.5-6.2,5.6c-0.2,1.6-0.4,3.2-0.6,4.8c0,0.1-0.6,0-1.2,0C78.5,86.9,78.5,85.4,78.5,83.9z
		 M80.2,81c2.4-0.4,3.5-1.4,3.5-3.3c0-1.9-1.1-3-3.5-3.3C80.2,76.7,80.2,78.9,80.2,81z M78.4,70.8c0-2.1,0-4.1,0-6.2
		c-2,0.2-3.2,1-3.3,3C75,69.5,75.9,70.3,78.4,70.8z"/>
</g>
</svg>
