<?xml version="1.0" encoding="utf-8"?>
<!-- Generator: Adobe Illustrator 21.1.0, SVG Export Plug-In . SVG Version: 6.00 Build 0)  -->
<svg version="1.1" id="Layer_1" xmlns="http://www.w3.org/2000/svg" xmlns:xlink="http://www.w3.org/1999/xlink" x="0px" y="0px"
	 viewBox="0 0 125.1 125" style="enable-background:new 0 0 125.1 125;" xml:space="preserve">
<style type="text/css">
	.st0{fill:#F15A29;}
	.st1{fill:#FFFFFF;}
</style>
<g>
	<g>
		<path class="st0" d="M125.1,62.5c0,34.5-28,62.5-62.5,62.5C28,125,0,97.1,0,62.5S28,0,62.5,0C97.1,0,125.1,28,125.1,62.5"/>
	</g>
</g>
<g>
	<polygon class="st1" points="74.3,27.1 74.3,36.1 90.1,36.1 90.1,50.7 97.9,50.7 97.9,27.1 	"/>
	<polygon class="st1" points="36.1,36.1 51.9,36.1 51.9,27.1 27.1,27.1 27.1,50.7 36.1,50.7 	"/>
	<polygon class="st1" points="90.1,90.1 74.3,90.1 74.3,97.9 97.9,97.9 97.9,73.2 90.1,73.2 	"/>
	<polygon class="st1" points="36.1,73.2 27.1,73.2 27.1,97.9 51.9,97.9 51.9,90.1 36.1,90.1 	"/>
	<polygon class="st1" points="78.8,67.6 78.8,58.6 67.6,58.6 67.6,47.4 58.6,47.4 58.6,58.6 47.4,58.6 47.4,67.6 58.6,67.6 
		58.6,78.8 67.6,78.8 67.6,67.6 	"/>
</g>
</svg>
