<?xml version="1.0" encoding="utf-8"?>
<!-- Generator: Adobe Illustrator 21.1.0, SVG Export Plug-In . SVG Version: 6.00 Build 0)  -->
<svg version="1.1" id="Layer_1" xmlns="http://www.w3.org/2000/svg" xmlns:xlink="http://www.w3.org/1999/xlink" x="0px" y="0px"
	 viewBox="0 0 125.1 125" style="enable-background:new 0 0 125.1 125;" xml:space="preserve">
<style type="text/css">
	.st0{fill:#F15A29;}
	.st1{fill-rule:evenodd;clip-rule:evenodd;fill:#FFFFFF;}
</style>
<g>
	<g>
		<path class="st0" d="M125.1,62.5c0,34.5-28,62.5-62.5,62.5C28,125,0,97.1,0,62.5S28,0,62.5,0C97.1,0,125.1,28,125.1,62.5"/>
	</g>
</g>
<g>
	<path class="st1" d="M91.4,35.3c0-1.7-1-2.8-2.5-2.8c-3.1,0-5.3,0-8.6,0c0-1.1,0-1.6,0-2.4c0-1.7-1.3-2.9-2.8-2.9
		c-12.3,0-24.8,0-37.1,0l-6.6,6.5c0,8.7,0,17.5,0,26.2c0,9.9,0,19.9,0,29.8c0,1.7,1.2,2.9,2.5,2.9c3,0,6.1,0,9.1,0
		c0,0.7,0,1.4,0,2.1c0,1.7,1.2,2.9,2.6,2.9c13.6,0,27.3,0,40.9,0c1.4,0,2.5-1.2,2.5-2.9C91.3,75,91.4,55.2,91.4,35.3z M36.8,89.9
		c-0.5-0.2-0.3-0.2-0.3-0.8c0-0.2,0.2-0.5,0.2-0.7c0-9.5,0-19,0-28.5c0-8.1-0.3-16.1-0.3-24.1l0,0c0.2,0,0.1-0.1,0.2-0.1h2.3
		c1.7,0,3.3-1.4,3.3-3.1v-2.5c0-0.1-0.1-0.1-0.1-0.2c11.4,0,22.7,0,34,0c0.1,0,0.2,0,0.2,0c0.7,0,0.9,0.4,1,1.1c0,0.1,0,0.2,0,0.3
		c0,19,0,38.1,0,57.1c0,1.2-0.2,1.4-1.3,1.4c-12.9,0-25.8,0-38.7,0C37.2,90,37,90,36.8,89.9z M88.9,36.5c0,19,0,38.1,0,57.1
		c0,1.2-0.2,1.4-1.3,1.4c-12.9,0-25.8,0-38.7,0c-0.2,0-0.4,0-0.5-0.1c-0.6-0.1-1.1-0.3-1.1-1c0-0.2,0-0.4,0-0.5
		c0-0.3,0.1-0.5,0.1-0.7c9.8,0,19.5,0,29.3,0c1.4,0,2.7-0.7,2.7-2.4c0-18.3,0.2-37.5,0.2-54.9c2.7,0,5.1,0,7.8,0c0.1,0,0.4,0,0.5,0
		C88.6,35.6,88.9,35.7,88.9,36.5C89,36.5,88.9,36.4,88.9,36.5z"/>
	<path class="st1" d="M47,44.4h26.8c0.4,0,0.7-0.6,0.7-1.1c0-0.5-0.3-1.1-0.7-1.1H47c-0.4,0-0.7,0.6-0.7,1.1
		C46.3,43.8,46.6,44.4,47,44.4z"/>
	<path class="st1" d="M39.6,49.9h34.1c0.5,0,0.9-0.6,0.9-1.1c0-0.5-0.4-1.1-0.9-1.1H39.6c-0.5,0-0.9,0.6-0.9,1.1
		C38.7,49.3,39.1,49.9,39.6,49.9z"/>
	<path class="st1" d="M39.6,55.3h34.1c0.5,0,0.9-0.6,0.9-1.1c0-0.5-0.4-1.1-0.9-1.1H39.6c-0.5,0-0.9,0.6-0.9,1.1
		C38.7,54.7,39.1,55.3,39.6,55.3z"/>
	<path class="st1" d="M39.6,60.7h34.1c0.5,0,0.9-0.6,0.9-1.1c0-0.5-0.4-1.1-0.9-1.1H39.6c-0.5,0-0.9,0.6-0.9,1.1
		C38.7,60.1,39.1,60.7,39.6,60.7z"/>
	<path class="st1" d="M66.8,70.5c0-0.5-0.3-1.1-0.7-1.1H39.4c-0.4,0-0.7,0.6-0.7,1.1c0,0.5,0.3,1.1,0.7,1.1h26.8
		C66.5,71.6,66.8,71,66.8,70.5z"/>
</g>
</svg>
