<svg xmlns="http://www.w3.org/2000/svg" xmlns:xlink="http://www.w3.org/1999/xlink" viewBox="0 0 24.72 24.71"><defs><style>.cls-1{fill:none;}.cls-2{fill:url(#radial-gradient);}</style><radialGradient id="radial-gradient" cx="-298.72" cy="2713.82" r="31.5" gradientTransform="matrix(1, 0, 0, -1, 302.4, 2738.56)" gradientUnits="userSpaceOnUse"><stop offset="0" stop-color="#ffae40"/><stop offset="0.26" stop-color="#ff5445"/><stop offset="0.6" stop-color="#f92b80"/><stop offset="1" stop-color="#8b40b4"/></radialGradient></defs><title>Instagram</title><g id="Layer_2" data-name="Layer 2"><g id="Layer_1-2" data-name="Layer 1"><g id="_7_stroke" data-name="7 stroke"><g id="Instagram"><rect class="cls-1" x="0.07" y="0.05" width="24.65" height="24.65"/><path id="Instagram-2" data-name="Instagram" class="cls-2" d="M20.38,5.75A1.48,1.48,0,1,1,18.9,4.27,1.48,1.48,0,0,1,20.38,5.75Zm-8,10.68a4.11,4.11,0,1,1,4.1-4.1A4.11,4.11,0,0,1,12.33,16.43ZM12.33,6a6.33,6.33,0,1,0,6.32,6.33A6.32,6.32,0,0,0,12.33,6Zm0-3.78c3.29,0,3.68,0,5,.07a6.8,6.8,0,0,1,2.28.43A3.75,3.75,0,0,1,21,3.64a3.75,3.75,0,0,1,.92,1.42,6.82,6.82,0,0,1,.43,2.29c.06,1.29.07,1.68.07,5s0,3.68-.07,5a6.8,6.8,0,0,1-.43,2.28,4,4,0,0,1-2.34,2.34,6.8,6.8,0,0,1-2.28.43c-1.3.06-1.69.07-5,.07s-3.69,0-5-.07a6.8,6.8,0,0,1-2.28-.43A3.75,3.75,0,0,1,3.64,21a3.75,3.75,0,0,1-.92-1.42,6.8,6.8,0,0,1-.43-2.28c-.06-1.3-.07-1.69-.07-5s0-3.69.07-5a6.82,6.82,0,0,1,.43-2.29,3.75,3.75,0,0,1,.92-1.42,3.75,3.75,0,0,1,1.42-.92,6.8,6.8,0,0,1,2.28-.43C8.64,2.23,9,2.22,12.33,2.22Zm0-2.22C9,0,8.56,0,7.24.07a8.93,8.93,0,0,0-3,.58A5.86,5.86,0,0,0,2.07,2.07,5.86,5.86,0,0,0,.65,4.25a8.93,8.93,0,0,0-.58,3C0,8.56,0,9,0,12.33s0,3.76.07,5.08a8.93,8.93,0,0,0,.58,3,5.86,5.86,0,0,0,1.42,2.18A5.86,5.86,0,0,0,4.25,24a8.93,8.93,0,0,0,3,.58c1.32.06,1.74.07,5.09.07s3.76,0,5.08-.07a8.93,8.93,0,0,0,3-.58A6.3,6.3,0,0,0,24,20.4a8.93,8.93,0,0,0,.58-3c.06-1.32.07-1.74.07-5.08s0-3.77-.07-5.09a8.93,8.93,0,0,0-.58-3,5.86,5.86,0,0,0-1.42-2.18A5.86,5.86,0,0,0,20.4.65a8.93,8.93,0,0,0-3-.58C16.09,0,15.67,0,12.33,0Z"/></g></g></g></g></svg>