<svg xmlns="http://www.w3.org/2000/svg" viewBox="0 0 97.97 97"><defs><style>.cls-1{opacity:0.15;}.cls-2{fill:#231f20;}.cls-3{fill:#f05a28;}</style></defs><title>loader</title><g id="Layer_2" data-name="Layer 2"><g id="Layer_1-2" data-name="Layer 1"><g class="cls-1"><rect class="cls-2" x="18.3" y="-4.71" width="9.8" height="55.82" transform="translate(23.2 -9.61) rotate(45)"/><rect class="cls-3" x="68.04" y="45.89" width="9.8" height="55.82" transform="translate(73.55 -29.96) rotate(45)"/><rect class="cls-2" x="20.57" y="45.02" width="9.8" height="55.82" transform="translate(-44.11 39.37) rotate(-45)"/><rect class="cls-3" x="69.87" y="-4.5" width="9.8" height="55.82" transform="translate(5.34 59.73) rotate(-45)"/><path class="cls-3" d="M36.19,53.17V52.06a4.82,4.82,0,0,1-2.76,1.11h-1q-4.09,0-4.1-4.21a3.21,3.21,0,0,1,1.37-2.8,6.22,6.22,0,0,1,3.69-.95h2.76v-.69c0-.53-.34-.8-1-.8H33.72a.81.81,0,0,0-.89.92h-4q0-4.32,4-4.32h3.39q3.93,0,3.93,4.2v8.65Zm-2.76-5a1.47,1.47,0,0,0-.8.22.76.76,0,0,0-.25.59.81.81,0,0,0,.91.89h.14a3.5,3.5,0,0,0,2.19-.48,1.7,1.7,0,0,0,.55-1.22Z"/><path class="cls-3" d="M42.63,46.67V44.11c0-2.52,1-3.79,2.91-3.79h2a3.94,3.94,0,0,1,2.25,1.15V36.59H54V53.17H49.74V52a3.7,3.7,0,0,1-2.25,1.17h-2q-2.91,0-2.91-3.9Zm4.22,1.13c0,1.14.3,1.7.86,1.7h1.15c.59,0,.88-.56.88-1.7V45.6c0-1.07-.29-1.61-.88-1.61H47.71c-.57,0-.86.54-.86,1.61v2.2Z"/><path class="cls-3" d="M63.86,44.46c0-.49-.21-.74-.64-.74H61.13c-.45,0-.67.2-.69.57,0,.06,0,.18,0,.35,0,.35.22.53.67.53,1.57,0,2.79,0,3.65,0q3.28,0,3.28,3v2.07c0,2-1,2.93-3.16,2.93H59.58q-3.31,0-3.32-4.23h4a.76.76,0,0,0,.86.84h2.15q.78,0,.78-.69v-.15q0-.75-.78-.75H59.84c-2.26,0-3.38-1.06-3.38-3.14V43.51c0-2.13,1.18-3.19,3.49-3.19h4.67c2.16,0,3.25,1.4,3.25,4.14Z"/><path class="cls-2" d="M75.05,49.21V53.1H70.83V49.21Z"/></g></g></g></svg>