<?xml version="1.0" encoding="utf-8"?>
<!-- Generator: Adobe Illustrator 22.0.0, SVG Export Plug-In . SVG Version: 6.00 Build 0)  -->
<svg version="1.1" id="Layer_1" xmlns="http://www.w3.org/2000/svg" xmlns:xlink="http://www.w3.org/1999/xlink" x="0px" y="0px"
	 viewBox="0 0 247.5 81.3" style="enable-background:new 0 0 247.5 81.3;" xml:space="preserve">
<style type="text/css">
	.st0{fill:#F15A24;}
	.st1{fill:#333333;}
</style>
<g>
	<path class="st0" d="M11.8,25.7h47.8L56,46.5c-0.9,4.9-4.1,7.3-9.7,7.3H29.4l1.5-8.2h13.6c1.5,0,2.3-0.6,2.5-1.7l1.8-10H29.3
		l-10,17.3c-0.9,1.8-2.2,2.7-3.8,2.7H6.4l1.5-8.2h3.9c0.4,0,0.7-0.2,1-0.7l6.3-11.1h-8.7L11.8,25.7z M21.5,5.5h9.8L24,19.8
		c-1.6,3.2-3.6,4.8-6,4.8h-6.4l1.4-8.1h2.7c0.8,0,1.6-0.8,2.4-2.5L21.5,5.5z M32.4,3.3h21.3c1.4,0,2.4,0.5,3.1,1.6l3.5,8.5
		c0.4,1.3,1.1,1.9,2.1,1.9H63l-1.7,9.5h-4.2c-1.3,0-2.5-0.9-3.6-2.8l-5.1-9.5c-0.6-0.5-1.3-0.8-2.1-0.8H30.9L32.4,3.3z"/>
	<path class="st0" d="M90.9,35.4l-1.2,7.1h-7.4l1.9,3.7c0.4,0.5,1,0.7,1.9,0.7h2.2L87,53.8h-5.3c-2,0-3.3-0.6-3.9-1.8l-2.3-4.6
		l-3.9,4.7c-0.8,1.1-1.9,1.7-3.3,1.7h-5.8l1.2-6.9h2.7c0.7,0,1.2-0.2,1.7-0.7l2.8-3.7h-6.9l1.2-7.1h8.7l0.6-3.6h7.7l-0.6,3.6h1.7
		l-0.1-3.3h6.4l0.2,3.3H90.9z M71.1,4.6h6.4l-0.1,6.6h0.9l1.5-8.5h7.5l-1.5,8.5h0.8L89,4.6h6.4L93,11.3h1.7l-1.2,6.9h-8.9l-0.3,1.7
		h6l0.4,2.9c0,1.1,0.4,1.7,1.2,1.7h0.7l-1.1,6.3h-4c-2,0-3-1.2-3.1-3.5L84,21.7l-1.6,8.9H75l1.6-9.2l-3.2,7.1c-0.9,2-2.6,3-5.1,3
		h-2.9l1.1-6.4h0.7c0.4,0,0.8-0.3,1.2-0.9l2-4.4h6.5l0.3-1.5h-8.9l1.2-6.9H71L71.1,4.6z M93.1,45.8h8.4l-4.4,6c-1,1.3-2.3,2-4.1,2
		h-4.9l1.1-6.4H91c0.4,0,0.7-0.1,0.9-0.4L93.1,45.8z M122.1,3l-1.2,6.9h-8.3l-0.9,2.4h8.6l-4.8,27.3c-0.6,3.4-2.9,5.1-6.9,5.1H90.1
		l5.7-32.4h6.8l1-2.4h-7.7L97,3H122.1z M105.5,37.9c1.3,0,2.1-0.5,2.3-1.6l0.1-0.4h-8.4l-0.4,2H105.5z M100.6,29.7h8.4l0.4-2.2H101
		L100.6,29.7z M102.1,21.3h8.4l0.4-2h-8.4L102.1,21.3z M102.6,45.8h8.1l1.1,1.2c0.2,0.3,0.7,0.4,1.3,0.4h1.4l-1.1,6.4h-5.5
		c-1.3,0-2.3-0.7-3-2L102.6,45.8z"/>
	<path class="st1" d="M177.2,12.1l-1.7,9.5h-17.7l6.3,21c0.4,1.5,0.9,2.3,1.8,2.3h5.3l-1.5,8.6h-11.7c-1.2,0-2.1-1-2.6-2.9l-6-23.4
		l-13.5,22.5c-1.6,2.5-3.1,3.8-4.7,3.8h-12.4l1.5-8.6h6.3c1.1,0,2.5-1.6,4.3-4.7l10.9-18.6H125l1.7-9.5h19.8l1.6-9.3h10.1l-1.6,9.3
		H177.2z"/>
	<path class="st1" d="M230.7,22.3l-1.4,7.8h-19.4l-0.7,4.2h18.6l-1.4,7.7h-18.6l-0.5,3.1h20.4l-1.5,8.4H176l1.5-8.4h20l0.5-3.1
		h-18.2l1.4-7.7h18.2l0.7-4.2h-19.3l1.4-7.8H230.7z M193.2,11.3h-6l1.5-8.2h35.6c0.6,0,0.9,0.2,1,0.6l4.5,8.5
		c0.1,0.3,0.4,0.4,0.9,0.4h2.9l-1.5,8.7h-8.9c-0.5,0-0.8-0.2-0.9-0.6l-4.5-8.9c-0.1-0.3-0.4-0.4-0.8-0.4h-13.6l-4.3,6.3
		c-1.6,2.3-3.7,3.5-6.3,3.5h-11.5l1.3-7.5h7.5c1,0,1.9-0.5,2.5-1.5L193.2,11.3z"/>
</g>
<g>
	<path class="st1" d="M18.5,66.4l-3.6,0.4v-0.1c0-0.6-0.2-1.1-0.6-1.4s-0.8-0.5-1.2-0.5c-0.6,0-1.1,0.2-1.7,0.6s-1,1.1-1.3,2
		c-0.3,0.9-0.5,1.7-0.5,2.6c0,0.6,0.2,1.2,0.5,1.6c0.3,0.4,0.8,0.6,1.5,0.6c0.6,0,1.1-0.2,1.5-0.6s0.8-1,1.1-1.8l3.7,0.6
		c-0.4,1.3-1.1,2.4-2.2,3.4c-1.1,0.9-2.5,1.4-4.3,1.4c-1.8,0-3.2-0.5-4.2-1.5c-1-1-1.4-2.3-1.4-4c0-1.3,0.3-2.5,0.9-3.8
		s1.4-2.3,2.5-3c1.1-0.7,2.4-1.1,4-1.1c1.6,0,2.9,0.4,3.8,1.2C17.8,64,18.4,65.1,18.5,66.4z"/>
	<path class="st1" d="M33.6,62.2l-2.7,12.9h-3.9l1.1-5.2h-4.3l-1.1,5.2h-4l2.7-12.9h3.9l-1,4.6h4.2l1-4.6H33.6z"/>
	<path class="st0" d="M40.3,62.2l-2.7,12.9h-4l2.7-12.9H40.3z"/>
	<path class="st1" d="M55.2,62.2l-2.7,12.9h-3.7l-3.1-7.5h0L44,75.1h-3.7l2.7-12.9h3.7l3.1,7.5h0l1.6-7.5H55.2z"/>
	<path class="st1" d="M68.2,62.2l-0.6,2.8h-6.4l-0.4,2H67l-0.6,2.6h-6.2l-0.5,2.5h7L66,75.1H55.1l2.7-12.9H68.2z"/>
	<path class="st1" d="M80.5,65.7l-3.7,0.2c-0.1-1.1-0.7-1.7-1.8-1.7c-0.5,0-0.8,0.1-1.1,0.3s-0.4,0.4-0.4,0.7c0,0.2,0.1,0.4,0.3,0.6
		s0.7,0.4,1.4,0.7c1,0.4,1.7,0.7,2.3,1.1s1.1,0.8,1.5,1.3s0.6,1.2,0.6,2c0,0.8-0.2,1.4-0.6,2.1s-1,1.2-1.8,1.6s-1.9,0.6-3.3,0.6
		c-2,0-3.4-0.4-4.3-1.2s-1.3-1.8-1.3-3v-0.3l3.7-0.3c0,0.8,0.2,1.4,0.5,1.7s0.8,0.5,1.4,0.5c0.6,0,1.1-0.1,1.4-0.4s0.5-0.6,0.5-0.9
		c0-0.3-0.1-0.5-0.3-0.7c-0.2-0.2-0.7-0.5-1.5-0.8c-1.9-0.7-3-1.3-3.5-1.9c-0.5-0.6-0.7-1.3-0.7-2.1c0-0.7,0.2-1.4,0.6-2
		s1-1.1,1.8-1.4c0.8-0.3,1.7-0.5,2.8-0.5C78.5,61.9,80.3,63.2,80.5,65.7z"/>
	<path class="st1" d="M93.8,62.2l-0.6,2.8h-6.4l-0.4,2h6.2L92,69.6h-6.2l-0.5,2.5h7l-0.6,2.9H80.7l2.7-12.9H93.8z"/>
	<path class="st1" d="M113,66.4l-3.6,0.4v-0.1c0-0.6-0.2-1.1-0.6-1.4s-0.8-0.5-1.2-0.5c-0.6,0-1.1,0.2-1.7,0.6s-1,1.1-1.3,2
		c-0.3,0.9-0.5,1.7-0.5,2.6c0,0.6,0.2,1.2,0.5,1.6c0.3,0.4,0.8,0.6,1.5,0.6c0.6,0,1.1-0.2,1.5-0.6s0.8-1,1.1-1.8l3.7,0.6
		c-0.4,1.3-1.1,2.4-2.2,3.4c-1.1,0.9-2.5,1.4-4.3,1.4c-1.8,0-3.2-0.5-4.2-1.5c-1-1-1.4-2.3-1.4-4c0-1.3,0.3-2.5,0.9-3.8
		s1.4-2.3,2.5-3c1.1-0.7,2.4-1.1,4-1.1c1.6,0,2.9,0.4,3.8,1.2C112.4,64,112.9,65.1,113,66.4z"/>
	<path class="st1" d="M124.1,71.9l-0.6,3.1h-10.2l2.7-12.9h4l-2.1,9.7H124.1z"/>
	<path class="st1" d="M137.4,75.1h-3.8l-0.2-2.1h-4.1l-1,2.1h-4.2l7.2-12.9h4.2L137.4,75.1z M133.1,70.2l-0.4-4.7h0l-2.2,4.7H133.1z
		"/>
	<path class="st1" d="M151.4,65.7l-3.7,0.2c-0.1-1.1-0.7-1.7-1.8-1.7c-0.5,0-0.8,0.1-1.1,0.3s-0.4,0.4-0.4,0.7
		c0,0.2,0.1,0.4,0.3,0.6s0.7,0.4,1.4,0.7c1,0.4,1.7,0.7,2.3,1.1s1.1,0.8,1.5,1.3s0.6,1.2,0.6,2c0,0.8-0.2,1.4-0.6,2.1
		s-1,1.2-1.8,1.6s-1.9,0.6-3.3,0.6c-2,0-3.4-0.4-4.3-1.2s-1.3-1.8-1.3-3v-0.3l3.7-0.3c0,0.8,0.2,1.4,0.5,1.7s0.8,0.5,1.4,0.5
		c0.6,0,1.1-0.1,1.4-0.4s0.5-0.6,0.5-0.9c0-0.3-0.1-0.5-0.3-0.7c-0.2-0.2-0.7-0.5-1.5-0.8c-1.9-0.7-3-1.3-3.5-1.9
		c-0.5-0.6-0.7-1.3-0.7-2.1c0-0.7,0.2-1.4,0.6-2s1-1.1,1.8-1.4c0.8-0.3,1.7-0.5,2.8-0.5C149.4,61.9,151.2,63.2,151.4,65.7z"/>
	<path class="st1" d="M164.2,65.7l-3.7,0.2c-0.1-1.1-0.7-1.7-1.8-1.7c-0.5,0-0.8,0.1-1.1,0.3s-0.4,0.4-0.4,0.7
		c0,0.2,0.1,0.4,0.3,0.6s0.7,0.4,1.4,0.7c1,0.4,1.7,0.7,2.3,1.1s1.1,0.8,1.5,1.3s0.6,1.2,0.6,2c0,0.8-0.2,1.4-0.6,2.1
		s-1,1.2-1.8,1.6s-1.9,0.6-3.3,0.6c-2,0-3.4-0.4-4.3-1.2s-1.3-1.8-1.3-3v-0.3l3.7-0.3c0,0.8,0.2,1.4,0.5,1.7s0.8,0.5,1.4,0.5
		c0.6,0,1.1-0.1,1.4-0.4s0.5-0.6,0.5-0.9c0-0.3-0.1-0.5-0.3-0.7c-0.2-0.2-0.7-0.5-1.5-0.8c-1.9-0.7-3-1.3-3.5-1.9
		c-0.5-0.6-0.7-1.3-0.7-2.1c0-0.7,0.2-1.4,0.6-2s1-1.1,1.8-1.4c0.8-0.3,1.7-0.5,2.8-0.5C162.2,61.9,164,63.2,164.2,65.7z"/>
	<path class="st0" d="M171.3,62.2l-2.7,12.9h-4l2.7-12.9H171.3z"/>
	<path class="st1" d="M183.8,62.2l-0.6,2.8h-5.8l-0.5,2.3h5.7l-0.6,2.6h-5.7l-1,5.2h-3.9l2.7-12.9H183.8z"/>
	<path class="st0" d="M190,62.2l-2.7,12.9h-4l2.7-12.9H190z"/>
	<path class="st1" d="M203.1,62.2l-0.6,2.8h-6.4l-0.4,2h6.2l-0.6,2.6h-6.2l-0.5,2.5h7l-0.6,2.9h-10.9l2.7-12.9H203.1z"/>
	<path class="st1" d="M205.5,62.2h5.2c1.9,0,3.2,0.5,4.1,1.5c0.8,1,1.3,2.3,1.3,3.9c0,1.5-0.4,3-1.1,4.3s-1.6,2.2-2.6,2.6
		c-1,0.4-1.9,0.6-2.8,0.6h-6.7L205.5,62.2z M207.4,72.2h1.6c1.1,0,1.9-0.6,2.4-1.7c0.5-1.1,0.8-2.2,0.8-3.4c0-0.7-0.2-1.2-0.5-1.6
		c-0.3-0.4-0.8-0.6-1.6-0.6h-1.2L207.4,72.2z"/>
	<path class="st1" d="M229.2,65.7l-3.7,0.2c-0.1-1.1-0.7-1.7-1.8-1.7c-0.5,0-0.8,0.1-1.1,0.3s-0.4,0.4-0.4,0.7
		c0,0.2,0.1,0.4,0.3,0.6s0.7,0.4,1.4,0.7c1,0.4,1.7,0.7,2.3,1.1s1.1,0.8,1.5,1.3s0.6,1.2,0.6,2c0,0.8-0.2,1.4-0.6,2.1
		s-1,1.2-1.8,1.6s-1.9,0.6-3.3,0.6c-2,0-3.4-0.4-4.3-1.2s-1.3-1.8-1.3-3v-0.3l3.7-0.3c0,0.8,0.2,1.4,0.5,1.7s0.8,0.5,1.4,0.5
		c0.6,0,1.1-0.1,1.4-0.4s0.5-0.6,0.5-0.9c0-0.3-0.1-0.5-0.3-0.7c-0.2-0.2-0.7-0.5-1.5-0.8c-1.9-0.7-3-1.3-3.5-1.9
		c-0.5-0.6-0.7-1.3-0.7-2.1c0-0.7,0.2-1.4,0.6-2s1-1.1,1.8-1.4c0.8-0.3,1.7-0.5,2.8-0.5C227.2,61.9,229,63.2,229.2,65.7z"/>
</g>
</svg>
