<svg xmlns="http://www.w3.org/2000/svg" viewBox="0 0 227.78 71.47"><defs><style>.cls-1{fill:#f6f6f6;}.cls-2{fill:#fff;}</style></defs><title>Logo-TextOnly-Light</title><g id="Layer_2" data-name="Layer 2"><g id="Layer_1-2" data-name="Layer 1"><path class="cls-1" d="M6.08,22.86H53.9L50.23,43.67Q48.94,51,40.53,51H23.65l1.45-8.24H38.66c1.48,0,2.32-.58,2.52-1.72l1.76-10H23.52l-10,17.33A4.17,4.17,0,0,1,9.76,51H.68l1.45-8.24H6.06a1.27,1.27,0,0,0,1-.67L13.39,31H4.65Zm9.71-20.2h9.79L18.25,16.94q-2.34,4.75-6,4.76H5.84l1.44-8.14H9.93c.85,0,1.65-.85,2.39-2.55ZM26.64.44H47.89A3.37,3.37,0,0,1,51,2.05l3.49,8.47c.4,1.25,1.11,1.88,2.1,1.88h.72l-1.68,9.52h-4.2q-2,0-3.61-2.77L42.72,9.69a3.08,3.08,0,0,0-2.14-.78H25.14Z"/><path class="cls-1" d="M85.16,32.6l-1.24,7.08H76.5l1.89,3.71a2.29,2.29,0,0,0,1.87.72h2.21L81.26,51H76Q73,51,72.05,49.2l-2.33-4.65-3.93,4.71A3.93,3.93,0,0,1,62.44,51H56.63l1.21-6.86h2.72a2.4,2.4,0,0,0,1.73-.72l2.81-3.71H58.18l1.25-7.08h8.69l.63-3.6h7.7l-.64,3.6h1.66l-.13-3.32H83.7l.19,3.32ZM65.3,1.83h6.42l-.07,6.64h.94L74.09,0h7.47L80.07,8.47h.77l2.45-6.64h6.42L87.26,8.47H89l-1.21,6.86H78.86l-.31,1.72h6L85,20c0,1.14.4,1.72,1.25,1.72h.67L85.76,28h-4q-2.93,0-3.08-3.54l-.41-5.54-1.56,8.86H69.2l1.63-9.25-3.19,7.09a5.12,5.12,0,0,1-5.06,3H59.7l1.12-6.37h.67c.4,0,.79-.31,1.16-.94l2-4.42h6.47l.26-1.5H62.47l1.21-6.86h1.55ZM87.32,43h8.36l-4.44,6a4.73,4.73,0,0,1-4.06,2H82.31l1.13-6.42h1.83a1.17,1.17,0,0,0,.9-.38Zm29-42.73-1.21,6.86h-8.3l-.93,2.44h8.58L109.66,36.8q-.9,5.1-6.93,5.1H84.36l5.7-32.38h6.76l1-2.44H90.05L91.26.22ZM99.73,35c1.33,0,2.09-.53,2.28-1.6l.08-.45H93.73L93.37,35Zm-4.92-8.19h8.36l.39-2.21H95.2Zm1.49-8.41h8.35l.36-2.05H96.66ZM96.84,43H105L106,44.17a1.7,1.7,0,0,0,1.31.38h1.39L107.6,51h-5.53a3.22,3.22,0,0,1-3-2Z"/><path class="cls-1" d="M171.4,9.3l-1.67,9.52H152.07l6.25,21c.36,1.51,1,2.27,1.76,2.27h5.32l-1.53,8.63H152.14c-1.22,0-2.1-1-2.64-2.93l-6-23.41L130,46.93q-2.4,3.82-4.66,3.82H112.9l1.52-8.63h6.26q1.65,0,4.31-4.71l10.92-18.59H119.2l1.67-9.52h19.76L142.27,0H152.4l-1.64,9.3Z"/><path class="cls-1" d="M224.9,19.48l-1.38,7.81H204.09l-.74,4.2H222l-1.37,7.75H202l-.55,3.1h20.37l-1.49,8.41H170.24l1.48-8.41h20l.55-3.1H174l1.36-7.75h18.21l.74-4.2H175.09l1.38-7.81Zm-37.47-11h-6L182.91.22h35.64c.55,0,.89.19,1,.56L224,9.3a.87.87,0,0,0,.87.44h2.88l-1.54,8.69h-8.85a.91.91,0,0,1-.95-.61L212,8.91a.79.79,0,0,0-.8-.44H197.62l-4.26,6.25A7.23,7.23,0,0,1,187,18.21H175.53l1.33-7.53h7.53a3,3,0,0,0,2.53-1.49Z"/><path class="cls-2" d="M12.73,62.59,9.13,63v-.07a1.7,1.7,0,0,0-.55-1.4,1.86,1.86,0,0,0-1.22-.46,2.72,2.72,0,0,0-1.69.65,4.38,4.38,0,0,0-1.32,2,7.37,7.37,0,0,0-.5,2.58,2.52,2.52,0,0,0,.51,1.61,1.79,1.79,0,0,0,1.49.64A2.12,2.12,0,0,0,7.37,68a4.77,4.77,0,0,0,1.09-1.78l3.67.58a6.7,6.7,0,0,1-2.21,3.36,6.48,6.48,0,0,1-4.28,1.36A5.6,5.6,0,0,1,1.45,70,5.39,5.39,0,0,1,0,66a9.24,9.24,0,0,1,.86-3.8,6.85,6.85,0,0,1,2.52-3,7,7,0,0,1,4-1.09,5.52,5.52,0,0,1,3.79,1.22A4.81,4.81,0,0,1,12.73,62.59Z"/><path class="cls-2" d="M27.81,58.37,25.08,71.25H21.15L22.24,66H18l-1.08,5.24h-4l2.73-12.88H19.6l-1,4.55h4.25l1-4.55Z"/><path class="cls-1" d="M34.57,58.37,31.85,71.25h-4L30.6,58.37Z"/><path class="cls-2" d="M49.42,58.37,46.7,71.25H43l-3.15-7.49h0l-1.58,7.49H34.59l2.72-12.88H41l3.13,7.5h0l1.6-7.5Z"/><path class="cls-2" d="M62.43,58.37l-.58,2.76H55.41l-.42,2H61.2l-.58,2.61H54.43l-.54,2.52h7l-.63,2.94H49.35l2.71-12.88Z"/><path class="cls-2" d="M74.76,61.94l-3.67.2a1.63,1.63,0,0,0-1.84-1.67,1.69,1.69,0,0,0-1.08.3.9.9,0,0,0-.38.72.81.81,0,0,0,.3.59,5.59,5.59,0,0,0,1.44.71,19.44,19.44,0,0,1,2.34,1.06,4.4,4.4,0,0,1,1.47,1.3,3.35,3.35,0,0,1,.57,2,3.84,3.84,0,0,1-.62,2.09,4.71,4.71,0,0,1-1.78,1.6,7.08,7.08,0,0,1-3.31.63c-2,0-3.44-.39-4.29-1.18a3.94,3.94,0,0,1-1.26-3V67l3.69-.26a2.3,2.3,0,0,0,.52,1.71,2,2,0,0,0,1.45.49,2.17,2.17,0,0,0,1.42-.41,1.21,1.21,0,0,0,.49-.94,1,1,0,0,0-.31-.73,4.62,4.62,0,0,0-1.53-.78,9.47,9.47,0,0,1-3.54-1.88,3.12,3.12,0,0,1-.74-2.08,3.61,3.61,0,0,1,.61-2,4,4,0,0,1,1.78-1.42,6.89,6.89,0,0,1,2.79-.5Q74.42,58.15,74.76,61.94Z"/><path class="cls-2" d="M88,58.37l-.58,2.76H81l-.43,2H86.8l-.57,2.61H80l-.54,2.52h7l-.63,2.94H75l2.71-12.88Z"/><path class="cls-2" d="M107.26,62.59l-3.6.42v-.07a1.7,1.7,0,0,0-.55-1.4,1.86,1.86,0,0,0-1.22-.46,2.72,2.72,0,0,0-1.69.65,4.38,4.38,0,0,0-1.32,2,7.37,7.37,0,0,0-.5,2.58,2.52,2.52,0,0,0,.51,1.61,1.79,1.79,0,0,0,1.49.64A2.12,2.12,0,0,0,101.9,68,4.76,4.76,0,0,0,103,66.17l3.67.58a6.63,6.63,0,0,1-2.21,3.36,6.43,6.43,0,0,1-4.27,1.36A5.58,5.58,0,0,1,96,70a5.39,5.39,0,0,1-1.45-4,9.08,9.08,0,0,1,.86-3.8,6.83,6.83,0,0,1,2.51-3,7.05,7.05,0,0,1,4-1.09,5.47,5.47,0,0,1,3.78,1.22A4.77,4.77,0,0,1,107.26,62.59Z"/><path class="cls-2" d="M118.35,68.1l-.65,3.15H107.47l2.69-12.88h4l-2.06,9.73Z"/><path class="cls-2" d="M131.64,71.25H127.8l-.17-2.11h-4.14l-1,2.11h-4.22l7.17-12.88h4.18Zm-4.26-4.84-.39-4.7h0l-2.18,4.7Z"/><path class="cls-2" d="M145.66,61.94l-3.67.2a1.62,1.62,0,0,0-1.84-1.67,1.69,1.69,0,0,0-1.08.3.89.89,0,0,0-.37.72.81.81,0,0,0,.3.59,5.42,5.42,0,0,0,1.44.71,20,20,0,0,1,2.33,1.06,4.4,4.4,0,0,1,1.47,1.3,3.29,3.29,0,0,1,.58,2,3.84,3.84,0,0,1-.62,2.09,4.74,4.74,0,0,1-1.79,1.6,7.05,7.05,0,0,1-3.31.63c-2,0-3.44-.39-4.28-1.18a3.94,3.94,0,0,1-1.26-3V67l3.68-.26a2.3,2.3,0,0,0,.53,1.71,2,2,0,0,0,1.45.49,2.18,2.18,0,0,0,1.42-.41,1.21,1.21,0,0,0,.49-.94,1.07,1.07,0,0,0-.31-.73,4.62,4.62,0,0,0-1.53-.78,9.3,9.3,0,0,1-3.54-1.88,3.12,3.12,0,0,1-.74-2.08,3.53,3.53,0,0,1,.61-2,4,4,0,0,1,1.77-1.42,7,7,0,0,1,2.8-.5Q145.34,58.15,145.66,61.94Z"/><path class="cls-2" d="M158.47,61.94l-3.67.2A1.63,1.63,0,0,0,153,60.47a1.66,1.66,0,0,0-1.07.3.88.88,0,0,0-.38.72.81.81,0,0,0,.3.59,5.42,5.42,0,0,0,1.44.71,19.44,19.44,0,0,1,2.34,1.06,4.4,4.4,0,0,1,1.47,1.3,3.35,3.35,0,0,1,.57,2,3.84,3.84,0,0,1-.62,2.09,4.71,4.71,0,0,1-1.78,1.6,7.08,7.08,0,0,1-3.31.63c-2,0-3.45-.39-4.29-1.18a3.94,3.94,0,0,1-1.26-3V67l3.68-.26a2.3,2.3,0,0,0,.53,1.71,2,2,0,0,0,1.45.49,2.17,2.17,0,0,0,1.42-.41,1.21,1.21,0,0,0,.49-.94,1,1,0,0,0-.31-.73,4.62,4.62,0,0,0-1.53-.78,9.3,9.3,0,0,1-3.54-1.88,3.12,3.12,0,0,1-.74-2.08,3.61,3.61,0,0,1,.61-2,4,4,0,0,1,1.78-1.42,6.89,6.89,0,0,1,2.79-.5Q158.14,58.15,158.47,61.94Z"/><path class="cls-1" d="M165.55,58.37l-2.72,12.88h-4l2.71-12.88Z"/><path class="cls-2" d="M178,58.37l-.59,2.75h-5.82l-.49,2.3h5.69L176.25,66h-5.71l-1,5.22h-3.92l2.71-12.88Z"/><path class="cls-1" d="M184.27,58.37l-2.72,12.88h-4l2.72-12.88Z"/><path class="cls-2" d="M197.36,58.37l-.58,2.76h-6.44l-.42,2h6.21l-.57,2.61h-6.2l-.54,2.52h7l-.63,2.94H184.29L187,58.37Z"/><path class="cls-2" d="M199.76,58.37H205A5,5,0,0,1,209,59.86a5.82,5.82,0,0,1,1.28,3.9A8.69,8.69,0,0,1,209.21,68a5.59,5.59,0,0,1-2.58,2.59,7.32,7.32,0,0,1-2.84.63H197.1Zm1.88,10h1.62a2.55,2.55,0,0,0,2.4-1.69,7.92,7.92,0,0,0,.78-3.36,2.48,2.48,0,0,0-.45-1.57,2,2,0,0,0-1.63-.58h-1.25Z"/><path class="cls-2" d="M223.48,61.94l-3.67.2A1.63,1.63,0,0,0,218,60.47a1.68,1.68,0,0,0-1.07.3.9.9,0,0,0-.38.72.81.81,0,0,0,.3.59,5.59,5.59,0,0,0,1.44.71,19.44,19.44,0,0,1,2.34,1.06,4.4,4.4,0,0,1,1.47,1.3,3.35,3.35,0,0,1,.57,2,3.84,3.84,0,0,1-.62,2.09,4.71,4.71,0,0,1-1.78,1.6,7.08,7.08,0,0,1-3.31.63c-2,0-3.44-.39-4.29-1.18a3.94,3.94,0,0,1-1.26-3V67l3.69-.26a2.3,2.3,0,0,0,.52,1.71,2,2,0,0,0,1.45.49,2.17,2.17,0,0,0,1.42-.41,1.21,1.21,0,0,0,.49-.94,1,1,0,0,0-.31-.73,4.62,4.62,0,0,0-1.53-.78,9.39,9.39,0,0,1-3.54-1.88,3.12,3.12,0,0,1-.74-2.08,3.61,3.61,0,0,1,.61-2,4,4,0,0,1,1.78-1.42,6.89,6.89,0,0,1,2.79-.5Q223.15,58.15,223.48,61.94Z"/></g></g></svg>