<svg xmlns="http://www.w3.org/2000/svg" viewBox="0 0 314.69 71.72"><defs><style>.cls-1{fill:#f6f6f6;}.cls-2{fill:#fff;}</style></defs><title>Logo-light</title><g id="Layer_2" data-name="Layer 2"><g id="Layer_1-2" data-name="Layer 1"><path class="cls-1" d="M93,23.11h47.81l-3.67,20.81q-1.27,7.3-9.7,7.3H110.56L112,43h13.56c1.47,0,2.31-.57,2.51-1.71l1.77-10H110.43l-10,17.32a4.17,4.17,0,0,1-3.79,2.66H87.59L89.05,43H93a1.24,1.24,0,0,0,1-.66l6.33-11.07H91.56ZM102.7,2.9h9.8l-7.34,14.28c-1.55,3.18-3.57,4.76-6,4.76H92.76l1.43-8.13h2.66c.85,0,1.64-.85,2.38-2.55ZM113.55.69H134.8a3.39,3.39,0,0,1,3.1,1.61l3.48,8.46c.41,1.26,1.11,1.89,2.11,1.89h.72l-1.68,9.51h-4.21q-2,0-3.61-2.76l-5.08-9.47a3.08,3.08,0,0,0-2.13-.77H112.06Z"/><path class="cls-1" d="M172.08,32.85l-1.25,7.08h-7.42l1.9,3.71a2.26,2.26,0,0,0,1.86.72h2.22l-1.21,6.86h-5.32c-2,0-3.25-.59-3.89-1.77l-2.34-4.65-3.92,4.7a3.92,3.92,0,0,1-3.35,1.72h-5.81l1.21-6.86h2.71a2.4,2.4,0,0,0,1.73-.72L152,39.93H145.1l1.24-7.08H155l.64-3.6h7.69l-.63,3.6h1.66l-.14-3.32h6.37l.19,3.32ZM152.21,2.08h6.42l-.06,6.64h.94L161,.25h7.47L167,8.72h.78l2.44-6.64h6.42l-2.44,6.64h1.71l-1.21,6.86h-8.91l-.3,1.72h6l.37,2.93c0,1.14.4,1.71,1.25,1.71h.66l-1.1,6.26h-4q-2.94,0-3.09-3.54l-.4-5.54L163.59,28h-7.48l1.63-9.25-3.18,7.09a5.12,5.12,0,0,1-5.07,3h-2.88l1.13-6.37h.66c.41,0,.79-.31,1.16-.94l2-4.43H158l.26-1.49h-8.91l1.21-6.86h1.55Zm22,41.12h8.36l-4.44,6a4.74,4.74,0,0,1-4.06,2h-4.87l1.13-6.42h1.83a1.14,1.14,0,0,0,.89-.39Zm29-42.73L202,7.33h-8.31l-.92,2.44h8.58l-4.82,27.28q-.88,5.1-6.92,5.09H171.27L177,9.77h6.75l1-2.44H177L178.18.47Zm-16.6,34.81c1.33,0,2.08-.53,2.27-1.6l.08-.45h-8.35l-.37,2.05Zm-4.92-8.19h8.36l.39-2.21h-8.36Zm1.48-8.41h8.36l.36-2.05h-8.36Zm.55,24.52h8.14l1,1.21a1.67,1.67,0,0,0,1.32.39h1.38l-1.13,6.42H189a3.2,3.2,0,0,1-3-2Z"/><path class="cls-1" d="M258.32,9.55l-1.68,9.52H239l6.25,21c.36,1.51.95,2.27,1.76,2.27h5.31L250.79,51H239.06c-1.22,0-2.1-1-2.64-2.93l-6-23.41L216.87,47.18Q214.49,51,212.21,51H199.82l1.52-8.63h6.25q1.66,0,4.32-4.71l10.91-18.59H206.11l1.68-9.52h19.76l1.64-9.3h10.12l-1.64,9.3Z"/><path class="cls-1" d="M311.81,19.73l-1.37,7.8H291l-.74,4.21h18.59l-1.36,7.75H288.9l-.55,3.1h20.37L307.24,51H257.15l1.49-8.41h20l.55-3.1H261l1.37-7.75h18.21l.74-4.21H262l1.38-7.8Zm-37.46-11h-6L269.82.47h35.65c.55,0,.89.19,1,.55L311,9.55a.85.85,0,0,0,.86.44h2.88l-1.53,8.69H304.3a.91.91,0,0,1-.94-.61L298.9,9.16a.78.78,0,0,0-.81-.44H284.53L280.27,15A7.21,7.21,0,0,1,274,18.46H262.45l1.32-7.53h7.53a2.94,2.94,0,0,0,2.53-1.49Z"/><path class="cls-2" d="M99.65,62.84l-3.6.41v-.07a1.7,1.7,0,0,0-.56-1.39,1.84,1.84,0,0,0-1.22-.46,2.79,2.79,0,0,0-1.69.64,4.59,4.59,0,0,0-1.32,2,7.31,7.31,0,0,0-.49,2.58,2.52,2.52,0,0,0,.51,1.61,1.77,1.77,0,0,0,1.49.64,2.14,2.14,0,0,0,1.52-.58,4.76,4.76,0,0,0,1.08-1.78L99,67a6.7,6.7,0,0,1-2.21,3.36,6.51,6.51,0,0,1-4.27,1.36,5.62,5.62,0,0,1-4.2-1.49,5.44,5.44,0,0,1-1.44-4,9.08,9.08,0,0,1,.86-3.8,6.91,6.91,0,0,1,2.51-3,7.07,7.07,0,0,1,4-1.09A5.5,5.5,0,0,1,98,59.62,4.82,4.82,0,0,1,99.65,62.84Z"/><path class="cls-2" d="M114.73,58.61,112,71.5h-3.94l1.1-5.24h-4.25l-1.08,5.24h-4l2.73-12.89h3.94l-1,4.56h4.24l1-4.56Z"/><path class="cls-1" d="M121.49,58.61,118.77,71.5h-4l2.72-12.89Z"/><path class="cls-2" d="M136.34,58.61,133.61,71.5h-3.67L126.8,64h0l-1.58,7.49H121.5l2.73-12.89h3.67L131,66.12h0l1.59-7.51Z"/><path class="cls-2" d="M149.35,58.61l-.58,2.77h-6.44l-.43,2h6.21L147.54,66h-6.2l-.54,2.52h7l-.62,2.94h-10.9L139,58.61Z"/><path class="cls-2" d="M161.67,62.19l-3.67.2A1.89,1.89,0,0,0,155.08,61a.89.89,0,0,0-.37.72.81.81,0,0,0,.3.59,5.19,5.19,0,0,0,1.44.7,19.8,19.8,0,0,1,2.33,1.07,4.4,4.4,0,0,1,1.47,1.3,3.28,3.28,0,0,1,.58,2,3.87,3.87,0,0,1-.62,2.1,4.74,4.74,0,0,1-1.79,1.6,7.05,7.05,0,0,1-3.31.63c-2,0-3.44-.39-4.28-1.18a4,4,0,0,1-1.27-3v-.3l3.69-.26a2.26,2.26,0,0,0,.53,1.7,2,2,0,0,0,1.45.5,2.18,2.18,0,0,0,1.42-.41,1.21,1.21,0,0,0,.49-.94,1.07,1.07,0,0,0-.31-.73,4.24,4.24,0,0,0-1.54-.78,9.16,9.16,0,0,1-3.53-1.89,3.07,3.07,0,0,1-.74-2.07,3.53,3.53,0,0,1,.61-2,4,4,0,0,1,1.77-1.42,7,7,0,0,1,2.79-.51C159.63,58.39,161.45,59.66,161.67,62.19Z"/><path class="cls-2" d="M175,58.61l-.58,2.77h-6.44l-.42,2h6.2L173.14,66h-6.2l-.53,2.52h7l-.62,2.94h-10.9l2.71-12.89Z"/><path class="cls-2" d="M194.18,62.84l-3.61.41v-.07a1.69,1.69,0,0,0-.55-1.39,1.86,1.86,0,0,0-1.22-.46,2.77,2.77,0,0,0-1.69.64,4.42,4.42,0,0,0-1.32,2,7.31,7.31,0,0,0-.49,2.58,2.52,2.52,0,0,0,.51,1.61,1.77,1.77,0,0,0,1.48.64,2.12,2.12,0,0,0,1.52-.58,4.64,4.64,0,0,0,1.09-1.78l3.67.58a6.7,6.7,0,0,1-2.21,3.36,6.52,6.52,0,0,1-4.27,1.36,5.62,5.62,0,0,1-4.2-1.49,5.44,5.44,0,0,1-1.45-4,9.24,9.24,0,0,1,.86-3.8,7,7,0,0,1,2.52-3,7.07,7.07,0,0,1,4-1.09,5.52,5.52,0,0,1,3.79,1.23A4.82,4.82,0,0,1,194.18,62.84Z"/><path class="cls-2" d="M205.26,68.35l-.65,3.15H194.38l2.69-12.89h4L199,68.35Z"/><path class="cls-2" d="M218.56,71.5h-3.85l-.17-2.11H210.4l-1,2.11h-4.23l7.17-12.89h4.18Zm-4.27-4.84L213.9,62h0l-2.18,4.7Z"/><path class="cls-2" d="M232.58,62.19l-3.67.2A1.89,1.89,0,0,0,226,61a.9.9,0,0,0-.38.72.81.81,0,0,0,.3.59,5.52,5.52,0,0,0,1.44.7,19.3,19.3,0,0,1,2.34,1.07,4.4,4.4,0,0,1,1.47,1.3,3.34,3.34,0,0,1,.57,2,3.87,3.87,0,0,1-.62,2.1,4.71,4.71,0,0,1-1.78,1.6,7.08,7.08,0,0,1-3.31.63c-2,0-3.44-.39-4.29-1.18a3.94,3.94,0,0,1-1.26-3v-.3l3.69-.26a2.26,2.26,0,0,0,.52,1.7,2,2,0,0,0,1.45.5,2.21,2.21,0,0,0,1.43-.41,1.23,1.23,0,0,0,.48-.94,1,1,0,0,0-.31-.73,4.26,4.26,0,0,0-1.53-.78,9.31,9.31,0,0,1-3.54-1.89,3.07,3.07,0,0,1-.74-2.07,3.61,3.61,0,0,1,.61-2,4,4,0,0,1,1.78-1.42,7,7,0,0,1,2.79-.51Q232.25,58.39,232.58,62.19Z"/><path class="cls-2" d="M245.38,62.19l-3.67.2A1.89,1.89,0,0,0,238.79,61a.9.9,0,0,0-.38.72.79.79,0,0,0,.31.59,5.23,5.23,0,0,0,1.43.7,19.3,19.3,0,0,1,2.34,1.07A4.4,4.4,0,0,1,244,65.4a3.34,3.34,0,0,1,.57,2,3.79,3.79,0,0,1-.62,2.1,4.64,4.64,0,0,1-1.78,1.6,7.08,7.08,0,0,1-3.31.63c-2,0-3.44-.39-4.28-1.18a3.91,3.91,0,0,1-1.27-3v-.3L237,67a2.26,2.26,0,0,0,.52,1.7,2,2,0,0,0,1.45.5,2.2,2.2,0,0,0,1.43-.41,1.24,1.24,0,0,0,.49-.94,1,1,0,0,0-.32-.73A4.08,4.08,0,0,0,239,66.3a9.16,9.16,0,0,1-3.53-1.89,3,3,0,0,1-.74-2.07,3.53,3.53,0,0,1,.61-2,3.91,3.91,0,0,1,1.77-1.42,7,7,0,0,1,2.79-.51C243.34,58.39,245.16,59.66,245.38,62.19Z"/><path class="cls-1" d="M252.46,58.61,249.74,71.5h-4l2.72-12.89Z"/><path class="cls-2" d="M264.94,58.61l-.59,2.75h-5.81l-.5,2.31h5.69l-.56,2.61h-5.71l-1,5.22H252.5l2.71-12.89Z"/><path class="cls-1" d="M271.18,58.61,268.47,71.5h-4l2.72-12.89Z"/><path class="cls-2" d="M284.28,58.61l-.58,2.77h-6.44l-.42,2H283L282.47,66h-6.2l-.53,2.52h7l-.62,2.94H271.2l2.71-12.89Z"/><path class="cls-2" d="M286.68,58.61h5.21a5,5,0,0,1,4.05,1.5,5.78,5.78,0,0,1,1.27,3.9,8.61,8.61,0,0,1-1.09,4.27,5.59,5.59,0,0,1-2.58,2.59,7.28,7.28,0,0,1-2.84.63H284Zm1.88,10h1.61a2.53,2.53,0,0,0,2.4-1.69,7.79,7.79,0,0,0,.79-3.36A2.41,2.41,0,0,0,292.9,62a1.94,1.94,0,0,0-1.63-.58H290Z"/><path class="cls-2" d="M310.39,62.19l-3.67.2A1.89,1.89,0,0,0,303.8,61a.89.89,0,0,0-.37.72.81.81,0,0,0,.3.59,5.19,5.19,0,0,0,1.44.7,19.8,19.8,0,0,1,2.33,1.07A4.4,4.4,0,0,1,309,65.4a3.34,3.34,0,0,1,.57,2,3.86,3.86,0,0,1-.61,2.1,4.74,4.74,0,0,1-1.79,1.6,7.05,7.05,0,0,1-3.31.63c-2,0-3.44-.39-4.28-1.18a4,4,0,0,1-1.27-3v-.3L302,67a2.3,2.3,0,0,0,.52,1.7,2,2,0,0,0,1.45.5,2.2,2.2,0,0,0,1.43-.41,1.24,1.24,0,0,0,.49-.94,1.07,1.07,0,0,0-.31-.73A4.24,4.24,0,0,0,304,66.3a9.16,9.16,0,0,1-3.53-1.89,3,3,0,0,1-.74-2.07,3.53,3.53,0,0,1,.61-2,4,4,0,0,1,1.77-1.42,7,7,0,0,1,2.79-.51C308.35,58.39,310.17,59.66,310.39,62.19Z"/><path class="cls-1" d="M39.49,0A53.74,53.74,0,0,1,33,11a87.64,87.64,0,0,1-8.14,9.36,86.56,86.56,0,0,1-9.35,8.14A53.29,53.29,0,0,1,4.5,35,53.07,53.07,0,0,1,11,24a86.65,86.65,0,0,1,8.15-9.35,90,90,0,0,1,9.36-8.14A53.93,53.93,0,0,1,39.49,0Z"/><path class="cls-1" d="M71.44,36.45a53.93,53.93,0,0,1-6.53,11,88.78,88.78,0,0,1-8.14,9.36,86.65,86.65,0,0,1-9.35,8.15,53.54,53.54,0,0,1-11,6.53,53.1,53.1,0,0,1,6.53-11,86.56,86.56,0,0,1,8.14-9.35A87.9,87.9,0,0,1,60.48,43,53.39,53.39,0,0,1,71.44,36.45Z"/><path class="cls-1" d="M40.5,2.74A54.06,54.06,0,0,1,51.79,8.69a87.6,87.6,0,0,1,9.78,7.64,85.44,85.44,0,0,1,8.62,8.91,53.67,53.67,0,0,1,7.1,10.61A53.26,53.26,0,0,1,66,29.91a86.21,86.21,0,0,1-9.76-7.64,86.55,86.55,0,0,1-8.62-8.92A53,53,0,0,1,40.5,2.74Z"/><path class="cls-1" d="M0,34.24a54.06,54.06,0,0,1,11.29,5.95,88.7,88.7,0,0,1,9.78,7.63,87.7,87.7,0,0,1,8.63,8.92,53.35,53.35,0,0,1,7.09,10.61,52.94,52.94,0,0,1-11.3-5.94,86.58,86.58,0,0,1-9.77-7.64A88.65,88.65,0,0,1,7.1,44.85,54,54,0,0,1,0,34.24Z"/><path class="cls-1" d="M29.92,41V40.2a3.48,3.48,0,0,1-2,.84h-.71q-3,0-3-3.17a2.39,2.39,0,0,1,1-2.09,4.52,4.52,0,0,1,2.73-.72h2v-.51c0-.41-.25-.6-.72-.6H28.1a.6.6,0,0,0-.66.68h-3c0-2.16,1-3.23,3-3.23H30q2.89,0,2.9,3.15V41Zm-2-3.77a1,1,0,0,0-.59.16.58.58,0,0,0-.19.44.61.61,0,0,0,.68.68h.1a2.52,2.52,0,0,0,1.61-.37,1.27,1.27,0,0,0,.41-.91Z"/><path class="cls-1" d="M34.68,36.16V34.24c0-1.9.73-2.84,2.15-2.84h1.44a2.79,2.79,0,0,1,1.66.86V28.6h3.12V41H39.93v-.88a2.73,2.73,0,0,1-1.66.88H36.83c-1.43,0-2.15-1-2.15-2.93ZM37.8,37c0,.85.22,1.27.63,1.27h.85c.44,0,.65-.42.65-1.27V35.35c0-.8-.21-1.2-.65-1.2h-.85q-.63,0-.63,1.2V37Z"/><path class="cls-1" d="M50.36,34.5c0-.37-.16-.55-.47-.55H48.34c-.32,0-.49.15-.5.42,0,.05,0,.14,0,.26s.17.4.49.4H51c1.62,0,2.42.75,2.42,2.25v1.55c0,1.46-.77,2.2-2.33,2.2H47.2c-1.63,0-2.45-1.07-2.45-3.18h3a.57.57,0,0,0,.63.63h1.59c.38,0,.58-.19.58-.52v-.11c0-.38-.2-.56-.58-.56H47.39c-1.66,0-2.49-.8-2.49-2.36V33.78c0-1.59.87-2.38,2.58-2.38h3.45c1.59,0,2.39,1,2.39,3.1Z"/><path class="cls-1" d="M58.63,38.06V41H55.51V38.06Z"/></g></g></svg>