<?xml version="1.0" encoding="utf-8"?>
<!-- Generator: Adobe Illustrator 21.1.0, SVG Export Plug-In . SVG Version: 6.00 Build 0)  -->
<svg version="1.1" id="Layer_1" xmlns="http://www.w3.org/2000/svg" xmlns:xlink="http://www.w3.org/1999/xlink" x="0px" y="0px"
	 viewBox="0 0 247.5 81.3" style="enable-background:new 0 0 247.5 81.3;" xml:space="preserve">
<style type="text/css">
	.st0{fill:#FFFFFF;}
</style>
<g>
	<path class="st0" d="M16.8,28.7h47.8L61,49.5c-0.9,4.9-4.1,7.3-9.7,7.3H34.4l1.5-8.2h13.6c1.5,0,2.3-0.6,2.5-1.7l1.8-10H34.3
		l-10,17.3c-0.9,1.8-2.2,2.7-3.8,2.7h-9.1l1.5-8.2h3.9c0.4,0,0.7-0.2,1-0.7l6.3-11.1h-8.7L16.8,28.7z M26.5,8.5h9.8L29,22.8
		c-1.6,3.2-3.6,4.8-6,4.8h-6.4l1.4-8.1h2.7c0.8,0,1.6-0.8,2.4-2.5L26.5,8.5z M37.4,6.3h21.3c1.4,0,2.4,0.5,3.1,1.6l3.5,8.5
		c0.4,1.3,1.1,1.9,2.1,1.9H68l-1.7,9.5h-4.2c-1.3,0-2.5-0.9-3.6-2.8l-5.1-9.5c-0.6-0.5-1.3-0.8-2.1-0.8H35.9L37.4,6.3z"/>
	<path class="st0" d="M95.9,38.4l-1.2,7.1h-7.4l1.9,3.7c0.4,0.5,1,0.7,1.9,0.7h2.2L92,56.8h-5.3c-2,0-3.3-0.6-3.9-1.8l-2.3-4.6
		l-3.9,4.7c-0.8,1.1-1.9,1.7-3.3,1.7h-5.8l1.2-6.9h2.7c0.7,0,1.2-0.2,1.7-0.7l2.8-3.7h-6.9l1.2-7.1h8.7l0.6-3.6h7.7l-0.6,3.6h1.7
		l-0.1-3.3h6.4l0.2,3.3H95.9z M76.1,7.6h6.4l-0.1,6.6h0.9l1.5-8.5h7.5l-1.5,8.5h0.8L94,7.6h6.4L98,14.3h1.7l-1.2,6.9h-8.9l-0.3,1.7
		h6l0.4,2.9c0,1.1,0.4,1.7,1.2,1.7h0.7l-1.1,6.3h-4c-2,0-3-1.2-3.1-3.5L89,24.7l-1.6,8.9H80l1.6-9.2l-3.2,7.1c-0.9,2-2.6,3-5.1,3
		h-2.9l1.1-6.4h0.7c0.4,0,0.8-0.3,1.2-0.9l2-4.4h6.5l0.3-1.5h-8.9l1.2-6.9H76L76.1,7.6z M98.1,48.8h8.4l-4.4,6c-1,1.3-2.3,2-4.1,2
		h-4.9l1.1-6.4H96c0.4,0,0.7-0.1,0.9-0.4L98.1,48.8z M127.1,6l-1.2,6.9h-8.3l-0.9,2.4h8.6l-4.8,27.3c-0.6,3.4-2.9,5.1-6.9,5.1H95.1
		l5.7-32.4h6.8l1-2.4h-7.7L102,6H127.1z M110.5,40.9c1.3,0,2.1-0.5,2.3-1.6l0.1-0.4h-8.4l-0.4,2H110.5z M105.6,32.7h8.4l0.4-2.2H106
		L105.6,32.7z M107.1,24.3h8.4l0.4-2h-8.4L107.1,24.3z M107.6,48.8h8.1l1.1,1.2c0.2,0.3,0.7,0.4,1.3,0.4h1.4l-1.1,6.4h-5.5
		c-1.3,0-2.3-0.7-3-2L107.6,48.8z"/>
	<path class="st0" d="M154.4,5h10.2l-0.4,2h19.3l-1,5.7h-3.1l-0.2,1.2h2.4l-0.9,5.1h-2.4l-0.5,2.7c-0.4,2.2-2.4,3.3-6.2,3.3h-30.5
		l1-5.9h-2.4l0.9-5.1h2.4l0.2-1.2h-3L138,25.6h42.1l-1,5.5h-42.1L133.9,49c-0.9,5.2-4,7.8-9.1,7.8H123l1.2-7.1h0.2
		c1.1,0,1.7-0.7,2-2L133.6,7h20.5L154.4,5z M143.2,50.4h10.1l-4.8,4.8c-1.1,1.1-2.6,1.6-4.7,1.6h-10.9l0.9-5.1h6.9
		c0.4,0,0.8-0.1,1.1-0.4L143.2,50.4z M153.9,32.2h23.7l-2.2,12.7c-0.5,3.1-3.2,4.6-8,4.6h-32l3.1-17.3H153.9z M151.3,44.4l0.2-1.3
		h-7.3l-0.2,1.3H151.3z M145.1,38.4h7.3l0.2-1.1h-7.3L145.1,38.4z M150.1,18.9l-0.2,1.3h18.8c1.1,0,1.8-0.3,1.9-0.8l0.1-0.4H150.1z
		 M151.2,12.7l-0.2,1.2h20.5l0.2-1.2H151.2z M154.7,50.4h10.8l0.8,0.9c0.1,0.3,0.5,0.4,1,0.4h8.2l-0.9,5.1h-13.7
		c-1.4,0-2.6-0.5-3.4-1.6L154.7,50.4z M159,43.1l-0.2,1.3h6.9c1.3,0,2.1-0.4,2.2-1.1l0-0.2H159z M160,37.3l-0.2,1.1h8.9l0.2-1.1H160
		z"/>
	<path class="st0" d="M185.9,35.1h47.6L230.7,51c-0.7,3.9-3.5,5.8-8.3,5.8h-40.3L185.9,35.1z M194.5,6.5h10.2l-2.1,3.2h7.6l0.8-4.3
		h9.5l-0.8,4.3h18l-1.5,8.4h-18l-1,5.6h19.8l-1.5,8.6h-51l1.5-8.6h21.7l1-5.6h-11.6l-1.1,1.7c-0.8,1.3-1.8,1.9-2.9,1.9h-6.3l1.5-8.5
		h0.9c0.5,0,1-0.4,1.5-1.1L194.5,6.5z M218.9,49c1.6,0,2.5-0.6,2.8-1.9l0.7-4.2h-28.2l-1.1,6.1H218.9z"/>
</g>
<g>
	<path class="st0" d="M21.5,67.4l-3.6,0.4v-0.1c0-0.6-0.2-1.1-0.6-1.4s-0.8-0.5-1.2-0.5c-0.6,0-1.1,0.2-1.7,0.6s-1,1.1-1.3,2
		c-0.3,0.9-0.5,1.7-0.5,2.6c0,0.6,0.2,1.2,0.5,1.6c0.3,0.4,0.8,0.6,1.5,0.6c0.6,0,1.1-0.2,1.5-0.6c0.4-0.4,0.8-1,1.1-1.8l3.7,0.6
		c-0.4,1.3-1.1,2.4-2.2,3.4c-1.1,0.9-2.5,1.4-4.3,1.4c-1.8,0-3.2-0.5-4.2-1.5c-1-1-1.4-2.3-1.4-4c0-1.3,0.3-2.5,0.9-3.8
		s1.4-2.3,2.5-3c1.1-0.7,2.4-1.1,4-1.1c1.6,0,2.9,0.4,3.8,1.2C20.8,65,21.4,66.1,21.5,67.4z"/>
	<path class="st0" d="M36.6,63.2l-2.7,12.9h-3.9l1.1-5.2h-4.3l-1.1,5.2h-4l2.7-12.9h3.9l-1,4.6h4.2l1-4.6H36.6z"/>
	<path class="st0" d="M43.3,63.2l-2.7,12.9h-4l2.7-12.9H43.3z"/>
	<path class="st0" d="M58.2,63.2l-2.7,12.9h-3.7l-3.1-7.5h0L47,76.1h-3.7l2.7-12.9h3.7l3.1,7.5h0l1.6-7.5H58.2z"/>
	<path class="st0" d="M71.2,63.2l-0.6,2.8h-6.4l-0.4,2H70l-0.6,2.6h-6.2l-0.5,2.5h7L69,76.1H58.1l2.7-12.9H71.2z"/>
	<path class="st0" d="M83.5,66.7l-3.7,0.2c-0.1-1.1-0.7-1.7-1.8-1.7c-0.5,0-0.8,0.1-1.1,0.3s-0.4,0.4-0.4,0.7c0,0.2,0.1,0.4,0.3,0.6
		s0.7,0.4,1.4,0.7c1,0.4,1.7,0.7,2.3,1.1s1.1,0.8,1.5,1.3s0.6,1.2,0.6,2c0,0.8-0.2,1.4-0.6,2.1s-1,1.2-1.8,1.6s-1.9,0.6-3.3,0.6
		c-2,0-3.4-0.4-4.3-1.2s-1.3-1.8-1.3-3v-0.3l3.7-0.3c0,0.8,0.2,1.4,0.5,1.7s0.8,0.5,1.4,0.5c0.6,0,1.1-0.1,1.4-0.4s0.5-0.6,0.5-0.9
		c0-0.3-0.1-0.5-0.3-0.7c-0.2-0.2-0.7-0.5-1.5-0.8c-1.9-0.7-3-1.3-3.5-1.9c-0.5-0.6-0.7-1.3-0.7-2.1c0-0.7,0.2-1.4,0.6-2
		s1-1.1,1.8-1.4c0.8-0.3,1.7-0.5,2.8-0.5C81.5,62.9,83.3,64.2,83.5,66.7z"/>
	<path class="st0" d="M96.8,63.2l-0.6,2.8h-6.4l-0.4,2h6.2L95,70.6h-6.2l-0.5,2.5h7l-0.6,2.9H83.7l2.7-12.9H96.8z"/>
	<path class="st0" d="M116,67.4l-3.6,0.4v-0.1c0-0.6-0.2-1.1-0.6-1.4s-0.8-0.5-1.2-0.5c-0.6,0-1.1,0.2-1.7,0.6s-1,1.1-1.3,2
		c-0.3,0.9-0.5,1.7-0.5,2.6c0,0.6,0.2,1.2,0.5,1.6c0.3,0.4,0.8,0.6,1.5,0.6c0.6,0,1.1-0.2,1.5-0.6s0.8-1,1.1-1.8l3.7,0.6
		c-0.4,1.3-1.1,2.4-2.2,3.4c-1.1,0.9-2.5,1.4-4.3,1.4c-1.8,0-3.2-0.5-4.2-1.5c-1-1-1.4-2.3-1.4-4c0-1.3,0.3-2.5,0.9-3.8
		s1.4-2.3,2.5-3c1.1-0.7,2.4-1.1,4-1.1c1.6,0,2.9,0.4,3.8,1.2C115.4,65,115.9,66.1,116,67.4z"/>
	<path class="st0" d="M127.1,72.9l-0.6,3.1h-10.2l2.7-12.9h4l-2.1,9.7H127.1z"/>
	<path class="st0" d="M140.4,76.1h-3.8l-0.2-2.1h-4.1l-1,2.1h-4.2l7.2-12.9h4.2L140.4,76.1z M136.1,71.2l-0.4-4.7h0l-2.2,4.7H136.1z
		"/>
	<path class="st0" d="M154.4,66.7l-3.7,0.2c-0.1-1.1-0.7-1.7-1.8-1.7c-0.5,0-0.8,0.1-1.1,0.3s-0.4,0.4-0.4,0.7
		c0,0.2,0.1,0.4,0.3,0.6s0.7,0.4,1.4,0.7c1,0.4,1.7,0.7,2.3,1.1s1.1,0.8,1.5,1.3s0.6,1.2,0.6,2c0,0.8-0.2,1.4-0.6,2.1
		s-1,1.2-1.8,1.6s-1.9,0.6-3.3,0.6c-2,0-3.4-0.4-4.3-1.2s-1.3-1.8-1.3-3v-0.3l3.7-0.3c0,0.8,0.2,1.4,0.5,1.7s0.8,0.5,1.4,0.5
		c0.6,0,1.1-0.1,1.4-0.4s0.5-0.6,0.5-0.9c0-0.3-0.1-0.5-0.3-0.7c-0.2-0.2-0.7-0.5-1.5-0.8c-1.9-0.7-3-1.3-3.5-1.9
		c-0.5-0.6-0.7-1.3-0.7-2.1c0-0.7,0.2-1.4,0.6-2s1-1.1,1.8-1.4c0.8-0.3,1.7-0.5,2.8-0.5C152.4,62.9,154.2,64.2,154.4,66.7z"/>
	<path class="st0" d="M167.2,66.7l-3.7,0.2c-0.1-1.1-0.7-1.7-1.8-1.7c-0.5,0-0.8,0.1-1.1,0.3s-0.4,0.4-0.4,0.7
		c0,0.2,0.1,0.4,0.3,0.6s0.7,0.4,1.4,0.7c1,0.4,1.7,0.7,2.3,1.1s1.1,0.8,1.5,1.3s0.6,1.2,0.6,2c0,0.8-0.2,1.4-0.6,2.1
		s-1,1.2-1.8,1.6s-1.9,0.6-3.3,0.6c-2,0-3.4-0.4-4.3-1.2s-1.3-1.8-1.3-3v-0.3l3.7-0.3c0,0.8,0.2,1.4,0.5,1.7s0.8,0.5,1.4,0.5
		c0.6,0,1.1-0.1,1.4-0.4s0.5-0.6,0.5-0.9c0-0.3-0.1-0.5-0.3-0.7c-0.2-0.2-0.7-0.5-1.5-0.8c-1.9-0.7-3-1.3-3.5-1.9
		c-0.5-0.6-0.7-1.3-0.7-2.1c0-0.7,0.2-1.4,0.6-2s1-1.1,1.8-1.4c0.8-0.3,1.7-0.5,2.8-0.5C165.2,62.9,167,64.2,167.2,66.7z"/>
	<path class="st0" d="M174.3,63.2l-2.7,12.9h-4l2.7-12.9H174.3z"/>
	<path class="st0" d="M186.8,63.2l-0.6,2.8h-5.8l-0.5,2.3h5.7l-0.6,2.6h-5.7l-1,5.2h-3.9l2.7-12.9H186.8z"/>
	<path class="st0" d="M193,63.2l-2.7,12.9h-4l2.7-12.9H193z"/>
	<path class="st0" d="M206.1,63.2l-0.6,2.8h-6.4l-0.4,2h6.2l-0.6,2.6h-6.2l-0.5,2.5h7l-0.6,2.9h-10.9l2.7-12.9H206.1z"/>
	<path class="st0" d="M208.5,63.2h5.2c1.9,0,3.2,0.5,4.1,1.5c0.8,1,1.3,2.3,1.3,3.9c0,1.5-0.4,3-1.1,4.3s-1.6,2.2-2.6,2.6
		c-1,0.4-1.9,0.6-2.8,0.6h-6.7L208.5,63.2z M210.4,73.2h1.6c1.1,0,1.9-0.6,2.4-1.7c0.5-1.1,0.8-2.2,0.8-3.4c0-0.7-0.2-1.2-0.5-1.6
		c-0.3-0.4-0.8-0.6-1.6-0.6h-1.2L210.4,73.2z"/>
	<path class="st0" d="M232.2,66.7l-3.7,0.2c-0.1-1.1-0.7-1.7-1.8-1.7c-0.5,0-0.8,0.1-1.1,0.3s-0.4,0.4-0.4,0.7
		c0,0.2,0.1,0.4,0.3,0.6s0.7,0.4,1.4,0.7c1,0.4,1.7,0.7,2.3,1.1s1.1,0.8,1.5,1.3s0.6,1.2,0.6,2c0,0.8-0.2,1.4-0.6,2.1
		s-1,1.2-1.8,1.6s-1.9,0.6-3.3,0.6c-2,0-3.4-0.4-4.3-1.2s-1.3-1.8-1.3-3v-0.3l3.7-0.3c0,0.8,0.2,1.4,0.5,1.7s0.8,0.5,1.4,0.5
		c0.6,0,1.1-0.1,1.4-0.4s0.5-0.6,0.5-0.9c0-0.3-0.1-0.5-0.3-0.7c-0.2-0.2-0.7-0.5-1.5-0.8c-1.9-0.7-3-1.3-3.5-1.9
		c-0.5-0.6-0.7-1.3-0.7-2.1c0-0.7,0.2-1.4,0.6-2s1-1.1,1.8-1.4c0.8-0.3,1.7-0.5,2.8-0.5C230.2,62.9,232,64.2,232.2,66.7z"/>
</g>
</svg>
