<?xml version="1.0" encoding="utf-8"?>
<!-- Generator: Adobe Illustrator 22.0.0, SVG Export Plug-In . SVG Version: 6.00 Build 0)  -->
<svg version="1.1" id="Layer_1" xmlns="http://www.w3.org/2000/svg" xmlns:xlink="http://www.w3.org/1999/xlink" x="0px" y="0px"
	 viewBox="0 0 294.1 81.3" style="enable-background:new 0 0 294.1 81.3;" xml:space="preserve">
<style type="text/css">
	.st0{fill:#FFFFFF;}
</style>
<g>
	<path class="st0" d="M39.1,25.7h47.8l-3.7,20.8c-0.9,4.9-4.1,7.3-9.7,7.3H56.7l1.5-8.2h13.6c1.5,0,2.3-0.6,2.5-1.7l1.8-10H56.5
		l-10,17.3c-0.9,1.8-2.2,2.7-3.8,2.7h-9.1l1.5-8.2h3.9c0.4,0,0.7-0.2,1-0.7l6.3-11.1h-8.7L39.1,25.7z M48.8,5.5h9.8l-7.3,14.3
		c-1.6,3.2-3.6,4.8-6,4.8h-6.4l1.4-8.1h2.7c0.8,0,1.6-0.8,2.4-2.5L48.8,5.5z M59.6,3.3h21.3c1.4,0,2.4,0.5,3.1,1.6l3.5,8.5
		c0.4,1.3,1.1,1.9,2.1,1.9h0.7l-1.7,9.5h-4.2c-1.3,0-2.5-0.9-3.6-2.8l-5.1-9.5c-0.6-0.5-1.3-0.8-2.1-0.8H58.2L59.6,3.3z"/>
	<path class="st0" d="M118.2,35.4l-1.2,7.1h-7.4l1.9,3.7c0.4,0.5,1,0.7,1.9,0.7h2.2l-1.2,6.9H109c-2,0-3.3-0.6-3.9-1.8l-2.3-4.6
		l-3.9,4.7c-0.8,1.1-1.9,1.7-3.3,1.7h-5.8l1.2-6.9h2.7c0.7,0,1.2-0.2,1.7-0.7l2.8-3.7h-6.9l1.3-7.1h8.7l0.6-3.6h7.7l-0.6,3.6h1.7
		l-0.1-3.3h6.4l0.2,3.3H118.2z M98.3,4.6h6.4l-0.1,6.6h0.9l1.5-8.5h7.5l-1.5,8.5h0.8l2.4-6.6h6.4l-2.4,6.6h1.7l-1.2,6.9h-8.9
		l-0.3,1.7h6l0.4,2.9c0,1.1,0.4,1.7,1.2,1.7h0.7l-1.1,6.3h-4c-2,0-3-1.2-3.1-3.5l-0.4-5.5l-1.6,8.9h-7.5l1.6-9.2l-3.2,7.1
		c-0.9,2-2.6,3-5.1,3h-2.9l1.1-6.4h0.7c0.4,0,0.8-0.3,1.2-0.9l2-4.4h6.5l0.3-1.5h-8.9l1.2-6.9h1.5L98.3,4.6z M120.3,45.8h8.4l-4.4,6
		c-1,1.3-2.3,2-4.1,2h-4.9l1.1-6.4h1.8c0.4,0,0.7-0.1,0.9-0.4L120.3,45.8z M149.3,3l-1.2,6.9h-8.3l-0.9,2.4h8.6l-4.8,27.3
		c-0.6,3.4-2.9,5.1-6.9,5.1h-18.4l5.7-32.4h6.8l1-2.4h-7.7l1.2-6.9H149.3z M132.7,37.9c1.3,0,2.1-0.5,2.3-1.6l0.1-0.4h-8.4l-0.4,2
		H132.7z M127.8,29.7h8.4l0.4-2.2h-8.4L127.8,29.7z M129.3,21.3h8.4l0.4-2h-8.4L129.3,21.3z M129.9,45.8h8.1L139,47
		c0.2,0.3,0.7,0.4,1.3,0.4h1.4l-1.1,6.4h-5.5c-1.3,0-2.3-0.7-3-2L129.9,45.8z"/>
	<path class="st0" d="M204.4,12.1l-1.7,9.5h-17.7l6.3,21c0.4,1.5,0.9,2.3,1.8,2.3h5.3l-1.5,8.6h-11.7c-1.2,0-2.1-1-2.6-2.9l-6-23.4
		L163,49.8c-1.6,2.5-3.1,3.8-4.7,3.8h-12.4l1.5-8.6h6.3c1.1,0,2.5-1.6,4.3-4.7l10.9-18.6h-16.7l1.7-9.5h19.8l1.6-9.3h10.1l-1.6,9.3
		H204.4z"/>
	<path class="st0" d="M257.9,22.3l-1.4,7.8h-19.4l-0.7,4.2H255l-1.4,7.7H235l-0.5,3.1h20.4l-1.5,8.4h-50.1l1.5-8.4h20l0.5-3.1H207
		l1.4-7.7h18.2l0.7-4.2h-19.3l1.4-7.8H257.9z M220.4,11.3h-6l1.5-8.2h35.6c0.6,0,0.9,0.2,1,0.6l4.5,8.5c0.1,0.3,0.4,0.4,0.9,0.4h2.9
		l-1.5,8.7h-8.9c-0.5,0-0.8-0.2-0.9-0.6l-4.5-8.9c-0.1-0.3-0.4-0.4-0.8-0.4h-13.6l-4.3,6.3c-1.6,2.3-3.7,3.5-6.3,3.5h-11.5l1.3-7.5
		h7.5c1,0,1.9-0.5,2.5-1.5L220.4,11.3z"/>
</g>
<g>
	<path class="st0" d="M48.5,66.6L44.7,67V67c0-0.7-0.2-1.1-0.6-1.5c-0.4-0.3-0.8-0.5-1.3-0.5c-0.6,0-1.2,0.2-1.8,0.7
		c-0.6,0.5-1,1.1-1.4,2.1s-0.5,1.8-0.5,2.7c0,0.7,0.2,1.2,0.5,1.7c0.4,0.5,0.9,0.7,1.6,0.7c0.6,0,1.2-0.2,1.6-0.6
		c0.4-0.4,0.8-1,1.1-1.9l3.9,0.6c-0.4,1.4-1.2,2.6-2.3,3.5s-2.6,1.4-4.5,1.4c-1.9,0-3.4-0.5-4.4-1.6c-1-1-1.5-2.4-1.5-4.2
		c0-1.3,0.3-2.7,0.9-4c0.6-1.3,1.5-2.4,2.6-3.1c1.2-0.8,2.5-1.1,4.2-1.1c1.7,0,3,0.4,4,1.3C47.8,64.1,48.3,65.2,48.5,66.6z"/>
	<path class="st0" d="M64.3,62.2l-2.9,13.5h-4.1l1.2-5.5H54l-1.1,5.5h-4.2l2.9-13.5h4.1l-1,4.8h4.5l1-4.8H64.3z"/>
	<path class="st0" d="M71.4,62.2l-2.9,13.5h-4.2l2.9-13.5H71.4z"/>
	<path class="st0" d="M87,62.2l-2.9,13.5h-3.9L77,67.8h0l-1.7,7.9h-3.9l2.9-13.5h3.9l3.3,7.9h0l1.7-7.9H87z"/>
	<path class="st0" d="M100.6,62.2l-0.6,2.9h-6.8l-0.4,2.1h6.5L98.7,70h-6.5l-0.6,2.6H99l-0.7,3.1H86.9l2.8-13.5H100.6z"/>
	<path class="st0" d="M113.6,65.9l-3.9,0.2c-0.1-1.2-0.7-1.8-1.9-1.8c-0.5,0-0.9,0.1-1.1,0.3c-0.3,0.2-0.4,0.5-0.4,0.8
		c0,0.2,0.1,0.4,0.3,0.6c0.2,0.2,0.7,0.4,1.5,0.7c1,0.4,1.8,0.8,2.5,1.1c0.6,0.3,1.1,0.8,1.5,1.4c0.4,0.6,0.6,1.3,0.6,2.1
		c0,0.8-0.2,1.5-0.6,2.2c-0.4,0.7-1.1,1.2-1.9,1.7c-0.8,0.4-2,0.7-3.5,0.7c-2.1,0-3.6-0.4-4.5-1.2s-1.3-1.9-1.3-3.2v-0.3l3.9-0.3
		c0,0.8,0.2,1.4,0.5,1.8c0.4,0.3,0.9,0.5,1.5,0.5c0.7,0,1.2-0.1,1.5-0.4c0.3-0.3,0.5-0.6,0.5-1c0-0.3-0.1-0.5-0.3-0.8
		c-0.2-0.2-0.8-0.5-1.6-0.8c-2-0.7-3.2-1.4-3.7-2c-0.5-0.6-0.8-1.3-0.8-2.2c0-0.8,0.2-1.5,0.6-2.1c0.4-0.6,1-1.1,1.9-1.5
		c0.8-0.4,1.8-0.5,2.9-0.5C111.4,61.9,113.3,63.3,113.6,65.9z"/>
	<path class="st0" d="M127.5,62.2l-0.6,2.9h-6.8l-0.4,2.1h6.5l-0.6,2.7h-6.5l-0.6,2.6h7.3l-0.7,3.1h-11.4l2.8-13.5H127.5z"/>
	<path class="st0" d="M147.7,66.6l-3.8,0.4V67c0-0.7-0.2-1.1-0.6-1.5c-0.4-0.3-0.8-0.5-1.3-0.5c-0.6,0-1.2,0.2-1.8,0.7
		c-0.6,0.5-1,1.1-1.4,2.1s-0.5,1.8-0.5,2.7c0,0.7,0.2,1.2,0.5,1.7c0.4,0.5,0.9,0.7,1.6,0.7c0.6,0,1.2-0.2,1.6-0.6
		c0.4-0.4,0.8-1,1.1-1.9L147,71c-0.4,1.4-1.2,2.6-2.3,3.5s-2.6,1.4-4.5,1.4c-1.9,0-3.4-0.5-4.4-1.6c-1-1-1.5-2.4-1.5-4.2
		c0-1.3,0.3-2.7,0.9-4c0.6-1.3,1.5-2.4,2.6-3.1c1.2-0.8,2.5-1.1,4.2-1.1c1.7,0,3,0.4,4,1.3C147,64.1,147.5,65.2,147.7,66.6z"/>
	<path class="st0" d="M159.3,72.4l-0.7,3.3h-10.7l2.8-13.5h4.2l-2.2,10.2H159.3z"/>
	<path class="st0" d="M173.3,75.7h-4l-0.2-2.2h-4.3l-1,2.2h-4.4l7.5-13.5h4.4L173.3,75.7z M168.8,70.6l-0.4-4.9h0l-2.3,4.9H168.8z"
		/>
	<path class="st0" d="M188,65.9l-3.9,0.2c-0.1-1.2-0.7-1.8-1.9-1.8c-0.5,0-0.9,0.1-1.1,0.3s-0.4,0.5-0.4,0.8c0,0.2,0.1,0.4,0.3,0.6
		c0.2,0.2,0.7,0.4,1.5,0.7c1,0.4,1.8,0.8,2.5,1.1c0.6,0.3,1.1,0.8,1.5,1.4c0.4,0.6,0.6,1.3,0.6,2.1c0,0.8-0.2,1.5-0.6,2.2
		s-1.1,1.2-1.9,1.7c-0.8,0.4-2,0.7-3.5,0.7c-2.1,0-3.6-0.4-4.5-1.2c-0.9-0.8-1.3-1.9-1.3-3.2v-0.3l3.9-0.3c0,0.8,0.2,1.4,0.5,1.8
		c0.4,0.3,0.9,0.5,1.5,0.5c0.7,0,1.2-0.1,1.5-0.4s0.5-0.6,0.5-1c0-0.3-0.1-0.5-0.3-0.8c-0.2-0.2-0.8-0.5-1.6-0.8
		c-2-0.7-3.2-1.4-3.7-2c-0.5-0.6-0.8-1.3-0.8-2.2c0-0.8,0.2-1.5,0.6-2.1s1-1.1,1.9-1.5c0.8-0.4,1.8-0.5,2.9-0.5
		C185.8,61.9,187.7,63.3,188,65.9z"/>
	<path class="st0" d="M201.4,65.9l-3.9,0.2c-0.1-1.2-0.7-1.8-1.9-1.8c-0.5,0-0.9,0.1-1.1,0.3s-0.4,0.5-0.4,0.8
		c0,0.2,0.1,0.4,0.3,0.6s0.7,0.4,1.5,0.7c1,0.4,1.8,0.8,2.5,1.1c0.6,0.3,1.1,0.8,1.5,1.4c0.4,0.6,0.6,1.3,0.6,2.1
		c0,0.8-0.2,1.5-0.7,2.2c-0.4,0.7-1.1,1.2-1.9,1.7c-0.8,0.4-2,0.7-3.5,0.7c-2.1,0-3.6-0.4-4.5-1.2s-1.3-1.9-1.3-3.2v-0.3l3.9-0.3
		c0,0.8,0.2,1.4,0.6,1.8c0.4,0.3,0.9,0.5,1.5,0.5c0.7,0,1.2-0.1,1.5-0.4c0.3-0.3,0.5-0.6,0.5-1c0-0.3-0.1-0.5-0.3-0.8
		c-0.2-0.2-0.8-0.5-1.6-0.8c-2-0.7-3.2-1.4-3.7-2c-0.5-0.6-0.8-1.3-0.8-2.2c0-0.8,0.2-1.5,0.6-2.1c0.4-0.6,1-1.1,1.9-1.5
		c0.8-0.4,1.8-0.5,2.9-0.5C199.3,61.9,201.2,63.3,201.4,65.9z"/>
	<path class="st0" d="M208.8,62.2L206,75.7h-4.2l2.9-13.5H208.8z"/>
	<path class="st0" d="M221.9,62.2l-0.6,2.9h-6.1l-0.5,2.4h6l-0.6,2.7h-6l-1.1,5.5h-4.1l2.8-13.5H221.9z"/>
	<path class="st0" d="M228.5,62.2l-2.9,13.5h-4.2l2.9-13.5H228.5z"/>
	<path class="st0" d="M242.2,62.2l-0.6,2.9h-6.8l-0.4,2.1h6.5l-0.6,2.7h-6.5l-0.6,2.6h7.3l-0.7,3.1h-11.4l2.8-13.5H242.2z"/>
	<path class="st0" d="M244.8,62.2h5.5c1.9,0,3.4,0.5,4.3,1.6c0.9,1,1.3,2.4,1.3,4.1c0,1.6-0.4,3.1-1.1,4.5S253,74.6,252,75
		c-1,0.4-2,0.7-3,0.7h-7L244.8,62.2z M246.7,72.7h1.7c1.1,0,2-0.6,2.5-1.8c0.6-1.2,0.8-2.4,0.8-3.5c0-0.7-0.2-1.2-0.5-1.6
		c-0.3-0.4-0.9-0.6-1.7-0.6h-1.3L246.7,72.7z"/>
</g>
</svg>
