<svg xmlns="http://www.w3.org/2000/svg" viewBox="0 0 77.29 71.45"><defs><style>.cls-1{fill:#f6f6f6;}</style></defs><title>Logo-icon-light</title><g id="Layer_2" data-name="Layer 2"><g id="Layer_1-2" data-name="Layer 1"><path class="cls-1" d="M39.49,0A53.74,53.74,0,0,1,33,11a87.64,87.64,0,0,1-8.14,9.36,86.56,86.56,0,0,1-9.35,8.14A53.29,53.29,0,0,1,4.5,35,53.07,53.07,0,0,1,11,24a86.65,86.65,0,0,1,8.15-9.35,90,90,0,0,1,9.36-8.14A53.93,53.93,0,0,1,39.49,0Z"/><path class="cls-1" d="M71.44,36.45a53.93,53.93,0,0,1-6.53,11,88.78,88.78,0,0,1-8.14,9.36,86.65,86.65,0,0,1-9.35,8.15,53.54,53.54,0,0,1-11,6.53,53.1,53.1,0,0,1,6.53-11,86.56,86.56,0,0,1,8.14-9.35A87.9,87.9,0,0,1,60.48,43,53.39,53.39,0,0,1,71.44,36.45Z"/><path class="cls-1" d="M40.5,2.74A54.06,54.06,0,0,1,51.79,8.69a87.6,87.6,0,0,1,9.78,7.64,85.44,85.44,0,0,1,8.62,8.91,53.67,53.67,0,0,1,7.1,10.61A53.26,53.26,0,0,1,66,29.91a86.21,86.21,0,0,1-9.76-7.64,86.55,86.55,0,0,1-8.62-8.92A53,53,0,0,1,40.5,2.74Z"/><path class="cls-1" d="M0,34.24a54.06,54.06,0,0,1,11.29,5.95,88.7,88.7,0,0,1,9.78,7.63,87.7,87.7,0,0,1,8.63,8.92,53.35,53.35,0,0,1,7.09,10.61,52.94,52.94,0,0,1-11.3-5.94,86.58,86.58,0,0,1-9.77-7.64A88.65,88.65,0,0,1,7.1,44.85,54,54,0,0,1,0,34.24Z"/><path class="cls-1" d="M29.92,41V40.2a3.48,3.48,0,0,1-2,.84h-.71q-3,0-3-3.17a2.39,2.39,0,0,1,1-2.09,4.52,4.52,0,0,1,2.73-.72h2v-.51c0-.41-.25-.6-.72-.6H28.1a.6.6,0,0,0-.66.68h-3c0-2.16,1-3.23,3-3.23H30q2.89,0,2.9,3.15V41Zm-2-3.77a1,1,0,0,0-.59.16.58.58,0,0,0-.19.44.61.61,0,0,0,.68.68h.1a2.52,2.52,0,0,0,1.61-.37,1.27,1.27,0,0,0,.41-.91Z"/><path class="cls-1" d="M34.68,36.16V34.24c0-1.9.73-2.84,2.15-2.84h1.44a2.79,2.79,0,0,1,1.66.86V28.6h3.12V41H39.93v-.88a2.73,2.73,0,0,1-1.66.88H36.83c-1.43,0-2.15-1-2.15-2.93ZM37.8,37c0,.85.22,1.27.63,1.27h.85c.44,0,.65-.42.65-1.27V35.35c0-.8-.21-1.2-.65-1.2h-.85q-.63,0-.63,1.2V37Z"/><path class="cls-1" d="M50.36,34.5c0-.37-.16-.55-.47-.55H48.34c-.32,0-.49.15-.5.42,0,.05,0,.14,0,.26s.17.4.49.4H51c1.62,0,2.42.75,2.42,2.25v1.55c0,1.46-.77,2.2-2.33,2.2H47.2c-1.63,0-2.45-1.07-2.45-3.18h3a.57.57,0,0,0,.63.63h1.59c.38,0,.58-.19.58-.52v-.11c0-.38-.2-.56-.58-.56H47.39c-1.66,0-2.49-.8-2.49-2.36V33.78c0-1.59.87-2.38,2.58-2.38h3.45c1.59,0,2.39,1,2.39,3.1Z"/><path class="cls-1" d="M58.63,38.06V41H55.51V38.06Z"/></g></g></svg>