<?xml version="1.0" encoding="utf-8"?>
<!-- Generator: Adobe Illustrator 21.1.0, SVG Export Plug-In . SVG Version: 6.00 Build 0)  -->
<svg version="1.1" id="Layer_1" xmlns="http://www.w3.org/2000/svg" xmlns:xlink="http://www.w3.org/1999/xlink" x="0px" y="0px"
	 viewBox="0 0 247.5 81.3" style="enable-background:new 0 0 247.5 81.3;" xml:space="preserve">
<style type="text/css">
	.st0{fill:#F15A24;}
</style>
<g>
	<path class="st0" d="M11.8,25.7h47.8L56,46.5c-0.9,4.9-4.1,7.3-9.7,7.3H29.4l1.5-8.2h13.6c1.5,0,2.3-0.6,2.5-1.7l1.8-10H29.3
		l-10,17.3c-0.9,1.8-2.2,2.7-3.8,2.7H6.4l1.5-8.2h3.9c0.4,0,0.7-0.2,1-0.7l6.3-11.1h-8.7L11.8,25.7z M21.5,5.5h9.8L24,19.8
		c-1.6,3.2-3.6,4.8-6,4.8h-6.4l1.4-8.1h2.7c0.8,0,1.6-0.8,2.4-2.5L21.5,5.5z M32.4,3.3h21.3c1.4,0,2.4,0.5,3.1,1.6l3.5,8.5
		c0.4,1.3,1.1,1.9,2.1,1.9H63l-1.7,9.5h-4.2c-1.3,0-2.5-0.9-3.6-2.8l-5.1-9.5c-0.6-0.5-1.3-0.8-2.1-0.8H30.9L32.4,3.3z"/>
	<path class="st0" d="M90.9,35.4l-1.2,7.1h-7.4l1.9,3.7c0.4,0.5,1,0.7,1.9,0.7h2.2L87,53.8h-5.3c-2,0-3.3-0.6-3.9-1.8l-2.3-4.6
		l-3.9,4.7c-0.8,1.1-1.9,1.7-3.3,1.7h-5.8l1.2-6.9h2.7c0.7,0,1.2-0.2,1.7-0.7l2.8-3.7h-6.9l1.2-7.1h8.7l0.6-3.6h7.7l-0.6,3.6h1.7
		l-0.1-3.3h6.4l0.2,3.3H90.9z M71.1,4.6h6.4l-0.1,6.6h0.9l1.5-8.5h7.5l-1.5,8.5h0.8L89,4.6h6.4L93,11.3h1.7l-1.2,6.9h-8.9l-0.3,1.7
		h6l0.4,2.9c0,1.1,0.4,1.7,1.2,1.7h0.7l-1.1,6.3h-4c-2,0-3-1.2-3.1-3.5L84,21.7l-1.6,8.9H75l1.6-9.2l-3.2,7.1c-0.9,2-2.6,3-5.1,3
		h-2.9l1.1-6.4h0.7c0.4,0,0.8-0.3,1.2-0.9l2-4.4h6.5l0.3-1.5h-8.9l1.2-6.9H71L71.1,4.6z M93.1,45.8h8.4l-4.4,6c-1,1.3-2.3,2-4.1,2
		h-4.9l1.1-6.4H91c0.4,0,0.7-0.1,0.9-0.4L93.1,45.8z M122.1,3l-1.2,6.9h-8.3l-0.9,2.4h8.6l-4.8,27.3c-0.6,3.4-2.9,5.1-6.9,5.1H90.1
		l5.7-32.4h6.8l1-2.4h-7.7L97,3H122.1z M105.5,37.9c1.3,0,2.1-0.5,2.3-1.6l0.1-0.4h-8.4l-0.4,2H105.5z M100.6,29.7h8.4l0.4-2.2H101
		L100.6,29.7z M102.1,21.3h8.4l0.4-2h-8.4L102.1,21.3z M102.6,45.8h8.1l1.1,1.2c0.2,0.3,0.7,0.4,1.3,0.4h1.4l-1.1,6.4h-5.5
		c-1.3,0-2.3-0.7-3-2L102.6,45.8z"/>
	<path d="M177.2,12.1l-1.7,9.5h-17.7l6.3,21c0.4,1.5,0.9,2.3,1.8,2.3h5.3l-1.5,8.6h-11.7c-1.2,0-2.1-1-2.6-2.9l-6-23.4l-13.5,22.5
		c-1.6,2.5-3.1,3.8-4.7,3.8h-12.4l1.5-8.6h6.3c1.1,0,2.5-1.6,4.3-4.7l10.9-18.6H125l1.7-9.5h19.8l1.6-9.3h10.1l-1.6,9.3H177.2z"/>
	<path d="M230.7,22.3l-1.4,7.8h-19.4l-0.7,4.2h18.6l-1.4,7.7h-18.6l-0.5,3.1h20.4l-1.5,8.4H176l1.5-8.4h20l0.5-3.1h-18.2l1.4-7.7
		h18.2l0.7-4.2h-19.3l1.4-7.8H230.7z M193.2,11.3h-6l1.5-8.2h35.6c0.6,0,0.9,0.2,1,0.6l4.5,8.5c0.1,0.3,0.4,0.4,0.9,0.4h2.9
		l-1.5,8.7h-8.9c-0.5,0-0.8-0.2-0.9-0.6l-4.5-8.9c-0.1-0.3-0.4-0.4-0.8-0.4h-13.6l-4.3,6.3c-1.6,2.3-3.7,3.5-6.3,3.5h-11.5l1.3-7.5
		h7.5c1,0,1.9-0.5,2.5-1.5L193.2,11.3z"/>
</g>
<g>
	<path d="M21.2,66.6L17.4,67V67c0-0.7-0.2-1.1-0.6-1.5C16.5,65.2,16,65,15.6,65c-0.6,0-1.2,0.2-1.8,0.7c-0.6,0.5-1,1.1-1.4,2.1
		s-0.5,1.8-0.5,2.7c0,0.7,0.2,1.2,0.5,1.7c0.4,0.5,0.9,0.7,1.6,0.7c0.6,0,1.2-0.2,1.6-0.6c0.4-0.4,0.8-1,1.1-1.9l3.9,0.6
		c-0.4,1.4-1.2,2.6-2.3,3.5c-1.1,1-2.6,1.4-4.5,1.4c-1.9,0-3.4-0.5-4.4-1.6c-1-1-1.5-2.4-1.5-4.2c0-1.3,0.3-2.7,0.9-4
		s1.5-2.4,2.6-3.1c1.2-0.8,2.5-1.1,4.2-1.1c1.7,0,3,0.4,4,1.3C20.5,64.1,21.1,65.2,21.2,66.6z"/>
	<path d="M37,62.2l-2.9,13.5H30l1.2-5.5h-4.5l-1.1,5.5h-4.2l2.9-13.5h4.1l-1,4.8h4.5l1-4.8H37z"/>
	<path class="st0" d="M44.1,62.2l-2.9,13.5h-4.2L40,62.2H44.1z"/>
	<path d="M59.7,62.2l-2.9,13.5H53l-3.3-7.9h0L48,75.7h-3.9L47,62.2h3.9l3.3,7.9h0l1.7-7.9H59.7z"/>
	<path d="M73.4,62.2l-0.6,2.9H66l-0.4,2.1h6.5L71.5,70H65l-0.6,2.6h7.3l-0.7,3.1H59.6l2.8-13.5H73.4z"/>
	<path d="M86.3,65.9l-3.9,0.2c-0.1-1.2-0.7-1.8-1.9-1.8c-0.5,0-0.9,0.1-1.1,0.3c-0.3,0.2-0.4,0.5-0.4,0.8c0,0.2,0.1,0.4,0.3,0.6
		c0.2,0.2,0.7,0.4,1.5,0.7c1,0.4,1.8,0.8,2.5,1.1c0.6,0.3,1.1,0.8,1.5,1.4c0.4,0.6,0.6,1.3,0.6,2.1c0,0.8-0.2,1.5-0.6,2.2
		s-1.1,1.2-1.9,1.7c-0.8,0.4-2,0.7-3.5,0.7c-2.1,0-3.6-0.4-4.5-1.2s-1.3-1.9-1.3-3.2v-0.3l3.9-0.3c0,0.8,0.2,1.4,0.5,1.8
		c0.4,0.3,0.9,0.5,1.5,0.5c0.7,0,1.2-0.1,1.5-0.4s0.5-0.6,0.5-1c0-0.3-0.1-0.5-0.3-0.8c-0.2-0.2-0.8-0.5-1.6-0.8
		c-2-0.7-3.2-1.4-3.7-2c-0.5-0.6-0.8-1.3-0.8-2.2c0-0.8,0.2-1.5,0.6-2.1s1-1.1,1.9-1.5c0.8-0.4,1.8-0.5,2.9-0.5
		C84.2,61.9,86.1,63.3,86.3,65.9z"/>
	<path d="M100.2,62.2l-0.6,2.9h-6.8l-0.4,2.1h6.5L98.3,70h-6.5l-0.6,2.6h7.3L98,75.7H86.5l2.8-13.5H100.2z"/>
	<path d="M120.4,66.6l-3.8,0.4V67c0-0.7-0.2-1.1-0.6-1.5c-0.4-0.3-0.8-0.5-1.3-0.5c-0.6,0-1.2,0.2-1.8,0.7c-0.6,0.5-1,1.1-1.4,2.1
		s-0.5,1.8-0.5,2.7c0,0.7,0.2,1.2,0.5,1.7c0.4,0.5,0.9,0.7,1.6,0.7c0.6,0,1.2-0.2,1.6-0.6c0.4-0.4,0.8-1,1.1-1.9l3.9,0.6
		c-0.4,1.4-1.2,2.6-2.3,3.5c-1.1,1-2.6,1.4-4.5,1.4c-1.9,0-3.4-0.5-4.4-1.6c-1-1-1.5-2.4-1.5-4.2c0-1.3,0.3-2.7,0.9-4
		s1.5-2.4,2.6-3.1c1.2-0.8,2.5-1.1,4.2-1.1c1.7,0,3,0.4,4,1.3C119.7,64.1,120.3,65.2,120.4,66.6z"/>
	<path d="M132.1,72.4l-0.7,3.3h-10.7l2.8-13.5h4.2l-2.2,10.2H132.1z"/>
	<path d="M146,75.7h-4l-0.2-2.2h-4.3l-1,2.2H132l7.5-13.5h4.4L146,75.7z M141.5,70.6l-0.4-4.9h0l-2.3,4.9H141.5z"/>
	<path d="M160.7,65.9l-3.9,0.2c-0.1-1.2-0.7-1.8-1.9-1.8c-0.5,0-0.9,0.1-1.1,0.3c-0.3,0.2-0.4,0.5-0.4,0.8c0,0.2,0.1,0.4,0.3,0.6
		c0.2,0.2,0.7,0.4,1.5,0.7c1,0.4,1.8,0.8,2.5,1.1c0.6,0.3,1.1,0.8,1.5,1.4c0.4,0.6,0.6,1.3,0.6,2.1c0,0.8-0.2,1.5-0.6,2.2
		s-1.1,1.2-1.9,1.7c-0.8,0.4-2,0.7-3.5,0.7c-2.1,0-3.6-0.4-4.5-1.2s-1.3-1.9-1.3-3.2v-0.3l3.9-0.3c0,0.8,0.2,1.4,0.5,1.8
		c0.4,0.3,0.9,0.5,1.5,0.5c0.7,0,1.2-0.1,1.5-0.4s0.5-0.6,0.5-1c0-0.3-0.1-0.5-0.3-0.8c-0.2-0.2-0.8-0.5-1.6-0.8
		c-2-0.7-3.2-1.4-3.7-2c-0.5-0.6-0.8-1.3-0.8-2.2c0-0.8,0.2-1.5,0.6-2.1s1-1.1,1.9-1.5c0.8-0.4,1.8-0.5,2.9-0.5
		C158.6,61.9,160.5,63.3,160.7,65.9z"/>
	<path d="M174.2,65.9l-3.9,0.2c-0.1-1.2-0.7-1.8-1.9-1.8c-0.5,0-0.9,0.1-1.1,0.3c-0.3,0.2-0.4,0.5-0.4,0.8c0,0.2,0.1,0.4,0.3,0.6
		c0.2,0.2,0.7,0.4,1.5,0.7c1,0.4,1.8,0.8,2.5,1.1c0.6,0.3,1.1,0.8,1.5,1.4c0.4,0.6,0.6,1.3,0.6,2.1c0,0.8-0.2,1.5-0.6,2.2
		s-1.1,1.2-1.9,1.7c-0.8,0.4-2,0.7-3.5,0.7c-2.1,0-3.6-0.4-4.5-1.2s-1.3-1.9-1.3-3.2v-0.3l3.9-0.3c0,0.8,0.2,1.4,0.5,1.8
		c0.4,0.3,0.9,0.5,1.5,0.5c0.7,0,1.2-0.1,1.5-0.4s0.5-0.6,0.5-1c0-0.3-0.1-0.5-0.3-0.8c-0.2-0.2-0.8-0.5-1.6-0.8
		c-2-0.7-3.2-1.4-3.7-2c-0.5-0.6-0.8-1.3-0.8-2.2c0-0.8,0.2-1.5,0.6-2.1s1-1.1,1.9-1.5c0.8-0.4,1.8-0.5,2.9-0.5
		C172,61.9,173.9,63.3,174.2,65.9z"/>
	<path class="st0" d="M181.6,62.2l-2.9,13.5h-4.2l2.9-13.5H181.6z"/>
	<path d="M194.7,62.2l-0.6,2.9H188l-0.5,2.4h6l-0.6,2.7h-6l-1.1,5.5h-4.1l2.8-13.5H194.7z"/>
	<path class="st0" d="M201.2,62.2l-2.9,13.5h-4.2l2.9-13.5H201.2z"/>
	<path d="M215,62.2l-0.6,2.9h-6.8l-0.4,2.1h6.5l-0.6,2.7h-6.5l-0.6,2.6h7.3l-0.7,3.1h-11.4l2.8-13.5H215z"/>
	<path d="M217.5,62.2h5.5c1.9,0,3.4,0.5,4.3,1.6c0.9,1,1.3,2.4,1.3,4.1c0,1.6-0.4,3.1-1.1,4.5c-0.8,1.4-1.7,2.3-2.7,2.7
		c-1,0.4-2,0.7-3,0.7h-7L217.5,62.2z M219.5,72.7h1.7c1.1,0,2-0.6,2.5-1.8c0.6-1.2,0.8-2.4,0.8-3.5c0-0.7-0.2-1.2-0.5-1.6
		c-0.3-0.4-0.9-0.6-1.7-0.6H221L219.5,72.7z"/>
</g>
</svg>
