<?xml version="1.0" encoding="utf-8"?>
<!-- Generator: Adobe Illustrator 21.1.0, SVG Export Plug-In . SVG Version: 6.00 Build 0)  -->
<svg version="1.1" id="Layer_1" xmlns="http://www.w3.org/2000/svg" xmlns:xlink="http://www.w3.org/1999/xlink" x="0px" y="0px"
	 viewBox="0 0 126.1 126" style="enable-background:new 0 0 126.1 126;" xml:space="preserve">
<style type="text/css">
	.st0{fill:none;stroke:#F15A29;stroke-miterlimit:10;}
	.st1{fill-rule:evenodd;clip-rule:evenodd;}
</style>
<g>
	<g>
		<path class="st0" d="M125.6,63c0,34.5-28,62.5-62.5,62.5c-34.5,0-62.5-28-62.5-62.5S28.5,0.5,63,0.5C97.6,0.5,125.6,28.5,125.6,63
			"/>
	</g>
</g>
<g>
	<path class="st1" d="M67.3,81.7c-1.1,0.1-2,0.2-2.9,0.3c-1.8,0.1-3.4-0.5-4.8-1.7c-4.9-4.1-9.4-8.6-13.7-13.3
		c-1.5-1.7-2-3.7-1.6-5.9c0.1-0.5,0.2-0.9,0.2-1.5c-5-4.8-9.9-9.6-14.9-14.5c-0.2-0.2-0.4-0.3-0.6-0.4c-1.2,1.1-1.7,2.5-2,4
		c-0.7,2.9-0.4,5.7,0.2,8.6c0.9,4.5,2.9,8.5,5.4,12.3c6.5,9.5,14.5,17.4,24.2,23.6c2.5,1.6,5.1,2.9,7.9,3.9c2.8,1,5.8,1.7,8.8,1.8
		c1.9,0.1,3.9,0,5.7-0.6c1.1-0.3,2.3-0.8,3.1-1.7c-0.2-0.3-0.3-0.5-0.4-0.6C77,91.2,72.1,86.4,67.3,81.7z"/>
	<path class="st1" d="M99.4,62.8c-0.1-4.4-1.3-8.5-3.2-12.5c-2.7-5.7-6.7-10.4-11.5-14.4c-5.1-4.3-10.8-7.2-17.3-8.4
		c-2.6-0.5-5.2-0.7-7.9-0.2c-0.6,0.1-1.2,0.2-1.7,0.5c-1.4,0.7-2.1,2.1-1.9,3.7c0.2,1.5,1.1,2.7,2.6,3.1c0.6,0.2,1.3,0.2,2,0.2
		c0.7,0,1.3-0.1,2-0.2c3.2-0.1,6.2,0.7,9.1,1.9c3.7,1.6,6.9,3.8,9.9,6.6C85,46.5,88,50.3,90,54.9c1.2,2.9,1.9,5.9,1.7,9.1
		c0,1,0,1.9,0,2.9c0.1,1.7,1.2,3,2.8,3.3c1.8,0.4,3.5-0.4,4.2-2c0.3-0.5,0.5-1.1,0.5-1.7C99.3,65.3,99.4,64.1,99.4,62.8z"/>
	<path class="st1" d="M61.7,48.3c0.4,0.2,0.9,0.3,1.4,0.4c7.5,1.3,13.5,7.8,14.6,14.5c0,0.3,0.1,0.6,0.2,0.9
		c0.6,2.3,2.6,3.1,4.2,2.9c2-0.3,3.2-1.8,3.2-4.1c0-0.3-0.1-0.9-0.2-1.4C82.9,51,74.8,43.2,64.4,41.2c-0.5-0.1-1.1-0.1-1.6-0.1
		c-1.8,0.1-3.1,1.4-3.4,3.2C59.1,46,60,47.6,61.7,48.3z"/>
	<path class="st1" d="M47.1,56.3c1.9-1.8,3.6-3.5,5.3-5.1c1.6-1.5,1.4-2.9,0-4.3c-1.8-1.7-3.5-3.4-5.3-5.1c-1.9-1.8-3.8-3.7-5.7-5.5
		c-1.3-1.2-2.4-1.2-3.7-0.1c-1.9,1.8-3.7,3.6-5.5,5.4c0.1,0.2,0.2,0.4,0.3,0.6C37.4,46.8,42.2,51.5,47.1,56.3z"/>
	<path class="st1" d="M90.6,84c-2.1-2.1-4.2-4.1-6.3-6.2c-1.4-1.4-2.8-2.8-4.3-4.1c-0.4-0.4-0.9-0.8-1.5-0.9
		c-0.9-0.1-1.6,0.1-2.3,0.8c-1.4,1.3-2.8,2.7-4.1,4c-0.5,0.5-0.9,0.9-1.4,1.4c1,1.4,13.5,13.5,15,14.6c0.6-0.6,1.2-1.1,1.7-1.7
		c1.3-1.3,2.6-2.5,3.9-3.8c1.1-1.1,1.1-2.2,0.1-3.3C91.2,84.5,90.9,84.3,90.6,84z"/>
</g>
</svg>
