<svg xmlns="http://www.w3.org/2000/svg" xmlns:xlink="http://www.w3.org/1999/xlink" viewBox="0 0 1680.16 2835.05"><defs><style>.cls-1{mask:url(#mask);filter:url(#luminosity-noclip-2);}.cls-2{mix-blend-mode:multiply;fill:url(#radial-gradient);}.cls-3{fill:url(#linear-gradient);}.cls-4{fill:url(#New_Gradient_Swatch_200);}.cls-5{fill:url(#New_Gradient_Swatch_200-2);}.cls-6{fill:url(#New_Gradient_Swatch_200-3);}.cls-7{fill:url(#New_Gradient_Swatch_200-4);}.cls-8{fill:url(#linear-gradient-2);}.cls-9{fill:url(#New_Gradient_Swatch_200-5);}.cls-10{fill:url(#New_Gradient_Swatch_200-6);}.cls-11{fill:url(#New_Gradient_Swatch_200-7);}.cls-12{fill:url(#New_Gradient_Swatch_200-8);}.cls-13{mask:url(#mask-2);}.cls-14{fill:url(#radial-gradient-2);}.cls-15{fill:url(#linear-gradient-3);}.cls-16{fill:url(#New_Gradient_Swatch_63);}.cls-17{fill:url(#linear-gradient-4);}.cls-18{fill:url(#linear-gradient-5);}.cls-19{fill:url(#New_Gradient_Swatch_128);}.cls-20{fill:url(#linear-gradient-6);}.cls-21{fill:url(#_24);}.cls-22{fill:url(#linear-gradient-7);}.cls-23{opacity:0.79;}.cls-24{fill:url(#_49);}.cls-25{fill:url(#_49-2);}.cls-26{fill:url(#_49-3);}.cls-27{fill:url(#_49-4);}.cls-28{fill:url(#_49-5);}.cls-29{fill:url(#_49-6);}.cls-30{fill:url(#_49-7);}.cls-31{fill:url(#_49-8);}.cls-32{fill:url(#_49-9);}.cls-33{fill:url(#_49-10);}.cls-34{fill:url(#_49-11);}.cls-35{fill:url(#_49-12);}.cls-36{fill:url(#_49-13);}.cls-37{fill:url(#_49-14);}.cls-38{fill:url(#_49-15);}.cls-39{fill:url(#_49-16);}.cls-40{fill:url(#_49-17);}.cls-41{fill:url(#_49-18);}.cls-42{fill:url(#_49-19);}.cls-43{fill:url(#_49-20);}.cls-44{fill:url(#_49-21);}.cls-45{fill:url(#_49-22);}.cls-46{fill:url(#_49-23);}.cls-47{fill:url(#_49-24);}.cls-48{fill:url(#_49-25);}.cls-49{fill:url(#_49-26);}.cls-50{fill:url(#_49-27);}.cls-51{fill:url(#_49-28);}.cls-52{fill:url(#_49-29);}.cls-53{fill:url(#_49-30);}.cls-54{fill:url(#_49-31);}.cls-55{fill:url(#_49-32);}.cls-56{fill:url(#_49-33);}.cls-57{fill:url(#_49-34);}.cls-58{fill:url(#_49-35);}.cls-59{fill:url(#_49-36);}.cls-60{fill:url(#_49-37);}.cls-61{fill:url(#_49-38);}.cls-62{fill:url(#_49-39);}.cls-63{fill:url(#_49-40);}.cls-64{fill:url(#_49-41);}.cls-65{fill:url(#_49-42);}.cls-66{fill:url(#_49-43);}.cls-67{fill:url(#_49-44);}.cls-68{fill:url(#_49-45);}.cls-69{fill:url(#_49-46);}.cls-70{fill:url(#_49-47);}.cls-71{fill:url(#_49-48);}.cls-72{fill:url(#_49-49);}.cls-73{fill:url(#_49-50);}.cls-74{fill:url(#_49-51);}.cls-75{fill:url(#_49-52);}.cls-76{fill:url(#_49-53);}.cls-77{fill:url(#_49-54);}.cls-78{fill:url(#_49-55);}.cls-79{fill:url(#_49-56);}.cls-80{fill:url(#_49-57);}.cls-81{fill:url(#_49-58);}.cls-82{fill:url(#_49-59);}.cls-83{fill:url(#_49-60);}.cls-84{fill:url(#_49-61);}.cls-85{fill:url(#_49-62);}.cls-86{fill:url(#_49-63);}.cls-87{fill:url(#_49-64);}.cls-88{fill:url(#_49-65);}.cls-89{fill:url(#_49-66);}.cls-90{fill:url(#_49-67);}.cls-91{fill:url(#_49-68);}.cls-92{fill:url(#_49-69);}.cls-93{fill:url(#_49-70);}.cls-94{fill:url(#_49-71);}.cls-95{fill:url(#_49-72);}.cls-96{fill:url(#_49-73);}.cls-97{fill:url(#_49-74);}.cls-98{fill:url(#_49-75);}.cls-99{fill:url(#_49-76);}.cls-100{fill:url(#_49-77);}.cls-101{fill:url(#_49-78);}.cls-102{fill:url(#_49-79);}.cls-103{fill:url(#_49-80);}.cls-104{fill:url(#_49-81);}.cls-105{fill:url(#_49-82);}.cls-106{fill:url(#_49-83);}.cls-107{fill:url(#_49-84);}.cls-108{fill:url(#_49-85);}.cls-109{fill:url(#_49-86);}.cls-110{fill:url(#_49-87);}.cls-111{fill:url(#_49-88);}.cls-112{fill:url(#_49-89);}.cls-113{fill:url(#_49-90);}.cls-114{fill:url(#_49-91);}.cls-115{fill:url(#_49-92);}.cls-116{fill:url(#_49-93);}.cls-117{fill:url(#_49-94);}.cls-118{fill:url(#_49-95);}.cls-119{fill:url(#_49-96);}.cls-120{fill:url(#_49-97);}.cls-121{fill:url(#_49-98);}.cls-122{fill:url(#_49-99);}.cls-123{fill:url(#_49-100);}.cls-124{fill:url(#_49-101);}.cls-125{fill:url(#_49-102);}.cls-126{fill:url(#_49-103);}.cls-127{fill:url(#_49-104);}.cls-128{fill:url(#_49-105);}.cls-129{fill:url(#_49-106);}.cls-130{fill:url(#_49-107);}.cls-131{fill:url(#_49-108);}.cls-132{fill:url(#_49-109);}.cls-133{fill:url(#_49-110);}.cls-134{fill:url(#_49-111);}.cls-135{fill:#6d4812;}.cls-136{filter:url(#luminosity-noclip);}</style><filter id="luminosity-noclip" x="46.68" y="-9557.83" width="1586.8" height="32766" filterUnits="userSpaceOnUse" color-interpolation-filters="sRGB"><feFlood flood-color="#fff" result="bg"/><feBlend in="SourceGraphic" in2="bg"/></filter><mask id="mask" x="46.68" y="-9557.83" width="1586.8" height="32766" maskUnits="userSpaceOnUse"><g class="cls-136"/></mask><radialGradient id="radial-gradient" cx="840.08" cy="859.99" r="793.4" gradientUnits="userSpaceOnUse"><stop offset="0.55" stop-color="#fff"/><stop offset="0.68" stop-color="#fdfdfd"/><stop offset="0.74" stop-color="#f5f5f5"/><stop offset="0.79" stop-color="#e8e8e8"/><stop offset="0.83" stop-color="#d5d5d5"/><stop offset="0.86" stop-color="#bdbdbd"/><stop offset="0.9" stop-color="#9f9f9f"/><stop offset="0.93" stop-color="#7c7c7c"/><stop offset="0.96" stop-color="#535353"/><stop offset="0.98" stop-color="#252525"/><stop offset="1"/></radialGradient><linearGradient id="linear-gradient" x1="1091.85" y1="1193.79" x2="1091.85" y2="2773.87" gradientTransform="matrix(-0.97, -0.25, -0.25, 0.97, 2039.74, 252.4)" gradientUnits="userSpaceOnUse"><stop offset="0" stop-color="#5f3300"/><stop offset="0.11" stop-color="#613503"/><stop offset="0.18" stop-color="#683e0b"/><stop offset="0.24" stop-color="#744c19"/><stop offset="0.29" stop-color="#85602e"/><stop offset="0.33" stop-color="#9b7a48"/><stop offset="0.37" stop-color="#b69968"/><stop offset="0.41" stop-color="#d6bf8f"/><stop offset="0.45" stop-color="#fbeaba"/><stop offset="0.46" stop-color="#ffefbf"/><stop offset="0.84" stop-color="#9a7846"/><stop offset="1" stop-color="#6f4613"/></linearGradient><linearGradient id="New_Gradient_Swatch_200" x1="914.2" y1="1516.71" x2="1610.21" y2="3232.72" gradientTransform="matrix(-0.99, 0.13, 0.13, 0.99, 1489.8, -98.92)" gradientUnits="userSpaceOnUse"><stop offset="0" stop-color="#e4b54a"/><stop offset="0.21" stop-color="#f4e59a"/><stop offset="0.29" stop-color="#e9dc9c"/><stop offset="0.41" stop-color="#e0d59e"/><stop offset="0.58" stop-color="#ddd39e"/><stop offset="0.6" stop-color="#dfcb87"/><stop offset="0.63" stop-color="#e1c16c"/><stop offset="0.66" stop-color="#e3ba59"/><stop offset="0.69" stop-color="#e4b64e"/><stop offset="0.72" stop-color="#e4b54a"/><stop offset="1" stop-color="#f0ad52"/></linearGradient><linearGradient id="New_Gradient_Swatch_200-2" x1="633.91" y1="2802.18" x2="1017.92" y2="1518.12" gradientTransform="matrix(-0.97, -0.25, -0.25, 0.97, 2039.74, 252.4)" xlink:href="#New_Gradient_Swatch_200"/><linearGradient id="New_Gradient_Swatch_200-3" x1="1417.79" y1="1732.46" x2="985.77" y2="2844.52" xlink:href="#New_Gradient_Swatch_200"/><linearGradient id="New_Gradient_Swatch_200-4" x1="1103.08" y1="2529.69" x2="1363.09" y2="1809.66" gradientTransform="matrix(-0.97, -0.25, -0.25, 0.97, 2039.74, 252.4)" xlink:href="#New_Gradient_Swatch_200"/><linearGradient id="linear-gradient-2" x1="1090.88" y1="1167.52" x2="1090.88" y2="2857.31" gradientTransform="matrix(0.97, -0.25, 0.25, 0.97, -358.58, 252.4)" xlink:href="#linear-gradient"/><linearGradient id="New_Gradient_Swatch_200-5" x1="913.21" y1="1516.83" x2="1609.21" y2="3232.84" gradientTransform="matrix(0.99, 0.13, -0.13, 0.99, 191.36, -98.92)" xlink:href="#New_Gradient_Swatch_200"/><linearGradient id="New_Gradient_Swatch_200-6" x1="632.94" y1="2801.93" x2="1016.96" y2="1517.87" gradientTransform="matrix(0.97, -0.25, 0.25, 0.97, -358.58, 252.4)" xlink:href="#New_Gradient_Swatch_200"/><linearGradient id="New_Gradient_Swatch_200-7" x1="1416.79" y1="1732.59" x2="984.77" y2="2844.64" gradientTransform="matrix(0.99, 0.13, -0.13, 0.99, 191.36, -98.92)" xlink:href="#New_Gradient_Swatch_200"/><linearGradient id="New_Gradient_Swatch_200-8" x1="1102.11" y1="2529.45" x2="1362.12" y2="1809.41" gradientTransform="matrix(0.97, -0.25, 0.25, 0.97, -358.58, 252.4)" xlink:href="#New_Gradient_Swatch_200"/><filter id="luminosity-noclip-2" x="46.68" y="66.59" width="1586.8" height="1586.8" filterUnits="userSpaceOnUse" color-interpolation-filters="sRGB"><feFlood flood-color="#fff" result="bg"/><feBlend in="SourceGraphic" in2="bg"/></filter><mask id="mask-2" x="46.68" y="66.59" width="1586.8" height="1586.8" maskUnits="userSpaceOnUse"><g class="cls-1"><circle class="cls-2" cx="840.08" cy="859.99" r="793.4"/></g></mask><radialGradient id="radial-gradient-2" cx="840.08" cy="859.99" r="793.4" gradientUnits="userSpaceOnUse"><stop offset="0.55" stop-color="#0d0e16"/><stop offset="0.93" stop-color="#0d0e16"/><stop offset="1" stop-color="#0d0e16"/></radialGradient><linearGradient id="linear-gradient-3" x1="1957.79" y1="-503.21" x2="101.78" y2="1636.79" gradientTransform="matrix(1, 0, 0, 1, 0, 0)" xlink:href="#linear-gradient"/><linearGradient id="New_Gradient_Swatch_63" x1="840.91" y1="242.8" x2="840.91" y2="1250.95" gradientUnits="userSpaceOnUse"><stop offset="0" stop-color="#fff5b1"/><stop offset="0.3" stop-color="#956c08"/><stop offset="0.55" stop-color="#fff9b3"/><stop offset="0.75" stop-color="#e1b11e"/><stop offset="0.79" stop-color="#dcac1d"/><stop offset="0.84" stop-color="#cd9f18"/><stop offset="0.9" stop-color="#b58811"/><stop offset="0.96" stop-color="#936907"/><stop offset="1" stop-color="#7a5300"/></linearGradient><linearGradient id="linear-gradient-4" x1="840.91" y1="1467.42" x2="840.91" y2="125.35" gradientUnits="userSpaceOnUse"><stop offset="0" stop-color="#f9db9b"/><stop offset="0.51" stop-color="#362500"/><stop offset="0.51" stop-color="#48360f"/><stop offset="0.52" stop-color="#725f33"/><stop offset="0.53" stop-color="#988352"/><stop offset="0.54" stop-color="#b8a16d"/><stop offset="0.55" stop-color="#d2ba83"/><stop offset="0.56" stop-color="#e6cd93"/><stop offset="0.57" stop-color="#f4db9f"/><stop offset="0.58" stop-color="#fde3a6"/><stop offset="0.61" stop-color="#ffe5a8"/><stop offset="0.61" stop-color="#fde3a5"/><stop offset="0.64" stop-color="#f4d594"/><stop offset="0.68" stop-color="#edcb89"/><stop offset="0.73" stop-color="#e9c682"/><stop offset="0.88" stop-color="#e8c480"/><stop offset="1" stop-color="#e4be7a"/></linearGradient><linearGradient id="linear-gradient-5" x1="840.91" y1="-261.84" x2="840.91" y2="1745.35" gradientUnits="userSpaceOnUse"><stop offset="0.01" stop-color="#3f2000"/><stop offset="0.04" stop-color="#432403"/><stop offset="0.08" stop-color="#502e0a"/><stop offset="0.12" stop-color="#664017"/><stop offset="0.16" stop-color="#845a29"/><stop offset="0.2" stop-color="#aa7a40"/><stop offset="0.2" stop-color="#b18044"/><stop offset="0.37" stop-color="#643f16"/><stop offset="0.55" stop-color="#efdfa6"/><stop offset="0.62" stop-color="#f0e0a8"/><stop offset="0.66" stop-color="#f2e4b1"/><stop offset="0.69" stop-color="#f6ebbe"/><stop offset="0.71" stop-color="#fbf5d2"/><stop offset="0.73" stop-color="#fffcdf"/><stop offset="1" stop-color="#fff"/></linearGradient><linearGradient id="New_Gradient_Swatch_128" x1="155.15" y1="775.18" x2="1526.66" y2="775.18" gradientUnits="userSpaceOnUse"><stop offset="0.01" stop-color="#7f3b00"/><stop offset="0.28" stop-color="#e2b574"/><stop offset="0.38" stop-color="#fff"/><stop offset="0.49" stop-color="#fce9ac"/><stop offset="1" stop-color="#874d0e"/></linearGradient><linearGradient id="linear-gradient-6" x1="840.91" y1="198.9" x2="840.91" y2="1405.99" gradientUnits="userSpaceOnUse"><stop offset="0.01" stop-color="#3f2000"/><stop offset="0.07" stop-color="#432403"/><stop offset="0.15" stop-color="#502e0a"/><stop offset="0.22" stop-color="#664017"/><stop offset="0.3" stop-color="#845a29"/><stop offset="0.37" stop-color="#aa7a40"/><stop offset="0.39" stop-color="#b18044"/><stop offset="0.48" stop-color="#efdfa6"/><stop offset="0.53" stop-color="#f0e0a8"/><stop offset="0.56" stop-color="#f2e4b1"/><stop offset="0.58" stop-color="#f6ebbe"/><stop offset="0.6" stop-color="#fbf5d2"/><stop offset="0.61" stop-color="#fffcdf"/><stop offset="0.73" stop-color="#fff"/><stop offset="0.93" stop-color="#a67033"/></linearGradient><linearGradient id="_24" x1="477.65" y1="1138.43" x2="1204.16" y2="411.93" gradientUnits="userSpaceOnUse"><stop offset="0.01" stop-color="#8c6034"/><stop offset="0.07" stop-color="#906537"/><stop offset="0.14" stop-color="#9c723e"/><stop offset="0.21" stop-color="#b0894b"/><stop offset="0.29" stop-color="#cba95d"/><stop offset="0.37" stop-color="#efd174"/><stop offset="0.4" stop-color="#ffe47f"/><stop offset="0.43" stop-color="#ffea98"/><stop offset="0.51" stop-color="#fff5cb"/><stop offset="0.55" stop-color="#fffadf"/><stop offset="0.69" stop-color="#ceb578"/><stop offset="1" stop-color="#a67033"/></linearGradient><linearGradient id="linear-gradient-7" x1="840.91" y1="259.71" x2="840.91" y2="2229.58" gradientUnits="userSpaceOnUse"><stop offset="0.29" stop-color="#f9f9fa"/><stop offset="1" stop-color="#ab9e84"/></linearGradient><linearGradient id="_49" x1="432.74" y1="-203.93" x2="2073.93" y2="1453.97" gradientUnits="userSpaceOnUse"><stop offset="0" stop-color="#8c6034"/><stop offset="0.14" stop-color="#a9824f"/><stop offset="0.46" stop-color="#f2d893"/><stop offset="0.51" stop-color="#ffe79f"/><stop offset="0.67" stop-color="#e2c07c"/><stop offset="1" stop-color="#a67033"/></linearGradient><linearGradient id="_49-2" x1="413.52" y1="-184.9" x2="2054.71" y2="1473" xlink:href="#_49"/><linearGradient id="_49-3" x1="393.6" y1="-165.18" x2="2034.79" y2="1492.72" xlink:href="#_49"/><linearGradient id="_49-4" x1="373.04" y1="-144.83" x2="2014.23" y2="1513.08" xlink:href="#_49"/><linearGradient id="_49-5" x1="351.89" y1="-123.9" x2="1993.08" y2="1534" xlink:href="#_49"/><linearGradient id="_49-6" x1="330.22" y1="-102.45" x2="1971.41" y2="1555.46" xlink:href="#_49"/><linearGradient id="_49-7" x1="308.07" y1="-80.52" x2="1949.26" y2="1577.38" xlink:href="#_49"/><linearGradient id="_49-8" x1="285.52" y1="-58.2" x2="1926.71" y2="1599.71" xlink:href="#_49"/><linearGradient id="_49-9" x1="262.63" y1="-35.54" x2="1903.82" y2="1622.36" xlink:href="#_49"/><linearGradient id="_49-10" x1="239.47" y1="-12.61" x2="1880.65" y2="1645.3" xlink:href="#_49"/><linearGradient id="_49-11" x1="216.07" y1="10.55" x2="1857.27" y2="1668.46" xlink:href="#_49"/><linearGradient id="_49-12" x1="192.52" y1="33.87" x2="1833.7" y2="1691.77" xlink:href="#_49"/><linearGradient id="_49-13" x1="168.85" y1="57.3" x2="1810.03" y2="1715.2" xlink:href="#_49"/><linearGradient id="_49-14" x1="143.8" y1="82.09" x2="1784.99" y2="1740" xlink:href="#_49"/><linearGradient id="_49-15" x1="119.57" y1="106.08" x2="1760.76" y2="1763.98" xlink:href="#_49"/><linearGradient id="_49-16" x1="95.95" y1="129.46" x2="1737.14" y2="1787.36" xlink:href="#_49"/><linearGradient id="_49-17" x1="72.46" y1="152.71" x2="1713.66" y2="1810.62" xlink:href="#_49"/><linearGradient id="_49-18" x1="49.17" y1="175.77" x2="1690.36" y2="1833.67" xlink:href="#_49"/><linearGradient id="_49-19" x1="26.12" y1="198.58" x2="1667.31" y2="1856.49" xlink:href="#_49"/><linearGradient id="_49-20" x1="3.38" y1="221.1" x2="1644.57" y2="1879" xlink:href="#_49"/><linearGradient id="_49-21" x1="-18.97" y1="243.23" x2="1622.22" y2="1901.13" xlink:href="#_49"/><linearGradient id="_49-22" x1="-40.89" y1="264.92" x2="1600.3" y2="1922.83" xlink:href="#_49"/><linearGradient id="_49-23" x1="-62.32" y1="286.14" x2="1578.87" y2="1944.05" xlink:href="#_49"/><linearGradient id="_49-24" x1="-83.2" y1="306.81" x2="1557.98" y2="1964.71" xlink:href="#_49"/><linearGradient id="_49-25" x1="-103.48" y1="326.88" x2="1537.71" y2="1984.79" xlink:href="#_49"/><linearGradient id="_49-26" x1="-123.09" y1="346.29" x2="1518.1" y2="2004.2" xlink:href="#_49"/><linearGradient id="_49-27" x1="-141.96" y1="364.97" x2="1499.23" y2="2022.88" xlink:href="#_49"/><linearGradient id="_49-28" x1="-158.37" y1="381.21" x2="1482.82" y2="2039.12" xlink:href="#_49"/><linearGradient id="_49-29" x1="-174.74" y1="397.42" x2="1466.45" y2="2055.33" xlink:href="#_49"/><linearGradient id="_49-30" x1="-190.33" y1="412.85" x2="1450.86" y2="2070.76" xlink:href="#_49"/><linearGradient id="_49-31" x1="-204.64" y1="427.02" x2="1436.56" y2="2084.92" xlink:href="#_49"/><linearGradient id="_49-32" x1="-217.66" y1="439.91" x2="1423.54" y2="2097.82" xlink:href="#_49"/><linearGradient id="_49-33" x1="-229.39" y1="451.52" x2="1411.8" y2="2109.43" xlink:href="#_49"/><linearGradient id="_49-34" x1="-239.83" y1="461.86" x2="1401.36" y2="2119.76" xlink:href="#_49"/><linearGradient id="_49-35" x1="-248.92" y1="470.85" x2="1392.27" y2="2128.76" xlink:href="#_49"/><linearGradient id="_49-36" x1="-256.71" y1="478.56" x2="1384.49" y2="2136.48" xlink:href="#_49"/><linearGradient id="_49-37" x1="-263.21" y1="485" x2="1377.98" y2="2142.91" xlink:href="#_49"/><linearGradient id="_49-38" x1="-268.41" y1="490.15" x2="1372.78" y2="2148.06" xlink:href="#_49"/><linearGradient id="_49-39" x1="-272.33" y1="494.02" x2="1368.86" y2="2151.93" xlink:href="#_49"/><linearGradient id="_49-40" x1="-274.95" y1="496.62" x2="1366.24" y2="2154.53" xlink:href="#_49"/><linearGradient id="_49-41" x1="-276.23" y1="497.89" x2="1364.96" y2="2155.8" xlink:href="#_49"/><linearGradient id="_49-42" x1="-276.24" y1="497.9" x2="1364.95" y2="2155.8" xlink:href="#_49"/><linearGradient id="_49-43" x1="-275.04" y1="496.72" x2="1366.14" y2="2154.61" xlink:href="#_49"/><linearGradient id="_49-44" x1="-272.55" y1="494.25" x2="1368.63" y2="2152.15" xlink:href="#_49"/><linearGradient id="_49-45" x1="-268.74" y1="490.48" x2="1372.45" y2="2148.38" xlink:href="#_49"/><linearGradient id="_49-46" x1="-263.6" y1="485.39" x2="1377.59" y2="2143.29" xlink:href="#_49"/><linearGradient id="_49-47" x1="-257.17" y1="479.03" x2="1384.01" y2="2136.93" xlink:href="#_49"/><linearGradient id="_49-48" x1="-249.45" y1="471.39" x2="1391.73" y2="2129.29" xlink:href="#_49"/><linearGradient id="_49-49" x1="-240.45" y1="462.47" x2="1400.74" y2="2120.38" xlink:href="#_49"/><linearGradient id="_49-50" x1="-230.16" y1="452.28" x2="1411.03" y2="2110.19" xlink:href="#_49"/><linearGradient id="_49-51" x1="-218.57" y1="440.81" x2="1422.62" y2="2098.71" xlink:href="#_49"/><linearGradient id="_49-52" x1="-205.64" y1="428.01" x2="1435.55" y2="2085.92" xlink:href="#_49"/><linearGradient id="_49-53" x1="-191.43" y1="413.95" x2="1449.75" y2="2071.85" xlink:href="#_49"/><linearGradient id="_49-54" x1="-175.95" y1="398.62" x2="1465.24" y2="2056.53" xlink:href="#_49"/><linearGradient id="_49-55" x1="-159.19" y1="382.03" x2="1482" y2="2039.94" xlink:href="#_49"/><linearGradient id="_49-56" x1="-143.38" y1="366.37" x2="1497.81" y2="2024.28" xlink:href="#_49"/><linearGradient id="_49-57" x1="-124.55" y1="347.74" x2="1516.64" y2="2005.65" xlink:href="#_49"/><linearGradient id="_49-58" x1="-104.99" y1="328.38" x2="1536.2" y2="1986.29" xlink:href="#_49"/><linearGradient id="_49-59" x1="-84.73" y1="308.33" x2="1556.46" y2="1966.23" xlink:href="#_49"/><linearGradient id="_49-60" x1="-63.86" y1="287.66" x2="1577.33" y2="1945.56" xlink:href="#_49"/><linearGradient id="_49-61" x1="-42.44" y1="266.45" x2="1598.75" y2="1924.35" xlink:href="#_49"/><linearGradient id="_49-62" x1="-20.52" y1="244.76" x2="1620.67" y2="1902.67" xlink:href="#_49"/><linearGradient id="_49-63" x1="1.82" y1="222.64" x2="1643.01" y2="1880.55" xlink:href="#_49"/><linearGradient id="_49-64" x1="24.53" y1="200.16" x2="1665.72" y2="1858.07" xlink:href="#_49"/><linearGradient id="_49-65" x1="47.57" y1="177.35" x2="1688.75" y2="1835.26" xlink:href="#_49"/><linearGradient id="_49-66" x1="70.86" y1="154.3" x2="1712.05" y2="1812.2" xlink:href="#_49"/><linearGradient id="_49-67" x1="94.34" y1="131.05" x2="1735.54" y2="1788.96" xlink:href="#_49"/><linearGradient id="_49-68" x1="117.96" y1="107.67" x2="1759.15" y2="1765.57" xlink:href="#_49"/><linearGradient id="_49-69" x1="142.07" y1="83.81" x2="1783.26" y2="1741.72" xlink:href="#_49"/><linearGradient id="_49-70" x1="167.23" y1="58.9" x2="1808.42" y2="1716.8" xlink:href="#_49"/><linearGradient id="_49-71" x1="190.9" y1="35.47" x2="1832.09" y2="1693.38" xlink:href="#_49"/><linearGradient id="_49-72" x1="214.46" y1="12.14" x2="1855.65" y2="1670.05" xlink:href="#_49"/><linearGradient id="_49-73" x1="237.86" y1="-11.02" x2="1879.05" y2="1646.88" xlink:href="#_49"/><linearGradient id="_49-74" x1="261.04" y1="-33.95" x2="1902.23" y2="1623.96" xlink:href="#_49"/><linearGradient id="_49-75" x1="283.92" y1="-56.61" x2="1925.11" y2="1601.29" xlink:href="#_49"/><linearGradient id="_49-76" x1="306.47" y1="-78.94" x2="1947.67" y2="1578.97" xlink:href="#_49"/><linearGradient id="_49-77" x1="328.63" y1="-100.87" x2="1969.82" y2="1557.04" xlink:href="#_49"/><linearGradient id="_49-78" x1="350.33" y1="-122.35" x2="1991.51" y2="1535.56" xlink:href="#_49"/><linearGradient id="_49-79" x1="371.51" y1="-143.32" x2="2012.7" y2="1514.59" xlink:href="#_49"/><linearGradient id="_49-80" x1="392.08" y1="-163.68" x2="2033.27" y2="1494.23" xlink:href="#_49"/><linearGradient id="_49-81" x1="412" y1="-183.41" x2="2053.2" y2="1474.5" xlink:href="#_49"/><linearGradient id="_49-82" x1="431.24" y1="-202.45" x2="2072.43" y2="1455.46" xlink:href="#_49"/><linearGradient id="_49-83" x1="449.2" y1="-220.22" x2="2090.39" y2="1437.68" xlink:href="#_49"/><linearGradient id="_49-84" x1="465.09" y1="-235.96" x2="2106.28" y2="1421.95" xlink:href="#_49"/><linearGradient id="_49-85" x1="481.35" y1="-252.05" x2="2122.54" y2="1405.85" xlink:href="#_49"/><linearGradient id="_49-86" x1="496.34" y1="-266.89" x2="2137.53" y2="1391.02" xlink:href="#_49"/><linearGradient id="_49-87" x1="509.99" y1="-280.41" x2="2151.18" y2="1377.5" xlink:href="#_49"/><linearGradient id="_49-88" x1="522.34" y1="-292.63" x2="2163.53" y2="1365.27" xlink:href="#_49"/><linearGradient id="_49-89" x1="533.4" y1="-303.58" x2="2174.59" y2="1354.33" xlink:href="#_49"/><linearGradient id="_49-90" x1="543.16" y1="-313.24" x2="2184.36" y2="1344.67" xlink:href="#_49"/><linearGradient id="_49-91" x1="551.64" y1="-321.63" x2="2192.83" y2="1336.28" xlink:href="#_49"/><linearGradient id="_49-92" x1="558.82" y1="-328.74" x2="2200.01" y2="1329.17" xlink:href="#_49"/><linearGradient id="_49-93" x1="564.69" y1="-334.55" x2="2205.88" y2="1323.36" xlink:href="#_49"/><linearGradient id="_49-94" x1="569.21" y1="-339.04" x2="2210.41" y2="1318.88" xlink:href="#_49"/><linearGradient id="_49-95" x1="572.45" y1="-342.24" x2="2213.65" y2="1315.67" xlink:href="#_49"/><linearGradient id="_49-96" x1="574.39" y1="-344.16" x2="2215.59" y2="1313.75" xlink:href="#_49"/><linearGradient id="_49-97" x1="575.05" y1="-344.81" x2="2216.24" y2="1313.1" xlink:href="#_49"/><linearGradient id="_49-98" x1="574.5" y1="-344.26" x2="2215.69" y2="1313.64" xlink:href="#_49"/><linearGradient id="_49-99" x1="572.63" y1="-342.4" x2="2213.81" y2="1315.49" xlink:href="#_49"/><linearGradient id="_49-100" x1="569.46" y1="-339.27" x2="2210.65" y2="1318.63" xlink:href="#_49"/><linearGradient id="_49-101" x1="565" y1="-334.86" x2="2206.19" y2="1323.04" xlink:href="#_49"/><linearGradient id="_49-102" x1="559.25" y1="-329.17" x2="2200.44" y2="1328.73" xlink:href="#_49"/><linearGradient id="_49-103" x1="552.22" y1="-322.2" x2="2193.4" y2="1335.7" xlink:href="#_49"/><linearGradient id="_49-104" x1="543.83" y1="-313.9" x2="2185.02" y2="1344" xlink:href="#_49"/><linearGradient id="_49-105" x1="534.15" y1="-304.31" x2="2175.34" y2="1353.59" xlink:href="#_49"/><linearGradient id="_49-106" x1="523.18" y1="-293.46" x2="2164.37" y2="1364.45" xlink:href="#_49"/><linearGradient id="_49-107" x1="510.92" y1="-281.33" x2="2152.11" y2="1376.57" xlink:href="#_49"/><linearGradient id="_49-108" x1="497.39" y1="-267.93" x2="2138.58" y2="1389.98" xlink:href="#_49"/><linearGradient id="_49-109" x1="482.57" y1="-253.26" x2="2123.76" y2="1404.65" xlink:href="#_49"/><linearGradient id="_49-110" x1="466.45" y1="-237.3" x2="2107.64" y2="1420.61" xlink:href="#_49"/><linearGradient id="_49-111" x1="450.12" y1="-221.13" x2="2091.31" y2="1436.77" xlink:href="#_49"/></defs><title>reward</title><g id="Layer_2" data-name="Layer 2"><g id="Layer_1-2" data-name="Layer 1"><polygon class="cls-3" points="0 2696.5 328.81 2540.98 542.88 2835.05 971.89 1154.03 429.01 1015.48 0 2696.5"/><polygon class="cls-4" points="473.93 2740.34 449.48 2706.74 853.46 1123.81 884.47 1131.72 473.93 2740.34"/><polygon class="cls-5" points="495.33 2769.73 483.1 2752.93 896.09 1134.69 911.6 1138.64 495.33 2769.73"/><polygon class="cls-6" points="143.47 2628.65 105.91 2646.41 516.44 1037.8 547.45 1045.71 143.47 2628.65"/><polygon class="cls-7" points="504.81 1034.83 91.82 2653.07 73.04 2661.96 489.31 1030.87 504.81 1034.83"/><polygon class="cls-8" points="1680.16 2696.5 1351.35 2540.98 1137.28 2835.05 708.27 1154.03 1251.15 1015.48 1680.16 2696.5"/><polygon class="cls-9" points="1206.23 2740.34 1230.68 2706.74 826.7 1123.81 795.69 1131.72 1206.23 2740.34"/><polygon class="cls-10" points="1184.83 2769.73 1197.06 2752.93 784.07 1134.69 768.56 1138.64 1184.83 2769.73"/><polygon class="cls-11" points="1536.69 2628.65 1574.25 2646.41 1163.72 1037.8 1132.71 1045.71 1536.69 2628.65"/><polygon class="cls-12" points="1175.35 1034.83 1588.34 2653.07 1607.12 2661.96 1190.85 1030.87 1175.35 1034.83"/><g class="cls-13"><circle class="cls-14" cx="840.08" cy="859.99" r="793.4"/></g><path class="cls-15" d="M1618.87,707.82c-6.67-23.46-17.22-47.14-27.43-70-9.9-22.19-20.13-45.14-26.38-67.11s-8.81-43.37-11.55-66.08c-2.7-22.53-5.5-45.83-12.2-69.36l-.53-1.89-1.19-1.56c-14.67-19.43-33-37.69-50.82-55.34-17.25-17.14-35.1-34.86-48.89-53.12s-23.89-37.26-34.65-57.46c-10.66-20-21.69-40.73-36.42-60.24l-1.18-1.57-1.67-1c-20.71-12.82-44.45-23.2-67.39-33.23-22.29-9.75-45.32-19.83-64.78-31.88s-35.73-26.1-53-41-35-30.16-55.74-43l-1.68-1-1.92-.36c-24-4.48-49.85-5.58-74.88-6.65-24.29-1-49.41-2.12-71.88-6.31S931.89,28,910.34,20.35C889,12.73,866.86,4.86,842.83.36L840.91,0,839,.36C815,4.84,790.52,13.15,766.8,21.2c-23,7.81-46.86,15.89-69.35,20.09s-44,4.78-66.88,5.4c-22.68.62-46.14,1.26-70.17,5.75l-1.92.36-1.67,1C536.1,66.66,516.22,83.28,497,99.35c-18.66,15.6-38,31.73-57.39,43.77s-39.33,20.36-60.44,29.21c-20.91,8.76-42.54,17.83-63.32,30.69l-1.68,1L313,205.62c-14.68,19.43-27.2,42.1-39.31,64C261.94,290.94,249.77,313,236,331.22s-29.31,33.18-45.79,49.06-33.24,32-48,51.5L141,433.34l-.54,1.89c-6.67,23.43-10.16,49.11-13.54,73.93-3.28,24.1-6.66,49-12.92,71s-15.34,41.53-25,62.29C79.51,663,69.64,684.31,62.94,707.82l-.53,1.89.17,1.95c2.26,24.26,8.28,49.45,14.09,73.81,5.66,23.66,11.5,48.12,13.6,70.9s.7,44.25-.79,67.08c-1.47,22.65-3,46.06-.75,70.4l.19,2,.87,1.76c10.87,21.8,25.57,43.11,39.8,63.72,13.81,20,28.1,40.73,38.29,61.2s16.65,41,23.51,62.85c6.79,21.65,13.83,44,24.72,65.91L217,1253l1.44,1.31c18,16.42,39.43,31,60.15,45.08,20.1,13.67,40.89,27.81,57.8,43.22s30.33,32.24,44.62,50.11c14.15,17.72,28.8,36.06,46.86,52.52l1.45,1.32,1.83.71c22.73,8.81,48,14.65,72.39,20.31,23.68,5.48,48.17,11.16,69.48,19.42s39.94,19.1,59.72,30.61c19.61,11.41,39.88,23.21,62.67,32l1.84.71h2c24.36,0,50-3.67,74.81-7.21,24.07-3.44,49-7,71.85-7s44.13,3.39,66.73,7c22.41,3.56,45.58,7.24,70,7.24h2l1.83-.71c22.73-8.8,45.32-21.49,67.18-33.76,21.19-11.9,43.11-24.21,64.42-32.46s42.38-12.79,64.74-17.6c22.19-4.78,45.12-9.72,67.92-18.55l1.83-.71,1.45-1.32c18-16.41,34.5-36.4,50.44-55.74,15.46-18.76,31.47-38.15,48.36-53.56s34.91-27.25,54-39.82c18.94-12.46,38.54-25.34,56.6-41.81l1.45-1.31.88-1.76c10.85-21.82,19-46.42,26.89-70.21,7.65-23.08,15.55-46.93,25.74-67.4s22.71-38,36-56.62c13.18-18.47,26.8-37.57,37.7-59.45l.87-1.76.19-2c2.23-24.24,1-50.1-.29-75.1-1.21-24.3-2.46-49.44-.34-72.23s7.44-43.64,13.1-65.81c5.61-22,11.41-44.72,13.67-69.05l.17-1.95Z"/><circle class="cls-16" cx="840.91" cy="775.18" r="731.43"/><circle class="cls-17" cx="840.91" cy="775.18" r="714.71"/><circle class="cls-18" cx="840.91" cy="775.18" r="681.75"/><path class="cls-19" d="M840.9,1460.93c-378.12,0-685.75-307.62-685.75-685.75S462.78,89.43,840.9,89.43s685.76,307.63,685.76,685.75S1219,1460.93,840.9,1460.93Zm0-1363.5c-373.71,0-677.75,304-677.75,677.75s304,677.75,677.75,677.75,677.76-304,677.76-677.75S1214.62,97.43,840.9,97.43Z"/><circle class="cls-20" cx="840.91" cy="775.18" r="483.07"/><path class="cls-21" d="M840.9,1289.14c-283.39,0-513.95-230.56-513.95-514s230.56-514,514-514,514,230.56,514,514S1124.3,1289.14,840.9,1289.14Zm0-1019.92c-279,0-505.95,227-505.95,506s227,506,506,506,506-227,506-506S1119.89,269.22,840.9,269.22Z"/><circle class="cls-22" cx="840.91" cy="775.18" r="464.63"/><g class="cls-23"><path class="cls-24" d="M797.74,128.61,806,224.12c2.85-.18,5.68-.42,8.55-.55l-2.93-95.77Z"/><path class="cls-25" d="M773.76,130.84,760,132.46l13.77,94.67c2.85-.35,5.66-.78,8.51-1.08Z"/><path class="cls-26" d="M750.45,230.43l-14-94.41-13.69,2.42L742,231.94C744.82,231.43,747.62,230.9,750.45,230.43Z"/><path class="cls-27" d="M719.24,236.57l-19.36-93.29-13.53,3.21,24.52,92C713.65,237.83,716.45,237.2,719.24,236.57Z"/><path class="cls-28" d="M688.66,244.41,664,152.57l-13.32,4,29.68,90.23C683.12,245.93,685.9,245.2,688.66,244.41Z"/><path class="cls-29" d="M658.75,253.91,629,163.81l-13.07,4.73,34.69,88.17C653.28,255.72,656,254.86,658.75,253.91Z"/><path class="cls-30" d="M629.56,265,594.8,176.94,582,182.4l39.6,86C624.26,267.27,626.9,266.12,629.56,265Z"/><path class="cls-31" d="M601.16,277.71l-39.58-85.8-12.45,6.17,44.34,83.57C596,280.36,598.56,279,601.16,277.71Z"/><path class="cls-32" d="M573.68,292.07l-44.3-83.43-12.1,6.86,48.91,80.88C568.68,294.94,571.15,293.47,573.68,292.07Z"/><path class="cls-33" d="M547.1,307.88l-48.85-80.81-11.7,7.52,53.27,78C542.23,311,544.66,309.41,547.1,307.88Z"/><path class="cls-34" d="M521.47,325.08l-53.22-77.93L457,255.3l57.43,74.79C516.75,328.39,519.12,326.75,521.47,325.08Z"/><path class="cls-35" d="M496.86,343.62l-57.4-74.82-10.79,8.77L490.06,349C492.28,347.14,494.61,345.42,496.86,343.62Z"/><path class="cls-36" d="M473.31,363.46,411.93,292l-10.29,9.35,65.25,67.95Q470.09,366.35,473.31,363.46Z"/><path class="cls-37" d="M450.88,384.54,385.72,316.6,376,326.49l68.93,64.31C446.9,388.72,448.84,386.58,450.88,384.54Z"/><path class="cls-38" d="M429.75,406.94,360.9,342.62,351.69,353l72.39,60.44C426,411.3,427.82,409.09,429.75,406.94Z"/><path class="cls-39" d="M409.87,430.47,337.51,370l-8.61,10.91,75.63,56.38Q407.17,433.85,409.87,430.47Z"/><path class="cls-40" d="M391.29,455.07l-75.66-56.45-8,11.37,78.64,52.12C387.91,459.74,389.61,457.41,391.29,455.07Z"/><path class="cls-41" d="M374,480.68l-78.72-52.21L288,440.27,369.37,488C370.88,485.5,372.5,483.12,374,480.68Z"/><path class="cls-42" d="M358.19,507.26l-81.55-47.77L270,471.67,354,514.82C355.37,512.28,356.79,509.77,358.19,507.26Z"/><path class="cls-43" d="M343.79,534.74,259.65,491.6l-6,12.54,86.52,38.44C341.38,540,342.54,537.33,343.79,534.74Z"/><path class="cls-44" d="M331,563.14l-86.6-38.4-5.28,12.86,88.71,33.57C328.91,568.5,329.91,565.79,331,563.14Z"/><path class="cls-45" d="M319.86,592.36,231,558.86,226.47,572l90.62,28.52C318,597.8,318.91,595.07,319.86,592.36Z"/><path class="cls-46" d="M310.31,622.32,219.5,593.88l-3.79,13.38L308,630.59C308.71,627.82,309.52,625.07,310.31,622.32Z"/><path class="cls-47" d="M302.42,653l-92.48-23.21-3,13.57,93.56,18C301.08,658.52,301.79,655.75,302.42,653Z"/><path class="cls-48" d="M296.25,684.23,202.4,666.37l-2.22,13.72,94.63,12.6C295.23,689.85,295.78,687.05,296.25,684.23Z"/><path class="cls-49" d="M291.83,716.08,197,703.69l-1.42,13.82L291,724.62C291.3,721.77,291.52,718.92,291.83,716.08Z"/><path class="cls-50" d="M289.3,748.49l-95.65-6.87L193,755.51l96,1.54C289.18,754.2,289.17,751.33,289.3,748.49Z"/><path class="cls-51" d="M288.7,778.09l-96.08-1.27.2,13.9,96.09-4.08C288.86,783.78,288.71,781,288.7,778.09Z"/><path class="cls-52" d="M289.81,809.73,194,814.06l1,13.86,95.44-9.65C290.24,815.42,290,812.58,289.81,809.73Z"/><path class="cls-53" d="M292.8,841.9l-95.21,9.88,1.82,13.78,94.47-15.15C293.49,847.58,293.14,844.74,292.8,841.9Z"/><path class="cls-54" d="M297.57,873.54,203.3,888.89l2.61,13.65L299.08,882C298.53,879.19,298.08,876.36,297.57,873.54Z"/><path class="cls-55" d="M304.09,904.61l-93,20.7,3.4,13.48L306,913C305.31,910.22,304.76,907.39,304.09,904.61Z"/><path class="cls-56" d="M312.3,935,220.85,961,225,974.24l89.85-31Q313.54,939.17,312.3,935Z"/><path class="cls-57" d="M322.16,964.79l-89.59,31,4.91,13,87.84-36C324.29,970.13,323.15,967.49,322.16,964.79Z"/><path class="cls-58" d="M333.81,993.73l-87.64,36,5.64,12.71,85.55-40.87C336.18,999,335,996.37,333.81,993.73Z"/><path class="cls-59" d="M347,1021.87l-85.41,40.85,6.35,12.37,83-45.54C349.6,1027,348.28,1024.44,347,1021.87Z"/><path class="cls-60" d="M361.67,1049.14l-82.93,45.53,7,12,80.21-50C364.51,1054.16,363.1,1051.64,361.67,1049.14Z"/><path class="cls-61" d="M377.78,1075.51l-80.19,50,7.69,11.59,77.17-54.33C380.84,1080.4,379.35,1077.92,377.78,1075.51Z"/><path class="cls-62" d="M395.28,1100.91l-77.21,54.31,8.31,11.14,74-58.49C398.67,1105.57,397,1103.23,395.28,1100.91Z"/><path class="cls-63" d="M414.11,1125.29l-74,58.41,8.91,10.67,70.71-62.5C417.87,1129.67,415.94,1127.52,414.11,1125.29Z"/><path class="cls-64" d="M434.34,1148.5l-70.69,62.4,9.48,10.17,67.18-66.31C438.32,1152.67,436.29,1150.63,434.34,1148.5Z"/><path class="cls-65" d="M455.83,1170.54l-67.2,66.23,10,9.63,63.42-69.89C460,1174.53,457.89,1172.55,455.83,1170.54Z"/><path class="cls-66" d="M478.48,1191.38,415,1261.24l10.55,9.06L485,1197C482.81,1195.18,480.65,1193.27,478.48,1191.38Z"/><path class="cls-67" d="M502.24,1211l-59.56,73.29,11,8.46,55.34-76.4C506.74,1214.58,504.52,1212.74,502.24,1211Z"/><path class="cls-68" d="M527.06,1229.27l-55.44,76.48,11.48,7.84,51.07-79.4C531.77,1232.59,529.43,1230.91,527.06,1229.27Z"/><path class="cls-69" d="M552.89,1246.21l-51.11,79.45,11.89,7.2,46.66-82.25C557.85,1249.14,555.35,1247.71,552.89,1246.21Z"/><path class="cls-70" d="M579.72,1261.66l-46.65,82.27,12.28,6.52,42.06-84.85C584.85,1264.27,582.25,1263,579.72,1261.66Z"/><path class="cls-71" d="M607.49,1275.55l-42,84.93,12.63,5.82,37.28-87.19C612.73,1277.93,610.1,1276.77,607.49,1275.55Z"/><path class="cls-72" d="M636.1,1287.93l-37.26,87.33,12.93,5.1,32.34-89.27C641.42,1290.07,638.76,1289,636.1,1287.93Z"/><path class="cls-73" d="M665.48,1298.73l-32.29,89.47,13.2,4.36,27.24-91.06C670.89,1300.63,668.2,1299.65,665.48,1298.73Z"/><path class="cls-74" d="M668.42,1399.24l13.43,3.59,22-92.59c-2.79-.72-5.52-1.56-8.29-2.32Z"/><path class="cls-75" d="M704.48,1408.3l13.62,2.81,16.69-94c-2.81-.55-5.63-1.09-8.42-1.69Z"/><path class="cls-76" d="M741.29,1415.32l13.75,2,11.26-95.06c-2.83-.38-5.7-.65-8.51-1.08Z"/><path class="cls-77" d="M778.77,1420.24l13.85,1.21,5.72-95.79c-2.84-.22-5.7-.39-8.53-.65Z"/><path class="cls-78" d="M816.85,1423l13.9.41.13-96.19c-2.86,0-5.7-.12-8.55-.22Z"/><path class="cls-79" d="M850.93,1327.21l.13,96.19L865,1423l-5.48-96C856.63,1327.09,853.79,1327.16,850.93,1327.21Z"/><path class="cls-80" d="M883.47,1325.66l5.72,95.79,13.85-1.21L892,1325C889.17,1325.27,886.31,1325.44,883.47,1325.66Z"/><path class="cls-81" d="M915.51,1322.28l11.26,95.06,13.75-2L924,1321.2C921.21,1321.63,918.34,1321.9,915.51,1322.28Z"/><path class="cls-82" d="M947,1317.13l16.7,94,13.61-2.81-21.89-92.86C952.65,1316,949.83,1316.58,947,1317.13Z"/><path class="cls-83" d="M977.94,1310.24l22,92.59,13.43-3.59-27.16-91.32C983.46,1308.68,980.73,1309.52,977.94,1310.24Z"/><path class="cls-84" d="M1008.18,1301.5l27.24,91.06,13.2-4.36-32.28-89.47C1013.61,1299.65,1010.92,1300.63,1008.18,1301.5Z"/><path class="cls-85" d="M1037.7,1291.09l32.34,89.27,12.93-5.1-37.26-87.33C1043.05,1289,1040.39,1290.06,1037.7,1291.09Z"/><path class="cls-86" d="M1066.46,1279.11l37.28,87.19,12.63-5.82-42-84.93C1071.72,1276.77,1069.08,1277.93,1066.46,1279.11Z"/><path class="cls-87" d="M1094.41,1265.6l42,84.85,12.28-6.52-46.65-82.27C1099.56,1263,1097,1264.27,1094.41,1265.6Z"/><path class="cls-88" d="M1121.48,1250.61l46.66,82.25,11.9-7.2-51.12-79.45C1126.47,1247.71,1124,1249.14,1121.48,1250.61Z"/><path class="cls-89" d="M1147.64,1234.19l51.07,79.4,11.48-7.84-55.44-76.49C1152.38,1230.91,1150,1232.58,1147.64,1234.19Z"/><path class="cls-90" d="M1172.77,1216.32l55.34,76.4,11-8.46L1179.57,1211C1177.29,1212.74,1175.07,1214.58,1172.77,1216.32Z"/><path class="cls-91" d="M1196.8,1197l59.48,73.26,10.54-9.06-63.49-69.86C1201.16,1193.27,1199,1195.18,1196.8,1197Z"/><path class="cls-92" d="M1219.73,1176.51l63.42,69.89,10-9.63L1226,1170.54C1223.92,1172.55,1221.82,1174.53,1219.73,1176.51Z"/><path class="cls-93" d="M1241.5,1154.76l67.18,66.31,9.48-10.17-70.69-62.4C1245.52,1150.63,1243.49,1152.67,1241.5,1154.76Z"/><path class="cls-94" d="M1262.08,1131.87l70.71,62.5,8.91-10.67-74-58.41C1265.87,1127.52,1263.94,1129.67,1262.08,1131.87Z"/><path class="cls-95" d="M1281.4,1107.87l74,58.49,8.31-11.14-77.21-54.31C1284.83,1103.23,1283.14,1105.57,1281.4,1107.87Z"/><path class="cls-96" d="M1299.36,1082.78l77.17,54.33,7.69-11.59-80.19-50C1302.46,1077.92,1301,1080.39,1299.36,1082.78Z"/><path class="cls-97" d="M1315.83,1056.63l80.21,50,7-12-82.93-45.53C1318.71,1051.64,1317.3,1054.16,1315.83,1056.63Z"/><path class="cls-98" d="M1330.88,1029.55l83,45.54,6.35-12.37-85.41-40.85C1333.53,1024.44,1332.21,1027,1330.88,1029.55Z"/><path class="cls-99" d="M1344.45,1001.59l85.55,40.87,5.64-12.71-87.63-36C1346.86,996.37,1345.63,999,1344.45,1001.59Z"/><path class="cls-100" d="M1356.49,972.81l87.84,36,4.91-13-89.59-31C1358.66,967.49,1357.52,970.13,1356.49,972.81Z"/><path class="cls-101" d="M1367,943.26l89.85,31L1461,961,1369.51,935Q1368.27,939.17,1367,943.26Z"/><path class="cls-102" d="M1375.78,913l91.56,25.8,3.4-13.48-93-20.7C1377.05,907.39,1376.5,910.22,1375.78,913Z"/><path class="cls-103" d="M1382.73,882l93.17,20.54,2.61-13.65-94.27-15.35C1383.73,876.36,1383.28,879.19,1382.73,882Z"/><path class="cls-104" d="M1387.93,850.41l94.47,15.15,1.82-13.78L1389,841.9C1388.67,844.74,1388.32,847.58,1387.93,850.41Z"/><path class="cls-105" d="M1391.35,818.27l95.44,9.65,1-13.86-95.8-4.33C1391.82,812.58,1391.57,815.42,1391.35,818.27Z"/><path class="cls-106" d="M1393.11,778.09c0,2.86-.16,5.69-.21,8.55l96.09,4.08.2-13.9Z"/><path class="cls-107" d="M1392.73,757.05l96-1.54-.61-13.89-95.65,6.87C1392.65,751.33,1392.63,754.2,1392.73,757.05Z"/><path class="cls-108" d="M1390.77,724.62l95.51-7.11-1.42-13.82L1390,716.08C1390.29,718.92,1390.51,721.77,1390.77,724.62Z"/><path class="cls-109" d="M1387,692.69l94.63-12.6-2.22-13.72-93.84,17.86C1386,687.05,1386.58,689.85,1387,692.69Z"/><path class="cls-110" d="M1381.32,661.33l93.56-18-3-13.57L1379.39,653C1380,655.75,1380.73,658.52,1381.32,661.33Z"/><path class="cls-111" d="M1373.85,630.59l92.25-23.33-3.79-13.38-90.81,28.44C1372.29,625.07,1373.1,627.82,1373.85,630.59Z"/><path class="cls-112" d="M1364.72,600.52,1455.34,572l-4.54-13.14L1362,592.36C1362.9,595.07,1363.81,597.8,1364.72,600.52Z"/><path class="cls-113" d="M1354,571.17l88.71-33.57-5.28-12.86-86.59,38.4C1351.9,565.79,1352.9,568.5,1354,571.17Z"/><path class="cls-114" d="M1341.64,542.58l86.52-38.44-6-12.54L1338,534.74C1339.28,537.33,1340.43,540,1341.64,542.58Z"/><path class="cls-115" d="M1327.8,514.82l84.06-43.15-6.69-12.18-81.55,47.77C1325,509.77,1326.44,512.28,1327.8,514.82Z"/><path class="cls-116" d="M1312.44,488l81.41-47.69-7.36-11.8-78.72,52.21C1309.31,483.12,1310.93,485.5,1312.44,488Z"/><path class="cls-117" d="M1295.54,462.11,1374.18,410l-8-11.37-75.66,56.45C1292.2,457.41,1293.9,459.74,1295.54,462.11Z"/><path class="cls-118" d="M1277.28,437.27l75.63-56.38L1344.3,370l-72.36,60.49Q1274.64,433.85,1277.28,437.27Z"/><path class="cls-119" d="M1257.73,413.48,1330.12,353l-9.21-10.42-68.85,64.32C1254,409.09,1255.84,411.3,1257.73,413.48Z"/><path class="cls-120" d="M1236.92,390.8l68.93-64.31-9.76-9.89-65.16,67.94C1233,386.58,1234.91,388.73,1236.92,390.8Z"/><path class="cls-121" d="M1214.92,369.27l65.25-67.95L1269.88,292l-61.38,71.49Q1211.73,366.36,1214.92,369.27Z"/><path class="cls-122" d="M1191.75,349l61.39-71.4-10.79-8.77L1185,343.62C1187.2,345.42,1189.53,347.14,1191.75,349Z"/><path class="cls-123" d="M1167.38,330.09l57.43-74.79-11.25-8.15-53.22,77.93C1162.69,326.75,1165.06,328.39,1167.38,330.09Z"/><path class="cls-124" d="M1142,312.55l53.27-78-11.69-7.52-48.86,80.81Q1138.37,310.18,1142,312.55Z"/><path class="cls-125" d="M1115.62,296.38l48.91-80.88-12.09-6.86-44.31,83.43C1110.66,293.47,1113.13,294.94,1115.62,296.38Z"/><path class="cls-126" d="M1088.34,281.65l44.35-83.57-12.46-6.17-39.58,85.8C1083.25,279,1085.77,280.36,1088.34,281.65Z"/><path class="cls-127" d="M1060.19,268.41l39.6-86L1087,176.94,1052.25,265C1054.91,266.12,1057.55,267.27,1060.19,268.41Z"/><path class="cls-128" d="M1031.22,256.71l34.69-88.17-13.07-4.73-29.77,90.1C1025.78,254.86,1028.53,255.72,1031.22,256.71Z"/><path class="cls-129" d="M1001.44,246.77l29.67-90.23-13.32-4-24.64,91.84C995.91,245.2,998.69,245.94,1001.44,246.77Z"/><path class="cls-130" d="M995.46,146.49l-13.53-3.21-19.36,93.29c2.79.63,5.59,1.26,8.37,1.94Z"/><path class="cls-131" d="M959,138.44,945.33,136l-14,94.41c2.83.47,5.64,1,8.45,1.52Z"/><path class="cls-132" d="M908.06,130.84l-8.48,95.21c2.85.3,5.66.74,8.51,1.08l13.77-94.67Z"/><path class="cls-133" d="M870.19,127.8l-2.92,95.77c2.86.13,5.69.37,8.54.55l8.26-95.51Z"/><path class="cls-134" d="M836.63,223c1.43,0,2.84-.11,4.27-.11s2.85.1,4.28.11l2.68-96H834Z"/></g><path class="cls-135" d="M665.3,934.73,607.32,598h54.16L685.9,750.11,701,857.25h1.49l13-107.14L735.81,598h53.11L735.6,934.73Z"/><path class="cls-135" d="M819.88,934.73V598H876.8V934.73Z"/><path class="cls-135" d="M924.13,934.73V598h85.8q43.53,0,59.58,23.82t16.88,71.08V700q0,50.13-15.82,76T1011.85,802h-30.8V934.73Zm56.92-175.05h19.54q18,0,23.47-12.53t5.41-47.73v-6.5q-.21-29.85-5.84-42.67T1001,637.43h-20Z"/><polygon class="cls-135" points="600.61 521.88 595.55 508.74 590.63 521.88 579.19 521.88 587.77 528.63 584.39 540.8 595.55 533.39 606.4 540.8 602.3 528.63 611.32 521.88 600.61 521.88"/><polygon class="cls-135" points="649.74 521.88 644.68 508.74 639.76 521.88 628.32 521.88 636.9 528.63 633.52 540.8 644.68 533.39 655.53 540.8 651.43 528.63 660.45 521.88 649.74 521.88"/><polygon class="cls-135" points="698.87 521.88 693.81 508.74 688.89 521.88 677.45 521.88 686.03 528.63 682.65 540.8 693.81 533.39 704.66 540.8 700.56 528.63 709.58 521.88 698.87 521.88"/><polygon class="cls-135" points="748 521.88 742.94 508.74 738.02 521.88 726.58 521.88 735.16 528.63 731.78 540.8 742.94 533.39 753.79 540.8 749.69 528.63 758.71 521.88 748 521.88"/><polygon class="cls-135" points="797.13 521.88 792.07 508.74 787.15 521.88 775.71 521.88 784.29 528.63 780.92 540.8 792.07 533.39 802.92 540.8 798.82 528.63 807.84 521.88 797.13 521.88"/><polygon class="cls-135" points="846.26 521.88 841.2 508.74 836.28 521.88 824.84 521.88 833.42 528.63 830.05 540.8 841.2 533.39 852.05 540.8 847.95 528.63 856.97 521.88 846.26 521.88"/><polygon class="cls-135" points="895.39 521.88 890.33 508.74 885.41 521.88 873.97 521.88 882.55 528.63 879.18 540.8 890.33 533.39 901.18 540.8 897.08 528.63 906.1 521.88 895.39 521.88"/><polygon class="cls-135" points="944.52 521.88 939.46 508.74 934.54 521.88 923.1 521.88 931.68 528.63 928.31 540.8 939.46 533.39 950.32 540.8 946.21 528.63 955.23 521.88 944.52 521.88"/><polygon class="cls-135" points="993.65 521.88 988.59 508.74 983.68 521.88 972.23 521.88 980.81 528.63 977.44 540.8 988.59 533.39 999.45 540.8 995.34 528.63 1004.36 521.88 993.65 521.88"/><polygon class="cls-135" points="1042.78 521.88 1037.72 508.74 1032.81 521.88 1021.36 521.88 1029.94 528.63 1026.57 540.8 1037.72 533.39 1048.58 540.8 1044.47 528.63 1053.49 521.88 1042.78 521.88"/><polygon class="cls-135" points="1102.62 521.88 1091.91 521.88 1086.85 508.74 1081.94 521.88 1070.49 521.88 1079.07 528.63 1075.7 540.8 1086.85 533.39 1097.71 540.8 1093.6 528.63 1102.62 521.88"/><polygon class="cls-135" points="600.61 1002.45 595.55 989.32 590.63 1002.45 579.19 1002.45 587.77 1009.2 584.39 1021.38 595.55 1013.97 606.4 1021.38 602.3 1009.2 611.32 1002.45 600.61 1002.45"/><polygon class="cls-135" points="649.74 1002.45 644.68 989.32 639.76 1002.45 628.32 1002.45 636.9 1009.2 633.52 1021.38 644.68 1013.97 655.53 1021.38 651.43 1009.2 660.45 1002.45 649.74 1002.45"/><polygon class="cls-135" points="698.87 1002.45 693.81 989.32 688.89 1002.45 677.45 1002.45 686.03 1009.2 682.65 1021.38 693.81 1013.97 704.66 1021.38 700.56 1009.2 709.58 1002.45 698.87 1002.45"/><polygon class="cls-135" points="748 1002.45 742.94 989.32 738.02 1002.45 726.58 1002.45 735.16 1009.2 731.78 1021.38 742.94 1013.97 753.79 1021.38 749.69 1009.2 758.71 1002.45 748 1002.45"/><polygon class="cls-135" points="797.13 1002.45 792.07 989.32 787.15 1002.45 775.71 1002.45 784.29 1009.2 780.92 1021.38 792.07 1013.97 802.92 1021.38 798.82 1009.2 807.84 1002.45 797.13 1002.45"/><polygon class="cls-135" points="846.26 1002.45 841.2 989.32 836.28 1002.45 824.84 1002.45 833.42 1009.2 830.05 1021.38 841.2 1013.97 852.05 1021.38 847.95 1009.2 856.97 1002.45 846.26 1002.45"/><polygon class="cls-135" points="895.39 1002.45 890.33 989.32 885.41 1002.45 873.97 1002.45 882.55 1009.2 879.18 1021.38 890.33 1013.97 901.18 1021.38 897.08 1009.2 906.1 1002.45 895.39 1002.45"/><polygon class="cls-135" points="944.52 1002.45 939.46 989.32 934.54 1002.45 923.1 1002.45 931.68 1009.2 928.31 1021.38 939.46 1013.97 950.32 1021.38 946.21 1009.2 955.23 1002.45 944.52 1002.45"/><polygon class="cls-135" points="993.65 1002.45 988.59 989.32 983.68 1002.45 972.23 1002.45 980.81 1009.2 977.44 1021.38 988.59 1013.97 999.45 1021.38 995.34 1009.2 1004.36 1002.45 993.65 1002.45"/><polygon class="cls-135" points="1042.78 1002.45 1037.72 989.32 1032.81 1002.45 1021.36 1002.45 1029.94 1009.2 1026.57 1021.38 1037.72 1013.97 1048.58 1021.38 1044.47 1009.2 1053.49 1002.45 1042.78 1002.45"/><polygon class="cls-135" points="1102.62 1002.45 1091.91 1002.45 1086.85 989.32 1081.94 1002.45 1070.49 1002.45 1079.07 1009.2 1075.7 1021.38 1086.85 1013.97 1097.71 1021.38 1093.6 1009.2 1102.62 1002.45"/></g></g></svg>