<svg xmlns="http://www.w3.org/2000/svg" xmlns:xlink="http://www.w3.org/1999/xlink" viewBox="0 0 77.29 71.45"><defs><style>.cls-1{fill:none;}.cls-2{fill:#f6f6f6;}.cls-3{clip-path:url(#clip-path);}.cls-4{fill:#fff;}</style><clipPath id="clip-path"><rect class="cls-1" x="24.74" y="21.68" width="27.8" height="28.09"/></clipPath></defs><title>search-button</title><g id="Layer_2" data-name="Layer 2"><g id="Layer_1-2" data-name="Layer 1"><path class="cls-2" d="M39.49,0a100,100,0,0,1-7.64,9.86q-4.07,4.68-8.44,9.05t-9,8.45A102.78,102.78,0,0,1,4.5,35a99.92,99.92,0,0,1,7.63-9.86q4.06-4.69,8.45-9c2.92-2.92,5.93-5.74,9.06-8.45A102.64,102.64,0,0,1,39.49,0Z"/><path class="cls-2" d="M71.44,36.45A102.64,102.64,0,0,1,63.8,46.3c-2.71,3.13-5.53,6.14-8.44,9.06s-5.93,5.74-9.06,8.45a101.55,101.55,0,0,1-9.86,7.64,101.68,101.68,0,0,1,7.64-9.87q4.06-4.68,8.45-9t9-8.44A102.42,102.42,0,0,1,71.44,36.45Z"/><path class="cls-2" d="M40.5,2.74A100.91,100.91,0,0,1,50.74,9.86c3.26,2.54,6.42,5.2,9.49,8s6,5.62,8.91,8.6a101.31,101.31,0,0,1,8.15,9.44A98.7,98.7,0,0,1,67,28.75c-3.27-2.55-6.42-5.2-9.49-8s-6-5.63-8.9-8.6A99.77,99.77,0,0,1,40.5,2.74Z"/><path class="cls-2" d="M0,34.24a102.6,102.6,0,0,1,10.25,7.11q4.89,3.81,9.48,8t8.91,8.6a99.84,99.84,0,0,1,8.15,9.44,98.31,98.31,0,0,1-10.25-7.11q-4.89-3.81-9.48-8t-8.91-8.6A101.31,101.31,0,0,1,0,34.24Z"/><g id="ICON_Magnifier"><g class="cls-3"><g class="cls-3"><path class="cls-4" d="M46.68,40.65l-3.21,3.21c.11.11.22.23.34.34L47,41l-.34-.34"/><path class="cls-4" d="M46,40l-3.21,3.2.34.35,3.21-3.21L46,40"/><path class="cls-4" d="M45.54,39.5l-.14-.14-3.2,3.21c.1.1.21.22.34.34l3.2-3.21-.2-.2"/><path class="cls-4" d="M47.32,41.29l-3.21,3.22.33.34,3.22-3.22-.34-.34"/><path class="cls-4" d="M52.16,46.26a5.19,5.19,0,0,0-.61-.71l-2.95-3L45.38,45.8,48,48.47a7.68,7.68,0,0,0,1.06.92,2.23,2.23,0,0,0,2.83-.29,2.26,2.26,0,0,0,.26-2.84"/><path class="cls-4" d="M44,37.92a3.88,3.88,0,0,1-.7-.9,1.32,1.32,0,0,0,0-.13,1.62,1.62,0,0,1,.1-.18A10.18,10.18,0,0,0,41.7,24.6a9.41,9.41,0,0,0-8.58-2.76A9.7,9.7,0,0,0,26,27a9.8,9.8,0,0,0,.31,10.15,9.13,9.13,0,0,0,5.84,4.4,10.6,10.6,0,0,0,3.59.3,8.16,8.16,0,0,0,4-1.34,1.38,1.38,0,0,1,.2-.08,3.39,3.39,0,0,1,.34.31c.53.52,1.06,1,1.58,1.57l3.2-3.2c-.37-.38-.74-.75-1.11-1.14m-5.82.23a6.45,6.45,0,0,1-4.21.78c-.25,0-.49-.07-.73-.12a7,7,0,0,1-5.35-5.33c-.12-.59-.16-1.19-.24-1.79a7.26,7.26,0,0,1,5.78-7,7,7,0,0,1,8.3,5.51,7.3,7.3,0,0,1-3.55,7.94"/><path class="cls-4" d="M48,41.94l-3.22,3.21.34.35,3.22-3.22c-.11-.12-.23-.23-.34-.34"/><path class="cls-4" d="M33.44,26.09a5,5,0,0,0-4.3,3.43,10,10,0,0,0-.62,3.06A.44.44,0,0,0,29,33h0a.44.44,0,0,0,.43-.44,8.41,8.41,0,0,1,.57-2.7A4.15,4.15,0,0,1,33.52,27a.44.44,0,0,0-.08-.88"/></g></g></g></g></g></svg>