<?xml version="1.0" encoding="utf-8"?>
<!-- Generator: Adobe Illustrator 21.1.0, SVG Export Plug-In . SVG Version: 6.00 Build 0)  -->
<svg version="1.1" id="Layer_1" xmlns="http://www.w3.org/2000/svg" xmlns:xlink="http://www.w3.org/1999/xlink" x="0px" y="0px"
	 viewBox="0 0 126.1 126" style="enable-background:new 0 0 126.1 126;" xml:space="preserve">
<style type="text/css">
	.st0{fill:none;stroke:#FFFFFF;stroke-miterlimit:10;}
	.st1{fill:#FFFFFF;}
</style>
<g>
	<g>
		<path class="st0" d="M125.6,63c0,34.5-28,62.5-62.5,62.5c-34.5,0-62.5-28-62.5-62.5S28.5,0.5,63,0.5C97.6,0.5,125.6,28.5,125.6,63
			"/>
	</g>
</g>
<g>
	<path class="st1" d="M33.8,70.2c2.6,0.4,5,0.4,7.5-0.3c-4-0.9-7.2-2.9-9.6-5.9c-2.5-3.1-3.7-6.6-3.7-10.6c1.2,0.5,2.4,1,3.6,1.3
		c1.2,0.3,2.4,0.5,3.7,0.6c-3.5-2.6-5.8-6-6.7-10.2c-0.9-4.2-0.3-8.2,1.8-12c9,10.6,20.4,16.5,34.4,17.5c0-0.2,0-0.4,0-0.6
		c-0.9-5.1,0.1-9.8,3.5-13.8c4.5-5.3,10.3-7.2,17.1-5.6c2.9,0.7,5.4,2.2,7.5,4.3c0.3,0.3,0.6,0.4,1.1,0.3c3.3-0.7,6.3-1.9,9.2-3.5
		c0.2-0.1,0.4-0.2,0.5-0.3c0,0.9-1.1,3.2-2.6,5.1c-1.2,1.5-2.6,2.8-4.2,4c0.7-0.1,1.5-0.2,2.2-0.4c0.8-0.2,1.6-0.3,2.3-0.5
		c0.8-0.2,1.5-0.4,2.2-0.7c0.7-0.3,1.4-0.6,2.3-0.7c-0.6,0.8-1.1,1.6-1.7,2.3c-1.7,2.1-3.7,4-5.9,5.6c-0.4,0.3-0.5,0.7-0.5,1.2
		c0.2,11-3,21-9.4,30c-5.1,7.1-11.7,12.4-19.9,15.6c-6.4,2.6-13.1,3.6-20,3.4c-5.5-0.2-10.9-1.3-16-3.4c-2.5-1.1-4.9-2.4-7.3-3.7
		c-0.1-0.1-0.2-0.1-0.3-0.3c6.1,0.6,11.9-0.3,17.5-2.8c2.4-1.1,4.7-2.4,6.8-4.1C41.7,81.2,36.6,77.4,33.8,70.2z"/>
</g>
</svg>
