<?xml version="1.0" encoding="utf-8"?>
<!-- Generator: Adobe Illustrator 21.1.0, SVG Export Plug-In . SVG Version: 6.00 Build 0)  -->
<svg version="1.1" id="Layer_1" xmlns="http://www.w3.org/2000/svg" xmlns:xlink="http://www.w3.org/1999/xlink" x="0px" y="0px"
	 viewBox="0 0 126.1 126" style="enable-background:new 0 0 126.1 126;" xml:space="preserve">
<style type="text/css">
	.st0{fill:none;stroke:#F15A29;stroke-miterlimit:10;}
	.st1{fill-rule:evenodd;clip-rule:evenodd;}
</style>
<g>
	<g>
		<path class="st0" d="M125.6,63c0,34.5-28,62.5-62.5,62.5c-34.5,0-62.5-28-62.5-62.5S28.5,0.5,63,0.5C97.6,0.5,125.6,28.5,125.6,63
			"/>
	</g>
</g>
<g>
	<path class="st1" d="M63,26.3c-20.3,0-36.7,16.4-36.7,36.7c0,20.3,16.4,36.7,36.7,36.7c20.3,0,36.7-16.4,36.7-36.7
		C99.7,42.8,83.3,26.3,63,26.3z M95.3,59.1c-0.2-0.3-0.3-0.7-0.4-1.1c0-0.1-0.1-0.2-0.1-0.3c-0.1-0.3-0.1-0.6,0-0.8
		c0.1-0.2,0.3-0.3,0.6-0.4c0.2,0,0.4,0.1,0.5,0.3c0.1,0.2,0.1,0.3,0.2,0.5c0,0,0,0.1,0,0.1c-0.1,0-0.1-0.1-0.2-0.1
		c-0.2-0.1-0.3,0-0.4,0.1c-0.1,0.1-0.1,0.2,0,0.3c0.1,0.2,0.2,0.4,0.3,0.6c0.1,0.2,0.1,0.4,0.2,0.7c0,0,0.1-0.1,0.1-0.1
		c0,0.1,0.1,0.3,0.1,0.4c-0.1,0-0.2,0-0.2,0.1c0,0.1-0.1,0.2,0,0.3c0.1,0.2,0.2,0.4,0.2,0.6c0,0.2,0,0.4,0.1,0.6c0,0.1,0,0.1,0,0.3
		c-0.1,0-0.2,0-0.4,0.1c-0.1,0-0.2,0-0.3-0.2c0-0.1-0.1-0.2-0.2-0.2c-0.1,0-0.1-0.1-0.1-0.2c0-0.2-0.1-0.3-0.1-0.5
		c0,0,0.1-0.1,0.1-0.1C95.4,59.6,95.5,59.4,95.3,59.1z M63.1,97.8c-19.2,0-34.7-15.5-34.7-34.7c0-3.6,0.6-7.1,1.6-10.4
		c0,0.1,0,0.1,0,0.2c0,0.1,0,0.1,0,0.2c0,0,0-0.1,0.1-0.1c0.1,0.1,0,0.1,0,0.2c0,0,0,0,0,0c0,0-0.1,0-0.1,0c0,0,0,0,0,0
		c0,0,0.1,0.2,0.2,0.2c0,0.1,0,0.3,0,0.3c0,0,0,0,0,0c0,0,0-0.2,0-0.2c0,0,0-0.1,0-0.1c0,0.2,0,0.3,0,0.5c0,0,0,0,0,0
		c0-0.1,0.1-0.1,0.1-0.2c0.1,0,0.1,0.1,0.1,0.2c0,0.1,0,0.3,0,0.4c0,0.1,0,0.1,0,0.2c0,0.3,0,0.5,0,0.8c0,0,0,0,0,0
		c0.1,0.1,0.2,0.3,0.3,0.5c0.1,0.2,0.2,0.3,0.1,0.5c0,0.1,0,0.1-0.1,0.2c-0.1,0-0.1-0.1-0.1-0.1c-0.1,0.1-0.1,0.2-0.1,0.3
		c0.1,0.3,0,0.5,0,0.8c-0.1,0.3-0.1,0.7-0.2,1c0,0.4,0,0.9-0.1,1.3c0,0,0,0.1,0,0.1c0.1,0.3,0.1,0.6,0.2,0.9c0,0,0,0.1,0,0.1
		c0,0.2,0.1,0.5,0.1,0.7c0,0.1,0.1,0.2,0.1,0.4c0,0.2,0.1,0.3,0.2,0.4c0.2,0.1,0.3,0.3,0.4,0.5c0,0,0,0.1,0,0.1
		c-0.1,0.1,0,0.2,0,0.3c0,0.1,0.1,0.2,0.1,0.3c0,0.2,0.1,0.4,0.1,0.6c0,0.1,0.1,0.2,0.1,0.4c0.1,0.2,0.2,0.4,0.3,0.6
		c0.1,0.1,0,0.2-0.1,0.2c0,0,0,0.1,0.1,0.1c0.3,0.3,0.4,0.6,0.4,1c0,0.1,0,0.1,0.1,0.2c0.1,0.1,0.1,0.2,0.2,0.3
		c0.1,0.1,0.1,0.2,0.2,0.2c0.1,0.1,0.1,0.2,0.2,0.3c0.1-0.2,0.1-0.3-0.1-0.5c-0.1,0-0.1-0.1-0.1-0.2c-0.1-0.2-0.1-0.3-0.1-0.5
		c-0.1-0.2-0.1-0.4-0.2-0.6c-0.1-0.2-0.1-0.4-0.2-0.6C32,65,32,64.8,31.9,64.7c-0.2-0.3-0.3-0.6-0.3-0.9c0,0,0-0.1,0-0.2
		c0.1,0.1,0.2,0.1,0.2,0.1c0,0,0.1,0.1,0.1,0.2c0.1,0.2,0.1,0.4,0.1,0.6c0.1,0.3,0.2,0.5,0.4,0.7c0,0,0,0.1,0.1,0.1
		c0.1,0.1,0.1,0.2,0.2,0.3c0.1,0.1,0.2,0.3,0.2,0.4c0,0.1,0.1,0.3,0.2,0.4c0.1,0.1,0.2,0.2,0.3,0.3c0.3,0.4,0.5,0.8,0.6,1.3
		c0.1,0.2,0.1,0.3,0,0.5c-0.1,0.2,0,0.3,0.1,0.5c0.2,0.2,0.4,0.4,0.6,0.6c0,0,0.1,0.1,0.1,0.1c0.2,0.1,0.3,0.2,0.4,0.3
		c0.1,0.1,0.1,0.2,0.3,0.2c0.1,0,0.2,0.1,0.2,0.1c0.1,0.1,0.1,0.1,0.2,0.2c0.1,0.1,0.3,0.2,0.4,0.2c0.1,0,0.1,0,0.2,0.1
		c0.2,0.1,0.2,0.1,0.4,0c0.1-0.1,0.2-0.1,0.3,0c0.2,0.2,0.4,0.5,0.7,0.7c0.1,0.1,0.3,0.3,0.5,0.3c0.2,0.1,0.4,0.1,0.6,0.3
		c0,0,0.1,0,0.1,0.1c0.1,0,0.2,0.1,0.3-0.1c0,0,0.1,0,0.1,0c0,0.1,0,0.2,0.1,0.2c0.1,0.1,0.1,0.3,0.2,0.4c0.3,0.3,0.5,0.6,0.5,1
		c0,0.1,0.1,0.2,0.2,0.3c0,0,0.1-0.1,0.1-0.1c0.2,0.2,0.4,0.3,0.6,0.6c0.1,0.1,0.2,0.3,0.3,0.3c0.2,0,0.3,0.1,0.4,0.2
		c0.1,0.1,0.2,0.2,0.3,0.3c0.1,0,0.1,0,0.2,0c0-0.1,0.1-0.1,0-0.2c-0.1-0.1-0.1-0.2,0-0.2c0.1,0,0.1-0.1,0.2-0.1
		c0.1-0.1,0.2-0.1,0.2,0c0.1,0.1,0.2,0.2,0.2,0.3c0,0.1,0,0.1,0.1,0.2c0,0,0.1,0.1,0.1,0.1c0,0.1,0,0.2,0.1,0.2
		c0.2,0.2,0.2,0.3,0.2,0.6c0,0.1,0,0.2,0.1,0.3c0,0.1,0.1,0.2,0,0.3c0,0,0,0.1,0,0.1c0,0.1,0.1,0.1,0.1,0.2c0,0.1-0.1,0.1-0.2,0.2
		c-0.2,0.1-0.3,0.2-0.4,0.4c-0.1,0.2-0.2,0.4-0.4,0.4c0,0.2,0,0.4-0.1,0.6c-0.1,0.2,0,0.4,0.1,0.5c0.1,0.1,0.2,0.2,0.3,0.2
		c0,0,0,0,0,0c0,0.1,0,0.1-0.2,0.2c-0.2,0.2-0.3,0.4-0.2,0.6c0.1,0.3,0.2,0.6,0.5,0.7c0.1,0.1,0.2,0.1,0.2,0.3
		c0,0.1,0.1,0.2,0.2,0.2c0.2,0.1,0.2,0.2,0.3,0.4c0.1,0.2,0.2,0.5,0.4,0.7c0.2,0.3,0.5,0.7,0.7,1c0.1,0.1,0.1,0.2,0.1,0.3
		c0,0.1,0.1,0.2,0.1,0.3c0.3,0.2,0.5,0.5,0.9,0.6c0.1,0.1,0.3,0.2,0.4,0.2c0.1,0.1,0.3,0.2,0.4,0.3c0.3,0.1,0.5,0.3,0.7,0.5
		c0.1,0.1,0.2,0.2,0.2,0.4c0.1,0.3,0.1,0.6,0.2,0.8c0,0.1,0,0.2,0,0.2c-0.1,0.2,0,0.5,0,0.7c0,0.2,0.1,0.3,0.1,0.5
		c0.1,0.2,0.1,0.5,0,0.7c-0.1,0.3,0,0.6,0,0.8c0,0.2,0.1,0.4,0.2,0.6c0,0.2,0.1,0.4,0.1,0.6c0,0,0,0.1,0,0.1
		c-0.1,0.1-0.1,0.3-0.2,0.4c0,0.1,0,0.2,0,0.3c0,0.1,0.1,0.2,0.2,0.3c0,0.1-0.1,0.2,0,0.3c0.1,0.2,0.1,0.4,0.2,0.6
		c0,0.1,0.1,0.2,0.2,0.1c0-0.1,0-0.2-0.1-0.3c0.1,0,0.2,0,0.2,0c0.1,0,0.2,0,0.2,0.1c0,0.3,0,0.5,0,0.8c-0.1,0-0.1-0.1-0.2-0.1
		c-0.1,0-0.1,0-0.2-0.1c0,0,0,0,0,0c0.1,0.1,0.2,0.2,0.3,0.3c-0.1,0.1-0.1,0.1-0.1,0.2c0.3,0.2,0.4,0.5,0.7,0.7c0,0,0.1,0.1,0.1,0.1
		c0,0.1,0.1,0.2,0.2,0.2c0.3,0.1,0.6,0.3,0.9,0.4c0.2,0.1,0.4,0.1,0.6,0.2c0.4,0.2,0.8,0.3,1.2,0.3c-0.1-0.1-0.2-0.1-0.3-0.1
		c-0.3-0.1-0.5-0.2-0.7-0.4c-0.1-0.1-0.2-0.1-0.3-0.2c-0.1,0-0.1-0.1-0.2-0.1c0,0,0-0.1,0-0.1c0,0,0.1-0.1,0.1-0.1
		c0.1,0,0.2,0,0.2,0c0-0.1,0-0.1,0.1-0.2c0.1,0,0.3,0,0.3-0.1c0,0-0.1-0.1-0.1-0.1c-0.1-0.1-0.2-0.1-0.3-0.1
		c-0.1-0.1-0.2-0.1-0.3-0.2c-0.1-0.1,0-0.2,0.1-0.2c0.1,0,0.1,0,0.2,0c0.1,0,0.2,0,0.3,0c-0.1-0.2,0.1-0.3,0-0.5
		c0.1,0,0.2,0.1,0.3,0.1c0-0.1-0.1-0.1-0.2-0.1c-0.2,0-0.4-0.2-0.4-0.4c0.3,0,0.5,0.3,0.8,0.2c0-0.1,0-0.1,0-0.2c0,0,0-0.1,0-0.1
		c0-0.3,0-0.3,0.3-0.2c0,0,0,0,0.1,0c0.3,0.1,0.7,0.1,1,0.1c0.2,0,0.4-0.1,0.5-0.2c0.1-0.1,0.1-0.3,0-0.3c-0.2-0.1-0.3-0.2-0.4-0.4
		c0-0.1-0.1-0.1-0.2-0.1c0,0-0.1-0.1-0.1-0.1c0,0,0,0,0,0c0.1,0,0.1,0,0.2,0c0.3,0.1,0.5,0.2,0.8,0.2c0.1,0,0.3,0.1,0.4,0.1
		c0.3,0,0.5-0.1,0.6-0.3c0-0.1,0.1-0.1,0.1-0.2c0.1-0.2,0.2-0.3,0.4-0.4c0.1,0,0.1-0.1,0.2-0.1c0.1-0.1,0.2-0.2,0.3-0.4
		c0-0.1,0-0.1,0.1-0.2c0.1-0.1,0.3-0.2,0.5-0.3c0.1,0,0.1,0,0.2-0.1c0-0.2,0-0.4-0.1-0.6c0-0.3,0-0.4,0.3-0.5c0.1,0,0.1,0,0.2-0.1
		c0.2-0.2,0.4-0.2,0.6-0.3c0.2,0,0.3-0.1,0.5-0.2c0.1-0.1,0.1-0.1,0.2-0.1c0.2,0,0.4,0,0.6,0c0.2,0,0.4,0,0.6-0.2
		c0.1-0.1,0.1-0.1,0.2-0.2c0-0.1,0.1-0.2,0.1-0.3c0.1-0.1,0.2-0.2,0.3-0.3c0.2-0.2,0.2-0.4,0.2-0.6c0-0.1,0.1-0.2,0.1-0.3
		c0.1-0.1,0.1-0.1,0.1-0.2c0.1-0.3,0.2-0.7,0-1c0,0,0-0.1,0-0.2c0-0.3,0-0.4,0.2-0.5c0.1-0.1,0.2-0.1,0.3-0.2
		c0.3-0.3,0.6-0.6,0.9-0.9c0.4-0.4,0.5-0.8,0.5-1.4c0-0.5-0.2-0.7-0.7-0.6c-0.2,0-0.4,0-0.6-0.2c-0.1-0.1-0.3-0.2-0.4-0.4
		c-0.2-0.2-0.4-0.3-0.6-0.4c-0.2-0.1-0.5-0.1-0.7-0.1c-0.1,0-0.1,0-0.2,0c-0.2,0-0.3,0-0.5-0.1c0,0-0.1-0.1-0.2-0.1
		c-0.2-0.1-0.3-0.1-0.5,0c-0.1,0.1-0.2,0.1-0.3,0c0-0.1,0-0.1,0-0.2c0-0.1-0.1-0.2-0.1-0.2c-0.3-0.1-0.6-0.3-0.9-0.4
		c-0.5-0.2-0.7-0.1-1,0.3c-0.1,0.1-0.1,0.2-0.2,0.3c-0.2,0-0.3-0.1-0.5-0.1c-0.1-0.3-0.2-0.3-0.3-0.4c-0.2-0.1-0.3-0.3-0.2-0.5
		c0.1-0.1,0.2-0.2,0.3-0.3c0.1-0.1,0.2-0.2,0.3-0.3c0-0.1-0.1-0.1-0.1-0.1c-0.2-0.1-0.3-0.3-0.3-0.4c-0.1-0.2-0.1-0.3-0.2-0.5
		c0-0.1,0-0.1-0.1-0.1c-0.2-0.2-0.4-0.3-0.5-0.4c-0.1-0.1-0.2-0.2-0.3-0.1c-0.3,0-0.4-0.1-0.5-0.3c0-0.1-0.1-0.1-0.1-0.2
		c-0.1-0.1-0.1-0.2-0.3-0.2c-0.3,0-0.6,0-0.8,0c-0.2,0-0.5,0-0.6-0.3c0,0,0-0.1-0.1-0.1c-0.2,0-0.2-0.1-0.3-0.2
		c0-0.1-0.1-0.1-0.2-0.1c-0.1,0-0.2-0.1-0.2-0.1c-0.1-0.1-0.3-0.2-0.4-0.2c-0.1,0-0.2,0-0.2-0.2c0-0.2-0.2-0.3-0.4-0.4
		c-0.2,0-0.3-0.1-0.5-0.2c0,0-0.1-0.1-0.1-0.2c0.1,0,0.2-0.1,0.2-0.1c0,0,0,0,0-0.1c-0.1,0-0.3,0-0.4,0c-0.1,0-0.2,0-0.2,0
		c-0.1,0.2-0.3,0.1-0.5,0.1c-0.1,0-0.2,0-0.3-0.2c0-0.1-0.1-0.1-0.2-0.1c-0.2,0-0.4,0-0.6,0c-0.1,0-0.2,0-0.3-0.1
		c0,0-0.1-0.1-0.1-0.1c-0.2-0.1-0.4-0.1-0.6-0.4c-0.1,0-0.2,0.1-0.2,0.1c0.1,0.1,0.3,0.2,0.3,0.4c-0.1,0-0.3,0-0.4,0
		c-0.1,0-0.2,0-0.2,0.1c-0.1,0.1,0,0.2,0,0.3c0,0,0.1,0.1,0.1,0.1c0,0.1,0.1,0.1,0,0.2c0,0.1-0.1,0.1-0.1,0.2c0,0-0.1,0-0.1-0.1
		c-0.2-0.2-0.1-0.8,0-1c0.1-0.1,0.1-0.2,0-0.3c-0.1-0.1-0.2-0.1-0.3,0.1c-0.1,0.1-0.2,0.2-0.4,0.2c-0.2,0.1-0.5,0.1-0.7,0.2
		c-0.3,0.1-0.4,0.2-0.4,0.5c0,0.1,0,0.2-0.1,0.2c-0.2,0.1-0.2,0.3-0.3,0.4c-0.1,0-0.2,0-0.2-0.1c-0.1-0.1-0.2-0.2-0.3-0.3
		c-0.2-0.2-0.5-0.2-0.8-0.1c-0.1,0.1-0.2,0.1-0.3,0.1c-0.1,0-0.3,0-0.3-0.1c-0.1-0.2-0.3-0.3-0.5-0.4c-0.1-0.1-0.3-0.2-0.3-0.4
		c0-0.3-0.1-0.6-0.1-0.9c0,0,0-0.1,0-0.1c0.2-0.3,0.1-0.6,0.1-0.8c-0.1-0.1-0.2-0.2-0.3-0.2c-0.1-0.1-0.3-0.2-0.4-0.2
		c-0.3,0-0.6,0-0.9,0c-0.1,0-0.2,0-0.3,0c-0.1,0-0.2-0.2-0.1-0.3c0.1-0.1,0.1-0.3,0.1-0.5c0-0.1,0-0.2,0-0.3c0-0.1,0-0.2,0.1-0.3
		c0.1-0.1,0.1-0.2,0.2-0.2c0-0.2,0.1-0.4,0.3-0.6c0.1-0.1,0.1-0.2,0.1-0.4c-0.2,0-0.3-0.1-0.5-0.1c-0.2,0-0.3,0-0.5,0
		c-0.2,0.1-0.3,0.2-0.3,0.4c0,0.3-0.2,0.6-0.3,0.8c0,0,0,0,0,0c-0.3-0.1-0.3-0.1-0.6,0c-0.2,0.1-0.2,0.1-0.4-0.1
		c0,0-0.1-0.1-0.1-0.1c-0.1-0.1-0.2-0.2-0.2-0.2c-0.1-0.2-0.3-0.4-0.4-0.6c-0.1-0.1-0.2-0.3-0.1-0.5c0-0.1,0-0.1,0-0.2
		c0-0.4-0.1-0.9-0.1-1.3c0-0.2,0-0.5-0.1-0.7c-0.1-0.3,0-0.6,0.1-0.9c0.1-0.1,0.2-0.2,0.3-0.2c0.1,0,0.2,0,0.2-0.1
		c0.1-0.1,0.1-0.2,0.2-0.3c0.2-0.2,0.3-0.3,0.6-0.1c0.1,0,0.1,0.1,0.2,0c0.1-0.1,0.2-0.1,0.3,0c0.1,0.1,0.4,0.2,0.6,0.2
		c0.1,0.1-0.4,0.1,0.6,0c0-0.2,0-0.4,0-0.6c0,0,0,0,0.1,0c0,0,0,0,0,0c0.1,0.1,0.1,0,0.1,0c0.2-0.1,0.3-0.1,0.4,0
		c0.1,0.1,0.1,0.1,0.2,0.2c0.1,0.1,0.2,0.1,0.3,0c0.1-0.1,0.3-0.1,0.4,0c0.1,0.1,0.1,0.2,0.1,0.3c0.1,0.2,0.1,0.5,0.1,0.8
		c0,0.2,0.1,0.4,0.2,0.6c0.1,0.2,0.3,0.4,0.4,0.6c0.1,0.2,0.3,0.2,0.4,0c0-0.1,0.1-0.1,0.1-0.2c0-0.2,0-0.4,0-0.6
		c0-0.1-0.1-0.2-0.1-0.3c0-0.3-0.1-0.5-0.3-0.8c-0.1-0.1-0.1-0.3-0.2-0.4c0-0.6,0.1-1,0.6-1.4c0.2-0.2,0.4-0.3,0.6-0.4
		c0.1-0.1,0.2-0.1,0.3-0.3c0,0,0.1-0.1,0.1-0.1c0.1-0.1,0.3-0.2,0.4-0.2c0.1,0,0.1-0.1,0.2-0.2c-0.3-0.2,0-0.3,0-0.4
		c-0.1,0-0.1-0.1-0.2-0.1c0-0.1,0.1-0.2,0.1-0.3c0-0.1,0.1-0.3,0.2-0.4c0.1-0.1,0.1-0.2,0.2-0.3c0.1-0.2,0.1-0.3,0-0.5
		c0,0,0-0.1,0-0.1c0.1,0,0.1,0,0.2,0.1c0.2-0.1,0.2-0.3,0.3-0.5c0-0.1,0.1-0.2,0-0.3c-0.1-0.1,0-0.2,0.1-0.2c0.2,0,0.3-0.1,0.5-0.1
		c0.1,0,0.1-0.1,0.1-0.1c0.2-0.1,0.3-0.2,0.5-0.2c0.1,0,0.1,0,0.2,0c0.2,0,0.2,0,0.3-0.1c-0.1,0-0.1,0-0.2-0.1
		c-0.1-0.4-0.1-0.7,0.2-1c0.1-0.1,0.3-0.2,0.4-0.3c0.1-0.1,0.2-0.2,0.4-0.1c0.2,0,0.4-0.1,0.6-0.3c-0.1-0.1-0.1-0.2,0-0.4
		c0.1,0,0.3,0,0.4,0.1c0.2,0,0.4,0,0.5-0.2c0-0.1,0.1-0.1,0.2-0.2c0,0.1,0,0.2,0.1,0.3c-0.1,0-0.2,0.1-0.2,0.1
		c-0.1,0.1-0.3,0.2-0.4,0.3c-0.2,0.2-0.2,0.4,0,0.6c0.1,0.1,0.1,0.1,0.3,0c0,0,0.1,0,0.1-0.1c0.2-0.2,0.5-0.4,0.8-0.5
		c0.1,0,0.3-0.1,0.4-0.2c0.1-0.1,0.3-0.1,0.4-0.2c0.1-0.1,0.1-0.2,0-0.2c-0.1,0-0.2,0-0.4,0c-0.4,0-0.7-0.2-1-0.4
		c-0.2-0.2-0.2-0.3-0.1-0.6c0-0.1,0-0.1,0.1-0.2c-0.1,0-0.2,0-0.3-0.1c0.1-0.1,0.2-0.1,0.2-0.1c0.1-0.1,0.2-0.1,0.3-0.2
		c0.1-0.1,0.2-0.2,0.1-0.3c0-0.1-0.2-0.1-0.3-0.1c-0.1,0-0.3,0-0.4,0c-0.3,0-0.6,0.1-0.8,0.3c-0.1,0.1-0.3,0.2-0.4,0.3
		c-0.1,0-0.1,0.1-0.2,0.1c0-0.2,0.1-0.2,0.2-0.3c0.1,0,0.2-0.1,0.2-0.1c0.2-0.1,0.4-0.3,0.5-0.5c0-0.1,0.1-0.2,0.2-0.2
		c0.2-0.1,0.4-0.1,0.6-0.1c0.5,0,0.9,0,1.4,0c0.2,0,0.3,0,0.5,0c0.3,0,0.5-0.1,0.6-0.3c0.2-0.2,0.4-0.3,0.6-0.4
		c0.2-0.1,0.4-0.1,0.6-0.2c0.1-0.1,0.2-0.1,0.3-0.2c0.1-0.1,0.1-0.2,0.1-0.2c0-0.2,0-0.5-0.1-0.7c-0.1-0.1-0.1-0.3-0.1-0.4
		c0,0,0-0.1,0-0.1c-0.1,0-0.2,0-0.2,0.1c-0.2,0.1-0.5,0.2-0.7,0.3c-0.1,0.1-0.3,0.1-0.4,0.2c-0.1,0-0.2,0-0.3,0
		c0.1-0.1,0.2-0.1,0.4-0.2c0.2-0.1,0.4-0.2,0.6-0.2c0.1,0,0.2-0.1,0.2-0.3c-0.1-0.1-0.2-0.1-0.3-0.1c-0.2,0-0.3,0-0.5,0
		c-0.3-0.1-0.6-0.2-0.6-0.6c-0.2-0.1-0.4-0.2-0.6-0.3c0.3-0.2,0.2-0.2,0.2-0.6c0-0.1-0.1-0.2-0.2-0.2c-0.1-0.1-0.2-0.1-0.3-0.2
		c0-0.1-0.1-0.2-0.1-0.2c0.1-0.2,0-0.3-0.2-0.4c-0.1-0.1-0.2-0.2-0.2-0.3c-0.1-0.1-0.2-0.2-0.3-0.3c-0.2,0.1-0.3,0.2-0.4,0.4
		c-0.1,0.4-0.4,0.6-0.8,0.8c-0.2,0.1-0.3,0.1-0.4-0.1c-0.1-0.1-0.1-0.1-0.2-0.1c-0.2,0-0.2-0.2-0.2-0.3c0-0.2-0.1-0.4-0.1-0.6
		c0-0.2-0.1-0.3-0.3-0.3c0,0-0.1,0-0.1,0c-0.3,0-0.3-0.1-0.4-0.3c-0.2,0-0.3-0.2-0.4-0.3c-0.2-0.2-0.3-0.2-0.6-0.1
		C45.1,46,45,46.1,44.8,46c-0.1,0-0.3-0.1-0.4-0.1c-0.2,0-0.3,0-0.5,0c-0.1,0-0.2,0.1-0.3,0.2c0,0.1-0.1,0.2,0,0.3
		c0.1,0.2,0.1,0.3,0,0.4c-0.1,0.1-0.1,0.2,0,0.3c0,0,0.1,0.1,0.1,0.1c0.1,0.2,0.1,0.4,0,0.5c-0.1,0.1-0.2,0.2-0.3,0.2
		c-0.1,0-0.1,0.1-0.2,0.1c0.1,0.1,0.1,0.2,0.2,0.3c0.1,0.1,0.2,0.2,0.2,0.4c0.2,0.3,0.2,0.6,0.1,0.9c0,0.2-0.2,0.4-0.3,0.5
		c-0.2,0.2-0.5,0.4-0.8,0.7c0.2,0.2,0.2,0.5,0.2,0.8c0,0.1,0,0.3,0,0.4c0,0,0,0.1,0,0.1c-0.1,0.2-0.3,0.4-0.5,0.5
		c-0.1,0.1-0.1,0.1-0.2,0c-0.1-0.1-0.2-0.2-0.3-0.3c-0.2-0.2-0.3-0.5-0.3-0.9c0-0.1,0-0.2,0-0.4c0-0.1,0-0.2,0-0.3
		c0-0.2-0.2-0.2-0.3-0.2c-0.1,0-0.3,0-0.4,0.1c-0.2,0.1-0.4,0-0.6-0.1c-0.4-0.2-0.8-0.4-1.2-0.7c-0.2-0.1-0.3-0.1-0.4,0
		c-0.1,0.1-0.1,0.1-0.2,0.2c0-0.1,0-0.2,0-0.3c0-0.2,0-0.4-0.1-0.5c-0.1-0.2-0.1-0.3-0.3-0.1c0,0,0,0-0.1,0c0-0.6,0.2-1.1,0.5-1.6
		c0.1-0.2,0.3-0.4,0.4-0.6c0.1-0.2,0.2-0.3,0.5-0.4c0.1,0,0.2-0.1,0.2-0.2c0.1-0.1,0.1-0.2-0.1-0.3c-0.1,0-0.2,0-0.3,0
		c0.1-0.1,0.1-0.1,0.2-0.1c0.1,0,0.2,0,0.4,0c0.1,0,0.2,0,0.2-0.1c0-0.1,0.1-0.2,0.2-0.2c0.1,0,0.2-0.1,0.3-0.1
		c0.1-0.2,0.2-0.4,0.3-0.6c0,0,0-0.1,0-0.1c-0.2-0.1-0.5-0.1-0.5-0.4c0.1-0.1,0.2-0.1,0.3,0c0.2,0.2,0.3,0.2,0.5,0.1
		c0.1,0,0.1-0.1,0.2-0.1c0.1-0.1,0.3-0.2,0.2-0.5c0.2,0,0.2-0.1,0.2,0c0.2,0.1,0.3,0.1,0.4,0c0.1-0.1,0.2-0.1,0.3-0.2
		c0.1,0.1,0.2,0.1,0.2,0c0.2-0.2,0.4-0.3,0.6-0.5c0.1-0.1,0.1-0.2,0-0.3c-0.1-0.1-0.2-0.3,0-0.4c0-0.1,0.1-0.1,0.1-0.1
		c0.1-0.1,0.2-0.2,0.1-0.3c-0.1-0.1-0.2-0.1-0.3-0.1c-0.1,0-0.1,0-0.2-0.1c-0.1,0-0.3,0-0.4,0c-0.2,0-0.3,0.1-0.4,0.2
		c-0.1,0.1,0,0.2,0.1,0.3c0,0,0,0,0,0.1c0,0,0,0.1-0.1,0.1c-0.2,0.1-0.4,0.3-0.5,0.6c-0.1,0.1-0.2,0.3-0.3,0.4
		c-0.1,0.1-0.1,0.1-0.2,0.1c-0.2-0.1-0.2-0.3-0.1-0.5c0,0,0.1,0,0.1-0.1c0.1-0.1,0.1-0.2,0-0.4c-0.1-0.1-0.2-0.1-0.3,0
		c-0.1,0.1-0.1,0.2-0.1,0.2c-0.1,0.1-0.1,0.2-0.2,0.2c0-0.2,0-0.2-0.1-0.4c0,0,0-0.1,0-0.1c-0.1-0.1-0.3,0.1-0.4,0
		c0.1-0.1,0.1-0.1,0.2-0.2c0.2-0.2,0.2-0.2-0.1-0.4c0,0,0,0,0,0c0-0.1,0-0.1,0-0.2c0-0.1-0.1-0.1-0.1-0.2c-0.1-0.1-0.5,0-0.5,0.2
		c0,0.1-0.1,0.1-0.2,0.2c-0.1,0.1-0.2,0.1-0.2,0.2c0,0.2-0.1,0.3-0.2,0.4c0,0-0.1,0.1,0,0.2c0,0,0.1,0.1,0.2,0.1c0.1,0,0.2,0,0.3,0
		c0.1,0.2-0.1,0.3-0.1,0.4c0.1,0,0.1,0,0.2,0c0,0.2-0.1,0.3-0.3,0.3c-0.2,0.1-0.4,0.3-0.5,0.5c0,0.1-0.1,0.1-0.2,0.1
		c0-0.1,0-0.1,0.1-0.2c0-0.1,0-0.1,0-0.2c-0.3-0.1-0.6,0-0.6,0.2c-0.1,0.2-0.2,0.3-0.4,0.3c-0.1,0-0.2,0.1-0.3,0.1
		c-0.2,0.1-0.4,0.1-0.6,0.2c-0.3,0-0.4,0-0.5-0.3c-0.4,0.2-0.6,0.4-0.6,0.6c0.1,0,0.1,0,0.2,0c0,0,0,0,0,0c0,0,0,0,0,0
		c0.1-0.1,0.2-0.2,0.2-0.2c0,0,0,0,0,0c-0.1,0.1-0.1,0.2-0.3,0.2c0,0,0,0,0,0c0,0,0,0,0,0c-0.1,0.1-0.1,0.2-0.2,0.3
		c0,0.1,0,0.2-0.1,0.3c0,0-0.1,0-0.1-0.1c-0.1-0.2-0.1-0.2-0.3-0.1c-0.2,0.1-0.4,0.2-0.6,0.4c-0.1,0.1-0.2,0.1-0.3,0.2
		c0-0.1,0-0.1,0-0.1c0,0,0.1-0.1,0.1-0.1c0.1-0.1,0.1-0.1,0-0.3c-0.1,0.1-0.2,0.1-0.3,0.2c-0.1,0.1-0.2,0.1-0.3,0.1
		c-0.2-0.1-0.3,0-0.5,0.2c0,0-0.1,0.1-0.1,0.1c-0.1,0-0.1,0.1-0.2,0.1c0,0-0.1,0.1-0.1,0.1c0,0-0.1-0.1-0.1-0.1
		c0,0.1-0.1,0.1-0.1,0.2c0.4-0.8,0.9-1.5,1.3-2.2c0,0,0,0,0,0c-0.2,0.3-0.3,0.6-0.5,0.9c0,0,0,0,0,0c0.1,0.1,0.1,0.1,0.1,0.2
		c0.2-0.3,0.4-0.5,0.6-0.8c0.1-0.1,0.1-0.2,0.2-0.3c0,0,0.1,0,0.1,0c0,0,0,0,0,0c0,0,0,0,0,0c-0.1-0.1,0-0.1,0.1-0.2
		c0,0.1-0.1,0.1-0.1,0.2c0,0,0,0,0,0c0,0,0,0,0,0c-0.2,0.2-0.2,0.4-0.2,0.7c0.3-0.2,0.5-0.4,0.8-0.5c-0.1,0.1-0.2,0.2-0.2,0.3
		c-0.2,0.2-0.4,0.3-0.6,0.5c0,0-0.1,0.1-0.1,0.1c0,0.1,0,0.1,0,0.2c0,0,0.1,0,0.1,0c0.1-0.1,0.2-0.1,0.2-0.2c0.1,0,0.2,0,0.2,0
		c0.4-0.3,0.9-0.4,1.3-0.8c0.1-0.1,0.2-0.1,0.3,0c0.1,0,0.2,0.1,0.2,0c0.2-0.1,0.3-0.1,0.5-0.2c0.1,0,0.1-0.1,0.1-0.2
		c0-0.1-0.1-0.1-0.1-0.2c0.1,0,0.2-0.1,0.2-0.1c0.1,0,0.2-0.1,0.2-0.2c-0.1,0-0.1,0-0.2,0c-0.1,0-0.2,0-0.3-0.1
		c-0.1,0-0.1-0.1-0.1-0.2c0-0.2,0-0.3,0-0.5c0-0.2,0.1-0.3,0.2-0.5c0.1-0.1,0.2-0.2,0.2-0.3c-0.2,0-0.4,0.1-0.5,0.3
		c0,0.1-0.1,0.2-0.2,0.2c-0.1,0.1-0.2,0.2-0.3,0.3c0,0.1-0.1,0.2-0.1,0.4c0,0.1,0,0.2-0.2,0.2c0-0.1,0.1-0.3,0-0.4
		c-0.1,0-0.2,0.1-0.2,0.2c0,0.1-0.1,0.1-0.2,0.2c0-0.1-0.1-0.1-0.1-0.1c-0.1,0-0.1,0.1-0.2,0.1c-0.1,0-0.1,0.1-0.1,0.1
		c0,0,0-0.1,0-0.1c0,0-0.1,0-0.1,0c0-0.1,0-0.1,0-0.2c0,0-0.1,0-0.1,0c-0.2,0.1-0.4,0.2-0.6,0.4c-0.1,0.1-0.1,0.1-0.2,0.2
		c0.2-0.3,0.5-0.7,0.7-1c0.1,0,0.2-0.1,0.2-0.1c0.1-0.1,0.1,0.1,0.1,0c0.1,0,0.1-0.1,0.2-0.1c0.1,0,0.1,0.1,0.2,0.1c0,0,0,0,0,0H36
		v-0.3c0,0,0,0,0,0c0,0-0.1,0.1-0.1,0.1c0,0,0,0,0,0c0.1-0.1,0.2-0.2,0.3-0.3c0.2-0.2,0.5-0.4,0.7-0.5c0.3-0.2,0.5-0.4,0.7-0.7
		c0,0,0-0.1,0-0.2c-0.2,0-0.2,0.3-0.5,0.2c0-0.1,0-0.1,0-0.2c-0.2,0.1-0.3,0.2-0.4,0.4c0,0,0,0.1,0,0.1c0,0.2-0.1,0.4-0.4,0.4
		c-0.1,0-0.2,0-0.3,0.1c0,0,0.1-0.1,0.1-0.2c0,0,0,0,0,0c0,0.1-0.1,0.1-0.1,0.2c0,0.1-0.1,0.1-0.1,0.1c0,0,0,0,0,0
		c0-0.1,0.1-0.2,0.2-0.3c-0.1,0.1-0.2,0.2-0.4,0.3c6.4-8.2,16.3-13.4,27.4-13.4c12.9,0,24.2,7,30.1,17.5c-0.1-0.1-0.2-0.1-0.3,0
		c-0.1,0-0.2,0.1-0.2,0.2c-0.2,0.1-0.4,0.1-0.5-0.1c0-0.1,0-0.1-0.1-0.2c-0.1-0.2-0.1-0.3-0.2-0.5c0,0-0.1-0.1-0.1-0.1c0,0,0,0,0,0
		c0,0.2-0.1,0.5,0.1,0.7c0.1,0.1,0.2,0.2,0.1,0.4c-0.2,0-0.4-0.2-0.6-0.2c0,0.1,0,0.2-0.1,0.3c-0.1,0.3-0.2,0.3-0.4,0.2
		c-0.1-0.1-0.2-0.1-0.4-0.2c0,0.1,0.1,0.3,0.1,0.4c-0.5-0.3-0.6-0.8-0.9-1.3c0.3,0.1,0.6,0.2,0.9,0.4c0.1,0.1,0.2,0.1,0.3,0.1
		c0.1,0.1,0.3,0.1,0.4,0c0.1-0.1,0.1-0.3,0-0.4c-0.1-0.2-0.3-0.4-0.5-0.5c-0.7-0.5-1.3-1.1-2-1.6c-0.2-0.1-0.4-0.2-0.6-0.3
		c-0.2-0.1-0.4-0.1-0.5-0.4c0.1,0,0.1,0,0.2,0c0.1,0,0.1-0.1,0.1-0.1c-0.1-0.1-0.2-0.2-0.4-0.3c0,0-0.1,0-0.2,0
		c0-0.1-0.1-0.1-0.1-0.2c-0.1,0-0.2,0.1-0.3,0.1c0-0.1-0.1-0.1-0.1-0.2c-0.1,0-0.1,0.2-0.3,0.2c0,0,0-0.1,0-0.1c0-0.1,0.1-0.1,0-0.2
		c0,0-0.1,0-0.2,0c0,0,0,0,0,0c-0.2,0-0.3,0-0.5-0.1c0,0,0,0-0.1-0.1c-0.1,0-0.1,0.1-0.2,0.1c0,0,0,0,0,0.1c0.1,0,0.1,0.1,0.2,0.1
		c-0.2,0.1-0.3-0.1-0.4,0C85.2,42.1,85,41.9,85,42c0,0,0,0.1,0,0.1c-1,0-0.5-0.1-0.6,0.1c0,0,0,0.1,0.1,0.1c0,0.1-0.1,0.1-0.2,0.2
		c-0.2-0.1-0.4-0.2-0.5-0.4c-0.1,0-0.2,0-0.2,0c0,0-0.1,0-0.1,0.1c0,0,0,0.1,0,0.1c0,0,0,0,0,0.1c0,0-0.1,0.1-0.1,0.2
		c0.2,0,0.4-0.1,0.7-0.1c-0.1,0.3-0.2,0.5-0.5,0.6c-0.3,0.1-0.4,0.2-0.5,0.5c0,0.2-0.1,0.3-0.1,0.5c0,0.1,0,0.1-0.1,0.2
		c-0.3,0.3-0.5,0.7-1,0.7c0,0.1,0,0.1,0,0.1c-0.1,0.1-0.2,0.1-0.3,0.2c-0.1,0.1-0.2,0.1-0.3,0.2c-0.2,0.1-0.3,0.1-0.4,0.3
		c-0.1,0.1-0.2,0.2-0.3,0.2c-0.1,0.1-0.1,0.1-0.1,0.2c0,0.3,0.1,0.6,0.3,0.9c0,0,0,0.1,0.1,0.1c0,0.1-0.1,0.2-0.1,0.3
		c0.4,0,0.4,0,0.4,0.2c0,0-0.1,0-0.1,0c-0.2,0.1-0.2,0.2,0,0.3c0.1,0.1,0.2,0.1,0.3,0.2c0.3,0.2,0.6,0.2,0.9,0
		c0.2-0.1,0.3-0.3,0.5-0.5c0,0,0.1-0.1,0.1-0.2c0.1,0.1,0.2,0.2,0.2,0.3c0,0,0,0.1,0,0.1c0,0.2,0.1,0.3,0.2,0.5
		c0.1,0.1,0.2,0.3,0.2,0.4c0.1,0.1,0.1,0.3,0.2,0.4c0.1,0.2,0.1,0.3,0.2,0.6c-0.1,0-0.1-0.1-0.2-0.1c0,0-0.1,0-0.1,0
		c-0.2,0.1-0.2,0.4-0.1,0.5c0.1,0.1,0.1,0.1,0.2,0.2c0,0-0.1,0.1-0.1,0.1c0,0-0.1,0-0.2,0c0.2,0.2,0.3,0.2,0.4-0.1
		c0-0.1,0-0.1,0-0.2c0-0.1,0.1-0.1,0.1-0.2c0,0,0.1,0.1,0.1,0.1c0.1,0.2,0.3,0.3,0.4,0.1c0.1-0.2,0.3-0.2,0.5-0.2c0,0,0.1,0,0.1,0
		c0.1-0.1,0.2-0.3,0.3-0.4c0-0.1,0.1-0.1,0.1-0.2c0,0,0-0.1,0-0.1c-0.2-0.2-0.2-0.4-0.2-0.6c0-0.2,0.1-0.3,0.3-0.4
		c0.4-0.1,0.5-0.5,0.2-0.7c-0.1-0.1-0.3-0.2-0.4-0.3c0,0-0.1-0.1-0.1-0.1C85.1,47.2,85,47.1,85,47c-0.1-0.1-0.1-0.2,0-0.3
		c0.1-0.1,0.1-0.2,0.1-0.3c-0.1-0.3,0-0.4,0.2-0.5c0.2-0.1,0.3-0.1,0.5-0.2c0.4-0.2,0.4-0.3,0.4-0.7c-0.1-0.3,0.1-0.4,0.3-0.4
		c0.3,0,0.5,0.1,0.7,0.2c0.1,0,0.1,0.1,0.2,0.2c0.1,0.2,0.1,0.3-0.1,0.4c-0.2,0.1-0.3,0.2-0.4,0.3c-0.1,0.2-0.3,0.4-0.6,0.4
		c0,0.3,0.1,0.6,0.3,0.8c-0.1,0.3-0.1,0.4,0.1,0.6c0,0,0.1,0.1,0.1,0.1c0.1,0.1,0.3,0.1,0.4,0.3c0,0.1,0.2,0.1,0.2,0.1
		c0.1,0,0.2,0,0.3,0c0.2,0,0.3,0,0.5,0c0.2,0.1,0.4,0,0.6-0.1c0.1,0.2,0.3,0.3,0.3,0.5c-0.2,0.1-0.5,0.2-0.7,0.1
		c-0.1,0-0.1-0.1-0.2-0.1c-0.2-0.1-0.4,0-0.6,0c-0.2,0.1-0.2,0.2-0.1,0.3c0.1,0.1,0.2,0.2,0.2,0.3c0.1,0.1,0.1,0.2,0.1,0.3
		c0,0.1,0,0.2-0.1,0.2c-0.1,0-0.2,0-0.2,0c-0.1-0.1-0.1-0.2-0.2-0.2c-0.2-0.2-0.3-0.2-0.4,0c0,0.1-0.1,0.1-0.1,0.2
		c0,0.2-0.1,0.4-0.1,0.6c0,0.1,0,0.3-0.1,0.4c-0.1,0.2-0.2,0.3-0.2,0.5c-0.1,0-0.3,0-0.3,0c-0.1-0.1-0.1-0.2-0.1-0.2
		c-0.2-0.1-0.4-0.1-0.6,0c-0.1,0.1-0.3,0.1-0.4,0.2c-0.1,0-0.2,0-0.3,0.1c-0.2,0.1-0.2,0.1-0.3,0c-0.1-0.1-0.1-0.2-0.1-0.3
		c-0.1,0-0.3,0.1-0.4,0.1c-0.1,0-0.2,0.1-0.3,0.1c-0.1,0-0.2,0-0.3-0.1c0,0-0.1-0.1-0.1-0.1c-0.2,0-0.2-0.1-0.3-0.3
		c-0.2-0.2-0.2-0.5,0-0.7c0,0,0.1-0.1,0.1-0.1c0.1-0.1,0-0.2,0-0.2c-0.2-0.1-0.2-0.1-0.2-0.4c0-0.1,0-0.2,0-0.3
		c-0.2,0.1-0.3,0.1-0.4,0.2c-0.3,0.2-0.4,0.4-0.3,0.8c0,0.1,0.1,0.1,0.1,0.2c0.1,0.3,0.2,0.5,0.4,0.8c0.1,0.2-0.1,0.4-0.3,0.3
		c0,0-0.1,0-0.1,0c-0.1,0-0.1,0-0.2,0c-0.1,0.1-0.2,0.1-0.3,0.1c-0.2,0-0.4,0-0.5,0.2c-0.1,0.1-0.1,0.1-0.2,0.2
		c-0.1,0.1-0.2,0.2-0.1,0.4c0,0.2,0,0.3-0.2,0.4c-0.2,0.1-0.5,0.2-0.8,0.3c0,0.1,0,0.2-0.1,0.3c-0.1,0.2-0.2,0.3-0.4,0.4
		c-0.1,0-0.1,0.1-0.2,0.1c-0.1,0.1-0.2,0.1-0.3,0c-0.1,0-0.2-0.1-0.3-0.1c-0.1-0.1-0.6-0.1-0.6-0.1c0,0.2,0,0.4,0,0.6
		c0,0.1-0.2,0.1-0.4,0c0,0-0.1-0.1-0.1-0.1c-0.1,0-0.2,0.1-0.4,0.1c-0.1,0-0.1,0.1,0,0.2c0.1,0.1,0.2,0.2,0.3,0.2
		c0.2,0.1,0.4,0.2,0.6,0.2c0.2,0.1,0.3,0.1,0.3,0.3c0,0.2,0.1,0.3,0.3,0.4c0.2,0.1,0.2,0.2,0.2,0.4c0,0.1,0,0.1,0,0.2
		c0.1,0.4-0.1,0.7-0.2,1.1c0,0,0,0.1,0,0.1c-0.1,0.1-0.2,0.1-0.4,0.2c-0.4,0.1-0.7,0-1.1,0c-0.1,0-0.2-0.1-0.3-0.2
		c0-0.1-0.1-0.2-0.1-0.2c-0.3,0-0.5,0-0.8,0c-0.1,0-0.3,0-0.4,0.1c-0.1,0.1-0.2,0.1-0.2,0.2c-0.2,0.2-0.3,0.2-0.1,0.5
		c0.1,0.2,0.1,0.4,0.1,0.6c0,0.4-0.1,0.7-0.1,1.1c0,0-0.2,0.1-0.2,0.1c-0.1,0.4,0,0.4,0,0.6c0,0.2,0,0.5,0,0.8c1,0,0.3,0,0.4,0
		c0.1,0,0.3-0.1,0.5-0.1c0.3-0.1,0.4,0,0.6,0.2c0,0,0.1,0.1,0.1,0.1c0.2,0.3,0.3,0.3,0.6,0.2c0,0,0.1,0,0.1-0.1
		c0.3-0.2,0.6-0.2,1-0.2c0.2,0,0.3,0,0.3-0.2c0.1-0.1,0.2-0.2,0.3-0.3c0.3-0.2,0.4-0.4,0.5-0.7c-0.2-0.1-0.2-0.3-0.1-0.5
		c0.1-0.2,0.2-0.4,0.3-0.6c0.1-0.1,0.2-0.2,0.4-0.3c0.2,0,0.3-0.1,0.4-0.2c0.1-0.1,0.2-0.2,0.1-0.4c0,0,0-0.1,0-0.1
		c-0.1-0.2,0-0.4,0.2-0.5c0.2-0.1,0.3,0,0.5,0c0.1,0,0.3,0.1,0.4,0.1c0.2,0,0.3,0,0.4-0.1c0.2-0.1,0.4-0.3,0.6-0.5
		c0.1-0.1,0.2-0.1,0.4-0.1c0.2,0,0.3,0.1,0.4,0.3c0.1,0.2,0.2,0.4,0.3,0.5c0.1,0.2,0.2,0.3,0.4,0.4c0.1,0.1,0.2,0.1,0.2,0.2
		c0.1,0.2,0.3,0.3,0.5,0.4c0.2,0.1,0.3,0.2,0.4,0.3c0.1,0.1,0.2,0.2,0.3,0.4c0.2,0.2,0.3,0.4,0.2,0.7c0,0.1-0.1,0.2-0.2,0.3
		c0.2,0.1,0.2,0.1,0.3-0.1c0-0.2,0.1-0.3,0.3-0.3c0-0.1-0.1-0.1-0.1-0.2c0,0-0.1-0.1-0.1-0.1c-0.1-0.1-0.1-0.2,0-0.3
		c0.1-0.1,0.2-0.1,0.3-0.1c0.1,0,0.1,0.1,0.2,0.1c0,0,0.1,0,0.1,0.1c0-0.2-0.1-0.3-0.2-0.4c-0.1-0.1-0.3-0.2-0.4-0.3
		c-0.2-0.1-0.3-0.2-0.3-0.4c-0.1,0-0.2,0-0.2,0c-0.2,0-0.4-0.1-0.5-0.3c-0.1-0.1-0.1-0.3-0.1-0.4c-0.1-0.2-0.2-0.4-0.4-0.5
		c-0.2-0.1-0.3-0.3-0.2-0.5c0-0.1,0-0.1,0-0.2c0-0.2,0-0.2,0.1-0.3c0.1,0,0.2-0.1,0.3-0.1c0,0.1,0,0.1,0,0.1
		c0.1,0.2,0.1,0.2,0.3,0.2c0.1,0,0.2,0,0.3,0c0,0.1,0,0.1,0,0.2c0.1,0.3,0.2,0.6,0.4,0.8c0.1,0.1,0.2,0.3,0.4,0.3c0,0,0.1,0,0.1,0.1
		c0.1,0,0.1,0.1,0.2,0.1c0.4,0.1,0.6,0.4,0.6,0.8c0,0.3,0.1,0.6,0.3,0.8c0.2,0.2,0.3,0.3,0.4,0.6c0,0.1,0.1,0.3,0.3,0.3
		c-0.1,0.3-0.1,0.5,0.1,0.7c0.1,0.1,0.2,0.2,0.3,0.1c0-0.1,0-0.3,0-0.4c0-0.1-0.1-0.2-0.2-0.4c0.2,0.1,0.5,0.3,0.7,0
		c0,0-0.1-0.1-0.1-0.1c-0.1-0.1-0.2-0.2-0.3-0.3c0,0-0.1-0.1-0.1-0.1c0.1-0.2,0-0.3-0.1-0.4c0,0-0.1-0.1-0.1-0.1
		c0-0.1,0-0.1,0.1-0.2c0,0,0.1,0,0.1,0c0.1,0.1,0.1,0.1,0.2,0.2c0,0,0,0,0,0c0-0.1,0-0.1,0-0.2c0,0,0-0.1,0-0.1
		c0.2-0.2,0.4-0.2,0.5,0c0,0,0.1,0.1,0.1,0.1c0.2,0.2,0.2,0.2,0.4,0c0.1-0.1,0.2-0.1,0.3-0.1c0.1,0,0.2,0,0.3,0
		c-0.1-0.1-0.1-0.1-0.2-0.2c-0.1-0.1-0.1-0.2-0.2-0.3c-0.1-0.1-0.1-0.3,0-0.4c0-0.1,0.1-0.1,0.1-0.2c0.1-0.1,0.1-0.3,0.1-0.5
		c0-0.2,0-0.5,0.2-0.6c0,0,0-0.1,0-0.1c0,0,0-0.1,0-0.1c0.1-0.1,0.1-0.2,0.2-0.3c0.1-0.2,0.2-0.2,0.3,0c0.1,0.2,0.2,0.3,0.4,0.5
		c0.1,0.1,0.2,0.3,0.3,0.4c0,0,0.1,0.1,0.2,0.1c0.2,0,0.4-0.2,0.6-0.4c-0.1,0-0.2-0.1-0.3-0.1c-0.2-0.1-0.2-0.2,0-0.3
		c0.2-0.1,0.4-0.3,0.7-0.3c0,0.1,0,0.2,0,0.3c0.1,0.2,0,0.4-0.2,0.5c0,0,0,0-0.1,0c0.1,0.3,0.2,0.4,0.4,0.6c0.2,0.1,0.3,0.3,0.5,0.4
		c0.2,0.2,0.4,0.5,0.4,0.8c0,0.2-0.1,0.4-0.4,0.4c-0.2,0-0.3,0-0.5,0c-0.1,0-0.3-0.1-0.4-0.2c-0.1-0.1-0.2-0.2-0.4-0.3
		c-0.1,0-0.2-0.1-0.2-0.1c-0.3,0-0.5,0-0.7,0.3c-0.1,0.2-0.3,0.2-0.5,0.2c-0.1,0-0.2,0-0.2,0c0,0-0.1,0-0.2,0c0,0.1,0,0.1,0.1,0.2
		c-0.1,0-0.2,0-0.3,0c-0.1,0-0.3,0-0.4,0.1c-0.1,0-0.2,0.1-0.2,0.1c-0.1,0.1-0.1,0.2,0.1,0.3c0,0,0.1,0,0.1,0.1c0,0.1,0,0.3-0.1,0.4
		c0,0-0.1,0.1-0.1,0.1c0.1,0,0.2,0.1,0.2,0.1c0.1,0.1,0.1,0.1,0.1,0.2c0,0.1,0.1,0.2,0.2,0.4c0.1,0.1,0.1,0.2,0.2,0.3
		c0.2,0,0.2,0,0.3,0.1c0.2,0.2,0.3,0.2,0.4,0c0,0,0,0,0,0c0.1-0.1,0.2-0.2,0.3-0.1c0.1,0.1,0.1,0.1,0.2,0.2c0.2,0.2,0.4,0.2,0.5,0
		c0.1-0.1,0.1-0.1,0.1-0.2c0.1,0,0.2,0.1,0.3,0.1c0,0.2,0,0.4,0.1,0.5c0,0.2,0,0.5-0.1,0.7c-0.1,0.1-0.1,0.2-0.1,0.3
		c-0.1,0.3-0.1,0.6-0.2,0.9c0,0.2-0.1,0.3-0.3,0.2c-0.1,0-0.2-0.1-0.2-0.1c-0.1-0.1-0.3-0.1-0.5,0c-0.1,0-0.1,0-0.2,0.1
		c-0.2,0.1-0.4,0.1-0.7,0.1c-0.3-0.1-0.6-0.2-0.8-0.3c-0.2-0.1-0.3-0.1-0.5-0.1c-0.1,0-0.2,0-0.3-0.1c-0.1-0.1-0.1-0.2-0.2-0.3
		c-0.2-0.1-0.4,0-0.6,0.1c-0.2,0.1-0.3,0.2-0.3,0.4c0,0.1,0,0.2,0,0.3c0,0.3-0.2,0.4-0.5,0.4c-0.2,0-0.4-0.1-0.5-0.3
		c-0.2-0.1-0.3-0.3-0.4-0.4c-0.4-0.4-0.8-0.6-1.3-0.6c-0.2,0-0.3-0.1-0.4-0.2c-0.2-0.2-0.4-0.6-0.2-1c0.1-0.2,0.1-0.3,0-0.5
		c-0.1-0.1-0.1-0.2,0-0.3c0-0.1,0.1-0.1,0.1-0.2c-0.3,0.1-0.3,0.1-0.4-0.1c-0.1-0.1-0.3-0.2-0.4,0c-0.2,0.2-0.4,0.2-0.6,0.1
		c-0.1-0.1-0.3-0.1-0.4,0c-0.1,0-0.1,0.1-0.2,0.1c-0.1,0.1-0.2,0.1-0.3,0c-0.3-0.2-0.5-0.1-0.8-0.1c-0.7,0.1-1.3,0.4-2,0.7
		c-0.1,0-0.1,0.1-0.2,0.1c-0.1,0.1-0.3,0.2-0.5,0.2c-0.1,0-0.2,0-0.3,0c-0.3,0-0.6-0.2-0.9-0.4c-0.1,0.1-0.1,0.1-0.2,0.2
		c-0.1,0.2-0.3,0.4-0.4,0.6c0,0-0.1,0.1-0.1,0.1c-0.3,0.4-0.7,0.8-1,1.3c-0.1,0.1-0.1,0.3-0.2,0.4c0,0.1,0,0.2,0,0.3
		c0,0.4-0.2,0.7-0.5,1c-0.2,0.2-0.5,0.4-0.8,0.4c-0.2,0.1-0.4,0.2-0.6,0.4c-0.4,0.6-0.8,1.3-1.1,2C72,68,72,68.1,71.9,68.2
		c-0.3,0.3-0.3,0.6-0.2,0.9c0,0.2,0.1,0.3,0.1,0.5c0,0.2,0.1,0.3,0.1,0.5c0.1,0.4,0.1,0.8-0.1,1.3c-0.1,0.3-0.3,0.6-0.6,0.9
		c0.2,0.2,0.3,0.5,0.3,0.7c0,0.1,0,0.2,0,0.3c0,0.1,0,0.1,0.1,0.2c0.1,0.1,0.2,0.2,0.2,0.3c0.3,0.2,0.5,0.5,0.8,0.7
		c0.2,0.1,0.3,0.3,0.4,0.5c0.1,0.1,0.1,0.2,0.2,0.4c0.2,0.3,0.4,0.6,0.7,0.8c0.3,0.2,0.7,0.4,1,0.7c0.2,0.1,0.4,0.2,0.7,0.2
		c0.2,0,0.3-0.1,0.5-0.1c0.2-0.1,0.3-0.1,0.5-0.2c0.3-0.1,0.6-0.1,0.9,0c0.1,0,0.2,0.1,0.3,0.1c0.2,0.1,0.4,0,0.5-0.1
		c0.1-0.1,0.2-0.1,0.3-0.2c0.3-0.1,0.6-0.3,0.8-0.4c0.3-0.1,0.6-0.2,0.9-0.2c0.3-0.1,0.5,0.1,0.7,0.3c0.1,0.1,0.2,0.2,0.2,0.4
		c0.1,0.1,0.2,0.2,0.3,0.2c0.1,0,0.2,0,0.3,0c0.2,0,0.3,0,0.5,0c0.2,0,0.4,0.1,0.5,0.3c0,0.1,0,0.1,0,0.2c0,0.2-0.1,0.3-0.1,0.5
		c0,0.2-0.1,0.5-0.3,0.7c-0.3,0.3-0.2,0.6,0,1c0.1,0.1,0.2,0.2,0.3,0.3c0.1,0.1,0.2,0.3,0.4,0.4c0.2,0.2,0.2,0.4,0.2,0.6
		c0,0.2,0,0.4,0.1,0.6c0,0.3,0.1,0.5,0.1,0.8c0,0.1,0,0.2,0,0.3c0.1,0.4,0,0.8-0.3,1.1c-0.2,0.2-0.3,0.4-0.5,0.6
		c-0.2,0.2-0.3,0.5-0.4,0.8c-0.1,0.6,0.1,1.1,0.4,1.6c0.1,0.2,0.1,0.3,0.1,0.5c-0.2,0.7-0.1,1.4,0.3,2c0.1,0.2,0.2,0.3-0.1,0.6
		c0,0,0,0,0,0c0,0.1,0,0.2,0,0.3c0.2,0.1,0.4,0,0.6-0.1c0.2-0.1,0.4-0.2,0.6-0.4c0.2-0.1,0.3-0.2,0.5-0.2c0.1,0,0.1,0,0.2-0.1
		c0.1-0.1,0.3-0.2,0.4-0.3c0.2-0.1,0.5-0.3,0.7-0.5c0.5-0.6,1-1.2,1.6-1.7c0,0,0.1-0.1,0.1-0.1c0.1-0.1,0.2-0.2,0.1-0.4
		c0,0,0-0.1,0-0.1c0.2-0.2,0.4-0.4,0.6-0.6c0.2-0.1,0.3-0.2,0.4-0.4c0.1-0.1,0.1-0.2,0.1-0.4c0-0.1,0-0.2,0-0.3
		c-0.1-0.2,0-0.3,0.1-0.5c0.1-0.1,0.2-0.2,0.3-0.3c0.2-0.3,0.5-0.6,0.7-0.8c0.3-0.2,0.5-0.4,0.7-0.7c0.1-0.1,0.2-0.3,0.2-0.5
		c0.1-0.4,0.2-0.8,0.4-1.2c0.1-0.1,0.1-0.3,0-0.4c-0.1-0.1-0.1-0.3,0-0.4c0-0.2,0.1-0.3,0.1-0.5c0-0.3,0.1-0.6,0.3-0.9
		c0.1-0.1,0.1-0.2,0.2-0.3c0.2-0.6,0.6-1.1,1-1.6c0.4-0.4,0.7-0.8,1-1.3c0.3-0.6,0.6-1.1,0.8-1.7c0.2-0.5,0.4-0.9,0.5-1.4
		c0-0.1,0.1-0.2,0-0.3c-0.2,0.1-0.4,0.3-0.6,0.4c-0.1,0.1-0.2,0.1-0.3,0.1c-0.1,0-0.2,0.1-0.3,0.2c0,0.1-0.1,0.1-0.2,0.2
		c-0.2-0.3-0.2-0.6-0.2-0.9c-0.2-0.1-0.2-0.2-0.3-0.4c0-0.2-0.1-0.3-0.3-0.4c-0.1-0.1-0.2-0.3-0.2-0.4c0-0.1,0-0.2,0-0.4
		c0-0.2-0.1-0.4-0.3-0.6c-0.1-0.1-0.2-0.2-0.2-0.4c0-0.2,0-0.4,0-0.6c0-0.1,0-0.1,0-0.2c-0.2-0.2-0.2-0.5-0.2-0.7
		c0-0.3-0.1-0.6-0.1-0.8c0-0.1-0.1-0.2-0.1-0.3c-0.2-0.5-0.3-1-0.5-1.5c0-0.1,0-0.1,0-0.3c0.1,0.3,0.2,0.6,0.4,0.8
		c0-0.1,0.1-0.1,0.1-0.2c0.1,0.3,0.3,0.6,0.4,0.9c0.1,0.2,0.2,0.4,0.2,0.7c0,0.1,0,0.2,0.1,0.2c0.2,0,0.2,0.2,0.3,0.3
		C93,67.4,93,67.7,93,68c0,0.3,0.1,0.5,0.3,0.6c0,0.4,0.1,0.7,0.3,1c0.1,0.2,0.1,0.3,0.1,0.5c0,0.1-0.1,0.2,0,0.3
		c0,0.3,0.1,0.5,0.1,0.8c0,0.1,0.1,0.2,0.2,0.2c0.1-0.2,0.2-0.3,0.4-0.5c0,0,0.1-0.1,0.1-0.1c0.2,0,0.3-0.1,0.3-0.2
		c0.2-0.2,0.3-0.4,0.6-0.5c0.1,0,0.1-0.1,0.2-0.1c0,0,0.1-0.1,0.1-0.1c0-0.2,0.1-0.4,0.3-0.5c0.2-0.1,0.3-0.2,0.3-0.4
		c0-0.1,0.1-0.2,0.2-0.3c0.1-0.2,0.2-0.4,0.2-0.7c0,0,0-0.1,0-0.1c0.2-0.2,0.2-0.4,0.3-0.7c0.1-0.2-0.1-0.4-0.1-0.6c0,0,0,0,0,0
		c-0.2-0.1-0.2-0.3-0.2-0.5c0-0.1,0-0.2,0-0.4c-0.1,0.1-0.1,0.3-0.2,0.4c-0.1,0.1-0.1,0.3-0.2,0.4c-0.1,0.1-0.2,0.1-0.3,0.1
		c-0.1-0.1-0.1-0.1-0.1-0.3c0-0.1,0-0.3,0.1-0.4c0,0-0.1,0-0.1,0c0,0,0,0-0.1,0.1c0-0.1,0-0.2-0.1-0.3c-0.2-0.3-0.3-0.7-0.3-1.1
		c0-0.1,0-0.3,0-0.4c0-0.2,0.1-0.2,0.3-0.1c0,0,0.1,0.1,0.1,0.1c0.1,0.2,0.1,0.4,0.2,0.6c0,0.1,0,0.2,0.1,0.2
		c0.2,0.1,0.2,0.2,0.3,0.3c0,0.1,0.1,0.1,0.2,0.1c0.1,0,0.2-0.1,0.4-0.2c0,0.2,0.1,0.4,0.1,0.6c0.2,0,0.4,0,0.5,0.1
		c0.1,0,0.3,0,0.4,0c-0.5,6.3-2.6,12.1-6,17c0.1-0.2,0.3-0.5,0.4-0.7c0.3-0.4,0.4-0.9,0.7-1.3c0.1-0.2,0.1-0.5,0.2-0.7
		c0,0,0-0.1,0-0.1c0,0,0,0-0.1,0c0,0.1-0.1,0.1-0.1,0.2c0,0.1-0.1,0.2-0.1,0.2c-0.3,0.4-0.6,0.9-1,1.2c-0.2,0.2-0.4,0.4-0.4,0.7
		c0,0.2-0.1,0.4-0.2,0.6c-0.1,0.1-0.2,0.2-0.2,0.3c-0.1,0.1-0.1,0.2-0.2,0.4c0,0.1-0.1,0.2-0.1,0.4c0,0.1-0.1,0.2,0,0.3
		c0.1,0,0.1,0,0.2-0.1C84.4,92.4,74.4,97.8,63.1,97.8z M41.8,56.7c-0.1,0-0.2-0.1-0.3-0.2c-0.1,0.3-0.1,0.7-0.4,1
		c-0.1-0.1-0.1-0.2-0.1-0.2c0-0.1,0-0.2-0.1-0.2c-0.1,0-0.1,0.1-0.2,0.1c0-0.1,0-0.1,0.1-0.2c0.2-0.4,0.1-0.5-0.3-0.7
		c0,0-0.1,0-0.1,0c0-0.3,0-0.4-0.3-0.4c-0.2,0-0.4-0.1-0.5,0.1c-0.1,0.1-0.1,0.1-0.3,0c0,0-0.1,0-0.2-0.1c0-0.1,0.1-0.2,0.1-0.4
		c-0.1,0.1-0.1,0.1-0.2,0.1c-0.2,0.1-0.4,0.3-0.6,0.4c-0.1,0.1-0.2,0.1-0.3,0c-0.1,0.1-0.1,0.2-0.3,0.2c0.1-0.3,0.2-0.5,0.5-0.7
		c0.2-0.1,0.4-0.3,0.7-0.4c0.1-0.1,0.2-0.1,0.2-0.2c0.1-0.2,0.1-0.2,0.3-0.1c0,0,0,0,0.1,0c0-0.1,0-0.2,0.1-0.3c0.1,0,0.1,0,0.2,0.1
		c0.1,0.2,0.3,0.3,0.4,0.5c0.1,0.1,0.1,0.2,0.1,0.3c0,0.3,0.1,0.4,0.4,0.6c0.2,0.1,0.4,0.2,0.6,0.4c0,0,0.1,0,0.1,0
		c0.1,0,0.1,0,0.2,0c0.2,0,0.4,0.1,0.4,0.4C42.1,56.7,41.9,56.8,41.8,56.7z M42,58c-0.1,0.1-0.3,0.2-0.4,0.2
		c-0.1,0.1-0.3,0.1-0.4,0.2c-0.2,0.1-0.3,0-0.3-0.2c0.1,0,0.1,0,0.2,0c0.1,0,0.1-0.1,0.1-0.1C41.4,57.9,41.7,57.8,42,58z M39.9,57
		c0,0.2,0,0.5,0,0.7c0,0.2-0.1,0.4-0.2,0.6c-0.1,0.2-0.2,0.2-0.3,0.2c-0.1,0-0.2-0.2-0.2-0.3c0-0.2,0-0.4,0.1-0.6
		c0.1-0.3,0.1-0.5,0.2-0.8c-0.1,0.1-0.1,0.1-0.2,0.2c0-0.4,0.5-0.7,1-0.6c0,0.2,0,0.4-0.3,0.4c0,0-0.1,0.1-0.1,0.2
		C39.8,56.8,39.9,56.9,39.9,57z M42.1,57.4c0.2-0.2,1.2-0.5,1.5-0.5c0,0.2-0.1,0.3-0.2,0.3c-0.1,0.1-0.2,0.1-0.3,0.1
		c-0.1,0-0.2,0-0.3,0C42.6,57.4,42.4,57.4,42.1,57.4z M35.5,42.2c0,0.2,0,0.2-0.2,0.2C35.4,42.4,35.4,42.3,35.5,42.2z M35.6,42.2
		c0-0.1,0.1-0.1,0.1-0.2c0,0,0,0,0,0C35.7,42.1,35.7,42.1,35.6,42.2C35.6,42.2,35.6,42.2,35.6,42.2z"/>
	<path class="st1" d="M68.3,39.8c-0.1-0.1-0.1-0.1-0.2-0.1c-0.2,0-0.3,0-0.5-0.1c-0.3,0-0.5-0.1-0.8-0.1c-0.1,0-0.2-0.1-0.2-0.2
		c0.1-0.1,0.3,0,0.3-0.2c0-0.1-0.1-0.2-0.2-0.3c0.3-0.1,0.5,0,0.7,0.2c0,0,0.1,0.1,0.1,0.1c0.2,0.2,0.5,0.3,0.8,0.3
		c0.2,0,0.3-0.1,0.2-0.3c-0.1-0.2-0.2-0.4-0.4-0.5c-0.2-0.1-0.4-0.2-0.6-0.4c-0.2-0.1-0.3-0.2-0.5-0.3C67,38,67,38,67.1,37.9
		c0.1,0,0.2,0,0.3,0.1c0.2,0.2,0.4,0.4,0.7,0.4c0.2,0,0.2,0,0.3-0.1c0.1-0.1,0.1-0.2,0-0.3c0,0-0.1-0.1-0.1-0.1
		c0.1,0,0.2-0.1,0.3-0.1c0.1,0,0.2,0,0.3-0.1c0.1,0,0.2-0.1,0.2-0.2c0-0.1-0.1-0.1-0.1-0.2c0.2-0.1,0.5,0,0.6-0.3
		c-0.1,0-0.2,0-0.3-0.1c-0.1,0-0.1,0-0.2-0.1c0,0-0.1-0.1-0.1-0.1c0,0,0.1-0.1,0.1-0.1c0.1,0,0.2,0,0.3,0c0-0.3,0-0.3-0.1-0.4
		c0,0-0.1-0.1-0.1-0.1c0-0.1-0.1-0.2-0.3-0.2c-0.1,0-0.1,0-0.2-0.1c-0.1-0.1-0.1-0.2,0-0.2c0.1,0,0.2,0,0.2,0c0.2,0,0.4,0,0.6,0
		c0.1,0,0.3,0.1,0.4-0.1c0-0.2-0.2-0.2-0.3-0.2c-0.1,0-0.2-0.1-0.3-0.1c0,0,0,0,0-0.1c0,0,0.1,0,0.2-0.1c-0.3-0.2-0.6-0.2-1-0.2
		c0-0.3,0.1-0.4,0.3-0.5c0.1,0,0.2-0.1,0.3-0.1c0.1-0.1,0.1-0.2,0.1-0.3c0.1,0,0.2,0,0.2,0c0.2,0,0.3-0.1,0.4-0.2
		c0.2-0.1,0.5,0.1,0.6-0.2c0.4-0.1,0.7-0.2,1.1-0.2c0.1,0,0.2,0,0.2-0.1c0,0,0,0,0-0.1c-0.3-0.2-0.6-0.3-0.9-0.3c0,0-0.1,0-0.1,0
		c-0.2,0.1-0.4,0-0.6,0c-0.2,0-0.3,0-0.4,0c-0.1,0-0.2,0-0.3,0c-0.3,0-0.6-0.1-0.9-0.1c-0.1,0-0.2,0-0.4,0.1
		c-0.3,0.2-0.5,0.3-0.8,0.5c-0.1,0-0.1,0-0.2,0c0.1-0.1,0.1-0.2,0.2-0.2c0.1-0.1,0.3-0.2,0.4-0.3c0.1-0.1,0.1-0.2,0-0.3
		c-0.1,0-0.1-0.1-0.2-0.1c-0.1,0-0.3,0-0.4,0c-0.3,0.1-0.6,0.2-0.9,0.3c-0.1,0-0.2,0-0.3,0.1c0,0,0,0,0,0c0.1-0.1,0.3-0.2,0.4-0.3
		c0,0,0,0,0-0.1c-0.8,0-1.6,0-2.4,0c0.3,0,0.5,0,0.8,0c0.9,0,1.8,0,2.6,0c0.1,0,0.3,0,0.4-0.1c0.1,0,0.1-0.1,0.2-0.1c0,0,0,0,0,0
		c-0.1,0-0.1,0-0.2,0c-0.6,0-1.2-0.2-1.8-0.4c-0.3-0.1-0.7,0-1-0.1c-0.2,0-0.4,0.1-0.6,0.1c-0.6,0-1.1,0-1.7,0
		c-0.2,0-0.3-0.1-0.5-0.1c-0.6,0.1-1.2,0.2-1.9,0.2c-0.1,0-0.1,0-0.2,0c-0.2,0-0.4,0-0.6,0c-0.1,0-0.2,0-0.3,0
		c-0.4,0-0.9,0.1-1.3,0.2c0,0,0,0.1,0,0.1c-0.1,0-0.1,0-0.2,0c-0.1,0-0.1,0-0.2,0.1c0,0,0,0,0,0.1c0.1,0,0.1,0.1,0.2,0.1
		c0.1,0,0.1,0,0.3,0.1c-0.3,0.1-0.5,0.1-0.8,0c-0.3-0.1-0.6-0.1-0.8-0.1c-0.1,0-0.2,0-0.2,0.1c0,0,0,0.1-0.1,0.2
		c-0.3,0.1-0.4,0.1-0.7,0c-0.1,0-0.2,0-0.2,0.1c0,0,0,0.1,0,0.1c-0.1,0-0.2,0-0.2-0.1c-0.1-0.1-0.3-0.1-0.4-0.1
		c-0.2,0-0.3,0.1-0.5,0.1c-0.2,0.1-0.3,0.1-0.5,0.2c-0.4,0.1-0.8,0.2-1.2,0.3c-0.1,0-0.2,0.1-0.3,0.2c-0.1,0.3-0.3,0.3-0.6,0.3
		c-0.1,0-0.2,0-0.3,0.1c-0.4,0.2-0.8,0.4-1.2,0.6c-0.1,0-0.2,0.1-0.3,0.1c0,0,0,0.1-0.1,0.1c0.3,0.1,0.6,0,0.9,0
		c0,0.1-0.1,0.2-0.2,0.3c-0.2,0.2-0.5,0.3-0.7,0.3c-0.2,0-0.5,0.1-0.7,0.2c-0.4,0.2-0.7,0.4-1.1,0.5c-0.1,0-0.1,0.1-0.2,0.1
		c0,0-0.1,0.1-0.1,0.2c0.1,0,0.1,0.1,0.2,0.1c0.4,0.1,0.9,0.1,1.3,0c0.2,0,0.3-0.1,0.5-0.1c0,0,0.1,0,0.1,0c0,0,0,0,0,0
		c-0.1,0-0.1,0.1-0.2,0.1c-0.2,0-0.3,0.1-0.5,0.1c-0.1,0-0.1,0-0.2,0.1c-0.1,0-0.2,0.1-0.3,0.1c-0.1,0-0.3,0-0.4,0.1
		c-0.1,0-0.2,0.1-0.3,0.2c0.1,0,0.3-0.1,0.4-0.1c0.1,0,0.3,0,0.4,0.1c-0.1,0.1-0.2,0.1-0.2,0.2c0.2,0.1,0.5,0.1,0.7,0.1
		c0.1,0,0.2,0,0.2-0.2c0.1,0,0.2-0.1,0.3,0c0.2,0.1,0.4,0,0.5-0.1c0.1,0,0.1-0.1,0.2-0.1c0.3,0,0.6-0.1,0.8-0.1c0.5,0,1,0.1,1.5,0.4
		c0.3,0.2,0.6,0.5,0.6,0.9c0,0.1,0,0.2,0,0.4c0,0,0.1,0,0.1,0c0.1,0,0.2,0,0.2,0.1c0,0.1,0,0.2-0.1,0.3c0,0-0.1,0.1-0.1,0.1
		c0,0-0.1,0.1-0.1,0.1c-0.1,0.2,0,0.2,0.2,0.3c0.2,0,0.3,0,0.4-0.1c0.1-0.2,0.3-0.1,0.5,0c0.1,0,0.1,0.1,0.1,0.1
		c0.2,0.2,0.3,0.4,0.6,0.4c0,0.1-0.1,0.2-0.2,0.2c-0.2,0-0.3,0-0.5-0.1c-0.2,0-0.4-0.1-0.6,0c0,0.2,0.2,0.2,0.3,0.3l0,0
		c0.4,0.1,0.9,0.1,1.3,0.2c-0.2,0.3-0.4,0.6-0.5,0.9c-0.1,0-0.2,0-0.2,0c-0.2,0.1-0.4,0.2-0.6,0.4c-0.1,0.1-0.2,0.5-0.4,0.6
		c-0.1,0.1-0.2-0.4-0.1,0.6c0.1,0,0.1,0,0.1,0v-0.3c0,0,0.3,0.3,0.3,0.3c0,0,0,0,0,0c-0.1,0-0.1,0.3,0.2,0.5
		c0.1,0.1,0.2,0.2,0.3,0.3c0,0.1,0,0,0,0.1c0,0.1,0.1,0.1,0.3,0.1c0.1,0,0.1-0.1,0.2-0.1c0.1,0,0.1,0,0.2,0.1
		C55,44,55,44.1,55.2,44.4c0,0.1,0.1,0.2,0.1,0.2c0.2,0.2,0.3,0.4,0.5,0.6c0.1,0.1,0.1,0.1,0.1,0.2c0,0.1,0.1,0.2,0.2,0.2
		c0.2,0,0.3,0.1,0.4,0.3c0.1,0,0.1,0,0.2,0c0.1,0,0.2-0.1,0.3-0.1c0.2-0.1,0.4,0,0.5,0.2c0,0.1,0.1,0.1,0.1,0.2
		c0.1,0.2,0.2,0.3,0.5,0.2c0.1,0,0.1,0,0.2,0c0.2,0.1,0.3,0.1,0.4-0.1c0.1-0.1,0.1-0.2,0.1-0.3c0-0.1,0.1-0.2,0.1-0.3
		c0.1-0.1,0.2-0.3,0.2-0.5c0-0.1,0-0.2,0-0.4c0-0.2,0.1-0.4,0.3-0.5c0.1,0,0.2-0.1,0.3-0.1c0.2-0.1,0.2-0.3,0.1-0.5
		c0,0-0.1-0.1-0.1-0.1c0-0.1,0.1-0.2,0.1-0.2c0-0.3,0.1-0.4,0.3-0.4c0.2-0.1,0.4-0.1,0.5-0.1c0.2-0.1,0.4-0.1,0.5-0.3
		c0-0.1,0.1-0.1,0.1-0.1c0.1,0,0.1,0.1,0.2,0.1c0.3,0,0.7,0,1-0.2c0.2-0.1,0.4-0.2,0.5-0.4c0.2-0.3,0.6-0.6,0.9-0.8
		c0.1,0,0.1-0.1,0.1-0.1c0.1-0.1,0.1-0.1,0.2-0.1c0.2,0,0.4,0,0.6,0c0.4-0.1,0.8-0.1,1.2-0.1c0.3,0,0.6-0.1,0.9-0.3
		c0.3-0.2,0.6-0.3,1-0.4C68.1,39.9,68.2,39.9,68.3,39.8z M67.6,37.6C67.7,37.6,67.7,37.6,67.6,37.6c0.1,0,0.1,0,0.2,0.1
		C67.7,37.7,67.7,37.7,67.6,37.6C67.7,37.7,67.6,37.7,67.6,37.6C67.6,37.6,67.6,37.6,67.6,37.6z"/>
	<path class="st1" d="M30.1,53.1C30.1,53.1,30.1,53.1,30.1,53.1c0,0,0-0.1,0-0.1C30,53.1,30,53.1,30.1,53.1z"/>
	<path class="st1" d="M50.6,42.5c-0.1,0-0.1,0-0.2,0c-0.1,0-0.2,0-0.2-0.1c-0.1-0.1-0.2-0.1-0.3-0.1c0,0-0.1,0-0.1,0
		c-0.2,0-0.3,0-0.3-0.2c0-0.1,0-0.1,0-0.2c-0.1,0-0.3,0-0.4-0.1c-0.1-0.1-0.2-0.2-0.3-0.3c-0.1,0-0.2-0.3-0.3-0.3
		c0.1-0.2,0.3,0.3,0.5-0.7c-0.2,0-0.4,0-0.5,0c0.1,0,0.3,0.1,0.4,0c-0.1-0.3-0.3-0.1-0.5-0.1c0-0.1-0.1-0.1-0.2-0.1
		c-0.2,0-0.4,0-0.6-0.1c0,0-0.1,0-0.1,0c-0.1-0.2-0.2-0.1-0.3-0.1c-0.1,0-0.3,0-0.4,0.1c-0.2,0-0.4,0-0.5-0.2c0-0.1-0.1-0.1-0.1-0.2
		c-0.1,0-0.1-0.1-0.2-0.1c-0.4,0-0.8-0.1-1.2,0.3c0,0,0,0-0.1,0.1c-0.1,0-0.1,0.1-0.2,0c-0.1,0-0.1,0-0.2,0c0,0-0.1,0-0.1,0.1
		c0.1-0.1,0.1-0.2,0.1-0.3c0.2,0,0.4-0.1,0.5-0.1c0.2-0.1,0.3-0.1,0.5-0.1c0.2,0,0.3-0.1,0.4-0.2c-0.3-0.1-0.5-0.2-0.8-0.2
		c-0.1,0-0.2,0-0.3,0c-0.2,0-0.4,0.1-0.5,0.3c-0.2-0.1-0.4,0-0.5,0.1c-0.3,0.1-0.7,0.3-0.9,0.5c-0.1,0.1-0.2,0.3-0.2,0.5
		c0,0.2-0.1,0.3-0.4,0.3c0-0.1,0-0.2,0-0.3c0-0.1,0-0.2,0.1-0.2c0.1-0.1,0.2-0.2,0.3-0.3c0.1-0.1,0.1-0.1,0.2-0.2
		c-0.1,0-0.2,0-0.3,0c-0.4,0.2-0.8,0.4-1,0.8c0,0.1-0.1,0.1-0.1,0.2c-0.1,0.1-0.2,0.2-0.2,0.4c-0.1,0.1-0.1,0.2,0,0.4
		c0.1,0,0.3,0,0.4,0c0,0.1,0,0.1,0,0.1c0,0-0.1,0-0.1,0c-0.1,0-0.2,0-0.3,0.1c0.2,0.2,0.5,0,0.7,0c0.1,0.2,0.2,0.2,0.4,0.2
		c0.4-0.1,0.8-0.2,1.3-0.3c0.1,0,0.2,0,0.3,0c0,0.1,0,0.1,0,0.1c0,0,0,0.1,0,0.1c0.1,0,0.2,0,0.3-0.1c0.1-0.1,0.2-0.2,0.4-0.3
		c0.1-0.1,0.2-0.1,0.3,0c0.2,0.1,0.4,0.3,0.6,0.4C45.1,41.9,45,42,44.9,42c0,0,0,0.1,0,0.1c0,0,0.1,0,0.1,0c0.1,0,0.1-0.1,0.2-0.1
		c0.1-0.1,0.3-0.1,0.4,0c0.2,0.1,0.5,0.2,0.6,0.4c0.2,0.2,0.2,0.3,0,0.5c-0.2,0.2-0.3,0.5-0.6,0.5c-0.2,0-0.2,0.2,0,0.3
		c0,0,0,0,0,0.1c-0.2,0-0.3,0.1-0.4,0.1C45,44,44.8,44,44.6,44c-0.3,0-0.5,0.2-0.7,0.5c-0.1,0.1,0,0.2,0,0.2
		c0.2,0.2,0.4,0.2,0.6,0.1c0,0,0.1-0.1,0.1-0.1c0.1,0,0.1,0,0.2,0c0.1,0.1,0.2,0,0.3-0.1c0.1,0,0.1-0.1,0.2-0.1
		c0.3,0.2,0.6,0.4,0.9,0.5c0,0.2,0,0.3,0.2,0.4c0.1,0,0.1,0,0.2,0c0.1,0,0.3,0,0.4,0.1c0.2,0.1,0.4,0.1,0.6,0.1c0.2,0,0.5,0,0.6,0.3
		c0.2-0.1,0.2-0.2,0.1-0.4c-0.1-0.1-0.2-0.1-0.2-0.2c-0.1-0.1-0.3-0.2-0.4-0.3c-0.1,0-0.1-0.1-0.2-0.2c0.2,0,0.2,0,0.2,0
		c0.1,0.1,0.2,0.1,0.3,0.2c0.1,0.1,0.3,0.1,0.4,0.1c0.5,0.1,0.5,0,0.7-0.4c0,0,0,0,0,0c0-0.1,0-0.2-0.1-0.2c-0.1,0-0.1-0.1-0.1-0.2
		c0,0,0,0,0,0c-0.1,0-0.1,0-0.2,0c0-0.2-0.1-0.3-0.3-0.3c-0.1,0-0.1-0.1-0.2-0.2c0-0.1-0.1-0.2-0.1-0.3c0-0.2-0.1-0.3-0.3-0.4
		c0.3-0.2,0.5-0.2,0.8,0.1c0.1,0.1,0.2,0.2,0.3,0.3c0.1,0.1,0.2,0.2,0.4,0.2c0.2,0,0.3,0,0.4-0.2c0,0,0-0.1,0-0.2
		c0.2,0,0.4-0.2,0.4-0.4c0.1,0,0.1,0,0.2-0.1c0.1,0,0.1,0,0.2-0.1c0.1-0.1,0.1-0.2,0.1-0.3C50.7,42.5,50.7,42.5,50.6,42.5z"/>
	<path class="st1" d="M41.1,37.6c0.1,0,0.1,0,0.2,0c0,0,0,0.1-0.1,0.1c0.1,0,0.2-0.2,0.3-0.1c0,0.1-0.1,0.1-0.1,0.2
		c0.1,0,0.2,0,0.2,0c0,0.2,0.2,0.1,0.2,0.1c0.2-0.1,0.5-0.2,0.6-0.3c0.1,0.1,0.5,0,0.5-0.1c0,0.1,0,0.1,0,0.1s-0.2,0-0.2,0
		c0,0,0,0,0,0c0,0,0,0,0,0c0,0,0,0,0,0c0.1,0,0.3-0.2,0.4-0.3c0,0.2,0.1,0.3,0.2,0.3c0,0-0.1,0-0.1,0c-0.2-0.1-0.4-0.1-0.5-0.1
		c0,0,0,0,0,0c0,0,0,0,0,0c0,0,0,0,0,0c-0.1,0.2-0.2,0.1-0.2,0.3c0.1,0,0.1,0.1,0.2,0.1c-0.1,0.1-0.3,0.1-0.4,0.2
		c-0.1,0.1-0.3,0.2-0.4,0.3c0,0,0,0.1-0.1,0.1c0.2-0.1,0.3-0.1,0.5-0.1c0.3,0,0.6,0,0.9-0.1c0.4-0.1,0.8-0.3,1.2-0.3
		c0.1,0,0.1,0,0.2,0c0.3-0.1,0.6-0.3,0.8-0.4c0.1,0,0.1-0.1,0.2-0.2c0,0,0,0,0-0.1c-0.1,0-0.2,0-0.4,0.1c0-0.2,0.2-0.2,0.3-0.2
		c0.1,0,0.2-0.1,0.3-0.1C45.8,37,45.9,37,46,37c0.1,0,0.3-0.1,0.4-0.1c0.2-0.2,0.4-0.4,0.7-0.7c0-0.1-0.1-0.1-0.1-0.2
		c0.2-0.1,0.3-0.1,0.3-0.3c0,0,0,0,0.1-0.1c0.2-0.1,0.4-0.2,0.6-0.2c0.2,0,0.4-0.1,0.6-0.3c0.1-0.1,0.2-0.2,0.3-0.2
		c0.3-0.3,0.7-0.5,1.1-0.6c0.3-0.1,0.6-0.3,1-0.4c0.1,0,0.1-0.1,0.2-0.1c0,0,0,0,0,0c-0.2,0-0.4,0.1-0.7,0.1c0,0,0,0,0-0.1
		c0.1,0,0.3-0.1,0.4-0.1c0.1,0,0.3-0.1,0.5-0.1c0.1,0,0.3-0.1,0.4-0.1c0.1-0.1,0.3-0.1,0.4-0.2c0.1-0.1,0.3,0,0.4-0.2
		c-0.1,0-0.1,0-0.2,0c-0.1,0-0.3,0-0.4,0c-0.1,0-0.1,0-0.2,0c-0.2-0.1-0.3-0.1-0.5,0c-0.2,0.1-0.3,0.1-0.5,0.2c-0.1,0-0.1,0-0.2,0
		c-0.2,0-0.3,0-0.5,0c-0.2,0-0.5,0.1-0.7,0.1c-0.3,0.1-0.5,0.1-0.8,0.2c-0.2,0-0.3,0.1-0.4,0.2c-0.1,0.1-0.2,0.1-0.4,0.1
		c-0.1,0-0.1,0-0.2,0c-0.2,0.1-0.3,0.1-0.5,0.2c-0.4,0.2-0.9,0.2-1.2,0.5c0,0-0.1,0-0.1,0c-0.2,0.1-0.4,0.2-0.6,0.3
		c-0.1,0.2-0.3,0.2-0.5,0.2c-0.2,0-0.4,0.1-0.5,0.2c-0.2,0.2-0.4,0.3-0.7,0.4c-0.3,0.1-0.6,0.3-0.9,0.5c0,0-0.1,0.1-0.1,0.1
		c0,0,0,0,0,0c0.1-0.1,0.2-0.1,0.3-0.2c0.1,0.2,0.3,0.2,0.4,0.2c0.1,0,0.3-0.1,0.4-0.2c0.1,0,0.1-0.1,0.2-0.1c0.2,0.1,0.4,0,0.6-0.1
		c0,0,0.1,0,0.1,0c0.4-0.1,0.7-0.3,1-0.5c0,0,0.1-0.1,0.1-0.1c0,0,0,0,0,0c0,0-0.1,0-0.1,0c-0.3,0.2-0.5,0.4-0.8,0.4
		c-0.1,0-0.2,0.1-0.2,0.2c0.1,0,0.1,0.1,0.2,0.1c0,0,0,0,0,0.1c-0.2-0.1-0.5-0.1-0.7,0c-0.2,0.1-0.5,0.2-0.6,0.4c0.1,0,0.2,0,0.3,0
		c0.1,0,0.2,0,0.3,0c-0.1,0.3-0.4,0.5-0.7,0.5c0.1-0.2,0.4-0.2,0.5-0.4c-0.2,0-0.4,0-0.6,0.1c0.1-0.1,0.1-0.2,0-0.4
		c-0.2,0-0.2,0.1-0.3,0.3c0-0.1,0-0.1-0.1-0.1c-0.1,0-0.3,0.1-0.4,0.1c0-0.1,0-0.3-0.1-0.4c-0.4,0-0.7,0.3-0.9,0.3
		c0.1,0,0.1,0,0.2,0c-0.2,0-0.4,0.3-0.5,0.5c0.1,0,0.1,0.1,0.2,0.1C41.3,37.4,41.2,37.5,41.1,37.6C41,37.5,41.1,37.6,41.1,37.6z
		 M42.8,37.3c0,0,0.1,0,0.2,0c-0.1,0.1-0.1,0.1-0.1,0.2c0,0,0,0,0,0C42.8,37.4,42.8,37.4,42.8,37.3z M41.9,37.4
		C41.9,37.5,41.9,37.5,41.9,37.4c0,0.1-0.1,0.1-0.2,0.1c0,0,0,0,0,0C41.8,37.5,41.9,37.5,41.9,37.4z"/>
	<path class="st1" d="M75.9,48.3c0,0.2,0.1,0.2,0.3,0.3c0.2,0.1,0.2,0.1,0,0.2c0,0,0,0.1-0.1,0.1c0.2,0.2,0.2,0.2,0.2,0.5
		c0,0.1,0,0.2,0,0.2c0,0,0.1,0,0.1,0.1c0-0.1,0-0.2,0-0.3c0.1,0,0.2,0,0.2,0c0.1,0.2,0.1,0.3,0,0.5c-0.1,0.1,0,0.2,0.1,0.2
		c0.1,0,0.2,0,0.3,0c0.1,0,0.2,0,0.3,0c-0.1,0.1-0.1,0.2,0,0.3c0.1,0.1,0.2,0.1,0.3,0.1c0.1,0.1,0,0.2-0.1,0.3
		c-0.2,0.1-0.3,0.1-0.5,0.2c0,0.1,0,0.1,0.1,0.2c0.1,0.2,0.1,0.3-0.1,0.4c-0.1,0-0.1,0.1-0.2,0.2c0,0,0,0.1,0,0.1c0,0,0.1,0,0.1,0
		c0.1-0.1,0.2,0,0.3,0.1c0.1,0.1,0.3,0.1,0.4,0c0,0,0,0,0.1,0c0,0.1,0,0.2-0.1,0.2c-0.1,0-0.2,0-0.3,0c-0.1,0-0.2,0-0.2,0.1
		c-0.2,0.1-0.3,0.3-0.4,0.4c0,0,0,0.1-0.1,0.2c0.3,0,0.5,0,0.7,0c0.1-0.3,0.1-0.3,0.4-0.3c0.1,0,0.3,0,0.4,0c0.3-0.1,0.7-0.1,1-0.1
		c0.1,0,0.2,0,0.2,0c0,0,0.1-0.1,0.1-0.1c0-0.1,0-0.1,0-0.2c0,0-0.1-0.1-0.1-0.1c0.1-0.1,0.1-0.1,0.2-0.2c0.1-0.1,0.1-0.1,0.2-0.2
		c0.1-0.1,0.1-0.2,0.1-0.4c-0.1-0.1-0.2-0.2-0.3-0.2c-0.1,0-0.1,0-0.2,0c0.1-0.1,0-0.2-0.1-0.3c0-0.1-0.1-0.1-0.1-0.2
		c0-0.2-0.1-0.3-0.3-0.4c-0.3-0.2-0.5-0.4-0.6-0.8c-0.1-0.2-0.2-0.3-0.4-0.2c0,0-0.1,0-0.2,0c0.1-0.2,0.1-0.3,0.2-0.5
		c0.2-0.2,0.2-0.5,0.2-0.7c-0.3-0.1-0.6,0-0.9-0.1C77,48,77.1,48,77.2,48c0,0,0.1-0.1,0.1-0.1c0,0-0.1-0.1-0.1-0.1
		c-0.2,0-0.3,0-0.5,0c-0.1,0-0.2,0.1-0.2,0.2c0,0.1,0,0.2-0.1,0.2c-0.2,0.1-0.2,0.2-0.1,0.3C76.1,48.3,76,48.2,75.9,48.3z"/>
	<path class="st1" d="M67.9,42.9c0.2,0,0.4,0,0.6,0C68.3,42.9,68.1,42.9,67.9,42.9C67.9,42.9,67.9,42.9,67.9,42.9z"/>
	<path class="st1" d="M71.7,43.8c0.2-0.1,0.4-0.2,0.6-0.3c0.1-0.1,0.1-0.3,0-0.4c0,0-0.1-0.1-0.1-0.1c-0.1-0.1-0.2-0.1-0.3-0.2
		c-0.1-0.1-0.1-0.2-0.1-0.3c-0.1,0-0.2,0-0.3,0c-0.1,0-0.2,0-0.2-0.1c-0.1-0.1-0.1-0.1-0.3,0c0,0,0,0,0,0c-0.2,0-0.4,0-0.6,0
		c-0.1,0-0.3-0.1-0.4,0c0,0-0.1,0-0.1,0c-0.1,0-0.2,0-0.2,0c-0.1,0-0.3,0.1-0.5-0.1c0,0.2-0.1,0.2-0.2,0.2c-0.1,0-0.2-0.1-0.3-0.2
		c0,0-0.1-0.1-0.1-0.2c0-0.1-0.1-0.1-0.2-0.1c-0.2,0-0.4,0.1-0.6,0.2c0.1,0.1,0.2,0.1,0.2,0.1c0.2,0.1,0.3,0.1,0.5,0.1
		c0.1,0,0.2-0.1,0.2,0.1c0,0-0.1-0.1-0.1-0.1c0,0,0,0,0,0c0,0-0.1,0.5-0.1,0.7c0.1,0,0.2,0.1,0.3,0.2c0.5,0.3,1,0.4,1.5,0.5
		c0.4,0.1,0.8,0,1.2-0.1C71.5,43.8,71.6,43.8,71.7,43.8z"/>
	<path class="st1" d="M53.7,54.3c0-0.1-0.1-0.2-0.1-0.2c0.1-0.1,0.3-0.2,0.3-0.2c-0.1,0,0,0,0-0.1c0-0.2,0-0.1,0-0.1
		c-1,0-0.7,0-0.9,0c0-1,0-0.4,0-0.4c-0.2,0-0.4-0.1-0.6-0.2c0-0.2,0.1-0.3,0.2-0.4c0.1-0.1,0.2-0.3,0.2-0.4c0-0.2-0.1-0.3-0.3-0.2
		c-0.1,0.1-0.2,0.1-0.3,0.3c-0.2,0.3-0.3,0.6-0.5,0.9c-0.1,0.3-0.3,0.5-0.5,0.7c0,0,0,0,0,0c0,0,0.1,0.1,0.1,0.1
		c-0.1,0.1-0.1,0.2-0.2,0.2c0,0.1-0.1,0.1,0,0.2c0,0,0.1,0.1,0.2,0.1c0.1,0,0.1,0,0.2,0c0.2-0.1,0.3-0.1,0.5,0
		c0.1,0.1,0.3,0.1,0.4,0c0.1,0,0.1,0,0.2,0c0.1,0,0.1,0,0.2,0.1c0,0.1,0,0.2,0,0.3c0.2,0,0.3-0.1,0.3-0.1c0.1-0.1,0.1-0.2,0.2-0.3
		c0,0.1,0.1,0.1,0.1,0.2c0,0.2,0.2,0.3,0.3,0.4c0,0,0.1,0,0.1,0c0.1,0,0.1-0.1,0.1-0.2c0.1-0.2,0-0.4-0.1-0.5
		C53.8,54.3,53.8,54.3,53.7,54.3z"/>
	<path class="st1" d="M81.2,36.5c0.1,0.1,0.2,0.1,0.4,0.1c0.1,0,0.1-0.1,0.2-0.2c0.1,0.1,0.3,0.2,0.4,0.3c0,0,0,0,0,0
		c-0.2,0-0.4,0-0.6,0.1c0.1,0.1,0.1,0.1,0.2,0.2c0.1,0,0.2,0,0.2,0.1c0.1,0,0.3,0.1,0.4,0.2c-0.2,0-0.3-0.1-0.5-0.1
		c0.2,0.3,0.8,0.7,1.1,0.8c0-0.1,0-0.2,0-0.3c0-0.1,0.1-0.1,0.2-0.2c0,0,0-0.1,0-0.2c0-0.2,0.2-0.3,0.4-0.1c0.1,0.1,0.3,0.3,0.4,0.4
		c0,0.1,0,0.1,0,0.2c0.2,0.1,0.5,0.1,0.6,0.4c0.1-0.1,0.3-0.1,0.4-0.2c-0.3,0-0.4-0.2-0.4-0.3c-0.1-0.1-0.1-0.2-0.2-0.2
		c-0.2-0.1-0.3-0.2-0.5-0.3c-0.3-0.2-0.5-0.3-0.8-0.5c0,0-0.1,0-0.1-0.1c-0.1-0.1-0.2-0.2-0.3-0.2c-0.1-0.3-0.5-0.5-0.7-0.4
		c0,0.1,0.1,0.2,0.1,0.3c-0.1,0-0.1-0.1-0.2-0.1c-0.1-0.1-0.1-0.1-0.2-0.2c-0.1-0.1-0.1,0-0.2,0.1c-0.1,0-0.1-0.1-0.1-0.1
		c0-0.1-0.1-0.1-0.1-0.1c-0.1,0-0.3-0.1-0.4-0.1c-0.1,0-0.2,0-0.3,0.1c0,0,0,0.1,0.1,0.1C80.7,36,80.9,36.3,81.2,36.5z"/>
	<path class="st1" d="M74.7,52c0.2,0.1,0.4,0.1,0.6-0.1c0.2-0.2,0.4-0.3,0.6-0.3c0.2,0,0.3-0.1,0.2-0.3C76,51.2,76,51,76,50.8
		c0-0.2,0-0.2,0.2-0.3c0.1,0,0.1-0.1,0.1-0.2c0-0.2-0.1-0.5-0.4-0.5c-0.3-0.1-0.5-0.1-0.8,0.1c-0.1,0.1-0.1,0.1-0.1,0.2
		c0,0,0,0.1,0.1,0.1c-0.1,0.1-0.3,0.1-0.4,0.1c-0.1,0-0.2,0.1-0.2,0.2c0,0.1,0.1,0.1,0.1,0.2c0,0.1,0.1,0.1,0.2,0.2
		c-0.1,0.1-0.1,0.2-0.2,0.3c-0.1,0.1-0.1,0.1-0.2,0.2C74.4,51.6,74.5,51.9,74.7,52z"/>
	<path class="st1" d="M40.8,39.2c0,0.1,0.1,0.2,0.1,0.3c0,0,0,0.1-0.1,0.1c-0.1,0.1-0.1,0.1-0.1,0.2c0,0.1,0.1,0.1,0.2,0.1
		c0.2,0,0.4,0,0.6-0.2c0.1-0.1,0.1-0.1,0.2-0.2c0,0,0,0,0,0c0,0,0,0,0,0c0,0.2,0.1,0.2,0.2,0.1c0,0,0.1,0,0.1-0.1
		c0.2-0.1,0.3-0.1,0.5-0.2c0.3-0.1,0.6-0.1,0.8-0.3c0.1,0,0.2,0,0.3,0c0.2-0.1,0.4-0.1,0.7-0.2c0.1,0,0.2-0.1,0.3-0.2
		c0,0,0.1-0.1,0-0.1c-0.1-0.1,0.1-0.1,0.1-0.2c-0.1-0.1-0.2-0.1-0.4-0.1c-0.4,0.1-0.8,0.2-1.2,0.5c-0.3,0.2-0.5,0.3-0.9,0.4
		c-0.2,0-0.3,0.1-0.3,0.1c0,0,0-0.1,0-0.1c0,0-0.3,0-0.4,0c0-0.1-0.1-0.1-0.2-0.2c-0.1,0-0.3,0.1-0.4,0.1c-0.1,0-0.2,0-0.3,0
		c-0.3-0.1-0.5,0-0.7,0.1c0,0-0.1,0.1-0.1,0.1C40.3,39.4,40.4,39.4,40.8,39.2z"/>
	<path class="st1" d="M43.9,69C43.9,69,43.8,69,43.9,69c-0.1-0.1-0.2-0.1-0.3-0.1c-0.3-0.1-0.6-0.2-0.8-0.5
		c-0.1-0.1-0.1-0.1-0.2-0.1c-0.3,0-0.6-0.2-0.8-0.3c-0.3-0.1-0.6-0.1-0.9-0.1c-0.3,0.1-0.6,0.4-0.7,0.7c0.1,0,0.2,0,0.2-0.1
		c0.1-0.1,0.2-0.2,0.3-0.2c0.2-0.1,0.3-0.1,0.4,0.2c0,0.2,0.1,0.2,0.2,0.2c0.2,0,0.4,0.1,0.6,0.1c0.1,0,0.2,0,0.2,0
		c0.1-0.1,0.3,0,0.3,0.1c0.1,0.2,0.3,0.2,0.5,0.3c0.1,0,0.1,0,0.2,0.1c0,0.1,0,0.2,0,0.2c0.3,0.1,0.6,0.2,0.8,0.2
		c0.1,0,0.3,0,0.3-0.2C44.3,69.2,44.1,69,43.9,69z"/>
	<path class="st1" d="M43.1,45.4c-0.1,0-0.2-0.1-0.3-0.1c-0.1,0-0.2-0.1-0.2-0.2c0-0.2-0.1-0.3-0.3-0.3c-0.1,0-0.2-0.1-0.4-0.1
		c-0.1,0-0.2,0-0.3-0.1c0,0-0.1-0.1-0.1-0.2c-0.2,0-0.3,0.2-0.3,0.3c-0.1,0.2-0.1,0.3-0.2,0.5c0,0.2-0.1,0.3-0.3,0.4
		c-0.1,0.1-0.1,0.1-0.2,0.2c0,0,0,0,0,0c0.1,0,0.4,0,0.4-0.1c0,0.1,0,0.2,0,0.3c0-0.1,0.4-0.2,0.6-0.3c0.1-0.1,0.3-0.2,0.4-0.4
		c0.2,0.1,0.3,0.3,0.6,0.2C42.7,45.7,42.9,45.7,43.1,45.4z"/>
	<path class="st1" d="M45.7,69.5c-0.2,0-0.4,0.1-0.6,0c0,0-0.1,0-0.2,0c-0.1,0.1,0,0.1,0,0.2c0.2,0.1,0.1,0.3,0.2,0.4
		c-0.2,0-0.3,0-0.5,0c-0.1,0-0.2,0-0.2,0.1c0,0,0,0.1,0,0.2c0,0,0,0,0.1,0.1c0,0,0.1-0.1,0.1-0.1c0.2,0,0.4,0,0.7,0
		c0.1,0,0.1,0.1,0.1,0.1c0.1,0.2,0.2,0.2,0.3,0c0.1-0.1,0.1-0.2,0.3-0.1c0.1,0,0.2,0,0.2-0.1c0.1-0.1,0.1-0.1,0.2-0.1
		c0.1,0,0.2,0,0.3,0c-0.2-0.2-0.4-0.4-0.7-0.6C46,69.5,45.8,69.5,45.7,69.5z"/>
	<path class="st1" d="M35.7,42.5C35.7,42.5,35.7,42.6,35.7,42.5c0.1,0,0.2,0,0.2,0c0,0,0-0.1,0-0.1C35.8,42.4,35.7,42.4,35.7,42.5
		L35.7,42.5L35.7,42.5C35.7,42.5,35.7,42.5,35.7,42.5C35.7,42.5,35.7,42.5,35.7,42.5z"/>
	<path class="st1" d="M35.9,42.5C35.9,42.5,35.9,42.5,35.9,42.5L35.9,42.5C35.9,42.5,35.9,42.5,35.9,42.5z"/>
	<path class="st1" d="M83.3,36.5c-0.1,0-0.1,0-0.1,0.1c0.1,0.1,0.1,0.2,0.2,0.2c0.3,0.1,0.6,0.2,0.8,0.4c0.2,0.1,0.4,0.1,0.6,0.1
		c0.1,0,0.2,0,0.3-0.1c-0.3-0.3-0.6-0.5-1-0.6c-0.1,0-0.2,0-0.2-0.1c0-0.1-0.1-0.1-0.2-0.1c-0.1,0.1-0.2,0-0.3,0
		c-0.1-0.1-0.2-0.1-0.3-0.2C83.1,36,83,35.9,82.8,36c0,0-0.1,0-0.1,0c-0.1,0-0.2,0-0.3-0.1C82.6,36.3,82.9,36.4,83.3,36.5z"/>
	<path class="st1" d="M39,41.4c0-0.1,0.1-0.1,0.2-0.2c-0.1,0-0.1,0-0.1,0c-0.2,0.1-0.4,0.1-0.6,0.2c-0.2,0.1-0.3,0.3-0.4,0.3
		c0.1,0,0.1,0,0.2,0c-0.1,0.5-0.1,0.4-0.3,0.3c-0.1,0.2-0.1,0.3,0.1,0.3c0.2,0,0.3,0.1,0.3,0.3c0.1-0.1,0.1-0.1,0.2-0.1
		c0.1-0.1,0.1-0.1,0.2-0.2c0.2-0.1,0.3-0.3,0.4-0.6c0,0-0.1,0-0.1,0C39.1,41.5,39,41.5,39,41.4z"/>
	<path class="st1" d="M41.1,40.3C41.1,40.3,41.1,40.3,41.1,40.3c-0.3,0-0.6,0.1-0.8,0.1c-0.2,0-0.3,0.2-0.4,0.3
		c-0.1,0.1-0.1,0.2-0.2,0.2c0,0-0.1,0.1-0.1,0.1c-0.1,0.2,0,0.4-0.1,0.6c0.2,0,0.3-0.2,0.4-0.2c0,0,0.1-0.1,0-0.2
		c0-0.1,0-0.1,0.1-0.1c0.2,0,0.4-0.1,0.5-0.3c0.2-0.2,0.4-0.4,0.5-0.5C41.1,40.4,41.1,40.3,41.1,40.3z"/>
	<path class="st1" d="M54.2,40c-0.2,0-0.3,0.1-0.3,0.3c0,0.1,0,0.4,0.2,0.4c0,0,0.1,0,0.1,0c0.2,0,0.5-0.1,0.7-0.1
		c0.1,0,0.2-0.1,0.2-0.2c-0.2-0.2-0.4-0.3-0.6-0.4l0,0C54.3,40,54.2,40,54.2,40z"/>
	<path class="st1" d="M56.1,79.3c-0.1-0.1-0.3-0.1-0.4-0.2c-0.2-0.1-0.3,0-0.4,0.1c-0.1,0.1-0.1,0.3,0.1,0.4
		c0.1,0.1,0.2,0.1,0.3,0.2c0.3,0.1,0.4,0.1,0.6-0.2c0.1-0.1,0.1-0.2,0-0.3C56.2,79.2,56.1,79.3,56.1,79.3z"/>
	<path class="st1" d="M82.8,59.2c-0.1,0.2,0,0.3,0.1,0.4c0.1,0,0.2-0.1,0.3-0.2c0.1-0.2,0.1-0.7,0-0.9c-0.1-0.1-0.2-0.2-0.4,0
		c0,0-0.1,0.1-0.2,0.1C82.9,58.8,82.9,59,82.8,59.2z"/>
	<path class="st1" d="M84.3,60.3c0.2,0,0.4,0.2,0.5,0.3c0.1,0.1,0.2,0.2,0.4,0.2c0.1,0.1,0.2,0,0.2-0.1c0-0.2,0-0.3,0-0.4
		c0,0,0-0.1,0-0.2c-0.1,0-0.2,0-0.3,0.1c-0.1,0.1-0.3,0.1-0.4,0c-0.2-0.1-0.3-0.1-0.5,0C84.2,60.3,84.3,60.3,84.3,60.3z"/>
	<polygon class="st1" points="38.7,40.4 38.7,40.4 38.7,40.4 38.7,40.4 38.7,40.4 	"/>
	<path class="st1" d="M39.6,39.6C39.6,39.6,39.6,39.6,39.6,39.6c-0.2,0.2-0.4,0.2-0.7,0.3c0,0-0.1,0-0.1,0.1c0,0,0,0,0,0.1
		c0.1,0,0.1,0,0.1,0c0,0.2-0.2,0.1-0.2,0.2c0,0.1,0,0.1,0,0.1c0,0,0,0.1,0,0.1c0,0,0.1-0.1,0.2-0.1c-0.1,0.1-0.1,0.2-0.2,0.4
		c0.2-0.1,0.4-0.2,0.6-0.3c0,0,0,0,0-0.1c0.1-0.1,0.1-0.2,0.2-0.4C39.6,39.8,39.7,39.7,39.6,39.6z"/>
	<path class="st1" d="M38.1,43.5c-0.1,0.1-0.1,0.2-0.3,0.3c0,0,0,0-0.1,0.1c0.2,0,0.3,0,0.4,0c0.3,0,0.4-0.1,0.6-0.3
		c0,0,0-0.1-0.1-0.1C38.5,43.2,38.3,43.2,38.1,43.5z"/>
	<path class="st1" d="M39.2,39.2c0.1,0,0.1-0.1,0.2,0c0.2,0.1,0.2,0,0.3-0.1c0,0,0-0.1,0-0.1c-0.1-0.1,0-0.2-0.1-0.2
		c0,0-0.1,0-0.2,0.1c0,0-0.1,0.1-0.1,0c-0.1,0-0.1,0-0.2,0.1c-0.1,0-0.1,0.1-0.2,0.1c-0.2,0-0.3,0.2-0.4,0.3c0.1,0,0.1,0,0.1,0
		c-0.1,0.1-0.1,0.1-0.1,0.2C38.8,39.4,39,39.3,39.2,39.2z"/>
	<path class="st1" d="M45.4,42.6c0-0.1,0-0.1-0.1-0.2c-0.2-0.1-0.4-0.1-0.6,0c-0.2,0.1-0.2,0.3-0.2,0.5c0.2,0,0.4,0,0.6-0.1
		C45.3,42.8,45.4,42.7,45.4,42.6z"/>
	<path class="st1" d="M40.2,39.8c-0.2,0.1-0.3,0.3-0.5,0.4c0,0,0,0,0,0.1c0.1,0,0.2,0,0.2,0c0.3,0,0.4-0.1,0.5-0.3
		c0.1-0.1,0-0.2-0.2-0.2C40.3,39.7,40.2,39.7,40.2,39.8z"/>
	<path class="st1" d="M50.4,55.3c0.1-0.2,0.1-0.2,0-0.4c-0.2,0.1-0.3,0.3-0.3,0.5c0,0.1,0,0.2,0.1,0.2c0.2,0.1,0.5,0,0.5-0.2
		c0,0,0,0,0-0.1C50.5,55.4,50.5,55.3,50.4,55.3z"/>
	<path class="st1" d="M48.8,53.3c0.2,0.2,0.5,0.4,0.8,0.4c0.1,0,0.2,0,0.3-0.1C49.5,53.4,49.2,53.1,48.8,53.3z"/>
	<path class="st1" d="M40.2,38.8c0.2-0.1,0.3-0.2,0.5-0.2c0.1-0.1,0.2-0.2,0.2-0.3c-0.1,0-0.2,0-0.3,0c-0.2,0-0.4,0.1-0.5,0.3
		C40.2,38.7,40.2,38.7,40.2,38.8z"/>
	<path class="st1" d="M36.7,40.9c0,0,0,0.1,0,0.1c0,0,0,0,0,0c0.4-0.3,0.6-0.6,0.9-1c-0.1,0-0.1,0.1-0.2,0.1
		C37,40.4,36.9,40.7,36.7,40.9z"/>
	<path class="st1" d="M83.1,57.5c-0.1,0.1-0.2,0.1-0.3,0.2c0.1,0.2,0.1,0.4,0.2,0.6C83.2,58,83.2,57.6,83.1,57.5z"/>
	<path class="st1" d="M42,46.1c-0.1,0.2-0.4,0.3-0.4,0.6c0.3-0.1,0.5-0.3,0.7-0.6C42.2,46,42.1,46.1,42,46.1z"/>
	<path class="st1" d="M43.5,70.2c-0.1,0-0.2-0.1-0.4-0.1c-0.1,0-0.2,0-0.2,0c0,0.1,0,0.2,0.1,0.2c0.1,0,0.1,0,0.2,0
		c0.1,0,0.2,0,0.4-0.1C43.5,70.3,43.5,70.2,43.5,70.2z"/>
	<path class="st1" d="M69.6,36.4c-0.1,0.1-0.1,0.2,0,0.2c0.1,0.1,0.4,0,0.5-0.1c-0.1,0-0.1,0-0.1,0c0,0-0.1-0.1-0.1-0.1
		C69.9,36.3,69.7,36.3,69.6,36.4z"/>
	<path class="st1" d="M30.6,56c-0.1-0.3-0.1-0.4-0.4-0.6c0,0.1,0,0.2,0,0.3c0.1,0.1,0.1,0.2,0.2,0.3C30.4,56,30.4,56.1,30.6,56z"/>
	<path class="st1" d="M47.5,70.3c0,0,0,0.1,0.1,0.1c0.2,0.1,0.3,0.1,0.6,0c-0.2-0.2-0.4-0.2-0.5-0.2C47.6,70.2,47.5,70.3,47.5,70.3z
		"/>
	<path class="st1" d="M41.9,51.9c0,0-0.1,0-0.1,0c-0.1,0.1-0.1,0.2,0,0.3c0.1,0.1,0.2,0.1,0.3,0.1c0-0.1,0-0.1,0-0.2
		C42.1,51.9,42,51.9,41.9,51.9z"/>
	<path class="st1" d="M42.9,46.4c-0.1,0.1,0,0.2,0.2,0.3c0.1-0.1,0.1-0.2,0.2-0.3C43.1,46.3,42.9,46.3,42.9,46.4z"/>
	<path class="st1" d="M38,40.6c0.1,0.1,0.3,0.1,0.4,0c0.1-0.1,0.2-0.1,0.3-0.2c-0.1,0-0.2,0-0.4,0C38.2,40.4,38.1,40.4,38,40.6z"/>
	<path class="st1" d="M91.5,61.9c0.1,0,0.2,0,0.3-0.2c0-0.1,0.1-0.2,0.1-0.3c-0.2,0-0.4,0.1-0.5,0.3C91.3,61.9,91.4,62,91.5,61.9z"
		/>
	<path class="st1" d="M92.8,45.5c-0.1-0.2-0.2-0.4-0.4-0.5c-0.1,0.1-0.1,0.2,0,0.3C92.5,45.5,92.6,45.5,92.8,45.5z"/>
	<path class="st1" d="M75.9,48.1C76,48,76,47.9,76,47.8c-0.1,0-0.2,0-0.3,0.1c-0.1,0-0.1,0.1-0.1,0.2C75.7,48.1,75.8,48.2,75.9,48.1
		z"/>
	<path class="st1" d="M41.2,38.4c-0.3,0.1-0.5,0.2-0.7,0.3C40.8,38.7,41.1,38.7,41.2,38.4z"/>
	<path class="st1" d="M50.1,74.4c0,0,0.1,0,0.1,0c0-0.1,0.2-0.2,0.1-0.3C50.1,74.1,50.1,74.1,50.1,74.4z"/>
	<path class="st1" d="M46,42.5c0-0.1-0.1-0.2-0.2-0.1c-0.1,0-0.2,0.1-0.2,0.2C45.7,42.6,45.8,42.6,46,42.5z"/>
	<path class="st1" d="M86,49c-0.2,0.1-0.2,0.1-0.2,0.4C86,49.4,85.9,49.2,86,49z"/>
	<path class="st1" d="M82.9,50.3c0,0.2,0.2,0.2,0.2,0.3C83.2,50.3,83.2,50.3,82.9,50.3z"/>
	<path class="st1" d="M87.1,49.1c0.1,0,0.1-0.1,0.1-0.2c0,0,0,0,0-0.1c-0.1,0-0.1,0.1-0.2,0.1C86.9,49.1,87,49.1,87.1,49.1z"/>
	<path class="st1" d="M80.6,59.3c0.1-0.1,0-0.2-0.1-0.2c-0.1,0-0.1,0.1-0.2,0.1C80.5,59.3,80.6,59.3,80.6,59.3z"/>
	<path class="st1" d="M80.4,36.1c0.1,0.2,0.3,0.3,0.4,0.4c0,0,0,0,0,0C80.7,36.3,80.6,36.2,80.4,36.1C80.4,36.1,80.4,36.1,80.4,36.1
		z"/>
	<path class="st1" d="M49.3,55.5c0.1,0,0.2,0,0.2-0.1c-0.2,0-0.3,0-0.4,0C49.1,55.4,49.2,55.5,49.3,55.5z"/>
	<path class="st1" d="M42.7,67.2C42.7,67.2,42.8,67.3,42.7,67.2c0.1,0,0.1,0,0.2,0c0-0.1,0-0.2-0.2-0.2
		C42.7,67.1,42.7,67.2,42.7,67.2z"/>
	<path class="st1" d="M44.3,42c-0.2,0.1-0.3,0.2-0.3,0.3C44.1,42.2,44.2,42.1,44.3,42z"/>
	<path class="st1" d="M38.2,40.1C38.3,40.1,38.3,40,38.2,40.1c0-0.1,0-0.1,0-0.1c-0.1-0.1-0.1,0-0.2,0c0,0,0,0.1,0,0.1
		C38.1,40.1,38.2,40.1,38.2,40.1z"/>
	<path class="st1" d="M40.5,37.9c-0.1,0.1-0.2,0.1-0.2,0.1c0,0,0,0,0,0.1C40.4,38.1,40.4,38,40.5,37.9z"/>
	<path class="st1" d="M42.5,66.7c0.1,0,0.2,0,0.3,0C42.6,65.7,42.6,65.7,42.5,66.7z"/>
	<path class="st1" d="M40.8,68.6C40.8,68.6,40.8,68.6,40.8,68.6c0.1,0.1,0.1,0.1,0.2,0c0.1-0.1,0-0.1,0-0.2
		C40.9,68.5,40.9,68.5,40.8,68.6z"/>
	<polygon class="st1" points="87.1,48.8 87.1,48.8 87.1,48.8 87.1,48.8 87.1,48.8 	"/>
	<path class="st1" d="M87.1,48.6c-0.1,0.1,0,0.2,0,0.2C87.3,48.7,87.3,48.7,87.1,48.6z"/>
	<path class="st1" d="M37.9,40.9c-0.1,0.1-0.2,0.1-0.3,0.2C37.9,41.1,37.9,41.1,37.9,40.9z"/>
	<path class="st1" d="M42.1,44.5c0-0.1,0-0.2-0.1-0.2c0,0-0.1,0-0.1,0.1C41.9,44.5,42,44.5,42.1,44.5z"/>
	<path class="st1" d="M43.8,45.6c0.1,0.1,0.2,0,0.2-0.1C43.8,45.4,43.8,45.4,43.8,45.6z"/>
	<path class="st1" d="M30,54.3c0,0.1,0,0.2,0,0.3C30,54.5,30,54.4,30,54.3z"/>
	<path class="st1" d="M49,55.4c-0.1-0.1-0.2-0.2-0.2-0.3C48.8,55.3,48.9,55.3,49,55.4z"/>
	<path class="st1" d="M49,55.4C49,55.4,49,55.4,49,55.4L49,55.4C49,55.4,49,55.4,49,55.4C49,55.4,49,55.4,49,55.4
		C49,55.4,49,55.4,49,55.4z"/>
	<path class="st1" d="M76.9,50.6c0.1,0,0.1-0.1,0-0.2c-0.1,0-0.1,0-0.1,0.1C76.8,50.5,76.9,50.6,76.9,50.6z"/>
	<path class="st1" d="M44.8,68.8c-0.1,0-0.1,0-0.2,0.1C44.8,69,44.8,69,44.8,68.8z"/>
	<path class="st1" d="M95.8,71C95.8,71,95.8,71,95.8,71c-0.1,0-0.2,0-0.1,0.1C95.7,71.1,95.8,71,95.8,71z"/>
	<path class="st1" d="M39.1,39.4c-0.1,0-0.1,0-0.2,0.1C39,39.4,39.1,39.4,39.1,39.4z"/>
	<path class="st1" d="M36.4,41.1C36.4,41.1,36.4,41.1,36.4,41.1c0.1,0,0.1-0.1,0.1-0.1c0,0,0,0,0,0C36.5,41,36.4,41.1,36.4,41.1z"/>
</g>
</svg>
