<?xml version="1.0" encoding="utf-8"?>
<!-- Generator: Adobe Illustrator 21.1.0, SVG Export Plug-In . SVG Version: 6.00 Build 0)  -->
<svg version="1.1" id="Layer_1" xmlns="http://www.w3.org/2000/svg" xmlns:xlink="http://www.w3.org/1999/xlink" x="0px" y="0px"
	 viewBox="0 0 126.1 126" style="enable-background:new 0 0 126.1 126;" xml:space="preserve">
<style type="text/css">
	.st0{fill:none;stroke:#FFFFFF;stroke-miterlimit:10;}
	.st1{fill:#FFFFFF;}
</style>
<g>
	<g>
		<path class="st0" d="M125.6,63c0,34.5-28,62.5-62.5,62.5c-34.5,0-62.5-28-62.5-62.5S28.5,0.5,63,0.5C97.6,0.5,125.6,28.5,125.6,63
			"/>
	</g>
</g>
<g>
	<path class="st1" d="M63.1,61.5c7.2,0,14.3,0,21.5,0c6.4,0,11.3,4,12.5,10.3c0.2,1.1,0.2,2.3,0.2,3.5c0,3.1,0,6.1,0,9.2
		c-0.1,6.6-5.6,12-12.2,12c-14.7,0-29.4,0-44.1,0c-6.5,0-12-5.5-12.2-12c-0.1-3.5,0-7,0-10.6c0-7.1,5.4-12.4,12.5-12.5
		c0.1,0,0.2,0,0.3,0C48.7,61.5,55.9,61.5,63.1,61.5z M64.5,65.9c0,7.9,0,15.7,0,23.7c1.3-0.6,2.9,0.9,3.7-1.1
		c0.2,0.2,0.5,0.4,0.7,0.5c2.5,1.7,5.2,0.4,5.5-2.6c0.1-1.2,0.1-2.4,0.1-3.6c0-2.6,0-5.3-0.2-7.9c-0.2-2.7-2.9-3.9-5.2-2.4
		c-0.3,0.2-0.6,0.4-1.1,0.7c0-1.4,0-2.5,0-3.7c0-1.2,0-2.3,0-3.5C66.8,65.9,65.7,65.9,64.5,65.9z M86.4,81.2c0-2.1,0.2-4-0.1-5.9
		c-0.2-1.1-1-2.3-1.9-2.9c-3.3-2.3-7.9-0.1-8.1,3.9c-0.2,3-0.2,6,0,8.9c0.2,3.3,2.6,5.1,5.8,4.7c3.3-0.5,4.8-2.7,4.2-6.2
		c-1.1,0-2.2,0-3.4,0c0,0.6,0,1.1-0.1,1.7c-0.1,0.9-0.5,1.5-1.5,1.5c-1,0-1.4-0.6-1.4-1.4c-0.1-1.4,0-2.7,0-4.2
		C82.1,81.2,84.2,81.2,86.4,81.2z M58.3,72.1c0,2.4,0,4.8,0,7.1c0,1.8,0,3.6,0,5.4c0,0.9-1,1.9-2,1.9c-1.2,0-0.9-1-0.9-1.7
		c0-3,0-6,0-9.1c0-1.2,0-2.4,0-3.6c-1.3,0-2.3,0-3.5,0c0,5.1,0,10.2,0,15.2c0,1.9,1.4,2.8,3.2,2.2c1.1-0.3,2-1,3.1-1.5
		c0.1,0.4,0.1,0.9,0.2,1.4c1.2,0,2.3,0,3.3,0c0-5.8,0-11.5,0-17.3C60.6,72.1,59.5,72.1,58.3,72.1z M46.4,89.4c0-6.8,0-13.4,0-20.1
		c1.4,0,2.7,0,3.9,0c0-1.2,0-2.3,0-3.3c-4,0-7.9,0-11.9,0c0,1.1,0,2.2,0,3.4c1.3,0,2.6,0,4,0c0,6.8,0,13.4,0,20
		C43.8,89.4,45,89.4,46.4,89.4z"/>
	<path class="st1" d="M49.3,39.8c0.9-3.4,1.8-6.8,2.7-10.2c1.4,0,2.8,0,4.3,0c-0.2,0.6-0.3,1-0.4,1.5c-1.4,4.2-2.8,8.4-4.2,12.6
		c-0.2,0.7-0.4,1.5-0.4,2.2c0,3.1,0,6.2,0,9.4c-1.4,0-2.8,0-4.4,0c0-0.6,0-1.3,0-1.9c0.5-5.6-0.5-11-2.6-16.3
		c-1-2.4-1.7-4.9-2.6-7.6c1.4,0,2.7-0.1,4,0c0.3,0,0.6,0.6,0.7,1c0.8,2.7,1.5,5.5,2.3,8.2c0.1,0.3,0.2,0.7,0.3,1
		C49.1,39.8,49.2,39.8,49.3,39.8z"/>
	<path class="st1" d="M68.1,45.8c0,1.8,0,3.5,0,5.3c0,2.2-1.3,4-3.5,4.5c-1.2,0.3-2.4,0.4-3.6,0.2c-2.6-0.4-4.1-2.3-4.2-5.1
		c-0.1-3.3-0.1-6.5,0-9.8c0-2.8,1.8-4.6,4.6-4.8c1.1-0.1,2.2-0.1,3.2,0.2c2.3,0.6,3.5,2.3,3.5,4.6C68.1,42.4,68.1,44.1,68.1,45.8
		C68.1,45.8,68.1,45.8,68.1,45.8z M60.8,45.8c0,1.6,0,3.2,0,4.8c0,1.4,0.5,1.9,1.6,2c1.2,0,1.8-0.5,1.8-1.9c0-3.3,0-6.6,0-9.9
		c0-1.2-0.7-1.7-1.7-1.7c-1.1,0-1.7,0.6-1.7,1.7C60.8,42.5,60.8,44.1,60.8,45.8z"/>
	<path class="st1" d="M78.6,36.4c1.4,0,2.5,0,3.8,0c0,6.3,0,12.5,0,18.9c-1.2,0-2.4,0-3.7,0c0-0.6-0.1-1.1-0.1-1.8
		c-0.5,0.4-0.9,0.8-1.4,1.1c-0.6,0.4-1.2,0.8-1.9,1c-2.1,0.6-3.8-0.2-3.8-2.3c-0.1-5.6,0-11.1,0-16.8c1.3,0,2.5,0,3.8,0
		c0,1.4,0,2.7,0,3.9c0,3.3,0,6.6,0,9.9c0,0.8-0.2,1.9,1.1,2c1,0,2.3-1.2,2.3-2.2c0-3,0-6,0-9.1C78.6,39.4,78.6,37.9,78.6,36.4z"/>
	<path d="M64.5,65.9c1.2,0,2.2,0,3.5,0c0,1.2,0,2.4,0,3.5c0,1.2,0,2.3,0,3.7c0.4-0.3,0.8-0.5,1.1-0.7c2.3-1.5,5-0.3,5.2,2.4
		c0.2,2.6,0.1,5.3,0.2,7.9c0,1.2,0,2.4-0.1,3.6c-0.3,3-2.9,4.2-5.5,2.6c-0.2-0.2-0.5-0.3-0.7-0.5c-0.8,2-2.4,0.5-3.7,1.1
		C64.5,81.6,64.5,73.8,64.5,65.9z M68,80.6c0,1.6,0,3.2,0,4.8c0,1.2,0.7,1.4,1.6,1.5c0.9,0,1.2-0.6,1.2-1.4c0-1.5,0-2.9,0-4.4
		c0-1.7,0-3.3,0-5c0-0.9-0.5-1.5-1.5-1.4c-0.9,0.1-1.3,0.5-1.3,1.5C68.1,77.6,68,79.1,68,80.6z"/>
	<path d="M86.4,81.2c-2.2,0-4.3,0-6.5,0c0,1.5-0.1,2.8,0,4.2c0,0.8,0.4,1.4,1.4,1.4c1,0,1.4-0.6,1.5-1.5c0.1-0.5,0.1-1.1,0.1-1.7
		c1.2,0,2.3,0,3.4,0c0.6,3.5-0.9,5.7-4.2,6.2c-3.2,0.5-5.6-1.3-5.8-4.7c-0.2-3-0.2-6,0-8.9c0.3-4,4.8-6.2,8.1-3.9
		c0.9,0.6,1.7,1.9,1.9,2.9C86.6,77.2,86.4,79.1,86.4,81.2z M82.9,78.4c-0.2-1.3,0.4-2.7-0.8-3.5c-0.4-0.2-1.5-0.1-1.6,0.1
		c-0.4,1-0.6,2.2-0.9,3.4C80.9,78.4,81.8,78.4,82.9,78.4z"/>
	<path d="M58.3,72.1c1.2,0,2.3,0,3.4,0c0,5.8,0,11.5,0,17.3c-1.1,0-2.1,0-3.3,0c-0.1-0.4-0.1-0.9-0.2-1.4c-1,0.5-2,1.2-3.1,1.5
		c-1.8,0.6-3.2-0.4-3.2-2.2c-0.1-5,0-10.1,0-15.2c1.1,0,2.2,0,3.5,0c0,1.2,0,2.4,0,3.6c0,3,0,6,0,9.1c0,0.7-0.3,1.7,0.9,1.7
		c0.9,0,1.9-1,2-1.9c0-1.8,0-3.6,0-5.4C58.3,76.8,58.3,74.5,58.3,72.1z"/>
	<path d="M46.4,89.4c-1.4,0-2.6,0-4,0c0-6.6,0-13.3,0-20c-1.4,0-2.7,0-4,0c0-1.2,0-2.3,0-3.4c4,0,7.9,0,11.9,0c0,1.1,0,2.1,0,3.3
		c-1.2,0-2.5,0-3.9,0C46.4,76,46.4,82.6,46.4,89.4z"/>
	<path class="st1" d="M68,80.6c0-1.5,0-3,0-4.5c0-1,0.4-1.4,1.3-1.5c1-0.1,1.5,0.5,1.5,1.4c0.1,1.7,0,3.3,0,5c0,1.5,0,2.9,0,4.4
		c0,0.8-0.3,1.4-1.2,1.4c-0.9,0-1.6-0.3-1.6-1.5C68.1,83.8,68,82.2,68,80.6z"/>
	<path class="st1" d="M82.9,78.4c-1.1,0-2,0-3.3,0c0.3-1.2,0.5-2.4,0.9-3.4c0.1-0.2,1.2-0.3,1.6-0.1C83.4,75.7,82.8,77.1,82.9,78.4z
		"/>
</g>
</svg>
